<svg width="77" height="77" viewBox="0 0 77 77" fill="none" xmlns="http://www.w3.org/2000/svg">
<g clip-path="url(#clip0)">
<path d="M39.1663 7.75134H38.2205V70.0264H39.1663V7.75134Z" fill="#C1C1C1"/>
<path d="M41.8558 4.93053C41.8558 6.66046 40.4384 8.06443 38.6919 8.06443C36.9455 8.06443 35.5281 6.66046 35.5281 4.93053C35.5281 3.2006 36.9455 1.79663 38.6919 1.79663C40.4384 1.79663 41.8558 3.2006 41.8558 4.93053Z" fill="#3CD9E5"/>
<path d="M25.4813 9.70444C25.5605 7.97536 24.2095 6.51011 22.4639 6.4317C20.7183 6.3533 19.2391 7.69143 19.1599 9.4205C19.0808 11.1496 20.4317 12.6148 22.1773 12.6932C23.9229 12.7716 25.4022 11.4335 25.4813 9.70444Z" fill="#3CD9E5"/>
<path d="M58.2177 9.75396C58.3262 8.02645 57.0004 6.53888 55.2564 6.4314C53.5123 6.32392 52.0106 7.63722 51.902 9.36473C51.7935 11.0922 53.1194 12.5798 54.8634 12.6873C56.6074 12.7948 58.1092 11.4815 58.2177 9.75396Z" fill="#3CD9E5"/>
<path d="M30.5063 1.94297C30.5063 3.01583 29.6279 3.88593 28.5448 3.88593C27.4617 3.88593 26.5833 3.01583 26.5833 1.94297C26.5833 0.8701 27.4617 0 28.5448 0C29.6279 0 30.5063 0.8701 30.5063 1.94297Z" fill="#C1C1C1"/>
<path d="M48.8392 3.88593C49.9225 3.88593 50.8008 3.01604 50.8008 1.94297C50.8008 0.869896 49.9225 0 48.8392 0C47.7559 0 46.8777 0.869896 46.8777 1.94297C46.8777 3.01604 47.7559 3.88593 48.8392 3.88593Z" fill="#C1C1C1"/>
<path d="M35.5281 72.0695C35.5281 70.3395 36.9455 68.9355 38.6919 68.9355C40.4384 68.9355 41.8558 70.3395 41.8558 72.0695C41.8558 73.7994 40.4384 75.2033 38.6919 75.2033C36.9455 75.2033 35.5281 73.7994 35.5281 72.0695Z" fill="#3CD9E5"/>
<path d="M55.0633 70.5731C56.8106 70.5731 58.2271 69.17 58.2271 67.4392C58.2271 65.7084 56.8106 64.3053 55.0633 64.3053C53.3159 64.3053 51.8994 65.7084 51.8994 67.4392C51.8994 69.17 53.3159 70.5731 55.0633 70.5731Z" fill="#3CD9E5"/>
<path d="M22.3208 70.5731C24.0682 70.5731 25.4847 69.17 25.4847 67.4392C25.4847 65.7084 24.0682 64.3053 22.3208 64.3053C20.5735 64.3053 19.157 65.7084 19.157 67.4392C19.157 69.17 20.5735 70.5731 22.3208 70.5731Z" fill="#3CD9E5"/>
<path d="M46.8777 75.0569C46.8777 73.984 47.7561 73.1139 48.8392 73.1139C49.9223 73.1139 50.8008 73.984 50.8008 75.0569C50.8008 76.1297 49.9223 76.9998 48.8392 76.9998C47.7561 76.9998 46.8777 76.1297 46.8777 75.0569Z" fill="#C1C1C1"/>
<path d="M26.5833 75.0569C26.5833 73.984 27.4617 73.1139 28.5448 73.1139C29.6279 73.1139 30.5063 73.984 30.5063 75.0569C30.5063 76.1297 29.6279 76.9998 28.5448 76.9998C27.4617 76.9998 26.5833 76.1297 26.5833 75.0569Z" fill="#C1C1C1"/>
<path d="M64.8839 30.3918C63.8008 30.3918 62.9224 29.5217 62.9224 28.4488C62.9224 27.376 63.8008 26.5059 64.8839 26.5059C65.967 26.5059 66.8454 27.376 66.8454 28.4488C66.8454 29.5217 65.967 30.3918 64.8839 30.3918Z" fill="#C1C1C1"/>
<path d="M65.124 50.4781C66.1992 50.347 66.9635 49.3773 66.8311 48.3123C66.6987 47.2473 65.7198 46.4902 64.6446 46.6213C63.5694 46.7525 62.8051 47.7221 62.9375 48.7872C63.0698 49.8522 64.0488 50.6092 65.124 50.4781Z" fill="#C1C1C1"/>
<path d="M12.5001 46.6082C13.5832 46.6082 14.4617 47.4783 14.4617 48.5511C14.4617 49.624 13.5832 50.4941 12.5001 50.4941C11.417 50.4941 10.5386 49.624 10.5386 48.5511C10.5386 47.4783 11.417 46.6082 12.5001 46.6082Z" fill="#C1C1C1"/>
<path d="M12.5001 26.5059C13.5832 26.5059 14.4617 27.376 14.4617 28.4488C14.4617 29.5217 13.5832 30.3918 12.5001 30.3918C11.417 30.3918 10.5386 29.5217 10.5386 28.4488C10.5386 27.376 11.417 26.5059 12.5001 26.5059Z" fill="#C1C1C1"/>
<path d="M23.8288 38.2871H10.3027V39.1675H23.8288V38.2871Z" fill="#3CD9E5"/>
<path d="M21.9373 61.0277H14.4021V60.1473H21.9373C23.8056 60.1473 25.5184 59.1335 26.4046 57.5011L29.8664 51.105L30.6489 51.5208L27.1871 57.9169C26.148 59.8368 24.1347 61.0277 21.9373 61.0277Z" fill="#C1C1C1"/>
<path d="M30.1179 26.3521L26.4047 19.5017C25.5159 17.8667 23.8057 16.8503 21.9374 16.8503H14.5732V15.97H21.94C24.1348 15.97 26.1456 17.1635 27.1898 19.0859L30.9004 25.9363L30.1179 26.3521Z" fill="#C1C1C1"/>
<path d="M10.321 21.6397C13.2361 21.6397 15.5993 19.2989 15.5993 16.4114C15.5993 13.5239 13.2361 11.1831 10.321 11.1831C7.40589 11.1831 5.04272 13.5239 5.04272 16.4114C5.04272 19.2989 7.40589 21.6397 10.321 21.6397Z" fill="#3CD9E5"/>
<path d="M13.0029 19.0679C11.5233 20.5335 9.12124 20.5335 7.64167 19.0679C6.16209 17.6024 6.16209 15.2231 7.64167 13.7575C9.12124 12.2919 11.5233 12.2919 13.0029 13.7575C14.4824 15.2231 14.4824 17.5998 13.0029 19.0679Z" fill="#25CBE1"/>
<path d="M6.06881 43.9312C8.98392 43.9312 11.3471 41.5904 11.3471 38.7029C11.3471 35.8154 8.98392 33.4746 6.06881 33.4746C3.1537 33.4746 0.790527 35.8154 0.790527 38.7029C0.790527 41.5904 3.1537 43.9312 6.06881 43.9312Z" fill="#3CD9E5"/>
<path d="M8.74822 41.357C7.26865 42.8226 4.8666 42.8226 3.38703 41.357C1.90745 39.8914 1.90745 37.5121 3.38703 36.0466C4.8666 34.581 7.26865 34.581 8.74822 36.0466C10.2304 37.5147 10.2304 39.8914 8.74822 41.357Z" fill="#25CBE1"/>
<path d="M10.321 65.8172C13.2361 65.8172 15.5993 63.4764 15.5993 60.5889C15.5993 57.7014 13.2361 55.3606 10.321 55.3606C7.40589 55.3606 5.04272 57.7014 5.04272 60.5889C5.04272 63.4764 7.40589 65.8172 10.321 65.8172Z" fill="#3CD9E5"/>
<path d="M13.0029 63.243C11.5233 64.7086 9.12124 64.7086 7.64167 63.243C6.16209 61.7774 6.16209 59.3981 7.64167 57.9325C9.12124 56.467 11.5233 56.467 13.0029 57.9325C14.4824 59.4007 14.4824 61.7774 13.0029 63.243Z" fill="#25CBE1"/>
<path d="M67.2806 38.2874H53.752V39.1677H67.2806V38.2874Z" fill="#3CD9E5"/>
<path d="M63.1789 61.0279H55.6411C53.4438 61.0279 51.433 59.8369 50.3913 57.9196L47.826 53.179L46.7092 51.1128L47.5514 50.774L48.6086 52.7632L51.1739 57.5038C52.0601 59.1362 53.7728 60.1475 55.6411 60.1475H63.1789V61.0279Z" fill="#C1C1C1"/>
<path d="M47.4632 26.3523L46.6807 25.9365L50.3913 19.086C51.4355 17.1636 53.4463 15.9701 55.641 15.9701H63.0078V16.8505H55.641C53.7728 16.8505 52.0626 17.8669 51.1738 19.5018L47.4632 26.3523Z" fill="#C1C1C1"/>
<path d="M70.9912 20.1101C68.9312 22.1506 65.5886 22.1506 63.526 20.1101C61.4634 18.0696 61.466 14.7586 63.526 12.7156C65.5886 10.6751 68.9286 10.6751 70.9912 12.7156C73.0512 14.7561 73.0512 18.0671 70.9912 20.1101Z" fill="#3CD9E5"/>
<path d="M69.9391 19.0679C68.4596 20.5335 66.0575 20.5335 64.5779 19.0679C63.0984 17.6024 63.0984 15.2231 64.5779 13.7575C66.0575 12.2919 68.4596 12.2919 69.9391 13.7575C71.4187 15.2231 71.4187 17.5998 69.9391 19.0679Z" fill="#25CBE1"/>
<path d="M71.5122 43.9315C74.4273 43.9315 76.7905 41.5907 76.7905 38.7032C76.7905 35.8156 74.4273 33.4749 71.5122 33.4749C68.5971 33.4749 66.2339 35.8156 66.2339 38.7032C66.2339 41.5907 68.5971 43.9315 71.5122 43.9315Z" fill="#3CD9E5"/>
<path d="M74.1916 41.3572C72.712 42.8228 70.31 42.8228 68.8304 41.3572C67.3508 39.8917 67.3508 37.5124 68.8304 36.0468C70.31 34.5812 72.712 34.5812 74.1916 36.0468C75.6712 37.5149 75.6712 39.8917 74.1916 41.3572Z" fill="#25CBE1"/>
<path d="M67.2575 65.8175C70.1726 65.8175 72.5358 63.4768 72.5358 60.5893C72.5358 57.7017 70.1726 55.361 67.2575 55.361C64.3424 55.361 61.9792 57.7017 61.9792 60.5893C61.9792 63.4768 64.3424 65.8175 67.2575 65.8175Z" fill="#3CD9E5"/>
<path d="M69.9394 63.2432C68.4598 64.7088 66.0578 64.7088 64.5782 63.2432C63.0986 61.7777 63.0986 59.3984 64.5782 57.9328C66.0578 56.4672 68.4598 56.4672 69.9394 57.9328C71.419 59.4009 71.419 61.7777 69.9394 63.2432Z" fill="#25CBE1"/>
<path d="M38.6921 59.8163C26.9513 59.8163 17.4001 50.3556 17.4001 38.726C17.4001 27.0965 26.9513 17.6357 38.6921 17.6357C50.4328 17.6357 59.984 27.0965 59.984 38.726C59.9866 50.3556 50.4328 59.8163 38.6921 59.8163ZM38.6921 19.435C27.9541 19.435 19.2166 28.0898 19.2166 38.726C19.2166 49.3623 27.9541 58.0171 38.6921 58.0171C49.43 58.0171 58.1676 49.3623 58.1676 38.726C58.1676 28.0898 49.43 19.435 38.6921 19.435Z" fill="#3CD9E5"/>
<path d="M38.6972 66.192C32.7686 66.192 27.112 64.3594 22.3416 60.8944L22.6007 60.5454L22.5981 60.1013H22.751L22.8676 60.186C27.4851 63.5407 32.9603 65.3117 38.6998 65.3117C44.4523 65.3117 49.9353 63.533 54.558 60.1655L55.084 60.8739C50.3032 64.3543 44.6389 66.192 38.6972 66.192Z" fill="#C1C1C1"/>
<path d="M54.0708 16.935C49.5517 13.7986 44.2345 12.1405 38.6971 12.1405C33.1727 12.1405 27.8737 13.7857 23.3702 16.9017L22.8623 16.1804C27.5161 12.9618 32.9913 11.2601 38.6971 11.2601C44.4185 11.2601 49.9119 12.9721 54.5812 16.2138L54.0708 16.935Z" fill="#C1C1C1"/>
<path d="M38.692 53.9793C47.1969 53.9793 54.0915 47.15 54.0915 38.7256C54.0915 30.3012 47.1969 23.4719 38.692 23.4719C30.1871 23.4719 23.2925 30.3012 23.2925 38.7256C23.2925 47.15 30.1871 53.9793 38.692 53.9793Z" fill="#3CD9E5"/>
<path d="M48.3701 48.3121C43.0244 53.6072 34.3568 53.6072 29.0112 48.3121C23.6655 43.0171 23.6655 34.4316 29.0112 29.1366C34.3568 23.8415 43.0244 23.8415 48.3701 29.1366C53.7157 34.4342 53.7157 43.0171 48.3701 48.3121Z" fill="#25CBE1"/>
<path d="M38.692 54.3725C29.9829 54.3725 22.896 47.3527 22.896 38.7261C22.896 30.0995 29.9829 23.0797 38.692 23.0797C47.401 23.0797 54.4879 30.0995 54.4879 38.7261C54.4879 47.3527 47.4036 54.3725 38.692 54.3725ZM38.692 24.4426C30.7422 24.4426 24.2719 30.849 24.2719 38.7261C24.2719 46.6032 30.7396 53.0096 38.692 53.0096C46.6444 53.0096 53.112 46.6032 53.112 38.7261C53.112 30.849 46.6444 24.4426 38.692 24.4426Z" fill="#3CD9E5"/>
<path d="M30.0893 41.0411L29.3405 43.4461H26.8762L30.0893 34.0726H33.2091L36.4689 43.4461H33.9087L33.0977 41.0411H30.0893ZM32.7583 39.4549L32.1027 37.4658C31.9161 36.9088 31.727 36.2132 31.5715 35.6588H31.5404C31.3849 36.2158 31.2294 36.9242 31.0558 37.4658L30.4314 39.4549H32.7583Z" fill="white"/>
<path d="M37.8733 34.1984C38.6066 34.088 39.6353 34.0033 41.0864 34.0033C42.553 34.0033 43.5973 34.2548 44.2995 34.7553C44.9706 35.2276 45.4241 36.0079 45.4241 36.9242C45.4241 37.843 45.082 38.6207 44.4575 39.1495C43.6465 39.8322 42.4442 40.1376 41.0397 40.1376C40.7288 40.1376 40.4464 40.1248 40.2287 40.0966V43.4486H37.8733V34.1984ZM40.2287 38.4539C40.4308 38.495 40.6822 38.5104 41.0242 38.5104C42.2887 38.5104 43.0687 37.9406 43.0687 36.9806C43.0687 36.1182 42.3975 35.6049 41.2108 35.6049C40.7262 35.6049 40.3997 35.646 40.2287 35.687V38.4539Z" fill="white"/>
<path d="M49.3213 34.0753V43.4488H46.9348V34.0753H49.3213Z" fill="white"/>
</g>
<defs>
<clipPath id="clip0">
<rect x="0.790527" width="76" height="77" fill="white"/>
</clipPath>
</defs>
</svg>
