<svg width="237" height="273" viewBox="0 0 237 273" fill="none" xmlns="http://www.w3.org/2000/svg">
<g clip-path="url(#clip0)">
<path d="M129.702 18.2919C136.069 26.3595 144.761 32.8873 155.363 36.719C170.119 42.0503 181.942 37.4993 199.536 43.8591C229.427 54.663 244.528 86.6793 233.278 115.386C226.457 132.799 211.489 144.941 194.104 149.422C194.093 149.532 166.912 154.484 156.983 179.826C152.646 190.882 153.604 200.057 149.246 211.189C136.174 244.542 97.4271 261.405 62.6948 248.851C27.9533 236.297 10.4022 199.089 23.4757 165.732C28.594 152.669 38.3106 146.861 44.5231 131.01C50.6459 115.39 47.6944 98.6485 38.2239 86.0729C38.2703 86.012 20.9901 65.5873 32.5902 35.9862C43.8375 7.28435 77.1799 -7.22933 107.079 3.57455C116.006 6.8013 123.58 11.9498 129.565 18.3127C129.609 18.3008 129.654 18.2963 129.702 18.2919Z" fill="#F8F8F8"/>
<path d="M37.2473 119.622C38.5319 107.871 30.5008 97.4282 19.3124 96.3001C8.12549 95.1735 1.49508 104.999 0.210475 116.752C-1.07413 128.504 3.47151 137.735 14.6599 138.862C25.8515 139.988 35.9627 131.375 37.2473 119.622Z" fill="#CAF7FF"/>
<path d="M73.5319 272.999C76.3131 263.835 78.6548 257.037 80.2071 254.194C99.6418 246.602 109.408 218.585 111.488 213.618C113.568 208.649 118.202 205.5 126.001 206.848C133.794 208.197 144.286 210.595 150.979 207.815C157.706 205.03 155.734 199.954 147.824 197.771C139.92 195.592 126.083 190.045 126.083 190.045L120.72 145.112C120.72 145.112 87.339 121.962 79.6716 128.474C79.6716 128.474 67.926 140.346 60.9722 156.598C55.7935 168.701 49.6878 184.405 49.16 188.837C47.8692 200.176 45.4455 213.287 38.2563 236.532C36.2165 243.128 29.6727 256.805 21.3584 272.999H73.5319Z" fill="url(#paint0_linear)"/>
<path d="M155.575 136.466C155.575 136.466 164.858 136.325 165.273 143.162C165.687 150.003 160.896 152.974 155.593 153.497L153.998 153.491L154.14 136.857L155.575 136.466Z" fill="url(#paint1_linear)"/>
<path d="M155.432 168.154C155.432 168.154 167.85 166.065 167.579 175.731C167.37 183.297 157.43 183.891 155.089 184.613L153.123 184.362L153.951 168.806L155.432 168.154Z" fill="url(#paint2_linear)"/>
<path opacity="0.2" d="M87.8993 246.43C86.2912 243.31 81.2426 241.821 81.0507 241.797L80.8108 241.87C80.8108 241.87 85.8161 244.334 87.3669 246.978C87.5635 247.32 87.842 247.962 88.1237 248.659C88.1918 248.519 88.2661 248.371 88.3311 248.25C88.4224 248.213 88.5091 248.168 88.5973 248.134C88.4193 247.577 88.1949 246.999 87.8993 246.43Z" fill="#25C3DD"/>
<path opacity="0.2" d="M75.7142 255.142C75.1137 256.86 72.5337 263.797 69.0776 272.998H73.145C75.9263 263.835 78.268 257.037 79.8203 254.194C91.5071 249.625 99.6945 237.675 104.819 227.79C100.408 233.522 90.967 245.15 84.9912 247.813C79.3746 250.319 73.4128 248.093 72.6327 247.78C73.2859 248.051 77.5034 250.025 75.7142 255.142Z" fill="#EDA470"/>
<path opacity="0.3" d="M125.972 196.161C124.411 195.555 123.435 195.166 123.435 195.166L123.196 193.153L81.5815 193.143L79.1439 192.18L73.7269 207.043C73.7269 207.043 48.77 233.61 67.9229 228.594C81.1064 225.141 84.5732 210.424 85.4539 201.583L125.972 196.161Z" fill="#CA7945"/>
<path d="M87.0743 42.5022C82.0303 42.5007 77.9242 46.4409 77.9196 51.2862L77.8577 188.125C77.8515 192.97 81.956 196.915 87.0016 196.915L146.725 196.939C151.77 196.945 155.875 193.006 155.878 188.158L155.938 51.3219C155.945 46.4736 151.843 42.5349 146.798 42.5304L87.0743 42.5022Z" fill="#EBEBEB"/>
<path d="M156.602 89.8526C156.599 90.4308 156.297 90.8975 155.927 90.896C155.556 90.9005 155.256 90.4278 155.259 89.8497L155.265 74.4858C155.262 73.9091 155.567 73.438 155.937 73.4395C156.308 73.4395 156.605 73.9091 156.608 74.4858L156.602 89.8526Z" fill="#EBEBEB"/>
<path d="M155.441 188.159C155.441 192.765 151.515 196.529 146.723 196.529L87.0016 196.499C82.2083 196.499 78.2879 192.731 78.291 188.124L78.3529 51.2876C78.3576 46.6845 82.2795 42.9197 87.0728 42.9242L146.796 42.948C151.591 42.951 155.511 46.7172 155.505 51.3218L155.441 188.159Z" fill="#3F3F3F"/>
<path d="M152.973 185.613L80.7751 185.573L80.8278 53.8381L153.024 53.8738L152.973 185.613Z" fill="#3F3F3F"/>
<path d="M152.973 185.594L153.024 53.8738L80.8279 53.8381V185.594H152.973Z" fill="#3B83D5"/>
<path d="M115.47 130.225C116.022 130.225 116.469 129.778 116.47 129.227L116.509 111.054C116.51 110.501 116.062 110.052 115.509 110.052L57.076 110.047C56.5237 110.047 56.0759 110.494 56.0759 111.047V129.225C56.0759 129.777 56.5236 130.225 57.0759 130.225H115.47Z" fill="#63A7F3"/>
<path d="M175.778 106.946C176.33 106.946 176.777 106.499 176.778 105.948L176.817 87.7749C176.818 87.2219 176.37 86.7729 175.817 86.7728L117.384 86.7675C116.832 86.7675 116.384 87.2152 116.384 87.7675V105.946C116.384 106.498 116.832 106.946 117.384 106.946H175.778Z" fill="#63A7F3"/>
<path d="M141.578 79.4617C144.519 79.4617 146.907 77.0839 146.918 74.1431C146.93 71.1856 144.536 68.7818 141.579 68.7817L91.8463 68.7793C88.8964 68.7792 86.5049 71.1705 86.5049 74.1205C86.5049 77.0703 88.8962 79.4617 91.8461 79.4617H141.578Z" fill="white"/>
<path d="M145.899 153.964C146.451 153.964 146.898 153.517 146.899 152.966L146.938 134.793C146.939 134.24 146.491 133.791 145.938 133.791L87.505 133.786C86.9527 133.786 86.5049 134.233 86.5049 134.786V152.964C86.5049 153.516 86.9526 153.964 87.5049 153.964H145.899Z" fill="#63A7F3"/>
<path d="M175.778 177.703C176.33 177.703 176.777 177.256 176.778 176.705L176.817 158.532C176.818 157.979 176.37 157.53 175.817 157.53L117.384 157.525C116.832 157.525 116.384 157.972 116.384 158.525V176.703C116.384 177.255 116.832 177.703 117.384 177.703H175.778Z" fill="#63A7F3"/>
<path d="M113.678 48.2883C113.251 48.2883 112.904 48.6213 112.904 49.0315C112.904 49.4417 113.251 49.7746 113.678 49.7746H123.932C124.359 49.7746 124.706 49.4417 124.706 49.0315C124.706 48.6213 124.359 48.2883 123.932 48.2883H113.678Z" fill="#666666"/>
<path d="M110.002 48.2883C109.575 48.2883 109.229 48.6213 109.229 49.0315C109.229 49.4417 109.575 49.7746 110.002 49.7746H110.728C111.155 49.7746 111.502 49.4417 111.502 49.0315C111.502 48.6213 111.155 48.2883 110.728 48.2883H110.002Z" fill="#666666"/>
<path d="M117.108 222.58C117.108 224.692 118.897 226.409 121.096 226.409C123.294 226.409 125.083 224.692 125.083 222.58C125.083 220.47 123.294 218.752 121.096 218.752C118.897 218.752 117.108 220.47 117.108 222.58ZM118.745 222.58C118.745 221.335 119.799 220.321 121.096 220.321C122.392 220.321 123.447 221.335 123.447 222.58C123.447 223.826 122.392 224.84 121.096 224.84C119.799 224.838 118.745 223.826 118.745 222.58Z" fill="#85E8F9"/>
<path d="M192.434 146.516C192.434 148.78 194.354 150.624 196.711 150.624C199.07 150.624 200.991 148.781 200.991 146.516C200.991 144.25 199.072 142.406 196.711 142.406C194.354 142.406 192.434 144.25 192.434 146.516ZM194.19 146.516C194.19 145.18 195.32 144.092 196.711 144.092C198.103 144.092 199.234 145.178 199.234 146.516C199.234 147.849 198.103 148.939 196.711 148.939C195.32 148.939 194.19 147.849 194.19 146.516Z" fill="#85E8F9"/>
<path d="M75.6663 30.9224H73.3679V28.7138C73.3679 28.2263 72.9547 27.8309 72.447 27.8309C71.9394 27.8309 71.5261 28.2263 71.5261 28.7138V30.9224H69.2278C68.7201 30.9224 68.3069 31.3178 68.3069 31.8068C68.3069 32.2943 68.7201 32.6911 69.2278 32.6911H71.5261V34.8983C71.5261 35.3858 71.9394 35.7826 72.447 35.7826C72.9547 35.7826 73.3679 35.3858 73.3679 34.8983V32.6911H75.6663C76.1755 32.6911 76.5872 32.2943 76.5872 31.8068C76.5872 31.3178 76.1755 30.9224 75.6663 30.9224Z" fill="#85E8F9"/>
<path d="M186.537 78.9892H184.453V76.9857C184.453 76.5442 184.079 76.186 183.618 76.186C183.156 76.186 182.785 76.5442 182.785 76.9857V78.9892H180.699C180.239 78.9892 179.866 79.3474 179.866 79.7903C179.866 80.2317 180.239 80.5914 180.699 80.5914H182.785V82.5935C182.785 83.0349 183.156 83.3946 183.618 83.3946C184.079 83.3946 184.453 83.0349 184.453 82.5935V80.5914H186.537C186.999 80.5914 187.372 80.2317 187.372 79.7903C187.372 79.3459 186.999 78.9892 186.537 78.9892Z" fill="#85E8F9"/>
<path d="M48.34 115.573L52.7989 108.156C52.946 107.911 52.946 107.606 52.7989 107.361C52.6519 107.116 52.3795 106.966 52.0854 106.966H43.1644C42.8719 106.966 42.5979 107.116 42.4509 107.361C42.2992 107.606 42.2992 107.911 42.4509 108.156L46.9083 115.573C47.0554 115.817 47.3293 115.97 47.6234 115.97C47.9205 115.97 48.1929 115.815 48.34 115.573ZM47.6234 113.587C46.8077 112.229 45.4132 109.91 44.5961 108.553C46.2304 108.553 49.0194 108.553 50.6507 108.553C49.8351 109.91 48.439 112.229 47.6234 113.587Z" fill="#85E8F9"/>
<path d="M104.005 17.2589C103.711 17.5413 103.711 17.9991 104.005 18.2815L108.427 22.5278C108.718 22.8102 109.196 22.8102 109.492 22.5278L113.912 18.2815C114.206 17.9991 114.206 17.5413 113.912 17.2589L109.492 13.0126C109.198 12.7302 108.719 12.7302 108.427 13.0126L104.005 17.2589ZM108.961 14.5479C109.671 15.2301 111.606 17.0865 112.316 17.7702C111.606 18.4539 109.671 20.3103 108.961 20.994C108.249 20.3118 106.316 18.4554 105.604 17.7702C106.316 17.0865 108.249 15.2301 108.961 14.5479Z" fill="#85E8F9"/>
<path d="M214.035 106.053C213.512 106.053 213.086 106.459 213.086 106.964C213.086 107.467 213.512 107.872 214.035 107.872H223.516C224.044 107.872 224.467 107.467 224.467 106.964C224.467 106.459 224.044 106.053 223.516 106.053H214.035Z" fill="#85E8F9"/>
<path d="M227.581 106.053C227.055 106.053 226.632 106.459 226.632 106.964C226.632 107.467 227.055 107.872 227.581 107.872H229.319C229.842 107.872 230.265 107.467 230.265 106.964C230.265 106.459 229.842 106.053 229.319 106.053H227.581Z" fill="#85E8F9"/>
<path d="M29.0816 33.7196C28.5584 33.7196 28.1328 34.1254 28.1328 34.6307C28.1328 35.1331 28.5584 35.5388 29.0816 35.5388H38.5629C39.0906 35.5388 39.5132 35.1331 39.5132 34.6307C39.5132 34.1254 39.0906 33.7196 38.5629 33.7196H29.0816Z" fill="#85E8F9"/>
<path d="M42.6272 33.7196C42.101 33.7196 41.6785 34.1254 41.6785 34.6307C41.6785 35.1331 42.101 35.5388 42.6272 35.5388H44.3653C44.8884 35.5388 45.311 35.1331 45.311 34.6307C45.311 34.1254 44.8884 33.7196 44.3653 33.7196H42.6272Z" fill="#85E8F9"/>
<path d="M33.211 143.707C32.6878 143.707 32.2622 144.113 32.2622 144.618C32.2622 145.121 32.6878 145.526 33.211 145.526H42.6907C43.22 145.526 43.6426 145.121 43.6426 144.618C43.6426 144.113 43.22 143.707 42.6907 143.707H33.211Z" fill="#85E8F9"/>
<path d="M46.7566 143.707C46.2304 143.707 45.8079 144.113 45.8079 144.618C45.8079 145.121 46.2304 145.526 46.7566 145.526H48.4947C49.0178 145.526 49.4403 145.121 49.4403 144.618C49.4403 144.113 49.0178 143.707 48.4947 143.707H46.7566Z" fill="#85E8F9"/>
<path d="M168.955 27.6139C169.478 27.6139 169.903 27.2081 169.903 26.7028C169.903 26.2004 169.478 25.7947 168.955 25.7947H159.472C158.945 25.7947 158.523 26.2004 158.523 26.7028C158.523 27.2081 158.945 27.6139 159.472 27.6139H168.955Z" fill="#85E8F9"/>
<path d="M155.409 27.6139C155.935 27.6139 156.358 27.2081 156.358 26.7028C156.358 26.2004 155.935 25.7947 155.409 25.7947H153.671C153.148 25.7947 152.725 26.2004 152.725 26.7028C152.725 27.2081 153.148 27.6139 153.671 27.6139H155.409Z" fill="#85E8F9"/>
<path opacity="0.2" d="M113.581 193.945C115.311 195.897 120.017 201.943 122.983 206.548C123.932 206.571 124.933 206.664 125.998 206.848C127.587 207.124 129.293 207.441 131.053 207.75C131.071 207.72 131.088 207.694 131.088 207.694L111.064 189.486C111.066 189.486 111.356 191.438 113.581 193.945Z" fill="black"/>
<path opacity="0.12" d="M150.978 207.815C157.704 205.03 155.733 199.954 147.822 197.771C147.369 197.646 146.89 197.506 146.401 197.362C146.44 198.41 146.607 200.365 145.793 200.076C144.874 199.751 141.706 196.937 141.706 196.937L133.701 194.874L129.832 197.847C129.832 197.847 133.275 205.03 134.764 208.359C140.582 209.232 146.595 209.636 150.978 207.815Z" fill="black"/>
<path opacity="0.25" d="M116.095 185.585C112.927 186.065 117.371 191.05 123.952 196.515L141.537 196.524C138.409 193.418 134.773 190.529 132.992 189.579C129.511 187.722 123.447 184.47 116.095 185.585ZM130.605 135.393C130.605 135.393 128.672 139.233 132.283 150.504C135.894 161.775 144.018 187.66 144.535 188.775C144.88 189.516 145.962 193.439 146.346 196.529H146.723C151.267 196.529 155.027 193.141 155.403 188.864C148.54 175.716 130.605 135.393 130.605 135.393Z" fill="black"/>
<path d="M130.813 213.246C130.813 213.246 118.097 196.017 112.22 191.046C106.342 186.072 119.426 180.698 132.282 190.754C140.854 197.461 144.504 202.943 151.255 209.116C153.648 211.301 172.324 218.648 179.201 230.624C189.268 248.151 182.604 261.972 174.477 255.734C159.226 244.028 145.521 238.264 130.813 213.246Z" fill="url(#paint3_linear)"/>
<path opacity="0.4" d="M121.966 194.818L120.285 193.245C116.78 189.595 112.878 189.938 111.587 190.179C111.796 190.435 112.031 190.686 112.33 190.933C114.246 192.513 116.845 195.421 119.484 198.633C121.129 197.313 121.966 194.818 121.966 194.818Z" fill="url(#paint4_linear)"/>
<path opacity="0.25" d="M125.136 205.707C125.321 205.944 125.499 206.173 125.684 206.408C125.741 206.365 125.8 206.314 125.857 206.273C127.067 205.457 131.477 203.517 131.477 203.517C131.477 203.517 128.135 203.902 125.136 205.707Z" fill="#25C3DD"/>
<path d="M231.205 272.997C231.205 272.997 214.498 240.169 212.964 231.449C211.797 224.811 213.321 214.043 212.688 200.247C212.178 189.177 209.752 174.3 209.752 174.3C209.064 170.233 205.074 167.474 200.839 168.137C197.234 168.701 194.636 171.572 194.367 174.921L192.922 166.413C192.234 162.347 188.244 159.588 184.009 160.251C180.371 160.82 177.752 163.738 177.523 167.127L176.582 161.572C175.893 157.506 171.905 154.747 167.668 155.41C163.437 156.072 160.561 159.903 161.252 163.97C161.252 163.97 161.485 174.456 161.524 175.674C161.555 176.637 161.292 175.651 160.668 174.335L146.225 137.108C144.88 133.218 140.989 128.336 135.502 130.207C131.345 131.531 128.564 136.207 131.178 141.9L148.68 191.318C148.625 191.371 148.59 191.408 148.59 191.408C148.59 191.408 152.985 205.753 146.901 204.812C140.819 203.871 171.606 249.977 176.997 258.255C179.75 262.486 184.487 272.999 184.487 272.999L231.205 272.997Z" fill="url(#paint5_linear)"/>
<path opacity="0.25" d="M179.451 162.681C178.337 163.898 177.637 165.453 177.524 167.128L180.202 185.231L179.451 162.681Z" fill="#CA7945"/>
<path opacity="0.25" d="M195.51 171.581C194.873 172.577 194.464 173.715 194.368 174.921L196.527 192.053L195.51 171.581Z" fill="#CA7945"/>
<path opacity="0.4" d="M144.238 138.727C145.293 141.57 143.427 143.475 140.498 144.474C137.567 145.474 134.691 145.196 133.637 142.35L132.227 138.272C131.172 135.427 132.687 132.304 135.617 131.307C138.545 130.304 141.771 131.799 142.826 134.647L144.238 138.727Z" fill="url(#paint6_linear)"/>
<path opacity="0.25" d="M166.469 188.262L161.233 161.944C161.154 162.605 161.136 163.282 161.253 163.971C161.253 163.971 161.487 174.457 161.526 175.676C161.533 175.918 161.523 176.036 161.493 176.058L166.469 188.262Z" fill="#CA7945"/>
<path opacity="0.25" d="M83.4003 150.008C84.6895 131.906 79.9442 127.594 78.3191 126.656L78.2913 188.124C78.2882 192.516 81.8541 196.138 86.3409 196.466C86.3858 194.053 84.0921 182.956 82.8199 178.246C81.4656 173.231 82.6264 171.187 83.4003 150.008Z" fill="black"/>
<path d="M61.3994 159.845C61.3994 159.845 68.2728 136.219 68.6396 127.487C69.0064 118.755 81.5305 124.65 81.4965 143.147C81.4733 155.482 81.0987 164.161 80.2413 174.525C79.9379 178.2 86.7092 199.754 80.4982 214.474C71.4054 236.025 52.7678 235.218 49.157 226.55C44.5138 215.405 48.6695 190.897 61.3994 159.845Z" fill="url(#paint7_linear)"/>
<path d="M72.2304 138.691L72.478 136.084C73.3416 130.377 70.1595 127.246 68.9879 126.306C68.9028 126.673 68.8409 127.064 68.827 127.502C68.7449 130.319 67.9154 134.697 66.8289 139.336C69.2742 139.794 72.2304 138.691 72.2304 138.691Z" fill="url(#paint8_linear)"/>
<path opacity="0.25" d="M64.3246 149.408C64.238 149.743 64.1528 150.065 64.0662 150.394C64.1497 150.412 64.2395 150.425 64.32 150.446C65.9745 150.896 71.0247 153.294 71.0247 153.294C71.0247 153.294 68.2156 150.684 64.3246 149.408Z" fill="#CA7945"/>
</g>
<defs>
<linearGradient id="paint0_linear" x1="111.698" y1="173.595" x2="61.8412" y2="263.408" gradientUnits="userSpaceOnUse">
<stop stop-color="#FEBD85"/>
<stop offset="1" stop-color="#F6A77E"/>
</linearGradient>
<linearGradient id="paint1_linear" x1="162.011" y1="138.031" x2="153.562" y2="153.25" gradientUnits="userSpaceOnUse">
<stop stop-color="#FEBD85"/>
<stop offset="1" stop-color="#F6A77E"/>
</linearGradient>
<linearGradient id="paint2_linear" x1="148.296" y1="193.911" x2="98.4392" y2="283.725" gradientUnits="userSpaceOnUse">
<stop stop-color="#FEBD85"/>
<stop offset="1" stop-color="#F6A77E"/>
</linearGradient>
<linearGradient id="paint3_linear" x1="130.516" y1="167.462" x2="170.41" y2="290.592" gradientUnits="userSpaceOnUse">
<stop stop-color="#FEBD85"/>
<stop offset="1" stop-color="#F6A77E"/>
</linearGradient>
<linearGradient id="paint4_linear" x1="114.945" y1="195.228" x2="117.914" y2="191.272" gradientUnits="userSpaceOnUse">
<stop stop-color="#FCD7F9"/>
<stop offset="1" stop-color="#FCEBF9"/>
</linearGradient>
<linearGradient id="paint5_linear" x1="166.312" y1="157.091" x2="207.708" y2="284.857" gradientUnits="userSpaceOnUse">
<stop stop-color="#FEBD85"/>
<stop offset="1" stop-color="#F6A77E"/>
</linearGradient>
<linearGradient id="paint6_linear" x1="132.668" y1="139.734" x2="143.258" y2="135.808" gradientUnits="userSpaceOnUse">
<stop stop-color="#FCD7F9"/>
<stop offset="1" stop-color="#FCEBF9"/>
</linearGradient>
<linearGradient id="paint7_linear" x1="82.5435" y1="157.411" x2="32.6865" y2="247.224" gradientUnits="userSpaceOnUse">
<stop stop-color="#FEBD85"/>
<stop offset="1" stop-color="#F6A77E"/>
</linearGradient>
<linearGradient id="paint8_linear" x1="66.7044" y1="132.91" x2="72.5996" y2="132.795" gradientUnits="userSpaceOnUse">
<stop stop-color="#FCD7F9"/>
<stop offset="1" stop-color="#FCEBF9"/>
</linearGradient>
<clipPath id="clip0">
<rect width="237" height="273" fill="white"/>
</clipPath>
</defs>
</svg>
