<svg width="245" height="278" viewBox="0 0 245 278" fill="none" xmlns="http://www.w3.org/2000/svg">
<g clip-path="url(#clip0)">
<path d="M133.835 200.77C148.359 209.549 148.278 223.771 133.656 232.378L100.758 251.746C86.136 260.353 62.015 260.689 47.1552 252.501L11.2267 232.692C-3.63305 224.497 -3.75961 210.865 10.9438 202.4L48.5027 180.759C63.2061 172.287 87.1113 172.541 101.636 181.313L133.835 200.77Z" fill="#ECF0F2"/>
<path d="M76.5844 258.319C67.7177 258.775 58.6723 257.474 51.2052 254.4C49.7981 253.817 48.4357 253.204 47.1552 252.493L11.2267 232.685C4.5562 229.006 0.878486 224.235 0.156343 219.322L0.0148926 234.898V235.287C0.0148926 235.504 0.0521164 235.706 0.0744508 235.915C0.119119 236.289 0.193567 236.843 0.297794 237.583C1.28795 242.219 4.91355 246.683 11.2267 250.168L47.1552 269.984C55.4189 274.538 66.5488 276.452 77.314 275.772V258.73L76.5844 258.319Z" fill="#9DA9C2"/>
<path d="M133.656 232.378L100.757 251.746C99.4472 252.516 98.055 253.204 96.6032 253.832C90.8782 256.352 84.1779 257.847 77.3213 258.289V275.764C85.9126 275.226 94.273 273.042 100.757 269.221L133.656 249.854C140.676 245.726 144.309 240.29 144.615 234.801V233.335V217.326C144.309 222.814 140.676 228.251 133.656 232.378Z" fill="#7B84A1"/>
<path d="M118.573 192.208C123.807 189.538 127.745 181.111 127.745 175.211L128.087 8.7265C128.087 8.7265 119.518 3.25279 116.496 1.04686C113.473 -1.15908 110.287 0.800093 110.287 0.800093L41.594 35.4819C36.3528 38.129 32.0498 45.1207 32.0498 51.0206V215.037C32.0498 215.037 31.6626 218.111 34.5512 220.115C37.4472 222.111 46.2767 229.133 46.2767 229.133L118.573 192.208Z" fill="#6B6B6B"/>
<path opacity="0.4" d="M46.9841 51.3422L34.194 43.2737C32.8763 45.7787 32.0573 48.4931 32.0573 51.0206V215.037C32.0573 215.037 31.6702 218.111 34.5588 220.115C37.4548 222.111 46.2843 229.133 46.2843 229.133L46.9841 51.3422Z" fill="#6B6B6B"/>
<path opacity="0.3" d="M38.9287 109.452C38.9287 110.237 38.3182 111.067 37.5663 111.291L36.7325 111.545C35.9806 111.77 35.3701 111.314 35.3701 110.528V85.4332C35.3701 84.648 35.9806 83.818 36.7325 83.5937L37.5663 83.3394C38.3182 83.1151 38.9287 83.5712 38.9287 84.3564V109.452Z" fill="#463B90"/>
<path d="M132.256 179.137C132.256 185.037 127.968 192.043 122.735 194.713L54.0193 229.679C48.7856 232.348 44.49 229.701 44.49 223.801V59.7845C44.49 53.8846 48.7856 46.8929 54.0342 44.2458L122.72 9.5715C127.961 6.92438 132.256 9.57898 132.256 15.4789V179.137Z" fill="#B9B9B9"/>
<path opacity="0.3" d="M91.6078 15.6285C92.2927 15.2471 93.3052 15.3892 93.8561 15.95L94.4741 16.5707C95.025 17.124 94.9207 17.8942 94.2358 18.2756L80.0089 26.2095C79.3239 26.5908 78.3115 26.4488 77.7605 25.8879L77.1501 25.2673C76.5992 24.7139 76.7034 23.9437 77.3883 23.5624L91.6078 15.6285Z" fill="#463B90"/>
<g opacity="0.3">
<path opacity="0.3" d="M38.9287 118.664C38.9287 119.449 38.3182 120.279 37.5663 120.504L36.7325 120.751C35.9806 120.975 35.3701 120.519 35.3701 119.734V117.371C35.3701 116.585 35.9806 115.755 36.7325 115.531L37.5663 115.284C38.3182 115.06 38.9287 115.516 38.9287 116.301V118.664Z" fill="#463B90"/>
</g>
<path d="M98.7847 194.234C98.7847 197.831 95.8812 202.28 92.2929 204.172C88.7045 206.064 85.801 204.673 85.801 201.069C85.801 197.465 88.7045 193.015 92.2929 191.131C95.8812 189.247 98.7847 190.638 98.7847 194.234Z" fill="#463B90"/>
<path d="M124.372 170.276L47.907 208.106V73.4838L124.372 35.6539V170.276Z" fill="#4A4A4A"/>
<path opacity="0.3" d="M124.372 35.6539V170.276L47.907 208.106L124.372 35.6539Z" fill="#463B90"/>
<path d="M245 216.092L165.356 265.37L142.597 249.876C132.494 242.997 126.442 231.526 126.427 219.262V218.971C126.427 212.532 124.834 206.311 121.915 200.8C118.744 194.833 114.024 189.703 108.098 186.046C104.323 183.721 100.028 183.833 96.6106 185.612L96.5659 185.635C96.0299 185.912 95.5162 186.233 95.0248 186.592C92.1884 188.671 90.2602 192.021 90.2528 196.066V201.734C90.2528 208.816 82.4879 213.123 76.5171 209.354H76.5097C70.7847 205.743 67.3005 199.416 67.3005 192.619V78.95C67.3005 73.3716 63.3995 69.199 58.6571 68.1147C53.9074 69.3261 49.2246 70.4104 49.2246 70.4104L126.784 31.4962L130.06 29.3875C130.447 29.1482 130.834 28.9314 131.236 28.7444C132.39 28.1986 133.574 27.8695 134.75 27.7424C140.922 27.0993 146.952 31.8701 146.952 38.8095V143.326C146.952 146.743 147.831 150.048 149.439 152.935L174.654 137.329C175.175 136.94 175.734 136.588 176.322 136.304L176.366 136.274C177.989 135.452 179.798 134.996 181.652 134.996C183.7 134.996 185.799 135.542 187.757 136.753C199.155 143.782 206.086 156.24 206.101 169.662V169.969C206.101 182.233 212.153 193.703 222.256 200.583L245 216.092Z" fill="#EBF6F7"/>
<path d="M159.385 163.62L163.815 160.884C162.638 162.207 161.09 163.164 159.385 163.62Z" fill="white"/>
<path d="M116.094 192.881L86.8283 210.835L86.7092 209.003C88.8161 207.403 90.2455 204.86 90.2455 201.824V196.156C90.2529 192.111 92.1886 188.761 95.0176 186.682C95.5089 186.323 96.0226 185.994 96.5587 185.725L96.6033 185.702C100.02 183.923 104.316 183.803 108.091 186.136C110.592 187.669 114.054 190.854 116.094 192.881Z" fill="#B2CFD1"/>
<path d="M245 216.084V218.283L165.348 267.509V265.363L245 216.084Z" fill="#BFD6D6"/>
<path d="M149.424 152.942L96.6031 185.612L96.5585 185.635C96.1639 185.837 95.7693 186.069 95.3897 186.33C95.2631 186.42 95.1365 186.502 95.0174 186.592C92.1884 188.671 90.2602 192.021 90.2379 196.074V201.742C90.2379 208.823 82.473 213.138 76.5097 209.362H76.5023C70.7698 205.743 67.2856 199.416 67.2856 192.619V78.95C67.2856 73.3791 63.3846 69.199 58.6497 68.1147C53.8925 69.3336 49.2097 70.4179 49.2097 70.4179L126.769 31.5037L130.045 29.395C130.44 29.1557 130.827 28.9388 131.221 28.7594C132.375 28.206 133.559 27.877 134.735 27.7499C140.907 27.1143 146.937 31.8776 146.937 38.8169V143.341C146.93 146.751 147.816 150.063 149.424 152.942Z" fill="#EBF6F7"/>
<path d="M147.31 152.314L96.5735 183.646C96.2906 182.846 96.0747 182.023 95.896 181.178L146.178 150.138C146.513 150.893 146.885 151.619 147.31 152.314Z" fill="#EBF6F7"/>
<path d="M46.8052 73.2818C48.3239 70.6347 52.1952 66.9557 58.6424 68.1147C63.3847 69.199 67.2857 73.3716 67.2857 78.95V192.619C67.2857 199.416 70.7699 205.743 76.4949 209.354H76.5024C82.4731 213.131 90.238 208.816 90.238 201.734V196.066C90.2454 192.021 92.1811 188.671 95.0101 186.592C95.5014 186.233 96.0151 185.904 96.5511 185.635L96.5958 185.612C100.013 183.833 104.309 183.713 108.083 186.046C114.009 189.703 118.729 194.833 121.901 200.8C124.819 206.311 126.412 212.532 126.412 218.971V219.262C126.42 231.526 132.48 242.997 142.582 249.876L165.341 265.37V267.509L141.771 251.611C141.771 251.611 133.924 244.993 131.713 241.86C129.375 238.547 126.65 232.79 125.787 228.333C124.923 223.876 124.916 218.5 124.685 215.426C124.454 212.353 122.868 206.363 120.479 201.495C116.63 193.666 111.061 189.643 107.301 187.273C104.837 185.717 99.7598 184.498 95.9928 187.482C95.9928 187.482 91.9949 190.166 91.7344 195.992C91.4738 201.817 92.6277 206.505 87.7068 210.199C82.3391 214.237 78.8921 212.615 76.3535 211.373C75.542 210.977 71.8941 208.816 68.8417 203.993C64.9928 197.906 65.6479 192.298 65.6479 192.298L65.4692 79.4285C65.4692 79.4285 66.0201 71.891 58.4414 69.6103C58.4414 69.6103 51.8527 68.1371 48.376 73.409" fill="#D1E4E5"/>
<path d="M101.398 84.9995L71.2464 103.627C70.7997 103.903 70.2339 103.582 70.2339 103.058V84.5882C70.2339 83.9451 70.5689 83.3394 71.1124 83.0029L101.606 64.1665C101.964 63.9496 102.418 64.2039 102.418 64.6226V83.1599C102.425 83.9077 102.038 84.6106 101.398 84.9995Z" fill="#3B83D5"/>
<path d="M144.272 64.1814L70.688 109.743C70.487 109.863 70.2339 109.721 70.2339 109.489V107.455C70.2339 107.268 70.3307 107.089 70.4945 106.992L144.108 61.4072C144.309 61.2801 144.577 61.4296 144.577 61.6689V63.6356C144.57 63.8599 144.458 64.0618 144.272 64.1814Z" fill="#B7E3E5"/>
<path d="M144.272 58.5806L104.919 82.8683C104.718 82.988 104.465 82.8459 104.465 82.6141V80.5801C104.465 80.3932 104.562 80.2137 104.726 80.1165L144.108 55.8138C144.309 55.6867 144.577 55.8363 144.577 56.0756V58.0422C144.57 58.2591 144.458 58.4684 144.272 58.5806Z" fill="#B7E3E5"/>
<path d="M144.272 52.6358L104.919 76.9235C104.718 77.0431 104.465 76.9011 104.465 76.6692V74.6353C104.465 74.4484 104.562 74.2689 104.726 74.1717L144.108 49.869C144.309 49.7419 144.577 49.8915 144.577 50.1307V52.0974C144.57 52.3217 144.458 52.5236 144.272 52.6358Z" fill="#B7E3E5"/>
<path d="M144.272 46.6985L104.919 70.9862C104.718 71.1058 104.465 70.9637 104.465 70.7319V68.698C104.465 68.511 104.562 68.3316 104.726 68.2344L144.108 43.9317C144.309 43.8046 144.577 43.9541 144.577 44.1934V46.1601C144.57 46.3769 144.458 46.5788 144.272 46.6985Z" fill="#B7E3E5"/>
<path d="M144.272 40.7537L104.919 65.0414C104.718 65.161 104.465 65.0189 104.465 64.7871V62.7532C104.465 62.5662 104.562 62.3868 104.726 62.2896L144.108 37.9869C144.309 37.8598 144.577 38.0093 144.577 38.2486V40.2153C144.57 40.4396 144.458 40.6415 144.272 40.7537Z" fill="#3B83D5"/>
<path d="M104.718 142.047L121.782 131.526C121.945 131.421 122.154 131.541 122.154 131.735V133.777C122.154 134.016 122.027 134.24 121.826 134.368L104.919 144.806C104.718 144.926 104.465 144.784 104.465 144.545V142.511C104.465 142.324 104.562 142.152 104.718 142.047Z" fill="#B7E3E5"/>
<path d="M144.57 118.006V119.973C144.57 120.197 144.451 120.399 144.272 120.511L124.983 132.416C124.774 132.543 124.514 132.393 124.514 132.154V130.202C124.514 129.971 124.633 129.754 124.834 129.634L144.101 117.752C144.309 117.61 144.57 117.767 144.57 118.006Z" fill="#B7E3E5"/>
<path d="M144.272 114.574L101.1 141.24C100.899 141.359 100.646 141.217 100.646 140.985V138.951C100.646 138.764 100.743 138.585 100.906 138.488L144.108 111.8C144.309 111.673 144.577 111.822 144.577 112.061V114.028C144.57 114.252 144.458 114.454 144.272 114.574Z" fill="#B7E3E5"/>
<path d="M144.272 108.629L104.919 132.917C104.718 133.036 104.465 132.894 104.465 132.663V130.629C104.465 130.442 104.562 130.262 104.726 130.165L144.108 105.862C144.309 105.735 144.577 105.885 144.577 106.124V108.091C144.57 108.308 144.458 108.517 144.272 108.629Z" fill="#B7E3E5"/>
<path d="M144.272 102.684L104.919 126.972C104.718 127.092 104.465 126.95 104.465 126.718V124.684C104.465 124.497 104.562 124.317 104.726 124.22L144.108 99.9176C144.309 99.7904 144.577 99.94 144.577 100.179V102.146C144.57 102.37 144.458 102.572 144.272 102.684Z" fill="#B7E3E5"/>
<path d="M144.272 143.401L104.919 167.688C104.718 167.808 104.465 167.666 104.465 167.434V165.4C104.465 165.213 104.562 165.034 104.726 164.937L144.108 140.634C144.309 140.507 144.577 140.656 144.577 140.896V142.862C144.57 143.079 144.458 143.288 144.272 143.401Z" fill="#B7E3E5"/>
<path d="M144.436 148.755L95.896 178.718C95.6578 178.875 95.5759 178.726 95.5461 178.621C95.5461 178.621 95.5461 178.621 95.5461 178.613C95.5164 178.157 95.5015 177.694 95.5015 177.23V176.46C95.5015 176.191 95.628 176.034 95.695 175.974C95.7248 175.951 95.7323 175.944 95.7323 175.944L144.22 146.01C144.406 145.891 144.637 146.018 144.652 146.242C144.697 146.773 144.771 147.304 144.853 147.827C144.912 148.194 144.749 148.56 144.436 148.755Z" fill="#FFDC79"/>
<path d="M145.873 153.204L97.0946 183.324C96.8266 183.489 96.4693 183.362 96.3799 183.063C96.231 182.584 96.1045 182.105 95.9928 181.612C95.9332 181.358 96.0524 181.088 96.2757 180.954L145.143 150.796C145.329 150.684 145.568 150.774 145.635 150.983C145.783 151.447 145.962 151.895 146.148 152.344C146.275 152.651 146.163 153.017 145.873 153.204Z" fill="#B7E3E5"/>
<path d="M144.272 137.456L104.919 161.744C104.718 161.863 104.465 161.721 104.465 161.489V159.455C104.465 159.268 104.562 159.089 104.726 158.992L144.108 134.689C144.309 134.562 144.577 134.712 144.577 134.951V136.917C144.57 137.142 144.458 137.344 144.272 137.456Z" fill="#B7E3E5"/>
<path d="M144.272 131.518L104.919 155.806C104.718 155.926 104.465 155.784 104.465 155.552V153.518C104.465 153.331 104.562 153.152 104.726 153.054L144.108 128.752C144.309 128.625 144.577 128.774 144.577 129.013V130.98C144.57 131.197 144.458 131.399 144.272 131.518Z" fill="#B7E3E5"/>
<path d="M104.718 147.11L127.976 132.76C128.11 132.678 128.281 132.775 128.281 132.932V135.198C128.281 135.347 128.206 135.482 128.08 135.564L104.919 149.861C104.718 149.989 104.465 149.839 104.465 149.607V147.573C104.465 147.386 104.562 147.207 104.718 147.11Z" fill="#B7E3E5"/>
<path d="M144.57 123.069V125.043C144.57 125.252 144.451 125.462 144.272 125.574L131.028 133.739C130.857 133.844 130.641 133.724 130.641 133.523V131.354C130.641 131.197 130.723 131.047 130.857 130.965L144.094 122.799C144.309 122.68 144.57 122.829 144.57 123.069Z" fill="#E83D83"/>
<path d="M98.5537 148.643L71.2835 165.52C71.0825 165.639 70.8293 165.497 70.8293 165.266V163.232C70.8293 163.045 70.9261 162.865 71.0899 162.768L98.3899 145.876C98.5909 145.749 98.8589 145.898 98.8589 146.137V148.104C98.8589 148.321 98.7398 148.523 98.5537 148.643Z" fill="#B7E3E5"/>
<path d="M98.5538 142.698L71.291 159.575C71.09 159.695 70.8369 159.553 70.8369 159.321V157.287C70.8369 157.1 70.9337 156.92 71.0975 156.823L98.3974 139.931C98.5984 139.804 98.8665 139.953 98.8665 140.193V142.159C98.859 142.384 98.7399 142.586 98.5538 142.698Z" fill="#C3D600"/>
<path d="M98.5537 137.456L71.2835 154.333C71.0825 154.453 70.8293 154.311 70.8293 154.079V144.492C70.8293 144.305 70.9261 144.126 71.0899 144.029L98.3899 127.137C98.5909 127.009 98.8589 127.159 98.8589 127.398V136.925C98.8589 137.142 98.7398 137.344 98.5537 137.456Z" fill="#C3D600"/>
<path d="M98.5539 171.532L75.021 186.114C74.82 186.233 74.5669 186.091 74.5669 185.859V183.825C74.5669 183.638 74.6637 183.459 74.8275 183.362L98.3902 168.758C98.5912 168.631 98.8592 168.78 98.8592 169.019V170.986C98.8592 171.21 98.7401 171.412 98.5539 171.532Z" fill="#B7E3E5"/>
<path d="M98.5537 165.587L71.2835 182.464C71.0825 182.584 70.8293 182.442 70.8293 182.21V180.176C70.8293 179.989 70.9261 179.81 71.0899 179.713L98.3899 162.82C98.5909 162.693 98.8589 162.843 98.8589 163.082V165.049C98.8589 165.273 98.7398 165.475 98.5537 165.587Z" fill="#B7E3E5"/>
<path d="M98.5537 159.65L71.2835 176.527C71.0825 176.647 70.8293 176.505 70.8293 176.273V174.239C70.8293 174.052 70.9261 173.872 71.0899 173.775L98.3899 156.883C98.5909 156.756 98.8589 156.905 98.8589 157.145V159.111C98.8589 159.328 98.7398 159.53 98.5537 159.65Z" fill="#B7E3E5"/>
<path d="M98.5537 153.705L71.2835 170.582C71.0825 170.702 70.8293 170.56 70.8293 170.328V168.294C70.8293 168.107 70.9261 167.928 71.0899 167.83L98.3899 150.938C98.5909 150.811 98.8589 150.961 98.8589 151.2V153.167C98.8589 153.383 98.7398 153.593 98.5537 153.705Z" fill="#B7E3E5"/>
<path d="M124.447 82.9132L70.688 116.234C70.487 116.354 70.2339 116.212 70.2339 115.98V113.946C70.2339 113.759 70.3307 113.579 70.4945 113.482L124.283 80.1464C124.484 80.0193 124.752 80.1689 124.752 80.4081V82.3748C124.752 82.5916 124.633 82.7935 124.447 82.9132Z" fill="#B7E3E5"/>
<path d="M70.4945 119.965L95.1218 104.718C95.2855 104.614 95.5014 104.733 95.5014 104.928V106.947C95.5014 107.201 95.3749 107.433 95.159 107.56L70.688 122.717C70.4945 122.837 70.2339 122.695 70.2339 122.455V120.422C70.2339 120.242 70.3307 120.07 70.4945 119.965Z" fill="#B7E3E5"/>
<path d="M144.57 74.6503V76.6169C144.57 76.8413 144.451 77.0432 144.272 77.1553L98.39 105.563C98.1592 105.705 97.854 105.541 97.854 105.264V103.417C97.854 103.17 97.9806 102.946 98.189 102.811L144.093 74.3886C144.309 74.2614 144.57 74.4035 144.57 74.6503Z" fill="#B7E3E5"/>
<path d="M144.272 83.6385L70.688 129.2C70.487 129.32 70.2339 129.178 70.2339 128.946V126.912C70.2339 126.725 70.3307 126.546 70.4945 126.449L144.108 80.8643C144.309 80.7372 144.577 80.8867 144.577 81.126V83.0927C144.57 83.3245 144.458 83.5264 144.272 83.6385Z" fill="#B7E3E5"/>
<path d="M70.4945 132.947L107.569 109.99C107.785 109.855 108.061 110.013 108.061 110.267V112.181C108.061 112.42 107.942 112.637 107.741 112.764L70.6955 135.699C70.5019 135.826 70.2414 135.676 70.2414 135.444V133.41C70.2339 133.216 70.3307 133.036 70.4945 132.947Z" fill="#B7E3E5"/>
<path d="M144.57 87.6167V89.5908C144.57 89.8002 144.451 90.0096 144.272 90.1217L111.031 110.708C110.771 110.872 110.428 110.678 110.428 110.371V108.637C110.428 108.375 110.562 108.128 110.786 107.994L144.101 87.3624C144.309 87.2353 144.57 87.3774 144.57 87.6167Z" fill="#B7E3E5"/>
<path d="M144.272 96.6124L70.688 142.174C70.487 142.294 70.2339 142.152 70.2339 141.92V139.886C70.2339 139.699 70.3307 139.52 70.4945 139.422L144.108 93.8382C144.309 93.711 144.577 93.8606 144.577 94.0999V96.0665C144.57 96.2983 144.458 96.5002 144.272 96.6124Z" fill="#B7E3E5"/>
<path d="M94.6901 186.846C92.0397 188.933 90.2604 192.178 90.2381 196.074V199.439C90.2381 199.581 90.1711 199.708 90.0445 199.79C88.6896 200.62 80.5971 205.593 79.1379 206.505C79.0039 206.58 78.8327 206.58 78.6912 206.498C77.0385 205.399 75.5868 204.083 74.3658 202.579C73.9042 202.026 73.4724 201.435 73.0853 200.837C73.0779 200.83 73.0779 200.815 73.063 200.807C70.636 196.747 70.5467 191.116 71.0976 190.78L91.3473 178.277C91.3473 178.277 91.6824 178.045 91.928 178.06C92.1663 178.075 92.4194 178.142 92.479 178.808C92.479 178.845 92.4864 178.875 92.4864 178.905V178.912C92.6651 181.717 93.4244 184.409 94.6901 186.846Z" fill="#FFDC79"/>
<path d="M90.2455 201.233V201.727C90.2455 202.191 90.2157 202.647 90.1487 203.08L83.0911 207.335C82.3392 207.784 81.4309 207.851 80.6194 207.522C80.4705 207.462 80.3291 207.403 80.1802 207.335L90.2455 201.233Z" fill="#B7E3E5"/>
<path d="M166.458 182.614L129.412 205.615C128.713 206.049 127.774 205.713 127.536 204.913C126.799 202.415 125.817 200.007 124.61 197.711C121.439 191.752 116.712 186.615 110.793 182.958C109.788 182.337 108.746 181.889 107.696 181.604C107.138 181.455 107.048 180.685 107.54 180.378L113.421 176.714L133.693 164.114L144.019 157.698C144.801 157.212 145.739 156.995 146.647 157.167C147.994 157.421 149.327 157.93 150.6 158.723C156.519 162.379 161.254 167.516 164.418 173.484C165.601 175.705 166.554 178.045 167.284 180.468C167.53 181.298 167.18 182.173 166.458 182.614Z" fill="#02F5D0"/>
<path d="M184.005 139.28L166.056 150.392L154.695 157.436C154.486 157.563 154.226 157.556 154.01 157.429C153.802 157.287 153.578 157.145 153.355 157.01C152.983 156.778 152.603 156.561 152.216 156.404C152.216 156.404 152.186 156.375 152.171 156.367C152.015 156.277 152.127 156.173 152.179 156.135C152.201 156.128 152.208 156.113 152.208 156.113L166.197 147.446L181.362 138.054C182.226 138.323 183.074 138.712 183.901 139.228C183.938 139.243 183.975 139.258 184.005 139.28Z" fill="#B7E3E5"/>
<path d="M188.077 142.197C188.263 142.354 188.241 142.645 188.032 142.772L165.936 156.449L159.102 160.682C158.849 160.839 158.521 160.816 158.298 160.614C158.03 160.383 157.755 160.151 157.472 159.926C157.099 159.62 157.129 159.044 157.539 158.79L166.07 153.511L186.015 141.157C186.253 141.008 186.566 141.015 186.797 141.187C187.221 141.509 187.653 141.845 188.077 142.197Z" fill="#B7E3E5"/>
<path d="M191.487 146.631L162.884 164.331C162.564 164.533 162.147 164.465 161.894 164.181C161.641 163.897 161.38 163.613 161.12 163.336C160.874 163.075 160.926 162.663 161.224 162.476L163.807 160.884L189.938 144.709C190.266 144.507 190.683 144.552 190.958 144.821C191.189 145.046 191.413 145.278 191.636 145.517C191.956 145.838 191.874 146.384 191.487 146.631Z" fill="#B7E3E5"/>
<path d="M194.912 150.482L166.048 168.369C165.691 168.593 165.222 168.488 164.984 168.137C164.797 167.86 164.604 167.584 164.403 167.314C164.187 167.015 164.261 166.597 164.582 166.402L193.363 148.583C193.705 148.373 194.16 148.448 194.398 148.77C194.629 149.076 194.859 149.39 195.075 149.704C195.261 149.951 195.18 150.318 194.912 150.482Z" fill="#B7E3E5"/>
<path d="M197.718 154.729C197.718 154.737 197.711 154.737 197.696 154.752L168.55 172.788C168.2 172.998 167.738 172.863 167.545 172.497C167.425 172.257 167.291 172.003 167.172 171.764C167.113 171.659 167.053 171.554 167.001 171.442C166.815 171.091 167.031 170.874 167.12 170.807C167.15 170.784 167.157 170.777 167.157 170.777L196.564 152.583C196.706 152.486 196.914 152.538 196.996 152.681C197.294 153.174 197.584 153.69 197.845 154.199C197.845 154.199 197.852 154.206 197.852 154.236C197.882 154.333 197.942 154.58 197.718 154.729Z" fill="#B7E3E5"/>
<path d="M199.84 159.411L170.076 177.836C169.934 177.925 169.756 177.858 169.704 177.694C169.51 177.088 169.294 176.497 169.063 175.899C169.004 175.757 169.063 175.592 169.19 175.51L198.842 157.137C198.999 157.04 199.2 157.107 199.274 157.272C199.52 157.855 199.743 158.446 199.959 159.037C200.019 159.179 199.959 159.336 199.84 159.411Z" fill="#B7E3E5"/>
<path d="M201.984 167.726C202.021 168.055 201.865 168.369 201.582 168.541L129.539 213.101C129.345 213.228 129.085 213.078 129.085 212.846V210.813C129.085 210.618 129.182 210.446 129.345 210.349L201.195 165.909C201.426 165.767 201.731 165.901 201.775 166.17C201.857 166.694 201.924 167.21 201.984 167.726Z" fill="#B7E3E5"/>
<path d="M202.319 174.867C202.334 175.114 202.215 175.353 202.006 175.488L129.539 220.309C129.494 220.347 129.435 220.354 129.375 220.354C129.219 220.347 129.085 220.227 129.085 220.055V218.021C129.085 217.924 129.115 217.827 129.159 217.752C129.196 217.677 129.263 217.61 129.345 217.557L201.701 172.803C201.939 172.661 202.23 172.826 202.237 173.102C202.252 173.7 202.282 174.284 202.319 174.867Z" fill="#B7E3E5"/>
<path d="M203.317 181.305C203.391 181.612 203.265 181.926 203.004 182.09L131.162 226.516C130.939 226.65 130.648 226.546 130.581 226.306C130.425 225.775 130.283 225.23 130.157 224.699C130.097 224.474 130.202 224.242 130.395 224.115L202.379 179.593C202.617 179.443 202.93 179.585 202.989 179.862C203.086 180.348 203.198 180.827 203.317 181.305Z" fill="#B7E3E5"/>
<path d="M205.275 187.13C205.423 187.474 205.304 187.871 204.984 188.065L133.388 232.356C133.194 232.475 132.941 232.401 132.852 232.199C132.614 231.735 132.398 231.249 132.189 230.778C132.085 230.524 132.182 230.24 132.413 230.09L204.121 185.732C204.366 185.583 204.686 185.687 204.791 185.956C204.947 186.353 205.111 186.742 205.275 187.13Z" fill="#B7E3E5"/>
<path d="M208.252 192.671C208.401 192.896 208.334 193.195 208.104 193.337L136.53 237.613C136.343 237.717 136.113 237.673 135.993 237.493C135.688 237.059 135.376 236.611 135.078 236.169C134.944 235.968 135.011 235.683 135.212 235.564L206.786 191.288C207.032 191.139 207.352 191.221 207.493 191.468C207.739 191.871 207.992 192.275 208.252 192.671Z" fill="#B7E3E5"/>
<path d="M212.012 197.525C212.198 197.734 212.161 198.055 211.923 198.198L140.572 242.339C140.401 242.436 140.185 242.413 140.044 242.279C139.656 241.89 139.277 241.494 138.897 241.09C138.711 240.888 138.763 240.566 138.994 240.424L210.285 196.328C210.546 196.164 210.881 196.223 211.082 196.455C211.379 196.822 211.692 197.173 212.012 197.525Z" fill="#B7E3E5"/>
<path d="M186.759 220.182C187.027 220.391 187.013 220.795 186.722 220.967L145.538 246.459C145.381 246.556 145.188 246.549 145.039 246.451C144.548 246.1 144.064 245.756 143.587 245.39C143.386 245.233 143.401 244.918 143.624 244.784L184.876 219.255C185.129 219.098 185.449 219.128 185.68 219.315C186.03 219.606 186.387 219.898 186.759 220.182Z" fill="#B7E3E5"/>
</g>
<defs>
<clipPath id="clip0">
<rect width="245" height="278" fill="white"/>
</clipPath>
</defs>
</svg>
