<svg width="43" height="143" viewBox="0 0 43 143" fill="none" xmlns="http://www.w3.org/2000/svg">
<path d="M9.29687 136.277L8.91937 135.688L8.15825 136.175L8.82056 136.79L9.29687 136.277ZM10.9375 137.801L10.4612 138.314L10.6626 138.501L10.9375 138.501L10.9375 137.801ZM15 137.801L15.7 137.801L15.7 137.101L15 137.101L15 137.801ZM15 140.73L15 141.43L15.7 141.43L15.7 140.73L15 140.73ZM0.78125 140.73L0.08125 140.73L0.08125 141.43L0.78125 141.43L0.78125 140.73ZM0.78125 137.801L0.78125 137.101L0.0812498 137.101L0.0812498 137.801L0.78125 137.801ZM7.22656 137.801L7.22656 138.501L9.3744 138.501L7.63903 137.235L7.22656 137.801ZM5.45898 136.512L5.03035 137.065L5.03835 137.071L5.04652 137.077L5.45898 136.512ZM0.78125 132.889L0.0812496 132.889L0.0812496 133.232L0.352612 133.442L0.78125 132.889ZM0.781249 129.285L1.21823 128.738L0.0812494 127.83L0.0812495 129.285L0.781249 129.285ZM7.09961 134.334L6.66263 134.881L7.05963 135.198L7.48422 134.919L7.09961 134.334ZM15 129.139L15.7 129.139L15.7 127.841L14.6154 128.554L15 129.139ZM15 132.625L15.3775 133.214L15.7 133.008L15.7 132.625L15 132.625ZM8.82056 136.79L10.4612 138.314L11.4138 137.288L9.77319 135.764L8.82056 136.79ZM10.9375 138.501L15 138.501L15 137.101L10.9375 137.101L10.9375 138.501ZM14.3 137.801L14.3 140.73L15.7 140.73L15.7 137.801L14.3 137.801ZM15 140.03L0.78125 140.03L0.78125 141.43L15 141.43L15 140.03ZM1.48125 140.73L1.48125 137.801L0.0812498 137.801L0.08125 140.73L1.48125 140.73ZM0.78125 138.501L7.22656 138.501L7.22656 137.101L0.78125 137.101L0.78125 138.501ZM7.63903 137.235L5.87145 135.946L5.04652 137.077L6.8141 138.366L7.63903 137.235ZM5.88762 135.958L1.20989 132.335L0.352612 133.442L5.03035 137.065L5.88762 135.958ZM1.48125 132.889L1.48125 129.285L0.0812495 129.285L0.0812496 132.889L1.48125 132.889ZM0.344272 129.832L6.66263 134.881L7.53659 133.787L1.21823 128.738L0.344272 129.832ZM7.48422 134.919L15.3846 129.724L14.6154 128.554L6.715 133.749L7.48422 134.919ZM14.3 129.139L14.3 132.625L15.7 132.625L15.7 129.139L14.3 129.139ZM14.6225 132.036L8.91937 135.688L9.67438 136.867L15.3775 133.214L14.6225 132.036ZM13.7695 127.4L14.2695 127.89L14.2711 127.889L13.7695 127.4ZM6.85547 128.24L7.16459 127.612L7.16265 127.611L6.85547 128.24ZM4.92187 126.502L5.52212 126.142L5.52121 126.14L4.92187 126.502ZM5.60547 120.516L6.07579 121.034L6.07781 121.032L5.60547 120.516ZM10.6348 119.266L11.3348 119.266L11.3348 118.566L10.6348 118.566L10.6348 119.266ZM10.6348 125.994L9.93476 125.994L9.93476 126.793L10.7264 126.688L10.6348 125.994ZM12.2949 125.174L12.8116 125.646L12.8149 125.643L12.2949 125.174ZM11.7383 120.877L11.272 120.355L10.6455 120.914L11.3088 121.43L11.7383 120.877ZM13.291 119.49L13.6949 118.919L13.2401 118.597L12.8247 118.968L13.291 119.49ZM14.6973 121.209L15.3334 120.917L15.3312 120.912L14.6973 121.209ZM7.08984 125.301L6.61283 125.813L6.61764 125.818L7.08984 125.301ZM8.71094 125.965L8.61464 126.658L9.41094 126.769L9.41094 125.965L8.71094 125.965ZM8.71094 122.039L9.41094 122.039L9.41094 121.339L8.71094 121.339L8.71094 122.039ZM8.48633 122.039L8.48633 121.339L8.47904 121.339L8.47175 121.339L8.48633 122.039ZM7.04101 122.547L7.52139 123.056L7.52619 123.051L7.04101 122.547ZM14.4953 123.611C14.4953 125.006 14.0735 126.084 13.2679 126.912L14.2711 127.889C15.3666 126.763 15.8953 125.316 15.8953 123.611L14.4953 123.611ZM13.2695 126.91C12.4725 127.724 11.3982 128.155 9.9707 128.155L9.9707 129.555C11.7072 129.555 13.1655 129.017 14.2695 127.89L13.2695 126.91ZM9.9707 128.155L9.69727 128.155L9.69727 129.555L9.9707 129.555L9.9707 128.155ZM9.69727 128.155C8.72792 128.155 7.88888 127.969 7.16459 127.612L6.54635 128.868C7.48872 129.332 8.54421 129.555 9.69727 129.555L9.69727 128.155ZM7.16265 127.611C6.43547 127.256 5.89674 126.766 5.52212 126.142L4.32163 126.862C4.84545 127.735 5.59578 128.404 6.54828 128.869L7.16265 127.611ZM5.52121 126.14C5.13735 125.504 4.93828 124.772 4.93828 123.924L3.53828 123.924C3.53828 125.003 3.79494 125.989 4.32254 126.864L5.52121 126.14ZM4.93828 123.924C4.93828 122.638 5.33637 121.705 6.07579 121.034L5.13515 119.997C4.05164 120.98 3.53828 122.319 3.53828 123.924L4.93828 123.924ZM6.07781 121.032C6.82034 120.353 7.9212 119.966 9.48242 119.966L9.48242 118.566C7.69729 118.566 6.21351 119.011 5.13313 119.999L6.07781 121.032ZM9.48242 119.966L10.6348 119.966L10.6348 118.566L9.48242 118.566L9.48242 119.966ZM9.93476 119.266L9.93476 125.994L11.3348 125.994L11.3348 119.266L9.93476 119.266ZM10.7264 126.688C11.5577 126.578 12.2695 126.239 12.8115 125.646L11.7783 124.701C11.487 125.02 11.092 125.228 10.5431 125.3L10.7264 126.688ZM12.8149 125.643C13.3626 125.035 13.6199 124.278 13.6199 123.426L12.2199 123.426C12.2199 123.98 12.0605 124.388 11.775 124.705L12.8149 125.643ZM13.6199 123.426C13.6199 122.145 13.1431 121.082 12.1677 120.324L11.3088 121.43C11.909 121.896 12.2199 122.532 12.2199 123.426L13.6199 123.426ZM12.2046 121.399L13.7573 120.012L12.8247 118.968L11.272 120.355L12.2046 121.399ZM12.8871 120.062C13.3782 120.409 13.7717 120.883 14.0634 121.506L15.3312 120.912C14.9458 120.089 14.4017 119.418 13.6949 118.919L12.8871 120.062ZM14.0612 121.501C14.3469 122.123 14.4953 122.823 14.4953 123.611L15.8953 123.611C15.8953 122.642 15.7117 121.74 15.3333 120.917L14.0612 121.501ZM5.82344 123.934C5.82344 124.669 6.08004 125.317 6.61285 125.813L7.56684 124.788C7.34444 124.581 7.22344 124.318 7.22344 123.934L5.82344 123.934ZM6.61764 125.818C7.1332 126.289 7.82397 126.548 8.61464 126.658L8.80723 125.271C8.19166 125.186 7.80169 125.003 7.56204 124.784L6.61764 125.818ZM9.41094 125.965L9.41094 122.039L8.01094 122.039L8.01094 125.965L9.41094 125.965ZM8.71094 121.339L8.48633 121.339L8.48633 122.739L8.71094 122.739L8.71094 121.339ZM8.47175 121.339C7.73037 121.355 7.05833 121.559 6.55584 122.042L7.52619 123.051C7.70079 122.884 7.99229 122.75 8.50091 122.739L8.47175 121.339ZM6.56066 122.038C6.04059 122.528 5.82344 123.196 5.82344 123.934L7.22344 123.934C7.22344 123.474 7.35134 123.216 7.52137 123.056L6.56066 122.038ZM4.43359 115.057L4.38332 114.358L3.73359 114.405L3.73359 115.057L4.43359 115.057ZM5.6543 114.969L5.70457 115.667L7.48715 115.539L6.09158 114.422L5.6543 114.969ZM5.22461 109.432L4.777 108.893L5.22461 109.432ZM8.17383 108.592L8.17383 107.892L8.16686 107.892L8.17383 108.592ZM15 108.592L15.7 108.592L15.7 107.892L15 107.892L15 108.592ZM15 111.414L15 112.114L15.7 112.114L15.7 111.414L15 111.414ZM6.94336 111.805L7.42615 112.312L7.43218 112.306L6.94336 111.805ZM7.54883 114.891L7.19467 115.494L7.35869 115.591L7.54883 115.591L7.54883 114.891ZM15 114.891L15.7 114.891L15.7 114.191L15 114.191L15 114.891ZM15 117.713L15 118.413L15.7 118.413L15.7 117.713L15 117.713ZM4.43359 117.713L3.73359 117.713L3.73359 118.413L4.43359 118.413L4.43359 117.713ZM4.48386 115.755L5.70457 115.667L5.60403 114.271L4.38332 114.358L4.48386 115.755ZM6.09158 114.422C5.32301 113.807 4.93828 113.001 4.93828 111.932L3.53828 111.932C3.53828 113.402 4.09756 114.62 5.21701 115.515L6.09158 114.422ZM4.93828 111.932C4.93828 110.951 5.22093 110.345 5.67221 109.97L4.777 108.893C3.91318 109.612 3.53828 110.673 3.53828 111.932L4.93828 111.932ZM5.67221 109.97C6.15517 109.568 6.95195 109.304 8.18079 109.292L8.16686 107.892C6.77852 107.906 5.60915 108.201 4.777 108.893L5.67221 109.97ZM8.17383 109.292L15 109.292L15 107.892L8.17383 107.892L8.17383 109.292ZM14.3 108.592L14.3 111.414L15.7 111.414L15.7 108.592L14.3 108.592ZM15 110.714L8.24219 110.714L8.24219 112.114L15 112.114L15 110.714ZM8.24219 110.714C7.56655 110.714 6.91229 110.857 6.45453 111.304L7.43218 112.306C7.50828 112.231 7.7199 112.114 8.24219 112.114L8.24219 110.714ZM6.4606 111.298C5.98415 111.752 5.8332 112.418 5.8332 113.104L7.2332 113.104C7.2332 112.578 7.35569 112.379 7.42612 112.312L6.4606 111.298ZM5.8332 113.104C5.8332 114.143 6.30023 114.97 7.19467 115.494L7.90298 114.287C7.44326 114.017 7.2332 113.653 7.2332 113.104L5.8332 113.104ZM7.54883 115.591L15 115.591L15 114.191L7.54883 114.191L7.54883 115.591ZM14.3 114.891L14.3 117.713L15.7 117.713L15.7 114.891L14.3 114.891ZM15 117.013L4.43359 117.013L4.43359 118.413L15 118.413L15 117.013ZM5.13359 117.713L5.13359 115.057L3.73359 115.057L3.73359 117.713L5.13359 117.713ZM15 100.32L15.3194 100.943L15.7 100.748L15.7 100.32L15 100.32ZM14.0527 100.604L13.9454 99.9118L12.4862 100.138L13.5852 101.124L14.0527 100.604ZM14.2969 105.848L14.8212 106.311L14.8234 106.309L14.2969 105.848ZM9.45312 105.623L8.88471 106.032L8.88624 106.034L9.45312 105.623ZM8.54492 102.02L7.84491 102.02L7.84493 102.022L8.54492 102.02ZM8.54492 100.721L9.24492 100.721L9.24492 100.021L8.54492 100.021L8.54492 100.721ZM6.76758 101.102L7.21924 101.636L7.22603 101.631L6.76758 101.102ZM6.66992 103.406L6.13213 103.854L6.13753 103.861L6.66992 103.406ZM7.60742 103.807L8.30742 103.807L8.30742 103.107L7.60742 103.107L7.60742 103.807ZM7.60742 106.629L7.60742 107.329L8.30742 107.329L8.30742 106.629L7.60742 106.629ZM4.6875 104.461L5.33186 104.187L5.32964 104.182L4.6875 104.461ZM5.22461 99.041L5.75451 99.4984L5.75863 99.4936L5.22461 99.041ZM12.5586 97.8887L12.5586 98.5887L12.5631 98.5887L12.5586 97.8887ZM14.834 97.4687L14.834 96.7687L14.6595 96.7687L14.5054 96.8507L14.834 97.4687ZM15 97.4687L15.7 97.4687L15.7 96.7687L15 96.7687L15 97.4687ZM12.7637 101.502L13.3852 101.18L13.3804 101.171L12.7637 101.502ZM12.0117 100.721L12.3451 100.105L12.1891 100.021L12.0117 100.021L12.0117 100.721ZM10.1953 100.721L10.1953 100.021L9.49531 100.021L9.49531 100.721L10.1953 100.721ZM11.6602 104.031L11.5951 104.728L11.6071 104.729L11.619 104.73L11.6602 104.031ZM11.8262 104.041L11.7851 104.74L11.8056 104.741L11.8262 104.741L11.8262 104.041ZM12.6953 103.67L12.1804 103.196L12.1804 103.196L12.6953 103.67ZM14.6806 99.6974C14.5115 99.7842 14.2725 99.861 13.9454 99.9118L14.1601 101.295C14.5882 101.229 14.9807 101.117 15.3194 100.943L14.6806 99.6974ZM13.5852 101.124C14.1879 101.665 14.4953 102.359 14.4953 103.27L15.8953 103.27C15.8953 101.992 15.441 100.909 14.5203 100.083L13.5852 101.124ZM14.4953 103.27C14.4953 104.16 14.242 104.848 13.7704 105.386L14.8234 106.309C15.5497 105.48 15.8953 104.449 15.8953 103.27L14.4953 103.27ZM13.7726 105.384C13.3077 105.909 12.7441 106.163 12.0312 106.163L12.0312 107.563C13.1413 107.563 14.0881 107.14 14.8212 106.311L13.7726 105.384ZM12.0312 106.163C11.1106 106.163 10.4732 105.838 10.02 105.212L8.88624 106.034C9.631 107.062 10.7123 107.563 12.0312 107.563L12.0312 106.163ZM10.0215 105.215C9.54174 104.547 9.25112 103.512 9.24491 102.017L7.84493 102.022C7.85174 103.665 8.16659 105.032 8.88471 106.032L10.0215 105.215ZM9.24492 102.02L9.24492 100.721L7.84492 100.721L7.84492 102.02L9.24492 102.02ZM8.54492 100.021L7.93945 100.021L7.93945 101.421L8.54492 101.421L8.54492 100.021ZM7.93945 100.021C7.32784 100.021 6.75973 100.182 6.30912 100.573L7.22603 101.631C7.36136 101.513 7.5745 101.421 7.93945 101.421L7.93945 100.021ZM6.31595 100.567C5.80889 100.995 5.62812 101.624 5.62812 102.283L7.02812 102.283C7.02812 101.861 7.14032 101.703 7.2192 101.636L6.31595 100.567ZM5.62812 102.283C5.62812 102.867 5.76885 103.418 6.13217 103.854L7.20768 102.958C7.11526 102.847 7.02812 102.65 7.02812 102.283L5.62812 102.283ZM6.13753 103.861C6.51679 104.305 7.03559 104.507 7.60742 104.507L7.60742 103.107C7.38498 103.107 7.27878 103.041 7.20232 102.952L6.13753 103.861ZM6.90742 103.807L6.90742 106.629L8.30742 106.629L8.30742 103.807L6.90742 103.807ZM7.60742 105.929C7.15087 105.929 6.72694 105.791 6.31908 105.496L5.49732 106.629C6.13113 107.089 6.84001 107.329 7.60742 107.329L7.60742 105.929ZM6.31908 105.496C5.91727 105.204 5.58342 104.78 5.33184 104.187L4.04316 104.734C4.37751 105.522 4.85746 106.165 5.49732 106.629L6.31908 105.496ZM5.32964 104.182C5.07339 103.592 4.93828 102.914 4.93828 102.137L3.53828 102.137C3.53828 103.078 3.70265 103.95 4.04536 104.74L5.32964 104.182ZM4.93828 102.137C4.93828 100.952 5.23567 100.099 5.75449 99.4984L4.69473 98.5836C3.89844 99.506 3.53828 100.717 3.53828 102.137L4.93828 102.137ZM5.75863 99.4936C6.2527 98.9106 6.95911 98.5887 7.97851 98.5887L7.97851 97.1887C6.62812 97.1887 5.4986 97.635 4.69058 98.5884L5.75863 99.4936ZM7.97851 98.5887L12.5586 98.5887L12.5586 97.1887L7.97851 97.1887L7.97851 98.5887ZM12.5631 98.5887C13.608 98.5819 14.5006 98.4388 15.1626 98.0868L14.5054 96.8507C14.1388 97.0456 13.5144 97.1824 12.554 97.1887L12.5631 98.5887ZM14.834 98.1687L15 98.1687L15 96.7687L14.834 96.7687L14.834 98.1687ZM14.3 97.4687L14.3 100.32L15.7 100.32L15.7 97.4687L14.3 97.4687ZM13.7371 102.654C13.7371 102.132 13.6217 101.636 13.3851 101.18L12.1422 101.824C12.2702 102.071 12.3371 102.344 12.3371 102.654L13.7371 102.654ZM13.3804 101.171C13.1351 100.714 12.7922 100.347 12.3451 100.105L11.6783 101.336C11.8563 101.433 12.0146 101.587 12.147 101.833L13.3804 101.171ZM12.0117 100.021L10.1953 100.021L10.1953 101.421L12.0117 101.421L12.0117 100.021ZM9.49531 100.721L9.49531 101.775L10.8953 101.775L10.8953 100.721L9.49531 100.721ZM9.49531 101.775C9.49531 102.546 9.62549 103.243 9.97444 103.78C10.3471 104.354 10.9166 104.665 11.5951 104.728L11.7252 103.334C11.4271 103.306 11.2642 103.196 11.1486 103.018C11.0093 102.803 10.8953 102.418 10.8953 101.775L9.49531 101.775ZM11.619 104.73L11.7851 104.74L11.8673 103.342L11.7013 103.332L11.619 104.73ZM11.8262 104.741C12.3634 104.741 12.8432 104.543 13.2102 104.144L12.1804 103.196C12.0917 103.292 11.9921 103.341 11.8262 103.341L11.8262 104.741ZM13.2102 104.144C13.5874 103.735 13.7371 103.209 13.7371 102.654L12.3371 102.654C12.3371 102.959 12.259 103.11 12.1804 103.196L13.2102 104.144ZM13.7305 87.3223L13.3087 87.8809L13.3093 87.8814L13.7305 87.3223ZM14.082 92.8984L13.6178 92.3745L12.2363 93.5984L14.082 93.5984L14.082 92.8984ZM19.0625 92.8984L19.7625 92.8984L19.7625 92.1984L19.0625 92.1984L19.0625 92.8984ZM19.0625 95.7207L19.0625 96.4207L19.7625 96.4207L19.7625 95.7207L19.0625 95.7207ZM4.43359 95.7207L3.73359 95.7207L3.73359 96.4207L4.43359 96.4207L4.43359 95.7207ZM4.43359 93.1035L4.36785 92.4066L3.73359 92.4664L3.73359 93.1035L4.43359 93.1035ZM5.46875 93.0059L5.53449 93.7028L7.20891 93.5448L5.91688 92.4681L5.46875 93.0059ZM5.68359 87.293L6.10359 87.853L5.68359 87.293ZM7.33398 89.5586L7.71397 90.1465L7.71898 90.1432L7.33398 89.5586ZM7.54883 92.8984L7.24062 93.5269L7.38643 93.5984L7.54883 93.5984L7.54883 92.8984ZM11.875 92.8984L11.875 93.5984L12.0389 93.5984L12.1857 93.5257L11.875 92.8984ZM9.81445 86.909C11.3386 86.909 12.481 87.256 13.3087 87.8809L14.1522 86.7636C13.0138 85.9041 11.5455 85.509 9.81445 85.509L9.81445 86.909ZM13.3093 87.8814C14.1046 88.4805 14.4953 89.2667 14.4953 90.3105L15.8953 90.3105C15.8953 88.8414 15.3094 87.6353 14.1517 86.7632L13.3093 87.8814ZM14.4953 90.3105C14.4953 91.1953 14.1976 91.8609 13.6178 92.3745L14.5462 93.4224C15.4509 92.6209 15.8953 91.5613 15.8953 90.3105L14.4953 90.3105ZM14.082 93.5984L19.0625 93.5984L19.0625 92.1984L14.082 92.1984L14.082 93.5984ZM18.3625 92.8984L18.3625 95.7207L19.7625 95.7207L19.7625 92.8984L18.3625 92.8984ZM19.0625 95.0207L4.43359 95.0207L4.43359 96.4207L19.0625 96.4207L19.0625 95.0207ZM5.13359 95.7207L5.13359 93.1035L3.73359 93.1035L3.73359 95.7207L5.13359 95.7207ZM4.49934 93.8004L5.53449 93.7028L5.403 92.309L4.36785 92.4066L4.49934 93.8004ZM5.91688 92.4681C5.26167 91.9221 4.93828 91.2299 4.93828 90.3301L3.53828 90.3301C3.53828 91.6308 4.0352 92.7224 5.02062 93.5436L5.91688 92.4681ZM4.93828 90.3301C4.93828 89.2276 5.33226 88.4315 6.10359 87.853L5.26359 86.733C4.10784 87.5998 3.53828 88.8284 3.53828 90.3301L4.93828 90.3301ZM6.10359 87.853C6.90554 87.2515 8.06689 86.909 9.66797 86.909L9.66797 85.509C7.88363 85.509 6.38873 85.8891 5.26359 86.733L6.10359 87.853ZM9.66797 86.909L9.81445 86.909L9.81445 85.509L9.66797 85.509L9.66797 86.909ZM9.60937 88.3312C8.55776 88.3312 7.64326 88.5168 6.94899 88.974L7.71898 90.1432C8.09241 89.8973 8.69484 89.7312 9.60937 89.7312L9.60937 88.3312ZM6.954 88.9707C6.21012 89.4515 5.8332 90.1834 5.8332 91.0723L7.2332 91.0723C7.2332 90.633 7.39013 90.3558 7.71396 90.1465L6.954 88.9707ZM5.8332 91.0723C5.8332 91.6024 5.93457 92.1002 6.17535 92.5331C6.41983 92.9727 6.785 93.3035 7.24062 93.5269L7.85703 92.2699C7.63557 92.1613 7.49293 92.0218 7.39886 91.8526C7.3011 91.6769 7.2332 91.4275 7.2332 91.0723L5.8332 91.0723ZM7.54883 93.5984L11.875 93.5984L11.875 92.1984L7.54883 92.1984L7.54883 93.5984ZM12.1857 93.5257C12.6465 93.2975 13.0179 92.9646 13.2678 92.5231C13.5148 92.0869 13.6199 91.5862 13.6199 91.0527L12.2199 91.0527C12.2199 91.4046 12.1509 91.6543 12.0495 91.8334C11.9512 92.007 11.8001 92.1543 11.5643 92.2712L12.1857 93.5257ZM13.6199 91.0527C13.6199 90.1475 13.2275 89.4096 12.4571 88.9392C11.7428 88.503 10.7613 88.3312 9.60937 88.3312L9.60937 89.7312C10.6644 89.7312 11.3383 89.8964 11.7275 90.134C12.0605 90.3374 12.2199 90.6103 12.2199 91.0527L13.6199 91.0527ZM15 78.3281L15.3194 78.951L15.7 78.7558L15.7 78.3281L15 78.3281ZM14.0527 78.6113L13.9454 77.9196L12.4862 78.146L13.5852 79.1323L14.0527 78.6113ZM14.2969 83.8555L14.8212 84.3193L14.8234 84.3168L14.2969 83.8555ZM9.45312 83.6309L8.88471 84.0394L8.88624 84.0415L9.45312 83.6309ZM8.54492 80.0273L7.84491 80.0273L7.84493 80.0302L8.54492 80.0273ZM8.54492 78.7285L9.24492 78.7285L9.24492 78.0285L8.54492 78.0285L8.54492 78.7285ZM6.76758 79.1094L7.21924 79.6442L7.22603 79.6384L6.76758 79.1094ZM6.66992 81.4141L6.13213 81.8622L6.13752 81.8685L6.66992 81.4141ZM7.60742 81.8145L8.30742 81.8145L8.30742 81.1145L7.60742 81.1145L7.60742 81.8145ZM7.60742 84.6367L7.60742 85.3367L8.30742 85.3367L8.30742 84.6367L7.60742 84.6367ZM4.6875 82.4687L5.33186 82.1952L5.32964 82.1901L4.6875 82.4687ZM5.22461 77.0488L5.75451 77.5063L5.75863 77.5014L5.22461 77.0488ZM12.5586 75.8965L12.5586 76.5965L12.5631 76.5965L12.5586 75.8965ZM14.834 75.4766L14.834 74.7766L14.6595 74.7766L14.5054 74.8585L14.834 75.4766ZM15 75.4766L15.7 75.4766L15.7 74.7766L15 74.7766L15 75.4766ZM12.7637 79.5098L13.3852 79.1875L13.3804 79.1786L12.7637 79.5098ZM12.0117 78.7285L12.3451 78.113L12.1891 78.0285L12.0117 78.0285L12.0117 78.7285ZM10.1953 78.7285L10.1953 78.0285L9.49531 78.0285L9.49531 78.7285L10.1953 78.7285ZM11.6602 82.0391L11.5951 82.736L11.6071 82.7371L11.619 82.7379L11.6602 82.0391ZM11.8262 82.0488L11.7851 82.7476L11.8056 82.7488L11.8262 82.7488L11.8262 82.0488ZM12.6953 81.6777L12.1804 81.2035L12.1804 81.2035L12.6953 81.6777ZM14.6806 77.7053C14.5115 77.792 14.2725 77.8688 13.9454 77.9196L14.1601 79.303C14.5882 79.2366 14.9807 79.1247 15.3194 78.951L14.6806 77.7053ZM13.5852 79.1323C14.1879 79.6732 14.4953 80.367 14.4953 81.2773L15.8953 81.2773C15.8953 80.0002 15.441 78.9167 14.5203 78.0904L13.5852 79.1323ZM14.4953 81.2773C14.4953 82.1679 14.242 82.8559 13.7704 83.3942L14.8234 84.3168C15.5497 83.4878 15.8953 82.4571 15.8953 81.2773L14.4953 81.2773ZM13.7726 83.3917C13.3077 83.9171 12.7441 84.1711 12.0312 84.1711L12.0312 85.5711C13.1413 85.5711 14.0881 85.148 14.8212 84.3193L13.7726 83.3917ZM12.0312 84.1711C11.1106 84.1711 10.4732 83.8458 10.02 83.2202L8.88624 84.0415C9.631 85.0696 10.7123 85.5711 12.0312 85.5711L12.0312 84.1711ZM10.0215 83.2223C9.54174 82.5548 9.25112 81.5201 9.24491 80.0244L7.84493 80.0302C7.85174 81.6726 8.16659 83.0403 8.88471 84.0394L10.0215 83.2223ZM9.24492 80.0273L9.24492 78.7285L7.84492 78.7285L7.84492 80.0273L9.24492 80.0273ZM8.54492 78.0285L7.93945 78.0285L7.93945 79.4285L8.54492 79.4285L8.54492 78.0285ZM7.93945 78.0285C7.32784 78.0285 6.75973 78.1899 6.30912 78.5804L7.22603 79.6384C7.36136 79.5211 7.5745 79.4285 7.93945 79.4285L7.93945 78.0285ZM6.31595 78.5746C5.80889 79.0027 5.62812 79.6323 5.62812 80.291L7.02812 80.291C7.02812 79.869 7.14032 79.7108 7.2192 79.6442L6.31595 78.5746ZM5.62812 80.291C5.62812 80.8748 5.76885 81.4262 6.13216 81.8622L7.20767 80.9659C7.11526 80.855 7.02812 80.6577 7.02812 80.291L5.62812 80.291ZM6.13752 81.8685C6.51678 82.3128 7.03559 82.5145 7.60742 82.5145L7.60742 81.1145C7.38498 81.1145 7.27878 81.0492 7.20231 80.9596L6.13752 81.8685ZM6.90742 81.8145L6.90742 84.6367L8.30742 84.6367L8.30742 81.8145L6.90742 81.8145ZM7.60742 83.9367C7.15087 83.9367 6.72694 83.7993 6.31908 83.5036L5.49732 84.637C6.13113 85.0965 6.84001 85.3367 7.60742 85.3367L7.60742 83.9367ZM6.31908 83.5036C5.91727 83.2123 5.58342 82.7878 5.33184 82.1952L4.04316 82.7423C4.37751 83.5299 4.85746 84.1731 5.49732 84.637L6.31908 83.5036ZM5.32964 82.1901C5.07339 81.5996 4.93828 80.9216 4.93828 80.1445L3.53828 80.1445C3.53828 81.0862 3.70265 81.9577 4.04536 82.7474L5.32964 82.1901ZM4.93828 80.1445C4.93828 78.9599 5.23567 78.1072 5.75448 77.5062L4.69473 76.5914C3.89844 77.5138 3.53828 78.7249 3.53828 80.1445L4.93828 80.1445ZM5.75863 77.5014C6.25269 76.9184 6.95911 76.5965 7.97851 76.5965L7.97851 75.1965C6.62812 75.1965 5.4986 75.6428 4.69058 76.5963L5.75863 77.5014ZM7.97851 76.5965L12.5586 76.5965L12.5586 75.1965L7.97851 75.1965L7.97851 76.5965ZM12.5631 76.5965C13.608 76.5897 14.5006 76.4466 15.1626 76.0946L14.5054 74.8585C14.1388 75.0534 13.5144 75.1903 12.554 75.1965L12.5631 76.5965ZM14.834 76.1766L15 76.1766L15 74.7766L14.834 74.7766L14.834 76.1766ZM14.3 75.4766L14.3 78.3281L15.7 78.3281L15.7 75.4766L14.3 75.4766ZM13.7371 80.6621C13.7371 80.1393 13.6217 79.6439 13.3851 79.1875L12.1422 79.832C12.2702 80.0788 12.3371 80.3516 12.3371 80.6621L13.7371 80.6621ZM13.3804 79.1786C13.1351 78.7219 12.7922 78.3552 12.3451 78.113L11.6783 79.344C11.8563 79.4404 12.0146 79.5945 12.147 79.841L13.3804 79.1786ZM12.0117 78.0285L10.1953 78.0285L10.1953 79.4285L12.0117 79.4285L12.0117 78.0285ZM9.49531 78.7285L9.49531 79.7832L10.8953 79.7832L10.8953 78.7285L9.49531 78.7285ZM9.49531 79.7832C9.49531 80.5534 9.62549 81.2506 9.97444 81.788C10.3471 82.3619 10.9166 82.6727 11.5951 82.736L11.7252 81.3421C11.4271 81.3143 11.2642 81.2035 11.1486 81.0255C11.0093 80.8109 10.8953 80.4257 10.8953 79.7832L9.49531 79.7832ZM11.619 82.7379L11.7851 82.7476L11.8673 81.35L11.7013 81.3403L11.619 82.7379ZM11.8262 82.7488C12.3634 82.7488 12.8432 82.5505 13.2102 82.152L12.1804 81.2035C12.0917 81.2998 11.9921 81.3488 11.8262 81.3488L11.8262 82.7488ZM13.2102 82.152C13.5874 81.7424 13.7371 81.217 13.7371 80.6621L12.3371 80.6621C12.3371 80.9666 12.259 81.1182 12.1804 81.2035L13.2102 82.152ZM35.0703 132.703L34.847 132.04L34.3703 132.2L34.3703 132.703L35.0703 132.703ZM35.0703 137.84L34.3703 137.84L34.3703 138.344L34.849 138.504L35.0703 137.84ZM38 138.816L38.7 138.816L38.7 138.312L38.2214 138.152L38 138.816ZM38 141.932L37.7558 142.588L38.7 142.939L38.7 141.932L38 141.932ZM23.7812 136.639L23.0812 136.639L23.0812 137.125L23.537 137.295L23.7812 136.639ZM23.7812 133.924L23.5359 133.268L23.0812 133.438L23.0812 133.924L23.7812 133.924ZM38 128.602L38.7 128.602L38.7 127.592L37.7546 127.946L38 128.602ZM38 131.717L38.2233 132.38L38.7 132.22L38.7 131.717L38 131.717ZM32.6973 137.049L32.4766 137.713L33.3973 138.019L33.3973 137.049L32.6973 137.049ZM32.6973 133.494L33.3973 133.494L33.3973 132.521L32.4744 132.831L32.6973 133.494ZM27.375 135.281L27.1522 134.618L25.1651 135.285L27.1544 135.946L27.375 135.281ZM34.3703 132.703L34.3703 137.84L35.7703 137.84L35.7703 132.703L34.3703 132.703ZM34.849 138.504L37.7786 139.48L38.2214 138.152L35.2917 137.176L34.849 138.504ZM37.3 138.816L37.3 141.932L38.7 141.932L38.7 138.816L37.3 138.816ZM38.2442 141.276L24.0255 135.983L23.537 137.295L37.7558 142.588L38.2442 141.276ZM24.4812 136.639L24.4812 133.924L23.0812 133.924L23.0812 136.639L24.4812 136.639ZM24.0266 134.579L38.2454 129.257L37.7546 127.946L23.5359 133.268L24.0266 134.579ZM37.3 128.602L37.3 131.717L38.7 131.717L38.7 128.602L37.3 128.602ZM37.7767 131.053L34.847 132.04L35.2937 133.367L38.2233 132.38L37.7767 131.053ZM33.3973 137.049L33.3973 133.494L31.9973 133.494L31.9973 137.049L33.3973 137.049ZM32.4744 132.831L27.1522 134.618L27.5978 135.945L32.9201 134.158L32.4744 132.831ZM27.1544 135.946L32.4766 137.713L32.9179 136.385L27.5956 134.617L27.1544 135.946ZM34.0059 124.002L34.2062 124.673L36.4575 124L34.2053 123.331L34.0059 124.002ZM27.4336 122.049L26.7336 122.049L26.7336 122.571L27.2342 122.72L27.4336 122.049ZM27.4336 119.021L27.6637 118.36L26.7336 118.037L26.7336 119.021L27.4336 119.021ZM39.6406 123.27L39.9123 122.624L39.8917 122.616L39.8707 122.608L39.6406 123.27ZM40.1973 123.504L40.4885 122.867L40.4788 122.863L40.4689 122.859L40.1973 123.504ZM42.082 127.879L42.082 128.579L42.6067 128.579L42.7539 128.075L42.082 127.879ZM39.9434 127.879L39.2435 127.863L39.2273 128.579L39.9434 128.579L39.9434 127.879ZM39.9531 127.449L40.6529 127.465L40.6531 127.457L40.6531 127.449L39.9531 127.449ZM39.709 126.258L39.1113 126.622L39.1154 126.629L39.709 126.258ZM38.8984 125.633L39.1565 124.982L39.1482 124.979L38.8984 125.633ZM38.0293 125.301L38.2791 124.647L38.04 124.556L37.7985 124.64L38.0293 125.301ZM27.4336 129.002L26.7336 129.002L26.7336 129.988L27.6644 129.663L27.4336 129.002ZM27.4336 125.965L27.2333 125.294L26.7336 125.443L26.7336 125.965L27.4336 125.965ZM34.2053 123.331L27.633 121.378L27.2342 122.72L33.8065 124.673L34.2053 123.331ZM28.1336 122.049L28.1336 119.021L26.7336 119.021L26.7336 122.049L28.1336 122.049ZM27.2035 119.683L39.4106 123.931L39.8707 122.608L27.6637 118.36L27.2035 119.683ZM39.369 123.915L39.9256 124.149L40.4689 122.859L39.9123 122.624L39.369 123.915ZM39.906 124.14C40.5029 124.414 40.9077 124.755 41.1664 125.145C41.4239 125.534 41.5676 126.018 41.5676 126.629L42.9676 126.629C42.9676 125.788 42.7662 125.025 42.3336 124.372C41.9022 123.721 41.2719 123.226 40.4885 122.867L39.906 124.14ZM41.5676 126.629C41.5676 126.968 41.5166 127.318 41.4101 127.683L42.7539 128.075C42.8949 127.593 42.9676 127.11 42.9676 126.629L41.5676 126.629ZM42.082 127.179L39.9434 127.179L39.9434 128.579L42.082 128.579L42.082 127.179ZM40.6432 127.895L40.6529 127.465L39.2533 127.433L39.2435 127.863L40.6432 127.895ZM40.6531 127.449C40.6531 126.869 40.5692 126.313 40.3026 125.887L39.1154 126.629C39.1743 126.723 39.2531 126.962 39.2531 127.449L40.6531 127.449ZM40.3066 125.893C40.0439 125.463 39.633 125.171 39.1565 124.982L38.6404 126.284C38.9191 126.394 39.0485 126.519 39.1113 126.622L40.3066 125.893ZM39.1482 124.979L38.2791 124.647L37.7795 125.955L38.6486 126.287L39.1482 124.979ZM37.7985 124.64L27.2028 128.341L27.6644 129.663L38.2601 125.962L37.7985 124.64ZM28.1336 129.002L28.1336 125.965L26.7336 125.965L26.7336 129.002L28.1336 129.002ZM27.6339 126.636L34.2062 124.673L33.8055 123.331L27.2333 125.294L27.6339 126.636ZM29.8164 117.898L29.5073 118.527L29.8164 117.898ZM27.9121 116.16L27.3091 116.516L27.3105 116.518L27.9121 116.16ZM28.5469 110.027L29.0491 110.515L29.0508 110.513L28.5469 110.027ZM32.1016 108.514L32.0826 107.814L32.0678 107.814L32.053 107.815L32.1016 108.514ZM32.8242 108.494L32.8242 107.794L32.8148 107.794L32.8053 107.794L32.8242 108.494ZM36.7305 109.852L37.2063 109.338L37.2046 109.337L36.7305 109.852ZM36.7305 117.146L37.2063 117.66L37.2081 117.658L36.7305 117.146ZM35.1289 115.115L35.5331 115.687L35.5364 115.684L35.1289 115.115ZM35.1387 111.893L35.5542 111.329L35.5508 111.327L35.1387 111.893ZM30.334 115.115L30.7382 114.544L30.7349 114.541L30.334 115.115ZM32.6191 117.804C31.6624 117.804 30.8364 117.62 30.1255 117.27L29.5073 118.527C30.437 118.984 31.4795 119.204 32.6191 119.204L32.6191 117.804ZM30.1255 117.27C29.4216 116.924 28.8907 116.436 28.5137 115.802L27.3105 116.518C27.8319 117.395 28.5706 118.066 29.5073 118.527L30.1255 117.27ZM28.5151 115.805C28.1375 115.164 27.9383 114.408 27.9383 113.514L26.5383 113.514C26.5383 114.624 26.7883 115.632 27.3092 116.516L28.5151 115.805ZM27.9383 113.514C27.9383 112.243 28.3214 111.264 29.0491 110.515L28.0447 109.54C27.0276 110.587 26.5383 111.933 26.5383 113.514L27.9383 113.514ZM29.0508 110.513C29.7804 109.756 30.7902 109.307 32.1501 109.212L32.053 107.815C30.4182 107.929 29.0581 108.488 28.0429 109.542L29.0508 110.513ZM32.1205 109.213L32.8431 109.194L32.8053 107.794L32.0826 107.814L32.1205 109.213ZM32.8242 109.194C34.3091 109.194 35.4289 109.605 36.2564 110.367L37.2046 109.337C36.0659 108.288 34.5815 107.794 32.8242 107.794L32.8242 109.194ZM36.2547 110.365C37.0671 111.118 37.4953 112.135 37.4953 113.494L38.8953 113.494C38.8953 111.807 38.347 110.395 37.2063 109.338L36.2547 110.365ZM37.4953 113.494C37.4953 114.854 37.0671 115.875 36.2528 116.635L37.2081 117.658C38.347 116.595 38.8953 115.182 38.8953 113.494L37.4953 113.494ZM36.2547 116.633C35.4389 117.389 34.2974 117.804 32.7461 117.804L32.7461 119.204C34.5542 119.204 36.0689 118.714 37.2063 117.66L36.2547 116.633ZM32.7461 117.804L32.6191 117.804L32.6191 119.204L32.7461 119.204L32.7461 117.804ZM32.8242 116.382C33.8993 116.382 34.8333 116.182 35.5331 115.687L34.7247 114.544C34.3568 114.804 33.7543 114.982 32.8242 114.982L32.8242 116.382ZM35.5364 115.684C36.2647 115.163 36.6199 114.401 36.6199 113.494L35.2199 113.494C35.2199 113.994 35.0478 114.312 34.7214 114.546L35.5364 115.684ZM36.6199 113.494C36.6199 112.603 36.2654 111.854 35.5542 111.329L34.7232 112.456C35.0536 112.7 35.2199 113.018 35.2199 113.494L36.6199 113.494ZM35.5508 111.327C34.8423 110.811 33.8192 110.616 32.6191 110.616L32.6191 112.016C33.7237 112.016 34.3803 112.206 34.7265 112.458L35.5508 111.327ZM32.6191 110.616C31.5573 110.616 30.6319 110.822 29.9284 111.322L30.7395 112.463C31.1168 112.195 31.7148 112.016 32.6191 112.016L32.6191 110.616ZM29.9284 111.322C29.1925 111.845 28.8234 112.604 28.8234 113.514L30.2234 113.514C30.2234 113.03 30.3947 112.708 30.7395 112.463L29.9284 111.322ZM28.8234 113.514C28.8234 114.42 29.1951 115.173 29.933 115.689L30.7349 114.541C30.3921 114.302 30.2234 113.988 30.2234 113.514L28.8234 113.514ZM29.9298 115.687C30.6401 116.189 31.6464 116.382 32.8242 116.382L32.8242 114.982C31.7495 114.982 31.0955 114.796 30.7382 114.544L29.9298 115.687ZM29.8164 106.59L29.5073 107.218L29.8164 106.59ZM27.9121 104.852L27.3091 105.207L27.3105 105.209L27.9121 104.852ZM28.5469 98.7187L29.0491 99.2064L29.0508 99.2046L28.5469 98.7187ZM32.1016 97.2051L32.0826 96.5053L32.0678 96.5057L32.053 96.5068L32.1016 97.2051ZM32.8242 97.1855L32.8242 96.4855L32.8148 96.4855L32.8053 96.4858L32.8242 97.1855ZM36.7305 98.543L37.2063 98.0295L37.2046 98.028L36.7305 98.543ZM36.7305 105.838L37.2063 106.351L37.2081 106.35L36.7305 105.838ZM35.1289 103.807L35.5331 104.378L35.5364 104.376L35.1289 103.807ZM35.1387 100.584L35.5542 100.021L35.5508 100.018L35.1387 100.584ZM30.334 103.807L30.7382 103.235L30.7349 103.233L30.334 103.807ZM32.6191 106.495C31.6624 106.495 30.8364 106.312 30.1255 105.962L29.5073 107.218C30.437 107.675 31.4795 107.895 32.6191 107.895L32.6191 106.495ZM30.1255 105.962C29.4216 105.615 28.8907 105.128 28.5137 104.494L27.3105 105.209C27.8319 106.086 28.5706 106.757 29.5073 107.218L30.1255 105.962ZM28.5151 104.496C28.1375 103.856 27.9383 103.1 27.9383 102.205L26.5383 102.205C26.5383 103.316 26.7883 104.324 27.3092 105.207L28.5151 104.496ZM27.9383 102.205C27.9383 100.934 28.3214 99.9558 29.0491 99.2064L28.0447 98.2311C27.0276 99.2785 26.5383 100.625 26.5383 102.205L27.9383 102.205ZM29.0508 99.2046C29.7804 98.4478 30.7902 97.998 32.1501 97.9034L32.053 96.5068C30.4182 96.6205 29.0581 97.1798 28.0429 98.2329L29.0508 99.2046ZM32.1205 97.9048L32.8431 97.8853L32.8053 96.4858L32.0826 96.5053L32.1205 97.9048ZM32.8242 97.8855C34.3091 97.8855 35.4289 98.2963 36.2564 99.058L37.2046 98.028C36.0659 96.9798 34.5815 96.4855 32.8242 96.4855L32.8242 97.8855ZM36.2547 99.0564C37.0671 99.8092 37.4953 100.826 37.4953 102.186L38.8953 102.186C38.8953 100.498 38.347 99.0866 37.2063 98.0295L36.2547 99.0564ZM37.4953 102.186C37.4953 103.545 37.0671 104.566 36.2528 105.326L37.2081 106.35C38.347 105.287 38.8953 103.873 38.8953 102.186L37.4953 102.186ZM36.2547 105.324C35.4389 106.08 34.2974 106.495 32.7461 106.495L32.7461 107.895C34.5542 107.895 36.0689 107.405 37.2063 106.351L36.2547 105.324ZM32.7461 106.495L32.6191 106.495L32.6191 107.895L32.7461 107.895L32.7461 106.495ZM32.8242 105.073C33.8993 105.073 34.8333 104.873 35.5331 104.378L34.7247 103.235C34.3568 103.495 33.7543 103.673 32.8242 103.673L32.8242 105.073ZM35.5364 104.376C36.2647 103.854 36.6199 103.092 36.6199 102.186L35.2199 102.186C35.2199 102.685 35.0478 103.004 34.7214 103.238L35.5364 104.376ZM36.6199 102.186C36.6199 101.294 36.2654 100.545 35.5541 100.021L34.7232 101.147C35.0536 101.391 35.2199 101.71 35.2199 102.186L36.6199 102.186ZM35.5508 100.018C34.8423 99.5021 33.8192 99.3078 32.6191 99.3078L32.6191 100.708C33.7237 100.708 34.3803 100.898 34.7265 101.15L35.5508 100.018ZM32.6191 99.3078C31.5573 99.3078 30.6319 99.5134 29.9284 100.013L30.7395 101.155C31.1168 100.886 31.7148 100.708 32.6191 100.708L32.6191 99.3078ZM29.9284 100.013C29.1925 100.537 28.8234 101.295 28.8234 102.205L30.2234 102.205C30.2234 101.722 30.3947 101.4 30.7395 101.155L29.9284 100.013ZM28.8234 102.205C28.8234 103.111 29.1951 103.865 29.933 104.38L30.7349 103.233C30.3921 102.993 30.2234 102.679 30.2234 102.205L28.8234 102.205ZM29.9298 104.378C30.6401 104.881 31.6464 105.073 32.8242 105.073L32.8242 103.673C31.7495 103.673 31.0955 103.488 30.7382 103.235L29.9298 104.378ZM35.4902 89.7832L34.9647 90.2456L35.4902 89.7832ZM34.3477 89.2754L33.6477 89.2754L33.6477 89.9565L34.3285 89.9751L34.3477 89.2754ZM34.3477 86.6289L34.354 85.9289L33.6477 85.9225L33.6477 86.6289L34.3477 86.6289ZM36.3203 87.2148L36.7011 86.6275L36.6982 86.6256L36.3203 87.2148ZM37.707 88.7969L38.3356 88.4888L38.3343 88.4863L37.707 88.7969ZM36.7598 94.5781L37.2296 95.097L37.2313 95.0954L36.7598 94.5781ZM28.6934 94.5879L28.2272 95.1101L28.6934 94.5879ZM28.3711 87.8496L28.8784 88.332L28.8824 88.3277L28.3711 87.8496ZM31.3691 86.6289L32.0691 86.6289L32.0691 85.9216L31.3618 85.9289L31.3691 86.6289ZM31.3691 89.2754L31.3858 89.9752L32.0691 89.9589L32.0691 89.2754L31.3691 89.2754ZM30.041 89.7832L30.5214 90.2924L30.5262 90.2878L30.041 89.7832ZM30.2461 92.5664L29.8436 93.1391L29.8452 93.1402L30.2461 92.5664ZM36.6199 91.0527C36.6199 90.3976 36.4363 89.7987 36.0157 89.3208L34.9647 90.2456C35.1171 90.4187 35.2199 90.6662 35.2199 91.0527L36.6199 91.0527ZM36.0157 89.3208C35.5876 88.8343 35.0156 88.5934 34.3668 88.5757L34.3285 89.9751C34.6302 89.9834 34.8199 90.0811 34.9647 90.2456L36.0157 89.3208ZM35.0477 89.2754L35.0477 86.6289L33.6477 86.6289L33.6477 89.2754L35.0477 89.2754ZM34.3413 87.3289C34.9266 87.3342 35.4552 87.4916 35.9424 87.8041L36.6982 86.6256C35.9875 86.1698 35.201 85.9366 34.354 85.9289L34.3413 87.3289ZM35.9395 87.8022C36.42 88.1137 36.8 88.5426 37.0797 89.1075L38.3343 88.4863C37.95 87.71 37.4055 87.0842 36.7011 86.6275L35.9395 87.8022ZM37.0785 89.105C37.3528 89.6646 37.4953 90.2935 37.4953 91.0039L38.8953 91.0039C38.8953 90.0997 38.7123 89.2573 38.3356 88.4888L37.0785 89.105ZM37.4953 91.0039C37.4953 92.3533 37.0751 93.3434 36.2882 94.0608L37.2313 95.0954C38.3584 94.068 38.8953 92.6753 38.8953 91.0039L37.4953 91.0039ZM36.2899 94.0592C35.4901 94.7834 34.3483 95.1867 32.7754 95.1867L32.7754 96.5867C34.5879 96.5867 36.1023 96.1177 37.2296 95.097L36.2899 94.0592ZM32.7754 95.1867L32.5898 95.1867L32.5898 96.5867L32.7754 96.5867L32.7754 95.1867ZM32.5898 95.1867C31.0893 95.1867 29.9713 94.7903 29.1595 94.0657L28.2272 95.1101C29.3555 96.1172 30.8352 96.5867 32.5898 96.5867L32.5898 95.1867ZM29.1595 94.0657C28.3628 93.3545 27.9383 92.3699 27.9383 91.0234L26.5383 91.0234C26.5383 92.6978 27.0838 94.0895 28.2272 95.1101L29.1595 94.0657ZM27.9383 91.0234C27.9383 89.8422 28.2715 88.9702 28.8784 88.332L27.8638 87.3673C26.9603 88.3175 26.5383 89.5615 26.5383 91.0234L27.9383 91.0234ZM28.8824 88.3277C29.4817 87.6867 30.2883 87.3402 31.3764 87.3289L31.3618 85.9289C29.95 85.9436 28.7579 86.4109 27.8598 87.3715L28.8824 88.3277ZM30.6691 86.6289L30.6691 89.2754L32.0691 89.2754L32.0691 86.6289L30.6691 86.6289ZM31.3525 88.5756C30.6613 88.592 30.0412 88.8119 29.5558 89.2786L30.5262 90.2878C30.7179 90.1034 30.9833 89.9848 31.3858 89.9752L31.3525 88.5756ZM29.5607 89.274C29.0572 89.749 28.8234 90.3723 28.8234 91.0723L30.2234 91.0723C30.2234 90.7045 30.3348 90.4684 30.5214 90.2924L29.5607 89.274ZM28.8234 91.0723C28.8234 91.9268 29.1514 92.6527 29.8436 93.1391L30.6486 91.9937C30.3773 91.803 30.2234 91.5328 30.2234 91.0723L28.8234 91.0723ZM29.8452 93.1402C30.5019 93.5991 31.458 93.7645 32.5703 93.7645L32.5703 92.3645C31.5342 92.3645 30.9408 92.1978 30.647 91.9926L29.8452 93.1402ZM32.5703 93.7645L32.8633 93.7645L32.8633 92.3645L32.5703 92.3645L32.5703 93.7645ZM32.8633 93.7645C33.9864 93.7645 34.9502 93.5997 35.6079 93.1402L34.8061 91.9926C34.5133 92.1971 33.9146 92.3645 32.8633 92.3645L32.8633 93.7645ZM35.6079 93.1402C36.3041 92.6539 36.6199 91.9144 36.6199 91.0527L35.2199 91.0527C35.2199 91.5453 35.0605 91.8149 34.8061 91.9926L35.6079 93.1402ZM28.5859 82.2637L28.5859 82.9637L30.5194 82.9637L29.0341 81.7259L28.5859 82.2637ZM31.2324 75.9551L31.2324 75.255L31.2239 75.2551L31.2324 75.9551ZM38 75.9551L38.7 75.9551L38.7 75.2551L38 75.2551L38 75.9551ZM38 78.7773L38 79.4773L38.7 79.4773L38.7 78.7773L38 78.7773ZM29.9727 79.168L30.4377 79.6912L30.4435 79.6859L29.9727 79.168ZM30.4902 82.2637L30.1383 82.8688L30.3015 82.9637L30.4902 82.9637L30.4902 82.2637ZM38 82.2637L38.7 82.2637L38.7 81.5637L38 81.5637L38 82.2637ZM38 85.0859L38 85.7859L38.7 85.7859L38.7 85.0859L38 85.0859ZM23 85.0859L22.3 85.0859L22.3 85.7859L23 85.7859L23 85.0859ZM23 82.2637L23 81.5637L22.3 81.5637L22.3 82.2637L23 82.2637ZM29.0341 81.7259C28.2893 81.1052 27.9383 80.3588 27.9383 79.4414L26.5383 79.4414C26.5383 80.7896 27.0857 81.9247 28.1378 82.8014L29.0341 81.7259ZM27.9383 79.4414C27.9383 78.4337 28.2261 77.7896 28.6971 77.3784C29.1875 76.9504 29.9946 76.6703 31.241 76.655L31.2239 75.2551C29.8074 75.2724 28.6175 75.5896 27.7765 76.3237C26.9162 77.0747 26.5383 78.1574 26.5383 79.4414L27.9383 79.4414ZM31.2324 76.6551L38 76.6551L38 75.2551L31.2324 75.2551L31.2324 76.6551ZM37.3 75.9551L37.3 78.7773L38.7 78.7773L38.7 75.9551L37.3 75.9551ZM38 78.0773L31.3105 78.0773L31.3105 79.4773L38 79.4773L38 78.0773ZM31.3105 78.0773C30.625 78.0773 29.9729 78.2217 29.5018 78.65L30.4435 79.6859C30.5453 79.5934 30.7851 79.4773 31.3105 79.4773L31.3105 78.0773ZM29.5076 78.6448C28.9998 79.0961 28.8332 79.7697 28.8332 80.4668L30.2332 80.4668C30.2332 79.9529 30.3595 79.7606 30.4377 79.6912L29.5076 78.6448ZM28.8332 80.4668C28.8332 81.5068 29.2553 82.3552 30.1383 82.8688L30.8422 81.6586C30.4491 81.43 30.2332 81.0804 30.2332 80.4668L28.8332 80.4668ZM30.4902 82.9637L38 82.9637L38 81.5637L30.4902 81.5637L30.4902 82.9637ZM37.3 82.2637L37.3 85.0859L38.7 85.0859L38.7 82.2637L37.3 82.2637ZM38 84.3859L23 84.3859L23 85.7859L38 85.7859L38 84.3859ZM23.7 85.0859L23.7 82.2637L22.3 82.2637L22.3 85.0859L23.7 85.0859ZM23 82.9637L28.5859 82.9637L28.5859 81.5637L23 81.5637L23 82.9637ZM36.7695 72.752L37.2695 73.2419L37.2711 73.2402L36.7695 72.752ZM29.8555 73.5918L30.1646 72.9637L30.1627 72.9628L29.8555 73.5918ZM27.9219 71.8535L28.5221 71.4934L28.5212 71.4918L27.9219 71.8535ZM28.6055 65.8672L29.0758 66.3856L29.0778 66.3838L28.6055 65.8672ZM33.6348 64.6172L34.3348 64.6172L34.3348 63.9172L33.6348 63.9172L33.6348 64.6172ZM33.6348 71.3457L32.9348 71.3457L32.9348 72.1442L33.7264 72.0397L33.6348 71.3457ZM35.2949 70.5254L35.8116 70.9977L35.8149 70.9941L35.2949 70.5254ZM34.7383 66.2285L34.272 65.7064L33.6455 66.266L34.3088 66.7813L34.7383 66.2285ZM36.291 64.8418L36.6949 64.2701L36.2401 63.9487L35.8247 64.3197L36.291 64.8418ZM37.6973 66.5605L38.3334 66.2683L38.3312 66.2636L37.6973 66.5605ZM30.0898 70.6523L29.6128 71.1647L29.6176 71.1691L30.0898 70.6523ZM31.7109 71.3164L31.6146 72.0097L32.4109 72.1203L32.4109 71.3164L31.7109 71.3164ZM31.7109 67.3906L32.4109 67.3906L32.4109 66.6906L31.7109 66.6906L31.7109 67.3906ZM31.4863 67.3906L31.4863 66.6906L31.479 66.6906L31.4717 66.6908L31.4863 67.3906ZM30.041 67.8984L30.5214 68.4076L30.5262 68.403L30.041 67.8984ZM37.4953 68.9629C37.4953 70.3571 37.0735 71.436 36.2679 72.2637L37.2711 73.2402C38.3666 72.1147 38.8953 70.6677 38.8953 68.9629L37.4953 68.9629ZM36.2695 72.262C35.4725 73.0755 34.3982 73.507 32.9707 73.507L32.9707 74.907C34.7072 74.907 36.1655 74.3685 37.2695 73.2419L36.2695 72.262ZM32.9707 73.507L32.6973 73.507L32.6973 74.907L32.9707 74.907L32.9707 73.507ZM32.6973 73.507C31.7279 73.507 30.8889 73.3202 30.1646 72.9637L29.5463 74.2198C30.4887 74.6837 31.5442 74.907 32.6973 74.907L32.6973 73.507ZM30.1627 72.9628C29.4355 72.6077 28.8967 72.1177 28.5221 71.4934L27.3216 72.2137C27.8454 73.0867 28.5958 73.7556 29.5483 74.2208L30.1627 72.9628ZM28.5212 71.4918C28.1373 70.8557 27.9383 70.1236 27.9383 69.2754L26.5383 69.2754C26.5383 70.3542 26.7949 71.3409 27.3225 72.2152L28.5212 71.4918ZM27.9383 69.2754C27.9383 67.9898 28.3364 67.0564 29.0758 66.3856L28.1351 65.3487C27.0516 66.3316 26.5383 67.6703 26.5383 69.2754L27.9383 69.2754ZM29.0778 66.3838C29.8203 65.7049 30.9212 65.3172 32.4824 65.3172L32.4824 63.9172C30.6973 63.9172 29.2135 64.3628 28.1331 65.3506L29.0778 66.3838ZM32.4824 65.3172L33.6348 65.3172L33.6348 63.9172L32.4824 63.9172L32.4824 65.3172ZM32.9348 64.6172L32.9348 71.3457L34.3348 71.3457L34.3348 64.6172L32.9348 64.6172ZM33.7264 72.0397C34.5577 71.9299 35.2695 71.5905 35.8115 70.9977L34.7783 70.053C34.487 70.3717 34.092 70.5792 33.5431 70.6517L33.7264 72.0397ZM35.8149 70.9941C36.3626 70.3864 36.6199 69.6295 36.6199 68.7773L35.2199 68.7773C35.2199 69.3315 35.0605 69.7399 34.775 70.0567L35.8149 70.9941ZM36.6199 68.7773C36.6199 67.4963 36.1431 66.4334 35.1677 65.6757L34.3088 66.7813C34.909 67.2475 35.2199 67.8839 35.2199 68.7773L36.6199 68.7773ZM35.2046 66.7506L36.7573 65.3639L35.8247 64.3197L34.272 65.7064L35.2046 66.7506ZM35.8871 65.4135C36.3782 65.7605 36.7717 66.2348 37.0634 66.8575L38.3312 66.2636C37.9458 65.4409 37.4017 64.7694 36.6949 64.2701L35.8871 65.4135ZM37.0612 66.8528C37.3469 67.4745 37.4953 68.1742 37.4953 68.9629L38.8953 68.9629C38.8953 67.9938 38.7117 67.0919 38.3333 66.2683L37.0612 66.8528ZM28.8234 69.2852C28.8234 70.0209 29.08 70.6686 29.6128 71.1647L30.5668 70.14C30.3444 69.933 30.2234 69.6692 30.2234 69.2852L28.8234 69.2852ZM29.6176 71.1691C30.1332 71.6402 30.824 71.8999 31.6146 72.0097L31.8072 70.6231C31.1917 70.5376 30.8017 70.3546 30.562 70.1356L29.6176 71.1691ZM32.4109 71.3164L32.4109 67.3906L31.0109 67.3906L31.0109 71.3164L32.4109 71.3164ZM31.7109 66.6906L31.4863 66.6906L31.4863 68.0906L31.7109 68.0906L31.7109 66.6906ZM31.4717 66.6908C30.7304 66.7062 30.0583 66.9107 29.5558 67.3939L30.5262 68.403C30.7008 68.2351 30.9923 68.1011 31.5009 68.0905L31.4717 66.6908ZM29.5607 67.3893C29.0406 67.8799 28.8234 68.5473 28.8234 69.2852L30.2234 69.2852C30.2234 68.8251 30.3513 68.568 30.5214 68.4076L29.5607 67.3893ZM35.4902 57.3418L34.9647 57.8042L35.4902 57.3418ZM34.3477 56.834L33.6477 56.834L33.6477 57.5151L34.3285 57.5337L34.3477 56.834ZM34.3477 54.1875L34.354 53.4875L33.6477 53.4811L33.6477 54.1875L34.3477 54.1875ZM36.3203 54.7734L36.7011 54.1861L36.6982 54.1842L36.3203 54.7734ZM37.707 56.3555L38.3356 56.0474L38.3343 56.0449L37.707 56.3555ZM36.7598 62.1367L37.2296 62.6556L37.2313 62.654L36.7598 62.1367ZM28.6934 62.1465L28.2272 62.6687L28.6934 62.1465ZM28.3711 55.4082L28.8784 55.8906L28.8824 55.8863L28.3711 55.4082ZM31.3691 54.1875L32.0691 54.1875L32.0691 53.4802L31.3618 53.4875L31.3691 54.1875ZM31.3691 56.834L31.3858 57.5338L32.0691 57.5175L32.0691 56.834L31.3691 56.834ZM30.041 57.3418L30.5214 57.851L30.5262 57.8464L30.041 57.3418ZM30.2461 60.125L29.8436 60.6977L29.8452 60.6988L30.2461 60.125ZM36.6199 58.6113C36.6199 57.9562 36.4363 57.3573 36.0157 56.8794L34.9647 57.8042C35.1171 57.9773 35.2199 58.2248 35.2199 58.6113L36.6199 58.6113ZM36.0157 56.8794C35.5876 56.3929 35.0156 56.152 34.3668 56.1342L34.3285 57.5337C34.6302 57.542 34.8199 57.6397 34.9647 57.8042L36.0157 56.8794ZM35.0477 56.834L35.0477 54.1875L33.6477 54.1875L33.6477 56.834L35.0477 56.834ZM34.3413 54.8875C34.9265 54.8928 35.4552 55.0502 35.9424 55.3627L36.6982 54.1842C35.9875 53.7284 35.201 53.4952 34.354 53.4875L34.3413 54.8875ZM35.9395 55.3608C36.42 55.6723 36.8 56.1012 37.0797 56.6661L38.3343 56.0449C37.95 55.2686 37.4055 54.6428 36.7011 54.1861L35.9395 55.3608ZM37.0785 56.6636C37.3528 57.2232 37.4953 57.8521 37.4953 58.5625L38.8953 58.5625C38.8953 57.6583 38.7123 56.8159 38.3356 56.0474L37.0785 56.6636ZM37.4953 58.5625C37.4953 59.9119 37.0751 60.902 36.2882 61.6194L37.2313 62.654C38.3584 61.6266 38.8953 60.2339 38.8953 58.5625L37.4953 58.5625ZM36.2899 61.6178C35.4901 62.3419 34.3483 62.7453 32.7754 62.7453L32.7754 64.1453C34.5879 64.1453 36.1023 63.6763 37.2296 62.6556L36.2899 61.6178ZM32.7754 62.7453L32.5898 62.7453L32.5898 64.1453L32.7754 64.1453L32.7754 62.7453ZM32.5898 62.7453C31.0892 62.7453 29.9713 62.3489 29.1595 61.6243L28.2272 62.6687C29.3555 63.6758 30.8352 64.1453 32.5898 64.1453L32.5898 62.7453ZM29.1595 61.6243C28.3628 60.9131 27.9383 59.9285 27.9383 58.582L26.5383 58.582C26.5383 60.2564 27.0838 61.6481 28.2272 62.6687L29.1595 61.6243ZM27.9383 58.582C27.9383 57.4008 28.2715 56.5288 28.8784 55.8905L27.8638 54.9259C26.9603 55.8761 26.5383 57.1201 26.5383 58.582L27.9383 58.582ZM28.8824 55.8863C29.4817 55.2453 30.2883 54.8988 31.3764 54.8875L31.3618 53.4875C29.95 53.5022 28.7579 53.9695 27.8598 54.9301L28.8824 55.8863ZM30.6691 54.1875L30.6691 56.834L32.0691 56.834L32.0691 54.1875L30.6691 54.1875ZM31.3525 56.1342C30.6613 56.1506 30.0412 56.3705 29.5558 56.8372L30.5262 57.8464C30.7179 57.662 30.9833 57.5434 31.3858 57.5338L31.3525 56.1342ZM29.5607 56.8326C29.0572 57.3076 28.8234 57.9309 28.8234 58.6309L30.2234 58.6309C30.2234 58.2631 30.3348 58.027 30.5214 57.851L29.5607 56.8326ZM28.8234 58.6309C28.8234 59.4854 29.1514 60.2113 29.8436 60.6977L30.6486 59.5523C30.3773 59.3616 30.2234 59.0914 30.2234 58.6309L28.8234 58.6309ZM29.8452 60.6988C30.5019 61.1576 31.458 61.323 32.5703 61.323L32.5703 59.923C31.5342 59.923 30.9408 59.7564 30.647 59.5512L29.8452 60.6988ZM32.5703 61.323L32.8633 61.323L32.8633 59.923L32.5703 59.923L32.5703 61.323ZM32.8633 61.323C33.9864 61.323 34.9502 61.1583 35.6079 60.6988L34.8061 59.5512C34.5133 59.7557 33.9146 59.923 32.8633 59.923L32.8633 61.323ZM35.6079 60.6988C36.3041 60.2125 36.6199 59.473 36.6199 58.6113L35.2199 58.6113C35.2199 59.1039 35.0605 59.3735 34.8061 59.5512L35.6079 60.6988ZM33.7617 48.7383L33.3841 48.1488L32.6516 48.6181L33.2667 49.2333L33.7617 48.7383ZM34.7773 49.7539L34.2824 50.2489L34.4874 50.4539L34.7773 50.4539L34.7773 49.7539ZM38 49.7539L38.7 49.7539L38.7 49.0539L38 49.0539L38 49.7539ZM38 52.5762L38 53.2762L38.7 53.2762L38.7 52.5762L38 52.5762ZM23 52.5762L22.3 52.5762L22.3 53.2762L23 53.2762L23 52.5762ZM23 49.7539L23 49.0539L22.3 49.0539L22.3 49.7539L23 49.7539ZM31.3105 49.7539L31.3105 50.4539L33.3507 50.4539L31.7403 49.2014L31.3105 49.7539ZM30.6074 49.207L30.1534 49.7398L30.1653 49.7499L30.1777 49.7596L30.6074 49.207ZM27.4336 46.502L26.7336 46.502L26.7336 46.8251L26.9795 47.0347L27.4336 46.502ZM27.4336 43.1133L27.8921 42.5844L26.7336 41.58L26.7336 43.1133L27.4336 43.1133ZM31.8379 46.9316L31.3793 47.4605L31.7844 47.8117L32.2289 47.5122L31.8379 46.9316ZM38 42.7812L38.7 42.7812L38.7 41.4658L37.6089 42.2007L38 42.7812ZM38 46.0234L38.3776 46.6129L38.7 46.4063L38.7 46.0234L38 46.0234ZM33.2667 49.2333L34.2824 50.2489L35.2723 49.2589L34.2567 48.2433L33.2667 49.2333ZM34.7773 50.4539L38 50.4539L38 49.0539L34.7773 49.0539L34.7773 50.4539ZM37.3 49.7539L37.3 52.5762L38.7 52.5762L38.7 49.7539L37.3 49.7539ZM38 51.8762L23 51.8762L23 53.2762L38 53.2762L38 51.8762ZM23.7 52.5762L23.7 49.7539L22.3 49.7539L22.3 52.5762L23.7 52.5762ZM23 50.4539L31.3105 50.4539L31.3105 49.0539L23 49.0539L23 50.4539ZM31.7403 49.2014L31.0372 48.6545L30.1777 49.7596L30.8808 50.3065L31.7403 49.2014ZM31.0615 48.6743L27.8877 45.9692L26.9795 47.0347L30.1534 49.7398L31.0615 48.6743ZM28.1336 46.502L28.1336 43.1133L26.7336 43.1133L26.7336 46.502L28.1336 46.502ZM26.975 43.6422L31.3793 47.4605L32.2964 46.4027L27.8921 42.5844L26.975 43.6422ZM32.2289 47.5122L38.391 43.3618L37.6089 42.2007L31.4468 46.3511L32.2289 47.5122ZM37.3 42.7812L37.3 46.0234L38.7 46.0234L38.7 42.7812L37.3 42.7812ZM37.6224 45.434L33.3841 48.1488L34.1393 49.3277L38.3776 46.6129L37.6224 45.434ZM38 38.9141L38.7 38.9141L38.7 38.2141L38 38.2141L38 38.9141ZM38 41.7461L38 42.4461L38.7 42.4461L38.7 41.7461L38 41.7461ZM23 41.7461L22.3 41.7461L22.3 42.4461L23 42.4461L23 41.7461ZM23 38.9141L23 38.2141L22.3 38.2141L22.3 38.9141L23 38.9141ZM37.3 38.9141L37.3 41.7461L38.7 41.7461L38.7 38.9141L37.3 38.9141ZM38 41.0461L23 41.0461L23 42.4461L38 42.4461L38 41.0461ZM23.7 41.7461L23.7 38.9141L22.3 38.9141L22.3 41.7461L23.7 41.7461ZM23 39.6141L38 39.6141L38 38.2141L23 38.2141L23 39.6141ZM38 33.6016L38.7 33.6016L38.7 32.9016L38 32.9016L38 33.6016ZM38 36.4336L38 37.1336L38.7 37.1336L38.7 36.4336L38 36.4336ZM27.4336 36.4336L26.7336 36.4336L26.7336 37.1336L27.4336 37.1336L27.4336 36.4336ZM27.4336 33.6016L27.4336 32.9016L26.7336 32.9016L26.7336 33.6016L27.4336 33.6016ZM23.6543 36.1797L23.1479 36.6631L23.1535 36.6688L23.6543 36.1797ZM25.7539 33.875L25.2421 34.3527L25.2476 34.3583L25.7539 33.875ZM25.7539 36.1699L26.2603 36.6533L26.2656 36.6475L25.7539 36.1699ZM37.3 33.6016L37.3 36.4336L38.7 36.4336L38.7 33.6016L37.3 33.6016ZM38 35.7336L27.4336 35.7336L27.4336 37.1336L38 37.1336L38 35.7336ZM28.1336 36.4336L28.1336 33.6016L26.7336 33.6016L26.7336 36.4336L28.1336 36.4336ZM27.4336 34.3016L38 34.3016L38 32.9016L27.4336 32.9016L27.4336 34.3016ZM24.6992 35.8996C24.4475 35.8996 24.2854 35.824 24.1551 35.6906L23.1535 36.6688C23.5701 37.0953 24.1045 37.2996 24.6992 37.2996L24.6992 35.8996ZM24.1606 35.6964C24.039 35.5689 23.9441 35.37 23.9441 35.0176L22.5441 35.0176C22.5441 35.6417 22.7227 36.2175 23.1479 36.663L24.1606 35.6964ZM23.9441 35.0176C23.9441 34.6746 24.0373 34.4777 24.1606 34.3486L23.1479 33.3819C22.7244 33.8256 22.5441 34.397 22.5441 35.0176L23.9441 35.0176ZM24.1606 34.3486C24.2922 34.2107 24.4527 34.1355 24.6992 34.1355L24.6992 32.7355C24.0994 32.7355 23.5632 32.9468 23.1479 33.3819L24.1606 34.3486ZM24.6992 34.1355C24.9506 34.1355 25.1114 34.2126 25.2422 34.3526L26.2656 33.3974C25.8495 32.9515 25.3073 32.7355 24.6992 32.7355L24.6992 34.1355ZM25.2476 34.3583C25.3726 34.4893 25.4641 34.6841 25.4641 35.0176L26.8641 35.0176C26.8641 34.4006 26.6821 33.8336 26.2603 33.3917L25.2476 34.3583ZM25.4641 35.0176C25.4641 35.3506 25.3727 35.5525 25.2422 35.6923L26.2656 36.6475C26.682 36.2014 26.8641 35.6351 26.8641 35.0176L25.4641 35.0176ZM25.2476 35.6866C25.1182 35.8221 24.9557 35.8996 24.6992 35.8996L24.6992 37.2996C25.3021 37.2996 25.8427 37.0906 26.2603 36.6533L25.2476 35.6866ZM34.2695 26.0625L34.8708 26.4209L34.8748 26.4142L34.8787 26.4073L34.2695 26.0625ZM33.7324 27.7031L34.4175 27.8469L34.4179 27.8449L33.7324 27.7031ZM28.1855 30.3105L28.7304 29.871L28.7299 29.8705L28.1855 30.3105ZM28.1855 24.041L28.7352 24.4745L28.7369 24.4723L28.1855 24.041ZM30.6465 22.8301L31.3465 22.8301L31.3465 22.1301L30.6465 22.1301L30.6465 22.8301ZM30.6465 25.6523L30.6465 26.3523L31.3465 26.3523L31.3465 25.6523L30.6465 25.6523ZM29.6504 26.043L30.1392 26.5441L30.1454 26.5379L29.6504 26.043ZM31.1543 28.3184L31.7367 28.7066L31.7417 28.6992L31.7464 28.6917L31.1543 28.3184ZM31.6523 26.8145L32.3383 26.9542L32.3395 26.9481L31.6523 26.8145ZM32.1211 25.0371L31.4639 24.796L31.4635 24.7972L32.1211 25.0371ZM37.3066 24.041L37.8757 23.6333L37.8735 23.6304L37.3066 24.041ZM37.7266 29.6074L38.3609 29.9035L38.3642 29.8962L37.7266 29.6074ZM36.4277 31.2187L36.8314 31.7906L36.8346 31.7884L36.4277 31.2187ZM34.6406 31.8047L33.9406 31.8047L33.9406 32.5047L34.6406 32.5047L34.6406 31.8047ZM34.6406 29.1289L34.6043 28.4298L33.9406 28.4643L33.9406 29.1289L34.6406 29.1289ZM35.8906 25.9648L36.4538 25.5491L36.4522 25.5469L35.8906 25.9648ZM35.0801 24.8449C34.4407 24.8449 33.9576 25.1924 33.6603 25.7177L34.8787 26.4073C34.9332 26.3111 34.9768 26.2761 34.9954 26.2643C35.0093 26.2554 35.0304 26.2449 35.0801 26.2449L35.0801 24.8449ZM33.6683 25.7041C33.4044 26.1467 33.2069 26.7883 33.0469 27.5613L34.4179 27.8449C34.5705 27.1076 34.731 26.6554 34.8708 26.4209L33.6683 25.7041ZM33.0473 27.5594C32.7955 28.7594 32.4303 29.5738 32.0027 30.077C31.598 30.5533 31.122 30.7727 30.5293 30.7727L30.5293 32.1727C31.5446 32.1727 32.4066 31.7637 33.0696 30.9835C33.7097 30.2302 34.142 29.1598 34.4175 27.8469L33.0473 27.5594ZM30.5293 30.7727C29.818 30.7727 29.2319 30.4927 28.7304 29.871L27.6407 30.7501C28.3892 31.6778 29.3656 32.1727 30.5293 32.1727L30.5293 30.7727ZM28.7299 29.8705C28.2222 29.2424 27.9383 28.3914 27.9383 27.2539L26.5383 27.2539C26.5383 28.6294 26.8858 29.8162 27.6412 30.7506L28.7299 29.8705ZM27.9383 27.2539C27.9383 26.0203 28.228 25.1177 28.7352 24.4745L27.6359 23.6076C26.8801 24.5659 26.5383 25.8052 26.5383 27.2539L27.9383 27.2539ZM28.7369 24.4723C29.2382 23.8315 29.8566 23.5301 30.6465 23.5301L30.6465 22.1301C29.4181 22.1301 28.3959 22.6359 27.6342 23.6097L28.7369 24.4723ZM29.9465 22.8301L29.9465 25.6523L31.3465 25.6523L31.3465 22.8301L29.9465 22.8301ZM30.6465 24.9523C30.0768 24.9523 29.5603 25.1431 29.1554 25.548L30.1454 26.5379C30.2613 26.422 30.4089 26.3523 30.6465 26.3523L30.6465 24.9523ZM29.1616 25.5419C28.706 25.9863 28.55 26.6126 28.55 27.2637L29.95 27.2637C29.95 26.808 30.0609 26.6204 30.1392 26.544L29.1616 25.5419ZM28.55 27.2637C28.55 27.8362 28.6789 28.3843 29.0323 28.8127L30.1122 27.9217C30.0359 27.8292 29.95 27.6417 29.95 27.2637L28.55 27.2637ZM29.0323 28.8127C29.3775 29.2311 29.8476 29.4578 30.3926 29.4578L30.3926 28.0578C30.2735 28.0578 30.1967 28.0241 30.1122 27.9217L29.0323 28.8127ZM30.3926 29.4578C30.9719 29.4578 31.4309 29.1654 31.7367 28.7066L30.5719 27.9301C30.4871 28.0572 30.4383 28.0578 30.3926 28.0578L30.3926 29.4578ZM31.7464 28.6917C32.0064 28.2794 32.1918 27.6729 32.3383 26.9542L30.9664 26.6747C30.8264 27.3622 30.6798 27.7584 30.5621 27.945L31.7464 28.6917ZM32.3395 26.9481C32.4717 26.2681 32.6194 25.7136 32.7787 25.277L31.4635 24.7972C31.2712 25.3241 31.1064 25.9546 30.9652 26.6808L32.3395 26.9481ZM32.7783 25.2782C33.0209 24.6168 33.3305 24.1808 33.6746 23.91C34.0103 23.6458 34.4265 23.5008 34.9629 23.5008L34.9629 22.1008C34.1516 22.1008 33.4204 22.3285 32.8088 22.8098C32.2057 23.2844 31.7682 23.9666 31.4639 24.796L32.7783 25.2782ZM34.9629 23.5008C35.6868 23.5008 36.2632 23.7939 36.7397 24.4517L37.8735 23.6304C37.1521 22.6345 36.1661 22.1008 34.9629 22.1008L34.9629 23.5008ZM36.7376 24.4487C37.2234 25.1266 37.4953 26.0399 37.4953 27.2441L38.8953 27.2441C38.8953 25.8312 38.5748 24.6091 37.8756 23.6333L36.7376 24.4487ZM37.4953 27.2441C37.4953 28.0466 37.3539 28.7333 37.0889 29.3187L38.3642 29.8962C38.7242 29.1013 38.8953 28.2125 38.8953 27.2441L37.4953 27.2441ZM37.0922 29.3114C36.8178 29.8994 36.4581 30.3369 36.0209 30.6491L36.8346 31.7884C37.4912 31.3194 37.9972 30.6827 38.3609 29.9034L37.0922 29.3114ZM36.0241 30.6469C35.5811 30.9596 35.1249 31.1047 34.6406 31.1047L34.6406 32.5047C35.4324 32.5047 36.1676 32.2592 36.8314 31.7906L36.0241 30.6469ZM35.3406 31.8047L35.3406 29.1289L33.9406 29.1289L33.9406 31.8047L35.3406 31.8047ZM34.6769 29.828C35.3478 29.7931 35.9354 29.5321 36.3466 29.0006L35.2393 28.144C35.1166 28.3025 34.9361 28.4126 34.6043 28.4298L34.6769 29.828ZM36.3466 29.0006C36.7354 28.498 36.8934 27.8692 36.8934 27.1855L35.4934 27.1855C35.4934 27.6607 35.3844 27.9564 35.2393 28.144L36.3466 29.0006ZM36.8934 27.1855C36.8934 26.5774 36.7832 25.9953 36.4538 25.5491L35.3274 26.3805C35.4017 26.4812 35.4934 26.713 35.4934 27.1855L36.8934 27.1855ZM36.4522 25.5469C36.1196 25.1001 35.6462 24.8449 35.0801 24.8449L35.0801 26.2449C35.178 26.2449 35.2449 26.2697 35.3291 26.3827L36.4522 25.5469ZM24.8359 17.5957L24.8359 16.8957L24.1359 16.8957L24.1359 17.5957L24.8359 17.5957ZM27.4336 17.5957L27.4336 18.2957L28.1336 18.2957L28.1336 17.5957L27.4336 17.5957ZM27.4336 15.7891L27.4336 15.0891L26.7336 15.0891L26.7336 15.7891L27.4336 15.7891ZM29.5039 15.7891L30.2039 15.7891L30.2039 15.0891L29.5039 15.0891L29.5039 15.7891ZM29.5039 17.5957L28.8039 17.5957L28.8039 18.2957L29.5039 18.2957L29.5039 17.5957ZM35.6172 17.3711L35.1534 16.8468L35.6172 17.3711ZM35.8027 15.6816L35.8027 14.9816L34.9579 14.9816L35.1149 15.8118L35.8027 15.6816ZM37.9414 15.6816L38.6108 15.4769L38.4593 14.9816L37.9414 14.9816L37.9414 15.6816ZM35.1973 20.418L35.1973 21.1181L35.2109 21.1178L35.1973 20.418ZM29.5039 20.418L29.5039 19.718L28.8039 19.718L28.8039 20.418L29.5039 20.418ZM29.5039 21.9609L29.5039 22.6609L30.2039 22.6609L30.2039 21.9609L29.5039 21.9609ZM27.4336 21.9609L26.7336 21.9609L26.7336 22.6609L27.4336 22.6609L27.4336 21.9609ZM27.4336 20.418L28.1336 20.418L28.1336 19.718L27.4336 19.718L27.4336 20.418ZM24.8359 20.418L24.1359 20.418L24.1359 21.118L24.8359 21.118L24.8359 20.418ZM24.8359 18.2957L27.4336 18.2957L27.4336 16.8957L24.8359 16.8957L24.8359 18.2957ZM28.1336 17.5957L28.1336 15.7891L26.7336 15.7891L26.7336 17.5957L28.1336 17.5957ZM27.4336 16.4891L29.5039 16.4891L29.5039 15.0891L27.4336 15.0891L27.4336 16.4891ZM28.8039 15.7891L28.8039 17.5957L30.2039 17.5957L30.2039 15.7891L28.8039 15.7891ZM29.5039 18.2957L34.7773 18.2957L34.7773 16.8957L29.5039 16.8957L29.5039 18.2957ZM34.7773 18.2957C35.225 18.2957 35.7185 18.216 36.081 17.8954L35.1534 16.8468C35.1696 16.8324 35.1632 16.8462 35.0994 16.8633C35.0348 16.8806 34.9313 16.8957 34.7773 16.8957L34.7773 18.2957ZM36.081 17.8954C36.4887 17.5347 36.5711 16.9757 36.5711 16.5117L35.1711 16.5117C35.1711 16.6817 35.1535 16.7874 35.1363 16.8456C35.1195 16.9024 35.1127 16.8828 35.1534 16.8468L36.081 17.8954ZM36.5711 16.5117C36.5711 16.1668 36.5461 15.8451 36.4905 15.5515L35.1149 15.8118C35.1505 15.9999 35.1711 16.2316 35.1711 16.5117L36.5711 16.5117ZM35.8027 16.3816L37.9414 16.3816L37.9414 14.9816L35.8027 14.9816L35.8027 16.3816ZM37.272 15.8864C37.4207 16.3726 37.4953 16.8732 37.4953 17.3906L38.8953 17.3906C38.8953 16.7362 38.8006 16.0975 38.6108 15.4769L37.272 15.8864ZM37.4953 17.3906C37.4953 18.2694 37.2743 18.8102 36.9484 19.1393C36.6213 19.4696 36.0757 19.7007 35.1836 19.7181L35.2109 21.1178C36.3175 21.0962 37.2709 20.8032 37.9432 20.1244C38.6166 19.4443 38.8953 18.491 38.8953 17.3906L37.4953 17.3906ZM35.1973 19.718L29.5039 19.718L29.5039 21.118L35.1973 21.118L35.1973 19.718ZM28.8039 20.418L28.8039 21.9609L30.2039 21.9609L30.2039 20.418L28.8039 20.418ZM29.5039 21.2609L27.4336 21.2609L27.4336 22.6609L29.5039 22.6609L29.5039 21.2609ZM28.1336 21.9609L28.1336 20.418L26.7336 20.418L26.7336 21.9609L28.1336 21.9609ZM27.4336 19.718L24.8359 19.718L24.8359 21.118L27.4336 21.118L27.4336 19.718ZM25.5359 20.418L25.5359 17.5957L24.1359 17.5957L24.1359 20.418L25.5359 20.418ZM33.6348 6.93164L33.6348 7.63164L34.3348 7.63164L34.3348 6.93164L33.6348 6.93164ZM29.8652 5.38867L30.3884 4.92361L30.3881 4.92326L29.8652 5.38867ZM28.5859 4.20703L28.9461 3.60676L28.9408 3.60368L28.5859 4.20703ZM26.3398 6.59961L25.8503 7.09999L25.8505 7.10011L26.3398 6.59961ZM27.5605 7.04883L28.2605 7.04883L28.2605 6.36611L27.578 6.34904L27.5605 7.04883ZM27.5605 9.88086L27.5532 10.5808L28.2605 10.5882L28.2605 9.88086L27.5605 9.88086ZM24.6406 8.67969L24.1165 9.14368L24.1184 9.14581L24.6406 8.67969ZM24.5918 2.22461L25.1172 2.68715L25.1194 2.6846L24.5918 2.22461ZM28.9863 1.45312L29.3027 0.828689L29.2994 0.827024L28.9863 1.45312ZM30.6172 2.75195L31.1245 2.26964L31.12 2.26498L30.6172 2.75195ZM31.3691 3.54297L30.8618 4.02526L30.8643 4.02788L31.3691 3.54297ZM33.0391 4.39258L32.961 5.08821L32.9771 5.09002L32.9933 5.09108L33.0391 4.39258ZM33.6348 4.43164L34.3348 4.43164L34.3348 3.77604L33.6806 3.73314L33.6348 4.43164ZM35.5586 6.77539L36.0647 6.29179L36.0644 6.29153L35.5586 6.77539ZM35.5586 4.5L36.0591 4.98938L36.0646 4.98376L36.07 4.97802L35.5586 4.5ZM37.6973 4.49023L37.1911 4.97386L37.1966 4.97949L37.6973 4.49023ZM37.6973 6.78515L38.1979 7.27444L38.2034 7.26875L37.6973 6.78515ZM33.6348 6.23164C32.7688 6.23164 32.1448 6.12487 31.7224 5.95185L31.1917 7.24737C31.85 7.51705 32.6778 7.63164 33.6348 7.63164L33.6348 6.23164ZM31.7224 5.95185C31.3086 5.78234 30.8615 5.45581 30.3884 4.92362L29.342 5.85372C29.9106 6.4934 30.5247 6.97416 31.1917 7.24737L31.7224 5.95185ZM30.3881 4.92326C29.8533 4.32249 29.3682 3.86006 28.9461 3.60678L28.2258 4.80727C28.4547 4.94462 28.8224 5.26996 29.3424 5.85408L30.3881 4.92326ZM28.9408 3.60368C28.5076 3.34881 28.0375 3.21406 27.541 3.21406L27.541 4.61406C27.7736 4.61406 28.0002 4.67462 28.231 4.81038L28.9408 3.60368ZM27.541 3.21406C26.8963 3.21406 26.2822 3.36168 25.8284 3.78056C25.364 4.20921 25.1906 4.80676 25.1906 5.4375L26.5906 5.4375C26.5906 5.05262 26.6923 4.88844 26.778 4.80928C26.8744 4.72035 27.0855 4.61406 27.541 4.61406L27.541 3.21406ZM25.1906 5.4375C25.1906 6.07686 25.3957 6.65529 25.8503 7.09999L26.8293 6.09922C26.685 5.95799 26.5906 5.76168 26.5906 5.4375L25.1906 5.4375ZM25.8505 7.10011C26.3015 7.54118 26.8953 7.73241 27.543 7.74861L27.578 6.34904C27.1842 6.3392 26.9641 6.23096 26.8292 6.0991L25.8505 7.10011ZM26.8605 7.04883L26.8605 9.88086L28.2605 9.88086L28.2605 7.04883L26.8605 7.04883ZM27.5679 9.1809C26.483 9.16954 25.7114 8.82814 25.1629 8.21356L24.1184 9.14581C24.9761 10.1068 26.1511 10.5661 27.5532 10.5808L27.5679 9.1809ZM25.1648 8.2157C24.6046 7.58288 24.2859 6.68443 24.2859 5.4375L22.8859 5.4375C22.8859 6.92494 23.2704 8.18795 24.1165 9.14367L25.1648 8.2157ZM24.2859 5.4375C24.2859 4.16585 24.5942 3.28129 25.1172 2.68715L24.0664 1.76207C23.2483 2.69136 22.8859 3.94873 22.8859 5.4375L24.2859 5.4375ZM25.1194 2.6846C25.6234 2.10647 26.3536 1.78203 27.4141 1.78203L27.4141 0.382029C26.0396 0.382029 24.8883 0.819303 24.0641 1.76461L25.1194 2.6846ZM27.4141 1.78203C27.8588 1.78203 28.2757 1.88044 28.6733 2.07922L29.2994 0.827024C28.7073 0.531011 28.0761 0.382029 27.4141 0.382029L27.4141 1.78203ZM28.6699 2.07755C29.0609 2.27561 29.5421 2.64808 30.1143 3.23892L31.12 2.26498C30.4943 1.61884 29.8883 1.12543 29.3027 0.828698L28.6699 2.07755ZM30.1098 3.23424L30.8618 4.02526L31.8765 3.06068L31.1245 2.26966L30.1098 3.23424ZM30.8643 4.02788C31.4445 4.63188 32.1488 4.99705 32.961 5.08821L33.1171 3.69694C32.6532 3.64487 32.2443 3.44364 31.874 3.05806L30.8643 4.02788ZM32.9933 5.09108L33.589 5.13014L33.6806 3.73314L33.0849 3.69408L32.9933 5.09108ZM32.9348 4.43164L32.9348 6.93164L34.3348 6.93164L34.3348 4.43164L32.9348 4.43164ZM36.6328 6.51484C36.3715 6.51484 36.2017 6.4352 36.0647 6.29179L35.0525 7.25899C35.4753 7.70151 36.0217 7.91484 36.6328 7.91484L36.6328 6.51484ZM36.0644 6.29153C35.9174 6.13779 35.8289 5.93739 35.8289 5.63281L34.4289 5.63281C34.4289 6.25271 34.6269 6.81403 35.0527 7.25924L36.0644 6.29153ZM35.8289 5.63281C35.8289 5.32803 35.9173 5.13441 36.0591 4.98938L35.0581 4.01062C34.627 4.45153 34.4289 5.01312 34.4289 5.63281L35.8289 5.63281ZM36.07 4.97802C36.2083 4.82999 36.3765 4.75078 36.6328 4.75078L36.6328 3.35078C36.0167 3.35078 35.4687 3.57104 35.0472 4.02198L36.07 4.97802ZM36.6328 4.75078C36.8842 4.75078 37.0519 4.82814 37.1912 4.97383L38.2034 4.00663C37.7827 3.56639 37.2408 3.35078 36.6328 3.35078L36.6328 4.75078ZM37.1966 4.97949C37.3253 5.11118 37.4172 5.3039 37.4172 5.63281L38.8172 5.63281C38.8172 5.0112 38.6291 4.4422 38.1979 4.00098L37.1966 4.97949ZM37.4172 5.63281C37.4172 5.96126 37.3254 6.16108 37.1912 6.30155L38.2034 7.26875C38.629 6.82329 38.8172 6.25488 38.8172 5.63281L37.4172 5.63281ZM37.1966 6.2959C37.0587 6.43707 36.8893 6.51484 36.6328 6.51484L36.6328 7.91484C37.2357 7.91484 37.776 7.70615 38.1979 7.27441L37.1966 6.2959Z" fill="white"/>
</svg>
