<svg width="88" height="84" viewBox="0 0 88 84" fill="none" xmlns="http://www.w3.org/2000/svg">
<path d="M47.0429 78.5891C47.0343 78.5891 47.0257 78.5895 47.0168 78.5905C46.3706 78.6583 45.7198 78.7095 45.064 78.7437C44.927 78.7507 44.8218 78.8681 44.829 79.0057C44.836 79.1387 44.9455 79.2421 45.0765 79.2421C45.0808 79.2421 45.0851 79.2421 45.0898 79.2418C45.7538 79.2072 46.4136 79.1553 47.0681 79.0865C47.2044 79.0722 47.3033 78.9495 47.2891 78.8125C47.2762 78.6842 47.1683 78.5891 47.0429 78.5891ZM37.2133 78.3371C37.0932 78.3371 36.9876 78.4249 36.9684 78.5479C36.9473 78.6839 37.0399 78.8115 37.1752 78.8328C37.8261 78.9352 38.4822 79.021 39.1433 79.0898C39.1519 79.0908 39.1605 79.0911 39.1691 79.0911C39.2948 79.0911 39.4024 78.9957 39.4156 78.8674C39.4298 78.7304 39.3306 78.6081 39.1942 78.5938C38.5418 78.526 37.8939 78.4412 37.252 78.3401C37.2391 78.3381 37.2262 78.3371 37.2133 78.3371ZM50.9367 77.9724C50.9195 77.9724 50.9023 77.9741 50.8851 77.9777C50.2488 78.113 49.6069 78.2324 48.959 78.3348C48.8237 78.3561 48.7311 78.4837 48.7526 78.62C48.7718 78.7431 48.8773 78.8305 48.9974 78.8305C49.0103 78.8305 49.0232 78.8295 49.0361 78.8275C49.6926 78.7234 50.3431 78.6028 50.988 78.4655C51.122 78.4369 51.2077 78.3045 51.1792 78.1699C51.1547 78.0529 51.0515 77.9724 50.9367 77.9724ZM54.7447 76.9484C54.7192 76.9484 54.6934 76.9524 54.668 76.9607C54.0489 77.1629 53.4229 77.3494 52.7899 77.5196C52.6576 77.5552 52.5788 77.6918 52.6142 77.8248C52.644 77.9362 52.7443 78.0096 52.8538 78.0096C52.875 78.0096 52.8965 78.007 52.918 78.001C53.5592 77.8285 54.1938 77.6396 54.8212 77.4348C54.9515 77.3923 55.0227 77.2516 54.9803 77.1206C54.9466 77.0153 54.8493 76.9484 54.7447 76.9484ZM29.6022 76.2965C29.5022 76.2965 29.4083 76.3573 29.3705 76.4564C29.3216 76.585 29.3854 76.7293 29.5135 76.7785C30.1309 77.0166 30.7563 77.2387 31.3889 77.4448C31.4144 77.4531 31.4402 77.4571 31.4653 77.4571C31.5699 77.4571 31.6675 77.3899 31.7012 77.2846C31.7436 77.1536 31.6721 77.0129 31.5417 76.9704C30.9174 76.7669 30.3003 76.5478 29.6908 76.3128C29.6617 76.3018 29.6319 76.2965 29.6022 76.2965ZM58.4204 75.5288C58.3867 75.5288 58.3523 75.5358 58.3195 75.5504C57.7256 75.8167 57.1237 76.0677 56.5142 76.3031C56.3862 76.3527 56.3223 76.4969 56.3716 76.6253C56.4097 76.7243 56.5037 76.7852 56.6033 76.7852C56.6327 76.7852 56.6628 76.7799 56.6923 76.7686C57.31 76.5299 57.9201 76.2755 58.5217 76.0059C58.6467 75.9497 58.703 75.8024 58.6471 75.6768C58.606 75.5837 58.5154 75.5288 58.4204 75.5288ZM25.995 74.682C25.9046 74.682 25.8176 74.7316 25.7736 74.818C25.7114 74.9407 25.7597 75.091 25.8818 75.1535C26.4711 75.4553 27.0693 75.7426 27.6758 76.0139C27.7086 76.0285 27.743 76.0355 27.7767 76.0355C27.8717 76.0355 27.9623 75.9803 28.0034 75.8876C28.059 75.7615 28.0027 75.6143 27.8776 75.5584C27.2791 75.2904 26.6888 75.0072 26.1071 74.7093C26.0714 74.691 26.033 74.682 25.995 74.682ZM61.926 73.7302C61.884 73.7302 61.841 73.7408 61.802 73.7638C61.2382 74.0916 60.6654 74.4048 60.0837 74.7033C59.9616 74.7658 59.9133 74.9161 59.9755 75.0388C60.0195 75.1252 60.1066 75.1747 60.1969 75.1747C60.2349 75.1747 60.2733 75.1661 60.3094 75.1475C60.8987 74.8449 61.4794 74.5278 62.0505 74.1956C62.1689 74.1268 62.2096 73.9742 62.1411 73.8549C62.0951 73.7747 62.0117 73.7302 61.926 73.7302ZM22.5783 72.6969C22.4973 72.6969 22.4175 72.7368 22.3702 72.8103C22.2954 72.9256 22.3282 73.0802 22.443 73.1554C22.9976 73.5177 23.5624 73.8662 24.1364 74.1996C24.1755 74.2222 24.2182 74.2332 24.2605 74.2332C24.3462 74.2332 24.4296 74.1887 24.4756 74.1085C24.5441 73.9892 24.5037 73.8369 24.3849 73.7678C23.8185 73.4386 23.2609 73.0949 22.7137 72.7371C22.6716 72.7102 22.6247 72.6969 22.5783 72.6969ZM65.2275 71.5722C65.1769 71.5722 65.1259 71.5878 65.0816 71.62C64.5545 72.0054 64.0169 72.3774 63.4693 72.7351C63.3544 72.8103 63.3217 72.9645 63.3965 73.0802C63.4441 73.1537 63.5235 73.1936 63.6046 73.1936C63.6509 73.1936 63.6979 73.1806 63.7396 73.1534C64.2945 72.7907 64.8391 72.414 65.3731 72.0233C65.484 71.9422 65.5084 71.7863 65.4277 71.6749C65.3797 71.6077 65.3043 71.5722 65.2275 71.5722ZM19.388 70.3653C19.3159 70.3653 19.2441 70.3969 19.1951 70.4578C19.1088 70.5648 19.1253 70.7217 19.2315 70.8085C19.7454 71.2271 20.2708 71.6323 20.8065 72.024C20.8505 72.0562 20.9018 72.0719 20.9524 72.0719C21.0292 72.0719 21.1046 72.0363 21.1533 71.9691C21.234 71.8578 21.2095 71.7018 21.0987 71.6207C20.5699 71.2341 20.0518 70.8341 19.5442 70.4209C19.4982 70.3833 19.443 70.3653 19.388 70.3653ZM68.2894 69.079C68.2302 69.079 68.171 69.1 68.1233 69.1432C67.6383 69.5821 67.142 70.0083 66.6344 70.4215C66.5279 70.5083 66.5117 70.6652 66.598 70.7723C66.647 70.8331 66.7188 70.8647 66.7909 70.8647C66.8458 70.8647 66.9011 70.8464 66.9471 70.8092C67.4613 70.3906 67.9642 69.9587 68.4555 69.5139C68.5575 69.4218 68.5657 69.2642 68.4737 69.1618C68.4248 69.107 68.3573 69.079 68.2894 69.079ZM16.4578 67.7136C16.3943 67.7136 16.3307 67.7379 16.2824 67.7868C16.1855 67.8842 16.1855 68.0421 16.2824 68.1395C16.7503 68.6096 17.2304 69.0674 17.7224 69.5126C17.7697 69.5555 17.8293 69.5767 17.8885 69.5767C17.9563 69.5767 18.0238 69.5488 18.0731 69.4943C18.1648 69.3919 18.1565 69.2343 18.0549 69.1422C17.5695 68.703 17.0957 68.2512 16.6338 67.7871C16.5845 67.7379 16.5213 67.7136 16.4578 67.7136ZM71.0777 66.2787C71.0099 66.2787 70.9424 66.3066 70.8934 66.3612C70.456 66.8485 70.006 67.3246 69.5441 67.7884C69.4472 67.8858 69.4472 68.0438 69.5441 68.1412C69.5924 68.1897 69.656 68.2143 69.7195 68.2143C69.783 68.2143 69.8465 68.19 69.8949 68.1412C70.3627 67.6711 70.8187 67.189 71.2617 66.695C71.3534 66.5926 71.3454 66.435 71.2435 66.3429C71.1965 66.2997 71.137 66.2787 71.0777 66.2787ZM13.8184 64.7717C13.7635 64.7717 13.7082 64.7899 13.6622 64.8272C13.5557 64.914 13.5395 65.0709 13.6258 65.1779C14.0427 65.6942 14.4729 66.1996 14.9156 66.693C14.9646 66.7475 15.0321 66.7754 15.0999 66.7754C15.1591 66.7754 15.2183 66.7541 15.266 66.7112C15.3679 66.6192 15.3758 66.4612 15.2842 66.3592C14.8471 65.8721 14.4229 65.3734 14.0113 64.8638C13.9623 64.8032 13.8909 64.7717 13.8184 64.7717ZM73.5626 63.2008C73.4858 63.2008 73.4104 63.2363 73.3618 63.3035C72.977 63.8344 72.5786 64.3551 72.167 64.8647C72.0806 64.9715 72.0968 65.1287 72.2034 65.2155C72.2494 65.2531 72.3046 65.2713 72.3595 65.2713C72.4317 65.2713 72.5035 65.2398 72.5524 65.1789C72.9694 64.6626 73.373 64.135 73.7628 63.5971C73.8435 63.4857 73.819 63.3298 73.7082 63.2487C73.6645 63.2161 73.6132 63.2008 73.5626 63.2008ZM11.4993 61.5714C11.453 61.5714 11.406 61.5843 11.364 61.6116C11.2492 61.6867 11.2167 61.8413 11.2915 61.9567C11.6525 62.5139 12.028 63.0611 12.4168 63.5977C12.4655 63.6649 12.5409 63.7005 12.6177 63.7005C12.6683 63.7005 12.7196 63.6848 12.7636 63.6526C12.8744 63.5715 12.8989 63.4155 12.8182 63.3042C12.4343 62.7746 12.0641 62.2346 11.7077 61.6847C11.6601 61.6113 11.5804 61.5714 11.4993 61.5714ZM75.7156 59.8778C75.6299 59.8778 75.5465 59.9224 75.5006 60.0021C75.1727 60.5713 74.8305 61.1312 74.4742 61.6811C74.3994 61.7965 74.4318 61.951 74.5466 62.0262C74.5883 62.0534 74.6353 62.0667 74.6816 62.0667C74.7627 62.0667 74.8424 62.0268 74.8897 61.9534C75.2507 61.3962 75.5975 60.8293 75.9297 60.2525C75.9982 60.1331 75.9578 59.9809 75.8394 59.9117C75.8003 59.8888 75.7576 59.8778 75.7156 59.8778ZM9.52628 58.1477C9.48823 58.1477 9.44985 58.1567 9.41346 58.1749C9.29136 58.2374 9.24305 58.3877 9.30559 58.5104C9.60669 59.1025 9.923 59.6856 10.2535 60.2595C10.2995 60.3393 10.3829 60.3838 10.4686 60.3838C10.511 60.3838 10.5537 60.3728 10.5927 60.3502C10.7115 60.2811 10.7518 60.1288 10.683 60.0095C10.3568 59.4433 10.0448 58.8678 9.74731 58.2833C9.7033 58.1972 9.61628 58.1477 9.52628 58.1477ZM77.5109 56.3451C77.416 56.3451 77.3253 56.4002 77.2843 56.493C77.0173 57.0944 76.7354 57.6872 76.4382 58.2717C76.376 58.3944 76.4244 58.5446 76.5464 58.6071C76.5825 58.6258 76.6212 58.6344 76.6589 58.6344C76.7493 58.6344 76.8363 58.5849 76.8803 58.4984C77.1811 57.9066 77.4669 57.3055 77.7376 56.6961C77.7935 56.5705 77.7373 56.4229 77.6122 56.367C77.5788 56.352 77.5447 56.3451 77.5109 56.3451ZM7.92187 54.5375C7.89209 54.5375 7.86198 54.5428 7.83286 54.5541C7.70481 54.6036 7.64129 54.7479 7.69026 54.8762C7.92815 55.497 8.18161 56.1097 8.45028 56.7141C8.49164 56.8069 8.58196 56.8617 8.67693 56.8617C8.71068 56.8617 8.74509 56.8547 8.77784 56.8401C8.90291 56.7839 8.95916 56.6366 8.90324 56.5106C8.63821 55.9142 8.38807 55.3094 8.15348 54.697C8.11543 54.5983 8.02146 54.5375 7.92187 54.5375ZM78.9268 52.6398C78.8222 52.6398 78.7249 52.7069 78.6909 52.8123C78.4884 53.4397 78.2696 54.0594 78.0357 54.6718C77.9864 54.8004 78.0506 54.9444 78.1783 54.9939C78.2074 55.0052 78.2376 55.0106 78.2673 55.0106C78.3669 55.0106 78.4612 54.9497 78.4989 54.8506C78.7362 54.2303 78.9575 53.6019 79.1627 52.9666C79.205 52.8356 79.1336 52.695 79.0032 52.6524C78.9781 52.6434 78.9522 52.6398 78.9268 52.6398ZM6.70193 50.771C6.68075 50.771 6.65892 50.7737 6.63741 50.7796C6.50506 50.8152 6.42664 50.9522 6.46205 51.0852C6.63377 51.7295 6.82237 52.3668 7.02652 52.9972C7.0606 53.1026 7.15788 53.1694 7.26243 53.1694C7.28791 53.1694 7.31372 53.1654 7.3392 53.1571C7.46956 53.1145 7.5407 52.9736 7.49835 52.8429C7.29684 52.2209 7.11122 51.5918 6.94148 50.9562C6.91171 50.8445 6.81145 50.771 6.70193 50.771ZM79.9442 48.8128C79.8294 48.8128 79.7262 48.8933 79.7017 49.0106C79.566 49.6549 79.4141 50.2932 79.2461 50.9246C79.2107 51.0576 79.2894 51.1942 79.4218 51.2298C79.4433 51.2354 79.4648 51.2384 79.4859 51.2384C79.5955 51.2384 79.6961 51.165 79.7255 51.0536C79.8956 50.4136 80.0498 49.767 80.1871 49.114C80.2155 48.9794 80.1298 48.847 79.9955 48.8184C79.9786 48.8145 79.9614 48.8128 79.9442 48.8128ZM5.88301 46.8965C5.87011 46.8965 5.8572 46.8975 5.84397 46.8995C5.70864 46.9207 5.61633 47.0487 5.6375 47.1847C5.74107 47.8443 5.86151 48.4979 5.99849 49.1456C6.0233 49.2629 6.12621 49.3434 6.24102 49.3434C6.25823 49.3434 6.27543 49.3417 6.29297 49.3377C6.42697 49.3092 6.51267 49.1768 6.48421 49.0422C6.34922 48.4029 6.2301 47.7579 6.12786 47.1069C6.10867 46.9843 6.00312 46.8965 5.88301 46.8965ZM80.556 44.8997C80.4306 44.8997 80.3227 44.9951 80.3095 45.1235C80.2417 45.7791 80.1573 46.4297 80.0564 47.075C80.0352 47.211 80.1275 47.3387 80.2632 47.3599C80.2761 47.3619 80.2893 47.3629 80.3019 47.3629C80.422 47.3629 80.5275 47.2752 80.5467 47.1521C80.649 46.4982 80.7347 45.8389 80.8032 45.1747C80.8174 45.0377 80.7181 44.915 80.5818 44.901C80.5732 44.9004 80.5646 44.8997 80.556 44.8997ZM5.4724 42.9575C5.4681 42.9575 5.46346 42.9575 5.45916 42.9578C5.32218 42.9651 5.21729 43.0825 5.22424 43.2198C5.25898 43.887 5.31093 44.55 5.37942 45.2076C5.39266 45.3356 5.50052 45.431 5.62592 45.431C5.63453 45.431 5.64313 45.4306 5.65206 45.4296C5.78838 45.4154 5.88731 45.2927 5.87309 45.1557C5.80559 44.5064 5.7543 43.8524 5.71989 43.1938C5.71294 43.0605 5.60342 42.9575 5.4724 42.9575ZM80.7595 40.8806C80.6225 40.8809 80.511 40.9926 80.5113 41.1302C80.5113 41.1512 80.5113 41.1725 80.5113 41.1937C80.5113 41.8537 80.4945 42.5096 80.461 43.1613C80.4541 43.2989 80.5593 43.4159 80.696 43.4232C80.7003 43.4236 80.7046 43.4236 80.7089 43.4236C80.8399 43.4236 80.9497 43.3202 80.9564 43.1872C80.9901 42.5269 81.0073 41.8627 81.0073 41.1941C81.0073 41.1728 81.0073 41.1512 81.0073 41.1299C81.0073 40.9919 80.8965 40.8806 80.7595 40.8806ZM5.46843 38.9962C5.33707 38.9962 5.22755 39.0996 5.22093 39.2329C5.18817 39.8825 5.17163 40.5361 5.17163 41.1937C5.17163 41.2044 5.17163 41.2154 5.17163 41.226C5.17163 41.3636 5.28281 41.475 5.41979 41.475C5.55677 41.475 5.66828 41.3633 5.66794 41.2253C5.66794 41.2147 5.66794 41.2041 5.66794 41.1934C5.66794 40.5441 5.68416 39.8988 5.71658 39.2578C5.72353 39.1202 5.61831 39.0031 5.48133 38.9962C5.47703 38.9962 5.47273 38.9962 5.46843 38.9962ZM80.55 36.9249C80.5414 36.9249 80.5325 36.9253 80.5236 36.9263C80.3872 36.9406 80.2883 37.0636 80.3029 37.2005C80.371 37.8495 80.423 38.5038 80.4577 39.1624C80.4647 39.2954 80.5742 39.3984 80.7052 39.3984C80.7095 39.3984 80.7142 39.3984 80.7188 39.3981C80.8558 39.3908 80.9607 39.2734 80.9534 39.1358C80.918 38.4686 80.8657 37.806 80.7965 37.148C80.783 37.02 80.6754 36.9249 80.55 36.9249ZM5.87242 35.0562C5.75232 35.0562 5.64677 35.1439 5.62758 35.2669C5.526 35.9209 5.44063 36.5802 5.3728 37.2444C5.35891 37.3814 5.45784 37.5037 5.59416 37.518C5.60276 37.519 5.61136 37.5194 5.61997 37.5194C5.7457 37.5194 5.85323 37.424 5.86647 37.2956C5.93364 36.64 6.01768 35.989 6.11793 35.3437C6.13911 35.2078 6.04647 35.0801 5.91114 35.0588C5.89823 35.0572 5.88533 35.0562 5.87242 35.0562ZM79.9316 33.0132C79.9144 33.0132 79.8972 33.0148 79.8797 33.0188C79.7457 33.0474 79.6603 33.1801 79.6888 33.3147C79.8244 33.9537 79.9439 34.599 80.0468 35.2496C80.0663 35.3723 80.1715 35.4598 80.2916 35.4598C80.3045 35.4598 80.3178 35.4588 80.331 35.4568C80.4663 35.4352 80.5586 35.3075 80.5371 35.1715C80.4329 34.5122 80.3118 33.8586 80.1745 33.211C80.149 33.0933 80.0461 33.0132 79.9316 33.0132ZM6.68506 31.18C6.5752 31.18 6.47495 31.2538 6.4455 31.3652C6.27576 32.0055 6.12224 32.6521 5.98558 33.3054C5.95746 33.4401 6.04316 33.5724 6.17716 33.6006C6.19437 33.6043 6.21157 33.606 6.22845 33.606C6.34326 33.606 6.44649 33.5255 6.47098 33.4078C6.60598 32.7635 6.75752 32.1252 6.92494 31.4932C6.96034 31.3602 6.88126 31.2235 6.74891 31.188C6.72741 31.1826 6.7059 31.18 6.68506 31.18ZM78.9072 29.1882C78.8818 29.1882 78.856 29.1922 78.8302 29.2005C78.6998 29.2434 78.6286 29.384 78.6713 29.515C78.8735 30.1367 79.0598 30.7657 79.2298 31.4014C79.2596 31.5128 79.3599 31.5859 79.4694 31.5859C79.4909 31.5859 79.5124 31.5833 79.5339 31.5773C79.6663 31.5414 79.7447 31.4047 79.709 31.2717C79.5366 30.6278 79.3476 29.9904 79.1428 29.3601C79.1091 29.255 79.0118 29.1882 78.9072 29.1882ZM7.90036 27.4072C7.80044 27.4072 7.70647 27.468 7.66842 27.5674C7.43184 28.1881 7.21082 28.8165 7.006 29.4522C6.96398 29.5832 7.03545 29.7238 7.16582 29.766C7.1913 29.7743 7.2171 29.7783 7.24225 29.7783C7.34681 29.7783 7.44441 29.7112 7.47816 29.6058C7.68033 28.9784 7.89838 28.3584 8.13164 27.746C8.18061 27.6173 8.11675 27.473 7.98871 27.4238C7.95992 27.4125 7.93014 27.4072 7.90036 27.4072ZM77.4894 25.4962C77.4557 25.4962 77.4213 25.5032 77.3882 25.5181C77.2631 25.5743 77.2072 25.7219 77.2631 25.8476C77.5288 26.444 77.7793 27.0485 78.0145 27.6609C78.0526 27.7599 78.1466 27.8204 78.2462 27.8204C78.2759 27.8204 78.306 27.8151 78.3355 27.8038C78.4632 27.7543 78.5271 27.61 78.4778 27.4813C78.2395 26.861 77.9854 26.2482 77.7164 25.6441C77.6747 25.5514 77.5844 25.4962 77.4894 25.4962ZM9.50577 23.7817C9.41544 23.7817 9.32842 23.8316 9.28441 23.918C8.98398 24.5101 8.69876 25.1112 8.42877 25.7209C8.37318 25.8469 8.42943 25.9942 8.5545 26.0501C8.58726 26.0647 8.62167 26.0717 8.65509 26.0717C8.75005 26.0717 8.84071 26.0165 8.88207 25.9237C9.14842 25.3223 9.43 24.7289 9.72646 24.1444C9.78867 24.0217 9.74003 23.8715 9.61794 23.8089C9.5822 23.7907 9.54382 23.7817 9.50577 23.7817ZM75.6951 21.9761C75.6527 21.9761 75.6101 21.9871 75.5707 22.0097C75.4522 22.0788 75.4119 22.2314 75.4807 22.3504C75.8076 22.9163 76.1199 23.4918 76.4177 24.0759C76.4617 24.162 76.5488 24.2116 76.6388 24.2116C76.6768 24.2116 76.7155 24.2026 76.7516 24.184C76.8737 24.1211 76.9217 23.9709 76.8595 23.8485C76.5577 23.2567 76.241 22.6736 75.9098 22.1001C75.8638 22.0206 75.7805 21.9761 75.6951 21.9761ZM11.4801 20.3477C11.399 20.3477 11.3193 20.3876 11.272 20.4611C10.9117 21.0186 10.5652 21.5861 10.2334 22.1629C10.1649 22.2823 10.2056 22.4345 10.324 22.5037C10.3631 22.5263 10.4058 22.5373 10.4481 22.5373C10.5338 22.5373 10.6172 22.4927 10.6632 22.4126C10.9907 21.8431 11.3325 21.2832 11.6882 20.733C11.763 20.6176 11.7302 20.463 11.6154 20.3879C11.5734 20.3606 11.5264 20.3477 11.4801 20.3477ZM73.5431 18.6614C73.4925 18.6614 73.4412 18.6771 73.3968 18.7093C73.286 18.7904 73.2618 18.9464 73.3426 19.0577C73.7267 19.587 74.0976 20.1266 74.4547 20.6765C74.5023 20.7496 74.5817 20.7895 74.6628 20.7895C74.7094 20.7895 74.7564 20.7766 74.7981 20.749C74.9129 20.6738 74.9453 20.5192 74.8702 20.4039C74.5086 19.847 74.133 19.3001 73.7436 18.7638C73.695 18.697 73.6195 18.6614 73.5431 18.6614ZM13.7995 17.1414C13.7271 17.1414 13.6556 17.173 13.6066 17.2338C13.1904 17.7505 12.7871 18.2784 12.3976 18.8167C12.3169 18.9281 12.3417 19.084 12.4525 19.1651C12.4966 19.1974 12.5475 19.2127 12.5981 19.2127C12.6749 19.2127 12.7507 19.1771 12.799 19.1099C13.1835 18.5786 13.5815 18.0577 13.9924 17.5477C14.0788 17.4406 14.0623 17.2837 13.9557 17.1969C13.9094 17.1594 13.8541 17.1414 13.7995 17.1414ZM71.0579 15.5881C70.9987 15.5881 70.9391 15.6094 70.8918 15.6523C70.7902 15.7447 70.7819 15.9023 70.8739 16.0044C71.3113 16.4911 71.7362 16.9895 72.1481 17.4988C72.1971 17.5593 72.2686 17.5909 72.3407 17.5909C72.3956 17.5909 72.4509 17.5726 72.4972 17.535C72.6034 17.4483 72.6196 17.291 72.5333 17.1843C72.116 16.6683 71.6855 16.1633 71.2425 15.6703C71.1932 15.6161 71.1257 15.5881 71.0579 15.5881ZM16.4369 14.1961C16.3734 14.1961 16.3099 14.2204 16.2613 14.2693C15.7937 14.7397 15.3381 15.2224 14.8954 15.7168C14.8037 15.8192 14.812 15.9768 14.9139 16.0689C14.9612 16.1118 15.0208 16.1327 15.08 16.1327C15.1479 16.1327 15.2157 16.1048 15.2647 16.0503C15.7017 15.5622 16.1511 15.0861 16.6126 14.6217C16.7096 14.5243 16.7093 14.3663 16.6123 14.2689C16.564 14.2204 16.5005 14.1961 16.4369 14.1961ZM68.2676 12.7898C68.1998 12.7898 68.1319 12.8177 68.083 12.8726C67.9913 12.975 67.9996 13.1326 68.1015 13.2247C68.5872 13.6635 69.0614 14.115 69.5239 14.5785C69.5723 14.627 69.6358 14.6513 69.6993 14.6513C69.7628 14.6513 69.8264 14.627 69.875 14.5781C69.972 14.4807 69.9716 14.3228 69.8747 14.2254C69.4062 13.7556 68.9257 13.2985 68.4337 12.8536C68.3861 12.8111 68.3268 12.7898 68.2676 12.7898ZM19.3635 11.5431C19.3086 11.5431 19.2534 11.5614 19.2074 11.5989C18.6935 12.0182 18.1909 12.4504 17.6999 12.8955C17.598 12.9876 17.5901 13.1455 17.6817 13.2476C17.7307 13.3021 17.7982 13.3301 17.866 13.3301C17.9252 13.3301 17.9848 13.3088 18.0321 13.2659C18.5168 12.8267 19.0128 12.3998 19.5197 11.9862C19.6263 11.8995 19.6425 11.7426 19.5561 11.6355C19.5075 11.5747 19.436 11.5431 19.3635 11.5431ZM65.2014 10.2973C65.1246 10.2973 65.0489 10.3329 65.0005 10.4001C64.9198 10.5114 64.9446 10.6674 65.0555 10.7485C65.5845 11.1345 66.103 11.5341 66.6109 11.947C66.6569 11.9843 66.7122 12.0025 66.7668 12.0025C66.8392 12.0025 66.9107 11.971 66.96 11.9101C67.046 11.8031 67.0298 11.6461 66.9233 11.5594C66.4088 11.1411 65.8833 10.7362 65.3473 10.3452C65.303 10.3126 65.252 10.2973 65.2014 10.2973ZM22.5476 9.21152C22.5012 9.21152 22.4543 9.22448 22.4122 9.25208C21.8577 9.61513 21.3134 9.99247 20.7797 10.3834C20.6688 10.4646 20.6447 10.6205 20.7254 10.7319C20.7741 10.7987 20.8495 10.8343 20.9263 10.8343C20.9769 10.8343 21.0282 10.8186 21.0722 10.7864C21.5989 10.4004 22.1363 10.0284 22.6835 9.66998C22.7984 9.59484 22.8308 9.44025 22.756 9.32489C22.708 9.25141 22.6286 9.21152 22.5476 9.21152ZM61.8916 8.13833C61.8059 8.13833 61.7226 8.18321 61.6766 8.263C61.6081 8.38235 61.6488 8.53462 61.7676 8.60344C62.3344 8.93225 62.8919 9.27535 63.4398 9.63275C63.4815 9.66001 63.5285 9.67297 63.5748 9.67297C63.6562 9.67297 63.7356 9.63308 63.7833 9.55927C63.858 9.44391 63.8253 9.28931 63.7101 9.21451C63.1553 8.85246 62.5905 8.5047 62.0157 8.17157C61.9763 8.14896 61.934 8.13833 61.8916 8.13833ZM25.9543 7.22738C25.9162 7.22738 25.8775 7.23636 25.8414 7.25497C25.2521 7.55785 24.6721 7.87568 24.101 8.20848C23.9826 8.27763 23.9419 8.43023 24.0107 8.54925C24.0567 8.62904 24.1401 8.67359 24.2258 8.67359C24.2681 8.67359 24.3108 8.66262 24.3498 8.64001C24.9133 8.31187 25.4857 7.99803 26.0674 7.69914C26.1895 7.63631 26.2378 7.48603 26.1753 7.36369C26.1313 7.27692 26.0443 7.22738 25.9543 7.22738ZM58.3734 6.33871C58.2785 6.33871 58.1875 6.3939 58.1465 6.48698C58.0909 6.61266 58.1471 6.76027 58.2725 6.81612C58.8714 7.08342 59.462 7.36635 60.0437 7.6639C60.0798 7.68219 60.1181 7.69116 60.1562 7.69116C60.2465 7.69116 60.3339 7.64129 60.3776 7.55485C60.4398 7.43218 60.3911 7.2819 60.269 7.2194C59.6794 6.91786 59.0812 6.63127 58.4744 6.36032C58.4413 6.34569 58.4072 6.33871 58.3734 6.33871ZM29.5466 5.61361C29.5168 5.61361 29.4867 5.61893 29.4572 5.63023C28.8395 5.86927 28.2297 6.12427 27.6285 6.39456C27.5034 6.45075 27.4472 6.59836 27.5031 6.72403C27.5444 6.81679 27.6348 6.87164 27.7297 6.87164C27.7635 6.87164 27.7979 6.86466 27.831 6.85003C28.4246 6.5834 29.0264 6.33173 29.6359 6.09568C29.7636 6.04614 29.8275 5.90185 29.7782 5.77319C29.7401 5.67445 29.6462 5.61361 29.5466 5.61361ZM54.6838 4.92042C54.579 4.92042 54.4817 4.98758 54.4479 5.0933C54.4059 5.22429 54.4774 5.36492 54.6077 5.40715C55.2321 5.60995 55.8495 5.82871 56.459 6.06309C56.4881 6.0744 56.5182 6.07972 56.5477 6.07972C56.6476 6.07972 56.7416 6.01855 56.7796 5.91947C56.8286 5.79081 56.7644 5.64652 56.6367 5.59732C56.0189 5.35994 55.3932 5.13818 54.7606 4.93272C54.7348 4.92441 54.709 4.92042 54.6838 4.92042ZM33.2947 4.38582C33.2736 4.38582 33.2517 4.38848 33.2302 4.39447C32.589 4.56735 31.9547 4.75685 31.3277 4.96231C31.1973 5.00487 31.1262 5.14583 31.1685 5.27682C31.2026 5.38221 31.2999 5.44904 31.4044 5.44904C31.4299 5.44904 31.4557 5.44505 31.4815 5.43674C32.1006 5.23393 32.7266 5.04709 33.3592 4.8762C33.4916 4.84063 33.57 4.70366 33.5346 4.57067C33.5045 4.4593 33.4042 4.38582 33.2947 4.38582ZM50.8735 3.90275C50.7587 3.90275 50.6554 3.98354 50.6309 4.1009C50.6028 4.23555 50.6885 4.36787 50.8229 4.39613C51.4644 4.53144 52.0997 4.68338 52.7284 4.85127C52.7499 4.85692 52.7711 4.85958 52.7922 4.85958C52.9021 4.85958 53.0023 4.78577 53.0318 4.67407C53.0669 4.54108 52.9881 4.40444 52.8558 4.3692C52.2185 4.19898 51.5746 4.04505 50.9248 3.90774C50.9076 3.90442 50.8904 3.90275 50.8735 3.90275ZM37.1504 3.56165C37.1375 3.56165 37.1243 3.56264 37.1114 3.56464C36.4553 3.66903 35.8044 3.79038 35.1599 3.92835C35.0259 3.95695 34.9402 4.0896 34.969 4.22424C34.9938 4.34127 35.0967 4.42173 35.2115 4.42173C35.2287 4.42173 35.2459 4.42007 35.2634 4.41608C35.8994 4.2801 36.5416 4.16041 37.1891 4.05735C37.3245 4.03574 37.4168 3.90807 37.3953 3.7721C37.3761 3.64908 37.2705 3.56165 37.1504 3.56165ZM46.9784 3.29302C46.8527 3.29302 46.7448 3.38877 46.7319 3.5171C46.718 3.65407 46.8173 3.77642 46.9536 3.79071C47.6061 3.85787 48.2539 3.94198 48.8962 4.04272C48.9091 4.04471 48.922 4.04571 48.9346 4.04571C49.0547 4.04571 49.1605 3.95794 49.1794 3.8346C49.2006 3.69862 49.1079 3.57096 48.9723 3.55001C48.3214 3.44828 47.6653 3.36283 47.0039 3.29468C46.9953 3.29335 46.987 3.29302 46.9784 3.29302ZM41.0706 3.1474C41.0663 3.1474 41.0617 3.1474 41.0574 3.14773C40.3933 3.18297 39.7339 3.2355 39.0791 3.30465C38.9428 3.31895 38.8438 3.44163 38.8584 3.5786C38.872 3.7066 38.9795 3.80202 39.1049 3.80202C39.1135 3.80202 39.1224 3.80168 39.131 3.80069C39.7772 3.73253 40.4281 3.68067 41.0835 3.64609C41.2205 3.63878 41.3254 3.52142 41.3181 3.38378C41.3112 3.25046 41.2017 3.1474 41.0706 3.1474ZM43.0913 3.09387H43.0896C43.0738 3.09387 43.0575 3.09387 43.0417 3.09387C42.9047 3.09387 42.7935 3.20591 42.7938 3.34355C42.7938 3.48119 42.905 3.59257 43.042 3.59257C43.0532 3.59257 43.0648 3.59257 43.0757 3.59257C43.0804 3.59257 43.085 3.59257 43.0896 3.59257C43.7305 3.59257 44.3675 3.60886 45.0004 3.64077C45.0047 3.64111 45.009 3.64111 45.013 3.64111C45.1444 3.64111 45.2539 3.53771 45.2605 3.40439C45.2675 3.26675 45.1619 3.14973 45.0253 3.14274C44.3847 3.11016 43.7398 3.09387 43.0913 3.09387Z" fill="#009DC0"/>
<path d="M41.3101 64.6747C41.1863 64.6747 41.0791 64.7678 41.0639 64.8944C41.0477 65.0311 41.1446 65.1554 41.281 65.1717C41.9315 65.2498 42.5899 65.3027 43.2553 65.3286C43.2586 65.3286 43.2619 65.329 43.2652 65.329C43.3979 65.329 43.5077 65.2236 43.513 65.0893C43.5183 64.9516 43.4118 64.8356 43.2748 64.8303C42.623 64.8047 41.9778 64.7531 41.3402 64.6763C41.3299 64.6753 41.32 64.6747 41.3101 64.6747ZM47.1804 64.672C47.1705 64.672 47.1606 64.6727 47.1503 64.6737C46.5127 64.7508 45.8679 64.803 45.2157 64.8293C45.0787 64.8349 44.9722 64.9509 44.9778 65.0886C44.9831 65.2229 45.0933 65.328 45.2256 65.328C45.2289 65.328 45.2323 65.328 45.2356 65.3276C45.9006 65.301 46.5591 65.2475 47.2096 65.1687C47.3456 65.1521 47.4425 65.0281 47.4263 64.8914C47.4114 64.7651 47.3042 64.672 47.1804 64.672ZM37.4699 63.8931C37.3621 63.8931 37.2628 63.9642 37.2317 64.0732C37.1937 64.2056 37.2698 64.3435 37.4014 64.3818C38.0328 64.565 38.6743 64.7232 39.3255 64.8555C39.342 64.8589 39.3586 64.8605 39.3751 64.8605C39.4906 64.8605 39.5942 64.7787 39.618 64.6607C39.6451 64.5257 39.5584 64.3941 39.4241 64.3668C38.7862 64.2371 38.1575 64.0819 37.5391 63.9027C37.5159 63.8964 37.4928 63.8931 37.4699 63.8931ZM51.0196 63.8871C50.9968 63.8871 50.9736 63.8904 50.9504 63.897C50.332 64.0769 49.7037 64.2325 49.0661 64.3628C48.9318 64.3901 48.8451 64.5221 48.8725 64.6567C48.8964 64.7747 48.9999 64.8565 49.1154 64.8565C49.1319 64.8565 49.1485 64.8549 49.165 64.8515C49.8159 64.7186 50.4574 64.5596 51.0884 64.3761C51.2201 64.3379 51.2959 64.1996 51.2578 64.0673C51.2264 63.9579 51.1271 63.8871 51.0196 63.8871ZM33.8045 62.498C33.7115 62.498 33.6225 62.5506 33.5802 62.6407C33.5213 62.765 33.5742 62.9136 33.698 62.9728C34.2932 63.2567 34.9017 63.5174 35.5217 63.7534C35.5505 63.7644 35.5803 63.7697 35.6094 63.7697C35.7097 63.7697 35.804 63.7082 35.8417 63.6085C35.8903 63.4798 35.8258 63.3358 35.6974 63.287C35.0896 63.0556 34.4937 62.8006 33.9107 62.5223C33.8763 62.5057 33.8402 62.498 33.8045 62.498ZM54.6814 62.4897C54.6456 62.4897 54.6092 62.4974 54.5748 62.514C53.9928 62.7923 53.3979 63.0476 52.7911 63.279C52.663 63.3279 52.5985 63.4718 52.6472 63.6005C52.6849 63.7002 52.7792 63.7614 52.8791 63.7614C52.9082 63.7614 52.9383 63.7561 52.9671 63.7451C53.5862 63.5087 54.1937 63.2481 54.7876 62.9641C54.9113 62.905 54.9639 62.756 54.905 62.632C54.863 62.5423 54.774 62.4897 54.6814 62.4897ZM30.4101 60.5272C30.3313 60.5272 30.2539 60.5648 30.2056 60.6349C30.1278 60.7483 30.156 60.9035 30.2688 60.9817C30.8114 61.3584 31.3703 61.7138 31.9433 62.0466C31.9824 62.0692 32.0251 62.0801 32.0674 62.0801C32.1531 62.0801 32.2365 62.0356 32.2825 61.9555C32.351 61.8361 32.3103 61.6838 32.1918 61.6147C31.6303 61.2885 31.0831 60.9405 30.551 60.5714C30.5077 60.5418 30.4587 60.5272 30.4101 60.5272ZM58.0715 60.5182C58.0229 60.5182 57.9736 60.5325 57.9306 60.5624C57.3992 60.9318 56.8526 61.2799 56.2917 61.6064C56.1733 61.6752 56.1326 61.8278 56.2014 61.9471C56.2474 62.0269 56.3308 62.0715 56.4165 62.0715C56.4585 62.0715 56.5015 62.0605 56.5406 62.0379C57.113 61.7048 57.6712 61.3494 58.2131 60.9727C58.326 60.8942 58.3541 60.739 58.276 60.6256C58.2277 60.5558 58.1503 60.5182 58.0715 60.5182ZM27.3736 58.0364C27.3084 58.0364 27.2433 58.062 27.1946 58.1132C27.0997 58.2126 27.103 58.3702 27.2019 58.4656C27.6784 58.9251 28.173 59.3652 28.6849 59.7855C28.7309 59.8234 28.7865 59.8417 28.8417 59.8417C28.9135 59.8417 28.985 59.8104 29.034 59.7499C29.1206 59.6432 29.1048 59.4863 28.9986 59.3992C28.4969 58.9876 28.0119 58.556 27.545 58.1059C27.4974 58.0597 27.4355 58.0364 27.3736 58.0364ZM61.1053 58.0261C61.0434 58.0261 60.9816 58.049 60.9333 58.0956C60.4667 58.5461 59.9823 58.9776 59.481 59.3895C59.3748 59.4766 59.3593 59.6339 59.446 59.7403C59.4949 59.8004 59.5664 59.8317 59.6382 59.8317C59.6935 59.8317 59.7491 59.8134 59.795 59.7755C60.3066 59.3553 60.8012 58.9148 61.277 58.455C61.376 58.3595 61.3789 58.2016 61.284 58.1022C61.2357 58.0517 61.1705 58.0261 61.1053 58.0261ZM24.7723 55.0914C24.7203 55.0914 24.6677 55.1077 24.6231 55.1416C24.5135 55.2244 24.4917 55.381 24.5741 55.4907C24.9718 56.021 25.3904 56.535 25.8284 57.031C25.8774 57.0865 25.9456 57.1148 26.0141 57.1148C26.0726 57.1148 26.1315 57.0942 26.1788 57.052C26.2814 56.9605 26.2907 56.803 26.1997 56.6999C25.7705 56.2138 25.3603 55.7105 24.9705 55.1905C24.9218 55.1257 24.8474 55.0914 24.7723 55.0914ZM63.7053 55.0791C63.6299 55.0791 63.5558 55.1134 63.5068 55.1785C63.1174 55.6988 62.7074 56.2025 62.2783 56.6889C62.1873 56.792 62.1969 56.9496 62.2994 57.041C62.3468 57.0832 62.4053 57.1038 62.4639 57.1038C62.5324 57.1038 62.6005 57.0756 62.6498 57.0201C63.0876 56.5237 63.5061 56.0094 63.9035 55.4784C63.9859 55.3684 63.9641 55.2121 63.8545 55.1293C63.8095 55.0954 63.7573 55.0791 63.7053 55.0791ZM22.6732 51.7678C22.6342 51.7678 22.5948 51.7771 22.5577 51.7967C22.4366 51.8609 22.39 52.0118 22.4539 52.1335C22.7622 52.722 23.0934 53.2961 23.4465 53.855C23.4938 53.9298 23.5742 53.9707 23.6562 53.9707C23.7016 53.9707 23.7476 53.9581 23.7889 53.9318C23.9047 53.858 23.9388 53.7041 23.8654 53.5877C23.5196 53.0398 23.1947 52.4773 22.8926 51.9008C22.8486 51.8163 22.7626 51.7678 22.6732 51.7678ZM65.8034 51.7515C65.7141 51.7515 65.628 51.8001 65.5837 51.8848C65.2816 52.462 64.9574 53.0252 64.6113 53.5737C64.5378 53.6901 64.5722 53.844 64.688 53.9178C64.7294 53.9441 64.775 53.9567 64.8207 53.9567C64.9028 53.9567 64.9832 53.9158 65.0305 53.8407C65.3835 53.2808 65.7147 52.706 66.0228 52.1169C66.0866 51.9949 66.04 51.8443 65.9185 51.7801C65.8818 51.7608 65.8424 51.7515 65.8034 51.7515ZM21.1343 48.15C21.1082 48.15 21.0817 48.1543 21.0556 48.1629C20.9255 48.2065 20.8554 48.3478 20.8991 48.4784C21.1095 49.1098 21.3444 49.7298 21.6028 50.3372C21.6432 50.432 21.7349 50.4885 21.8311 50.4885C21.8636 50.4885 21.8967 50.4822 21.9284 50.4682C22.0545 50.414 22.113 50.2674 22.0591 50.1411C21.806 49.546 21.5757 48.9386 21.3699 48.3198C21.3348 48.2158 21.2382 48.15 21.1343 48.15ZM67.3413 48.127C67.2374 48.127 67.1405 48.1932 67.1061 48.2976C66.9002 48.9173 66.6703 49.526 66.4172 50.1225C66.3632 50.2491 66.4221 50.3957 66.5482 50.4496C66.58 50.4632 66.613 50.4695 66.6455 50.4695C66.7421 50.4695 66.8337 50.4127 66.8738 50.3179C67.1322 49.7092 67.3668 49.0878 67.5769 48.4552C67.6202 48.3245 67.5501 48.1832 67.4201 48.1396C67.3939 48.1313 67.3674 48.127 67.3413 48.127ZM20.1966 44.3276C20.1834 44.3276 20.1702 44.3286 20.1566 44.331C20.0213 44.3529 19.9293 44.4812 19.9514 44.6172C20.058 45.2761 20.1903 45.9268 20.3475 46.5671C20.3753 46.6808 20.4769 46.7569 20.5884 46.7569C20.6079 46.7569 20.6281 46.7546 20.6479 46.7496C20.7809 46.7167 20.8623 46.5814 20.8296 46.4477C20.6757 45.8201 20.546 45.1831 20.4415 44.5371C20.4213 44.4144 20.3161 44.3276 20.1966 44.3276ZM68.2754 44.3037C68.1556 44.3037 68.0504 44.3908 68.0308 44.5135C67.9273 45.1595 67.7982 45.7968 67.6447 46.4245C67.612 46.5581 67.6934 46.6931 67.8267 46.726C67.8465 46.731 67.8664 46.7333 67.8859 46.7333C67.9974 46.7333 68.099 46.6572 68.1268 46.5435C68.2833 45.9028 68.415 45.2522 68.5209 44.5929C68.5427 44.457 68.4507 44.329 68.3154 44.307C68.3018 44.3047 68.2886 44.3037 68.2754 44.3037ZM19.881 40.4032C19.8806 40.4032 19.8806 40.4032 19.881 40.4032C19.7437 40.4032 19.6328 40.5153 19.6328 40.6529C19.6335 41.3222 19.6606 41.9854 19.7132 42.6414C19.7238 42.7717 19.8323 42.8708 19.9604 42.8708C19.967 42.8708 19.9739 42.8704 19.9806 42.8701C20.1172 42.8591 20.2191 42.7388 20.2079 42.6015C20.1563 41.9585 20.1298 41.3089 20.1291 40.6526C20.1288 40.5146 20.0176 40.4032 19.881 40.4032ZM68.5874 40.3314H68.587C68.4501 40.3318 68.3392 40.4435 68.3392 40.5811C68.3392 40.5967 68.3392 40.6127 68.3392 40.6283C68.3392 41.2843 68.3131 41.9342 68.2625 42.5769C68.2515 42.7142 68.3535 42.8342 68.4901 42.8452C68.4967 42.8458 68.5033 42.8458 68.51 42.8458C68.638 42.8458 68.7469 42.7468 68.7571 42.6164C68.8091 41.9605 68.8355 41.2976 68.8355 40.6283C68.8355 40.6124 68.8355 40.5961 68.8355 40.5801C68.8352 40.4428 68.724 40.3314 68.5874 40.3314ZM20.1884 36.4785C20.0686 36.4785 19.9634 36.566 19.9435 36.6883C19.8399 37.3389 19.7612 37.9979 19.7092 38.6645C19.6987 38.8018 19.8006 38.9218 19.9372 38.9328C19.9438 38.9334 19.9505 38.9334 19.9571 38.9334C20.0854 38.9334 20.194 38.8343 20.2042 38.7037C20.2552 38.0507 20.3323 37.4048 20.4339 36.7674C20.4554 36.6315 20.3634 36.5035 20.2281 36.4818C20.2145 36.4795 20.2013 36.4785 20.1884 36.4785ZM68.2684 36.4074C68.2552 36.4074 68.2416 36.4084 68.2281 36.4107C68.0927 36.433 68.0011 36.561 68.0232 36.6969C68.1268 37.3339 68.2055 37.9796 68.2585 38.6325C68.2691 38.7629 68.3776 38.8616 68.5056 38.8616C68.5126 38.8616 68.5192 38.8613 68.5262 38.8609C68.6628 38.8496 68.7644 38.7293 68.7535 38.592C68.6995 37.9257 68.6191 37.2671 68.5133 36.6168C68.4931 36.4941 68.3879 36.4074 68.2684 36.4074ZM21.1191 32.6542C21.0152 32.6542 20.9183 32.7204 20.8835 32.8251C20.6761 33.4518 20.4931 34.0898 20.3353 34.7377C20.3028 34.8714 20.3842 35.0064 20.5172 35.0393C20.5371 35.0443 20.5569 35.0466 20.5765 35.0466C20.6883 35.0466 20.7896 34.9701 20.8173 34.8564C20.9719 34.2218 21.1512 33.5967 21.3544 32.9827C21.3977 32.852 21.3272 32.7107 21.1972 32.6675C21.1717 32.6582 21.1452 32.6542 21.1191 32.6542ZM67.3261 32.5857C67.2999 32.5857 67.2731 32.59 67.247 32.5987C67.117 32.6426 67.0472 32.7839 67.0908 32.9145C67.2956 33.5279 67.477 34.1523 67.6335 34.7866C67.6616 34.9003 67.7628 34.9761 67.8743 34.9761C67.8942 34.9761 67.914 34.9738 67.9342 34.9688C68.0672 34.9356 68.1483 34.8006 68.1155 34.6669C67.9561 34.0196 67.7711 33.382 67.5617 32.7559C67.5266 32.6515 67.43 32.5857 67.3261 32.5857ZM22.654 29.028C22.5647 29.028 22.4783 29.0766 22.434 29.1617C22.1279 29.7481 21.8444 30.3486 21.585 30.9613C21.5314 31.088 21.5899 31.2346 21.7163 31.2884C21.7481 31.3021 21.7809 31.3084 21.8133 31.3084C21.9099 31.3084 22.0015 31.2515 22.0419 31.1565C22.296 30.556 22.5736 29.9679 22.8737 29.3931C22.9373 29.2711 22.8906 29.1205 22.7692 29.0563C22.7324 29.0373 22.6931 29.028 22.654 29.028ZM65.7832 28.9695C65.7442 28.9695 65.7045 28.9788 65.6674 28.9984C65.5463 29.0626 65.5 29.2135 65.5638 29.3352C65.8649 29.9084 66.1439 30.4949 66.3996 31.094C66.44 31.1884 66.5317 31.2452 66.6279 31.2452C66.6607 31.2452 66.6938 31.2386 66.7255 31.2249C66.8516 31.1708 66.9098 31.0241 66.8559 30.8975C66.5952 30.2861 66.3103 29.6873 66.0029 29.1022C65.9586 29.0177 65.8726 28.9695 65.7832 28.9695ZM24.7488 25.6988C24.6734 25.6988 24.5989 25.733 24.5503 25.7985C24.1539 26.3288 23.7787 26.8753 23.425 27.4372C23.3518 27.5536 23.3863 27.7075 23.5021 27.7813C23.5431 27.8076 23.5891 27.8199 23.6344 27.8199C23.7168 27.8199 23.7972 27.7786 23.8445 27.7038C24.1909 27.1533 24.5589 26.6177 24.9473 26.098C25.0297 25.988 25.0075 25.8317 24.898 25.749C24.853 25.715 24.8007 25.6988 24.7488 25.6988ZM63.6812 25.6479C63.6292 25.6479 63.5766 25.6642 63.5319 25.6984C63.4224 25.7815 63.4009 25.9378 63.4833 26.0478C63.8727 26.5661 64.242 27.1004 64.5894 27.65C64.6367 27.7248 64.7171 27.7657 64.7992 27.7657C64.8449 27.7657 64.8908 27.753 64.9322 27.7268C65.048 27.653 65.0821 27.4987 65.0083 27.3827C64.6533 26.8218 64.2767 26.2766 63.8794 25.7476C63.8307 25.6821 63.7566 25.6479 63.6812 25.6479ZM27.3455 22.7491C27.2836 22.7491 27.2214 22.7724 27.1734 22.819C26.6976 23.2794 26.2404 23.7585 25.8026 24.2559C25.7116 24.3589 25.7212 24.5165 25.8241 24.6079C25.8715 24.6498 25.93 24.6704 25.9886 24.6704C26.0571 24.6704 26.1256 24.6422 26.1745 24.5863C26.6037 24.0989 27.0517 23.6295 27.5179 23.1784C27.6165 23.0829 27.6195 22.925 27.5245 22.8259C27.4755 22.7747 27.4107 22.7491 27.3455 22.7491ZM61.0775 22.7056C61.0123 22.7056 60.9472 22.7312 60.8982 22.7824C60.8032 22.8818 60.8069 23.0397 60.9058 23.1348C61.3733 23.5846 61.8226 24.0531 62.2528 24.5395C62.3018 24.595 62.3699 24.6232 62.4384 24.6232C62.497 24.6232 62.5559 24.6023 62.6032 24.5601C62.7058 24.4686 62.7147 24.3111 62.6237 24.208C62.1846 23.712 61.726 23.2339 61.2492 22.7747C61.2009 22.7285 61.1391 22.7056 61.0775 22.7056ZM30.3766 20.254C30.328 20.254 30.2787 20.2683 30.2354 20.2986C29.6921 20.6769 29.1647 21.0769 28.6541 21.4971C28.5482 21.5842 28.5327 21.7414 28.6194 21.8478C28.6683 21.908 28.7398 21.9393 28.8116 21.9393C28.8669 21.9393 28.9225 21.9206 28.9688 21.8827C29.4687 21.4712 29.9856 21.0792 30.5183 20.7085C30.6308 20.63 30.6589 20.4748 30.5808 20.3614C30.5325 20.2916 30.4554 20.254 30.3766 20.254ZM58.0391 20.2174C57.9603 20.2174 57.8826 20.255 57.8346 20.3252C57.7569 20.4385 57.7853 20.5938 57.8981 20.6719C58.4318 21.0416 58.95 21.4323 59.4513 21.8425C59.4973 21.8801 59.5528 21.8987 59.6078 21.8987C59.6799 21.8987 59.7514 21.8675 59.8003 21.8069C59.887 21.7002 59.8708 21.543 59.7646 21.4562C59.2531 21.0373 58.7243 20.6387 58.1797 20.2613C58.1367 20.2317 58.0877 20.2174 58.0391 20.2174ZM33.7651 18.2792C33.7294 18.2792 33.693 18.2868 33.6586 18.3035C33.061 18.5897 32.477 18.8996 31.9073 19.2317C31.7888 19.3008 31.7485 19.4534 31.8173 19.5725C31.8633 19.6523 31.9466 19.6968 32.0323 19.6968C32.0747 19.6968 32.1174 19.6858 32.1568 19.6632C32.7149 19.3377 33.2873 19.0342 33.8727 18.7539C33.9964 18.6948 34.0487 18.5458 33.9898 18.4215C33.9468 18.3314 33.8578 18.2792 33.7651 18.2792ZM54.6423 18.2503C54.5494 18.2503 54.4604 18.3031 54.418 18.3929C54.3594 18.5172 54.4124 18.6662 54.5361 18.725C55.1228 19.0043 55.6965 19.3065 56.2563 19.6306C56.2954 19.6533 56.3381 19.6639 56.3801 19.6639C56.4658 19.6639 56.5495 19.619 56.5952 19.5389C56.6636 19.4195 56.6229 19.2673 56.5042 19.1984C55.9331 18.8676 55.3474 18.5591 54.7485 18.2742C54.7141 18.2579 54.6781 18.2503 54.6423 18.2503ZM37.4259 16.8782C37.4031 16.8782 37.3796 16.8815 37.3564 16.8882C36.7192 17.0743 36.0928 17.2855 35.4781 17.5208C35.35 17.5697 35.2858 17.714 35.3345 17.8427C35.3722 17.9421 35.4665 18.0032 35.5664 18.0032C35.5959 18.0032 35.6256 17.9979 35.6548 17.9869C36.2569 17.7566 36.8707 17.5494 37.4948 17.3672C37.6264 17.3287 37.7019 17.1904 37.6638 17.0584C37.6327 16.949 37.5335 16.8782 37.4259 16.8782ZM50.9749 16.8586C50.8671 16.8586 50.7678 16.9297 50.7364 17.0391C50.6986 17.1714 50.7747 17.3097 50.9064 17.3476C51.5311 17.5282 52.1456 17.7333 52.7484 17.962C52.7772 17.973 52.807 17.9783 52.8361 17.9783C52.9363 17.9783 53.0306 17.9168 53.0684 17.8171C53.1167 17.6881 53.0522 17.5444 52.9238 17.4956C52.3083 17.2622 51.6813 17.0527 51.0437 16.8685C51.0209 16.8619 50.9977 16.8586 50.9749 16.8586ZM41.2647 16.0893C41.2548 16.0893 41.2446 16.0899 41.2343 16.0912C40.5742 16.1717 39.9224 16.2788 39.2795 16.4107C39.1452 16.4383 39.0588 16.57 39.0863 16.705C39.1104 16.823 39.2136 16.9045 39.3291 16.9045C39.3457 16.9045 39.3622 16.9028 39.3791 16.8995C40.0091 16.7701 40.6477 16.6654 41.2945 16.5863C41.4305 16.5697 41.5275 16.4453 41.5109 16.3087C41.4954 16.182 41.3885 16.0893 41.2647 16.0893ZM47.1338 16.0809C47.0097 16.0809 46.9025 16.174 46.8876 16.301C46.8714 16.4377 46.9687 16.5617 47.1047 16.578C47.7519 16.6551 48.3908 16.7582 49.0211 16.8855C49.0376 16.8888 49.0542 16.8905 49.0704 16.8905C49.1862 16.8905 49.2898 16.8087 49.3133 16.6903C49.3404 16.5554 49.2534 16.4237 49.119 16.3968C48.4758 16.2665 47.8233 16.1614 47.1632 16.0829C47.1536 16.0813 47.1437 16.0809 47.1338 16.0809ZM44.236 15.9091C44.2353 15.9091 44.2347 15.9091 44.234 15.9091C43.8906 15.9091 43.5484 15.916 43.2083 15.93C43.0713 15.9357 42.9648 16.0517 42.9704 16.1893C42.976 16.3233 43.0859 16.4284 43.2182 16.4284C43.2215 16.4284 43.2252 16.4284 43.2285 16.428C43.562 16.4144 43.8972 16.4074 44.2337 16.4074C44.547 16.4074 44.8594 16.4134 45.1697 16.4254C45.173 16.4254 45.176 16.4257 45.1793 16.4257C45.312 16.4257 45.4222 16.3203 45.4271 16.186C45.4324 16.0484 45.3256 15.9327 45.1886 15.9273C44.8729 15.9154 44.5553 15.9091 44.236 15.9091Z" fill="#009DC0"/>
<path fill-rule="evenodd" clip-rule="evenodd" d="M28.7403 0H14.4666C13.7741 0 13.2073 0.569508 13.2073 1.26535V8.8578C13.2073 9.55398 13.7741 10.1235 14.4666 10.1235H14.9242V2.27604C14.9242 1.54795 15.5171 0.95184 16.2417 0.95184H29.9602C29.8202 0.406269 29.3252 0 28.7403 0Z" fill="#F0F0F0"/>
<path fill-rule="evenodd" clip-rule="evenodd" d="M30.8459 1.26453H16.5723C15.8798 1.26453 15.313 1.83403 15.313 2.52988V10.1227C15.313 10.8185 15.8798 11.3883 16.5723 11.3883H22.0387L25.3884 14.7628L25.4156 11.3883H30.8462C31.5387 11.3883 32.1055 10.8188 32.1055 10.1227V2.52988C32.1052 1.83403 31.5384 1.26453 30.8459 1.26453Z" fill="#F0F0F0"/>
<path d="M20.5098 9.09782V6.98801C20.5098 4.87355 21.1695 3.75748 22.4891 3.64111V4.79576C22.0106 4.99789 21.7714 5.44904 21.7714 6.14888H22.4891V9.09782H20.5098Z" fill="#27AAE1"/>
<path d="M26.2476 3.88538V5.99485C26.2476 8.11729 25.5878 9.23271 24.2683 9.34142V8.18744C24.7391 7.99362 24.9744 7.54247 24.9744 6.83432H24.2683V3.88538H26.2476Z" fill="#27AAE1"/>
<path fill-rule="evenodd" clip-rule="evenodd" d="M48.6234 55.9031H38.7014V44.9714H48.6234V55.9031Z" fill="#FAB59C"/>
<path fill-rule="evenodd" clip-rule="evenodd" d="M49.8261 51.4863C49.8261 51.4863 59.2597 52.872 60.6527 54.3302C61.3793 55.0906 62.5754 59.7564 63.5429 63.9514C57.9587 68.0251 51.09 70.4292 43.6619 70.4292V52.002L49.8261 51.4863Z" fill="#D1D3D4"/>
<path fill-rule="evenodd" clip-rule="evenodd" d="M43.662 13.6924C48.4788 13.6924 56.0968 16.4442 56.0968 29.3381C56.0968 36.7826 53.6814 41.6602 52.6289 43.0096C51.6608 44.2504 46.2156 46.8958 43.6616 46.8958C43.662 33.8639 43.662 13.6924 43.662 13.6924Z" fill="#FBBEA8"/>
<path fill-rule="evenodd" clip-rule="evenodd" d="M43.6619 13.6924C38.8446 13.6924 31.2266 16.4442 31.2266 29.3381C31.2266 36.7826 33.642 41.6602 34.6941 43.0096C35.6636 44.2504 41.1072 46.8958 43.6615 46.8958C43.6619 33.8639 43.6619 13.6924 43.6619 13.6924Z" fill="#FCD3C1"/>
<path fill-rule="evenodd" clip-rule="evenodd" d="M37.4971 51.4863C37.4971 51.4863 28.0635 52.872 26.6708 54.3302C25.9439 55.0906 24.7481 59.7564 23.7803 63.9514C29.3638 68.0251 36.2324 70.4292 43.6613 70.4292V52.002L37.4971 51.4863Z" fill="#F1F2F2"/>
<path fill-rule="evenodd" clip-rule="evenodd" d="M43.6618 42.0323C45.9068 42.0323 47.7266 41.2869 47.7266 40.3676L39.5967 40.3673C39.597 41.2866 41.4168 42.0326 43.6618 42.0323Z" fill="white"/>
<path fill-rule="evenodd" clip-rule="evenodd" d="M43.0915 55.1851L42.1521 70.3944C42.6524 70.4167 43.1556 70.4283 43.6619 70.4283V55.7752L44.232 55.1851L45.1707 70.3944C44.6701 70.4164 44.1675 70.4283 43.6619 70.4283L43.6616 55.7748L43.0915 55.1851Z" fill="#3FB0B4"/>
<path fill-rule="evenodd" clip-rule="evenodd" d="M45.3551 53.7545L43.662 55.5079L41.9683 53.7545L43.662 52.0011L45.3551 53.7545Z" fill="#3FB0B4"/>
<path fill-rule="evenodd" clip-rule="evenodd" d="M43.662 52.002L38.6254 49.9667L37.3843 51.2327L39.8903 56.8171L43.662 52.002Z" fill="#D1D3D4"/>
<path fill-rule="evenodd" clip-rule="evenodd" d="M43.6619 52.002L48.6988 49.9667L49.9392 51.2327L47.4329 56.8171L43.6619 52.002Z" fill="#BCBEC0"/>
<path fill-rule="evenodd" clip-rule="evenodd" d="M48.3 64.1838H54.9755V64.7839H48.3V64.1838Z" fill="#CCE7D3"/>
<path fill-rule="evenodd" clip-rule="evenodd" d="M31.039 28.3022C32.4565 28.1067 33.7783 29.6184 33.9907 31.679C34.2028 33.7386 33.2261 35.5669 31.8086 35.762C29.9822 36.2966 31.3067 33.6259 29.5702 32.0557C27.5221 30.2045 29.3598 28.5336 31.039 28.3022Z" fill="#F2D7BD"/>
<path fill-rule="evenodd" clip-rule="evenodd" d="M56.2887 28.3022C54.8713 28.1067 53.5501 29.6184 53.3377 31.679C53.1249 33.7386 54.102 35.5669 55.5201 35.762C57.3462 36.2966 56.0211 33.6259 57.7582 32.0557C59.8059 30.2045 57.9679 28.5336 56.2887 28.3022Z" fill="#FBBEA8"/>
<path fill-rule="evenodd" clip-rule="evenodd" d="M31.2442 28.2858C31.7147 28.2213 31.7286 31.254 32.1402 31.5227C32.1402 28.8367 33.6977 21.8919 36.9717 21.1395C36.4324 23.0718 48.6033 28.2788 55.1838 25.4323C55.1838 25.6487 55.1838 29.9584 55.1838 31.5227C55.5954 31.254 55.6093 28.2213 56.0801 28.2858C61.3387 11.3525 42.5132 4.95159 35.1624 13.4287C30.3386 15.5615 28.8957 20.7239 31.2442 28.2858Z" fill="#404041"/>
<path fill-rule="evenodd" clip-rule="evenodd" d="M73.8975 45.7515C72.625 41.9435 74.6658 37.8203 78.4556 36.5416C78.7289 36.4495 79.0035 36.3751 79.2788 36.3169L81.5668 43.164L87.6214 41.1213C88.8939 44.9293 86.8531 49.0525 83.0633 50.3312C79.2738 51.6098 75.17 49.5592 73.8975 45.7515Z" fill="#FFCB05"/>
<path fill-rule="evenodd" clip-rule="evenodd" d="M79.5471 35.7754C83.0905 35.027 86.7092 37.0464 87.8898 40.5801L81.8351 42.6228L79.5471 35.7754Z" fill="#1B75BC"/>
<path fill-rule="evenodd" clip-rule="evenodd" d="M1.39355 41.9183H13.1436V29.3057L10.6309 25.3796H1.39355V41.9183Z" fill="#F0F0F0"/>
<path fill-rule="evenodd" clip-rule="evenodd" d="M13.1438 29.3054C8.13131 26.8179 9.8158 29.3623 10.6314 25.3796L13.1438 29.3054Z" fill="#E6E7E8"/>
<path fill-rule="evenodd" clip-rule="evenodd" d="M0.664393 42.5481H12.4141V42.1366H1.12497L1.12464 26.0095H0.664062L0.664393 42.5481Z" fill="#F0F0F0"/>
<path fill-rule="evenodd" clip-rule="evenodd" d="M0.000330876 43.1655H11.7501V42.7539H0.46091L0.460579 26.6265H0L0.000330876 43.1655Z" fill="#F0F0F0"/>
<path fill-rule="evenodd" clip-rule="evenodd" d="M3.0481 34.3209H10.8862V34.8632H3.0481V34.3209Z" fill="#939598"/>
<path fill-rule="evenodd" clip-rule="evenodd" d="M3.0481 35.1554H10.8862V35.6973H3.0481V35.1554Z" fill="#939598"/>
<path fill-rule="evenodd" clip-rule="evenodd" d="M3.0481 35.9896H7.32534V36.5319H3.0481V35.9896Z" fill="#939598"/>
<path fill-rule="evenodd" clip-rule="evenodd" d="M3.0481 32.6661H10.8862V33.2085H3.0481V32.6661Z" fill="#939598"/>
<path fill-rule="evenodd" clip-rule="evenodd" d="M3.0481 33.5006H10.8862V34.0426H3.0481V33.5006Z" fill="#939598"/>
<path fill-rule="evenodd" clip-rule="evenodd" d="M3.0918 31.0078H10.9302V31.5497H3.0918V31.0078Z" fill="#939598"/>
<path fill-rule="evenodd" clip-rule="evenodd" d="M3.0918 31.8416H10.9302V32.3839H3.0918V31.8416Z" fill="#939598"/>
<path fill-rule="evenodd" clip-rule="evenodd" d="M3.0918 29.3528H10.9302V29.8946H3.0918V29.3528Z" fill="#939598"/>
<path fill-rule="evenodd" clip-rule="evenodd" d="M3.0918 30.1869H10.9302V30.7288H3.0918V30.1869Z" fill="#939598"/>
<path fill-rule="evenodd" clip-rule="evenodd" d="M64.478 67.4625H66.1926V73.6076H64.478V67.4625Z" fill="#A6CE39"/>
<path fill-rule="evenodd" clip-rule="evenodd" d="M64.478 68.9993H66.1926V73.6075H64.478V68.9993Z" fill="#1B75BC"/>
<path fill-rule="evenodd" clip-rule="evenodd" d="M74.3638 63.0508H76.0784V73.6204H74.3638V63.0508Z" fill="#F58220"/>
<path fill-rule="evenodd" clip-rule="evenodd" d="M74.3638 66.3531H76.0784V73.6197H74.3638V66.3531Z" fill="#1B75BC"/>
<path fill-rule="evenodd" clip-rule="evenodd" d="M67.4106 67.9246H69.1248V73.5994H67.4106V67.9246Z" fill="#A6CE39"/>
<path fill-rule="evenodd" clip-rule="evenodd" d="M67.4106 69.698H69.1248V73.5994H67.4106V69.698Z" fill="#1B75BC"/>
<path fill-rule="evenodd" clip-rule="evenodd" d="M69.6963 64.2745H71.4106V73.5995H69.6963V64.2745Z" fill="#A6CE39"/>
<path fill-rule="evenodd" clip-rule="evenodd" d="M69.6963 66.261H71.4106V73.5994H69.6963V66.261Z" fill="#1B75BC"/>
<path fill-rule="evenodd" clip-rule="evenodd" d="M71.9819 66.1017H73.6962V73.5994H71.9819V66.1017Z" fill="#A6CE39"/>
<path fill-rule="evenodd" clip-rule="evenodd" d="M71.9819 67.786H73.6962V73.5992H71.9819V67.786Z" fill="#1B75BC"/>
<path fill-rule="evenodd" clip-rule="evenodd" d="M67.0372 66.1017L67.118 66.1738L64.24 69.4296L64.1589 69.3572L67.0372 66.1017Z" fill="#3E89C9"/>
<path fill-rule="evenodd" clip-rule="evenodd" d="M68.3586 67.8949L68.2696 67.9571L67.0334 66.1686L67.1225 66.1064L68.3586 67.8949Z" fill="#3E89C9"/>
<path fill-rule="evenodd" clip-rule="evenodd" d="M70.957 62.0913L71.0553 62.1369L68.3632 67.9483L68.2646 67.9028L70.957 62.0913Z" fill="#3E89C9"/>
<path fill-rule="evenodd" clip-rule="evenodd" d="M72.7378 65.5011L72.6084 65.4771L70.9199 62.2938L71.049 62.3174L72.7378 65.5011Z" fill="#3E89C9"/>
<path fill-rule="evenodd" clip-rule="evenodd" d="M72.7881 65.8131L72.7451 65.7117L75.3405 61.4751L75.3835 61.5765L72.7881 65.8131Z" fill="#3E89C9"/>
<path fill-rule="evenodd" clip-rule="evenodd" d="M67.0778 65.7828C67.2724 65.7828 67.4305 65.9418 67.4305 66.1373C67.4305 66.3332 67.2727 66.4918 67.0778 66.4918C66.8829 66.4918 66.7251 66.3332 66.7251 66.1373C66.7251 65.9414 66.8833 65.7828 67.0778 65.7828Z" fill="#3E89C9"/>
<path fill-rule="evenodd" clip-rule="evenodd" d="M68.3046 67.4625C68.4995 67.4625 68.6573 67.6211 68.6573 67.8169C68.6573 68.0126 68.4995 68.1712 68.3046 68.1712C68.1097 68.1712 67.9519 68.0126 67.9519 67.8169C67.9519 67.6211 68.1097 67.4625 68.3046 67.4625Z" fill="#3E89C9"/>
<path fill-rule="evenodd" clip-rule="evenodd" d="M71.0024 61.897C71.1973 61.897 71.3551 62.0556 71.3551 62.2514C71.3551 62.4472 71.1973 62.6058 71.0024 62.6058C70.8075 62.6058 70.6497 62.4472 70.6497 62.2514C70.6497 62.0556 70.8075 61.897 71.0024 61.897Z" fill="#3E89C9"/>
<path fill-rule="evenodd" clip-rule="evenodd" d="M72.7377 65.4287C72.9326 65.4287 73.0904 65.5873 73.0904 65.7831C73.0904 65.9789 72.9326 66.1375 72.7377 66.1375C72.5428 66.1375 72.385 65.9789 72.385 65.7831C72.385 65.5873 72.5428 65.4287 72.7377 65.4287Z" fill="#3E89C9"/>
<path fill-rule="evenodd" clip-rule="evenodd" d="M75.3354 61.287C75.5303 61.287 75.6881 61.4456 75.6881 61.6414C75.6881 61.8372 75.5303 61.9958 75.3354 61.9958C75.1408 61.9958 74.9827 61.8372 74.9827 61.6414C74.983 61.4456 75.1408 61.287 75.3354 61.287Z" fill="#3E89C9"/>
<path fill-rule="evenodd" clip-rule="evenodd" d="M64.159 69.0021C64.3536 69.0021 64.5117 69.1607 64.5117 69.3565C64.5117 69.552 64.3539 69.7109 64.159 69.7109C63.9642 69.7109 63.8064 69.5523 63.8064 69.3565C63.8064 69.161 63.9642 69.0021 64.159 69.0021Z" fill="#3E89C9"/>
<path d="M5.98291 68.2738C5.98291 72.4226 9.34196 75.7978 13.471 75.7978C17.6 75.7978 20.959 72.4226 20.959 68.2738C20.959 64.1249 17.6 60.7498 13.471 60.7498C9.34196 60.7498 5.98291 64.1253 5.98291 68.2738ZM7.57541 68.2738C7.57541 65.0073 10.2201 62.3499 13.471 62.3499C16.7218 62.3499 19.3665 65.0073 19.3665 68.2738C19.3665 71.5403 16.7218 74.1977 13.471 74.1977C10.2201 74.1977 7.57541 71.5403 7.57541 68.2738Z" fill="#EA2327"/>
<path d="M7.57544 68.274C7.57544 71.5404 10.2201 74.1977 13.471 74.1977C16.7218 74.1977 19.3665 71.5404 19.3665 68.274C19.3665 65.0076 16.7218 62.3502 13.471 62.3502C10.2201 62.3506 7.57544 65.0079 7.57544 68.274ZM9.16794 68.274C9.16794 65.8899 11.0983 63.9507 13.4706 63.9507C15.8434 63.9507 17.7734 65.8902 17.7734 68.274C17.7734 70.658 15.843 72.5973 13.4706 72.5973C11.0983 72.5976 9.16794 70.658 9.16794 68.274Z" fill="#F1F0F0"/>
<path d="M13.4709 63.951C15.8436 63.951 17.7736 65.8906 17.7736 68.2744C17.7736 70.6585 15.8433 72.5977 13.4709 72.5977C11.0982 72.5977 9.16821 70.6585 9.16821 68.2744C9.16788 65.8906 11.0982 63.951 13.4709 63.951Z" fill="#EA2327"/>
<path d="M17.7736 68.2744C17.7736 70.6585 15.8433 72.5977 13.4709 72.5977C11.0982 72.5977 9.16821 70.6585 9.16821 68.2744C9.16821 65.8903 11.0985 63.951 13.4709 63.951" fill="#EA2327"/>
<path d="M13.6686 70.9928C15.1614 70.8817 16.2818 69.5757 16.1712 68.0758C16.0606 66.5759 14.7608 65.4501 13.2681 65.5612C11.7753 65.6724 10.6549 66.9784 10.7655 68.4783C10.8761 69.9782 12.1759 71.104 13.6686 70.9928Z" fill="#EA2327"/>
<path d="M10.7607 68.2734C10.7607 69.7775 11.9741 70.9966 13.4709 70.9966C14.9678 70.9966 16.1811 69.7771 16.1811 68.2734C16.1811 66.7694 14.9678 65.5503 13.4709 65.5503C11.9741 65.5503 10.7607 66.7694 10.7607 68.2734ZM11.9449 68.2734C11.9449 67.4267 12.6282 66.7401 13.4709 66.7401C14.3137 66.7401 14.9966 67.4267 14.9966 68.2734C14.9966 69.1202 14.3134 69.8064 13.4709 69.8064C12.6282 69.8067 11.9449 69.1202 11.9449 68.2734Z" fill="#F1F0F0"/>
<path d="M13.4711 66.7406C14.3138 66.7406 14.9967 67.4271 14.9967 68.2739C14.9967 69.1207 14.3135 69.8069 13.4711 69.8069C12.6283 69.8069 11.9451 69.1204 11.9451 68.2739C11.9451 67.4268 12.6283 66.7406 13.4711 66.7406Z" fill="#EA2327"/>
<path opacity="0.2" d="M8.32138 73.8672L13.7123 68.4503C13.852 68.3097 13.852 68.0823 13.7123 67.9417C13.5727 67.8014 13.3461 67.8014 13.2061 67.9417L7.81812 73.3555L8.32138 73.8672Z" fill="#8B5E3C"/>
<path d="M13.7658 68.3607C13.604 68.5233 13.342 68.5233 13.1805 68.3607L3.94776 59.0837C3.78597 58.9211 3.78597 58.6578 3.94776 58.4956C4.10956 58.3333 4.37161 58.3333 4.53308 58.4956L13.7658 67.7726C13.9273 67.9349 13.9273 68.1982 13.7658 68.3607Z" fill="#8B5E3C"/>
<path d="M4.38745 58.4009L4.8434 56.0101L7.28064 58.6287L6.90642 60.8802L4.38745 58.4009Z" fill="#1B75BC"/>
<path d="M3.85581 58.9352L1.47681 59.3936L4.08246 61.8421L6.32349 61.4661L3.85581 58.9352Z" fill="#1B75BC"/>
<path d="M68.372 16.6254L64.0693 16.2088C63.8913 16.1919 63.7351 16.2976 63.7209 16.4459L63.7037 16.6244C63.6895 16.773 63.8225 16.907 64.0005 16.9243L68.3032 17.3408C68.4812 17.3581 68.6371 17.2521 68.6516 17.1035L68.6688 16.9249C68.6831 16.7763 68.5501 16.6423 68.372 16.6254Z" fill="#F1F2F2"/>
<path d="M68.294 17.4344L63.9913 17.0178C63.8133 17.0005 63.6571 17.1069 63.6432 17.2552L63.626 17.4338C63.6118 17.582 63.7452 17.716 63.9228 17.7333L68.2255 18.1499C68.4035 18.1672 68.5597 18.0611 68.5736 17.9128L68.5908 17.7343C68.605 17.5857 68.472 17.4517 68.294 17.4344Z" fill="#F1F2F2"/>
<path d="M68.2164 18.2437L63.9135 17.8272C63.7355 17.8099 63.5794 17.9156 63.5651 18.0642L63.5479 18.2431C63.5337 18.3914 63.6667 18.5253 63.8447 18.5423L68.1476 18.9589C68.3256 18.9762 68.4818 18.8701 68.496 18.7222L68.5132 18.5433C68.5274 18.3947 68.3944 18.261 68.2164 18.2437Z" fill="#F1F2F2"/>
<path d="M64.397 18.673L67.7293 18.9606C67.7293 19.4998 66.8647 19.8589 66.1087 19.8589C65.3519 19.8589 64.4426 19.4755 64.397 18.673Z" fill="#F1F2F2"/>
<path d="M64.7561 16.2069H67.9222V16.5277L64.7561 16.2069Z" fill="#F1F2F2"/>
<path d="M62.8866 5.60619C62.8866 5.60619 64.2009 4.39503 65.9764 4.26703C65.9764 4.26703 68.9704 3.97413 70.5451 6.90745C70.5451 6.90745 70.8528 8.9624 70.5451 9.97275C70.5451 9.97275 69.2265 12.3997 69.2441 12.6424L68.4265 14.8506C68.4265 14.8506 68.32 15.8723 67.8584 15.8723H64.5559C64.5559 15.8723 63.9517 15.8806 63.9521 15.0481C63.9521 15.0481 63.2933 12.8648 62.8866 12.2794C62.8866 12.2794 61.6081 9.74136 61.6081 8.95043C61.6081 8.95076 61.0758 7.46931 62.8866 5.60619Z" fill="#FBB040"/>
<path d="M64.5896 9.53845L64.3875 15.8479L64.8494 15.8629L64.9983 11.221L65.4171 11.9724L66.1414 10.8307L66.8118 11.8172L67.1149 11.3125L67.2125 15.8725L67.6744 15.8626L67.5424 9.70169L66.788 10.9581L66.1289 9.98761L65.4426 11.0684L64.5896 9.53845Z" fill="#FFDE17"/>
<path d="M66.1861 3.90137C63.5239 3.90137 61.3652 5.94934 61.3652 8.47605C61.3652 9.30754 61.6117 10.0808 62.0078 10.7601C63.1917 12.7838 63.5053 13.9205 63.6986 15.0206C63.8604 15.9425 64.085 16.1566 64.8189 16.1566C65.1313 16.1566 65.6421 16.1566 66.1861 16.1566C66.7301 16.1566 67.2413 16.1566 67.5533 16.1566C68.2878 16.1566 68.5118 15.9418 68.6736 15.0206C68.8668 13.9205 69.1802 12.7834 70.3644 10.7601C70.7611 10.0812 71.0073 9.30754 71.0073 8.47605C71.0073 5.94934 68.8486 3.90137 66.1861 3.90137ZM69.9845 10.5599C68.8324 12.5288 68.4648 13.7004 68.2451 14.9527C68.2206 15.0924 68.1459 15.5169 68.0122 15.6513C67.9662 15.6975 67.8759 15.7447 67.5529 15.7447H66.1854H64.8183C64.4956 15.7447 64.405 15.6975 64.359 15.6516C64.225 15.5173 64.1505 15.0927 64.1261 14.9534C63.9064 13.7014 63.5388 12.5298 62.387 10.5609C61.9969 9.89201 61.7987 9.19084 61.7987 8.47638C61.7987 6.18139 63.7664 4.31429 66.1851 4.31429C68.6041 4.31429 70.5722 6.18139 70.5722 8.47671C70.5728 9.19118 70.375 9.89234 69.9845 10.5599Z" fill="#FFDE17"/>
<path d="M69.1085 7.88464C69.1522 7.62366 69.2782 6.30844 67.4642 6.0325C67.3355 6.01288 67.2624 5.8892 67.3007 5.75555C67.314 5.70801 67.3401 5.66546 67.3739 5.63155C67.4344 5.57071 67.5198 5.53713 67.6025 5.54976C69.8092 5.88555 69.6428 7.56382 69.5866 7.89695C69.5644 8.03159 69.4387 8.13765 69.3067 8.13399C69.1747 8.131 69.0853 8.01929 69.1085 7.88464Z" fill="#F0F0F0"/>
<path fill-rule="evenodd" clip-rule="evenodd" d="M50.5852 76.9591C51.1692 75.8015 50.7049 74.3898 49.5528 73.8047C48.3981 73.2229 46.9876 73.6913 46.4036 74.845C45.8216 75.9986 46.2838 77.4136 47.4352 78.002C48.5926 78.5865 49.9999 78.1224 50.5852 76.9591ZM46.3172 79.2265L46.3311 79.2202L46.5336 78.4562L45.9721 77.897L45.2124 78.1061L45.2078 78.1207C45.0361 77.8627 44.8974 77.5855 44.7892 77.3002L44.8008 77.3088L45.4116 76.8055L45.2859 76.0249L44.5467 75.7439L44.5381 75.7536C44.5477 75.461 44.5914 75.1651 44.6714 74.8726L44.6771 74.8859L45.4649 74.838L45.8149 74.1325L45.3805 73.4756L45.364 73.4769C45.5575 73.2289 45.7719 73.0101 46.0075 72.8206L46.0085 72.8332L46.6732 73.2558L47.371 72.8914L47.4055 72.1048L47.3945 72.0968C47.686 72.0127 47.9888 71.9599 48.2972 71.9456L48.2886 71.9552L48.5774 72.6889L49.355 72.8036L49.8486 72.1886L49.8427 72.174C49.9896 72.2275 50.1372 72.2883 50.2844 72.3658C50.4148 72.4316 50.5412 72.5031 50.6616 72.5809L50.6494 72.5859L50.4498 73.3502L51.012 73.8991L51.7727 73.694L51.776 73.676C51.9471 73.9324 52.0893 74.2056 52.1992 74.4909L52.1846 74.4879L51.5755 74.9863L51.7049 75.7679L52.4411 76.0435L52.4546 76.0362C52.444 76.34 52.4017 76.6459 52.3173 76.9461L52.3084 76.9348L51.5229 76.9787L51.1705 77.6882L51.6006 78.3511L51.6178 78.3498C51.4276 78.5938 51.2085 78.8176 50.9736 79.0077L50.9749 78.9951L50.3102 78.5622L49.6081 78.9286L49.5737 79.7258L49.5853 79.7312C49.2914 79.8153 48.9894 79.8648 48.6826 79.8814L48.6906 79.8681L48.4027 79.1294L47.6265 79.0084L47.1325 79.6304L47.1351 79.6424C46.9935 79.5882 46.8499 79.529 46.7076 79.4532C46.5726 79.3857 46.4426 79.3066 46.3172 79.2265Z" fill="#696969"/>
<path fill-rule="evenodd" clip-rule="evenodd" d="M47.1647 76.0099C47.2233 76.7496 47.8668 77.3022 48.6024 77.2433C49.3386 77.1845 49.8889 76.5362 49.83 75.7968C49.7717 75.0604 49.1265 74.5118 48.3903 74.571C47.6547 74.6295 47.1061 75.2735 47.1647 76.0099Z" fill="#696969"/>
<path fill-rule="evenodd" clip-rule="evenodd" d="M43.7404 78.9097C42.6571 78.9805 41.8359 79.9204 41.906 81.0089C41.9758 82.0977 42.9119 82.9229 43.9952 82.8527C45.0791 82.7819 45.9003 81.8424 45.8299 80.7532C45.7597 79.6644 44.8243 78.8392 43.7404 78.9097ZM46.1561 82.25L46.5025 82.5555L45.861 83.2896L45.5145 82.9841C45.2277 83.2115 44.8915 83.381 44.5226 83.4748L44.5527 83.9369L43.5826 84.0001L43.5528 83.5383C43.1756 83.4934 42.8206 83.369 42.5062 83.1809L42.2018 83.5283L41.4712 82.884L41.775 82.5362C41.5487 82.2473 41.3799 81.9099 41.2873 81.5395L40.827 81.5694L40.7642 80.5946L41.2244 80.5647C41.2687 80.1854 41.3925 79.8286 41.5798 79.5131L41.2337 79.2073L41.8749 78.4739L42.2217 78.7787C42.5089 78.5513 42.845 78.3818 43.2133 78.2887L43.1835 77.8266L44.1533 77.7631L44.1834 78.2252C44.561 78.2701 44.9157 78.3944 45.2303 78.5829L45.5341 78.2348L46.2643 78.8798L45.9602 79.2279C46.1865 79.5165 46.3553 79.8543 46.4483 80.2243L46.9085 80.1944L46.9717 81.1695L46.5115 81.1994C46.4671 81.5777 46.3434 81.9338 46.1561 82.25Z" fill="#696969"/>
<path fill-rule="evenodd" clip-rule="evenodd" d="M39.4902 78.4872C39.6467 78.5421 39.8092 78.565 39.9733 78.5544C40.4613 78.5225 40.8815 78.2023 41.0436 77.7388C41.2667 77.1025 40.9328 76.402 40.2988 76.1783C40.143 76.1231 39.9802 76.1005 39.8164 76.1111C39.3281 76.143 38.9082 76.4629 38.7457 76.9266C38.5234 77.563 38.8572 78.2628 39.4902 78.4872ZM38.0912 77.1105L37.7935 77.0058L38.0529 76.2664L38.3497 76.3718C38.4632 76.1876 38.6061 76.0273 38.7755 75.8943L38.6395 75.6088L39.3426 75.27L39.4786 75.5552C39.6871 75.506 39.9035 75.4941 40.1155 75.5207L40.2204 75.2214L40.956 75.4818L40.8517 75.7803C41.0347 75.8937 41.1945 76.0376 41.3265 76.2082L41.6104 76.0712L41.9476 76.778L41.6637 76.9147C41.7133 77.1254 41.7243 77.3402 41.6985 77.5547L41.9952 77.66L41.7368 78.3994L41.4397 78.2941C41.3265 78.4782 41.1836 78.6385 41.0139 78.7715L41.1502 79.0567L40.4464 79.3955L40.3101 79.1106C40.1026 79.1595 39.8859 79.1714 39.6738 79.1452L39.5689 79.4437L38.8334 79.1834L38.9376 78.8852C38.7547 78.7715 38.5952 78.6278 38.4628 78.457L38.1786 78.5939L37.8418 77.8875L38.126 77.7505C38.076 77.5397 38.0648 77.3253 38.0912 77.1105Z" fill="#696969"/>
<path fill-rule="evenodd" clip-rule="evenodd" d="M36.0214 77.0332C35.8559 76.9598 35.6812 76.9209 35.5019 76.9182C34.9685 76.9106 34.4841 77.2221 34.2681 77.7118C33.9709 78.3844 34.2733 79.175 34.943 79.4735C35.1078 79.547 35.2829 79.5859 35.4619 79.5886C35.9956 79.5965 36.4796 79.285 36.6963 78.795C36.9931 78.1221 36.6904 77.3318 36.0214 77.0332ZM37.4239 78.652L37.7386 78.792L37.3928 79.5736L37.0792 79.4333C36.9399 79.6238 36.7708 79.7857 36.5749 79.9154L36.6983 80.2375L35.9046 80.5447L35.7815 80.2226C35.5505 80.2581 35.3143 80.2521 35.086 80.2046L34.9464 80.5208L34.1691 80.1737L34.3084 79.8578C34.1192 79.7185 33.9577 79.5483 33.829 79.3512L33.5084 79.4755L33.2026 78.6779L33.5229 78.5543C33.4872 78.3205 33.4935 78.0862 33.5405 77.8554L33.2268 77.7151L33.5716 76.9338L33.8856 77.0741C34.0249 76.8836 34.1936 76.7221 34.3895 76.5924L34.2657 76.2702L35.0602 75.9634L35.1839 76.2852C35.4139 76.2503 35.6501 76.2559 35.8788 76.3032L36.0184 75.9873L36.7959 76.3344L36.6566 76.6499C36.8456 76.7895 37.0067 76.9594 37.1361 77.1566L37.457 77.0322L37.7624 77.8298L37.4415 77.9542C37.4775 78.1866 37.4713 78.4206 37.4239 78.652Z" fill="#696969"/>
</svg>
