<svg width="73" height="81" viewBox="0 0 73 81" fill="none" xmlns="http://www.w3.org/2000/svg">
<path fill-rule="evenodd" clip-rule="evenodd" d="M61.9538 18.6603C68.7676 25.2578 72.9985 34.4773 72.9985 44.6834C72.9985 64.7392 56.6582 81 36.4978 81C16.3404 81 0 64.7406 0 44.6834C0 34.4773 4.23243 25.2578 11.0447 18.6618V4.81059C11.0447 2.16229 13.2165 0 15.8811 0L48.2094 0.00145511L61.9538 13.6358L61.9187 13.6693L61.9538 13.6707V18.6603ZM23.7669 57.34H17.4036L17.408 63.6653H23.7669V69.9921H30.1258V63.6653H36.4861V69.9921H42.8494V63.6653H36.4861V57.34H42.8494V63.6653H49.2083V69.9921H55.5701V63.6653H49.2083V57.34H55.5701V51.0131H59.7894V15.8185H48.7242C47.2529 15.8185 46.0508 14.6224 46.0493 13.16V2.14919H15.8811C14.4099 2.14919 13.2077 3.3482 13.2077 4.81059L13.2092 44.6834H17.4036V51.0117H23.7669V57.34ZM55.5716 51.0117V44.6834H49.2097V51.0117H55.5716ZM49.2097 51.0117H42.8508V57.3385H49.2097V51.0117ZM42.8494 51.0117V44.6834H36.4861V51.0117H42.8494ZM36.4861 51.0117H30.1258V57.3385H36.4861V51.0117ZM30.1258 51.0117V44.6834H23.7669V51.0117H30.1258ZM53.9306 30.7188V28.5972H19.0679V30.7188H53.9306ZM53.9306 23.8536V21.732H19.0679V23.8536H53.9306ZM40.3207 16.9884V14.8668H19.0679V16.9884H40.3207ZM40.3207 10.1217V8.00018H19.0679V10.1217H40.3207ZM23.7683 63.6653H30.1258V57.34H23.7669L23.7683 63.6653Z" fill="#00CBFF"/>
</svg>
