<svg width="76" height="77" viewBox="0 0 76 77" fill="none" xmlns="http://www.w3.org/2000/svg">
<g clip-path="url(#clip0)">
<g clip-path="url(#clip1)">
<path d="M70.6336 42.216C70.6336 61.4268 55.0442 77.0001 35.8168 77.0001C31.1005 77.0001 26.6028 76.0628 22.5018 74.3646C11.2909 69.725 3.03465 59.4046 1.32729 46.9972C1.1101 45.4346 1 43.8389 1 42.216C1 23.0052 16.5879 7.43188 35.8168 7.43188C55.0442 7.43188 70.6336 23.0052 70.6336 42.216Z" fill="#937DE2"/>
<path d="M35.8169 7.43188C33.9753 7.43188 32.1684 7.57654 30.4053 7.85079C47.0641 10.4486 59.8119 24.8435 59.8119 42.2175C59.8119 59.5885 47.0656 73.9834 30.4083 76.5812C32.1715 76.8554 33.9768 77.0001 35.8169 77.0001C55.0458 77.0001 70.6352 61.4268 70.6352 42.216C70.6337 23.0052 55.0443 7.43188 35.8169 7.43188Z" fill="#7570D6"/>
<path d="M74.9804 39.6453L55.0985 52.7986C53.6822 53.7358 51.9658 54.108 50.2886 53.8398C48.6069 53.5731 46.8875 53.9393 45.4682 54.878L42.8076 56.6395L27.9075 34.6968L31.5635 18.9186C31.8471 17.6905 31.9873 16.4458 31.9873 15.2057C31.9873 11.9976 31.0477 8.83174 29.2468 6.11338C28.8034 5.44434 28.5922 4.68941 28.5922 3.94201C28.5922 2.66571 29.2121 1.41352 30.3569 0.657081C31.8999 -0.364563 33.9466 -0.1747 35.2753 1.11366L37.6433 3.40557C40.3522 6.03051 42.4411 9.22804 43.7533 12.7631L45.0368 16.2168L58.2613 7.48763C60.3729 6.09078 63.2311 6.70105 64.5794 8.86338C65.8796 10.9458 65.2114 13.6958 63.1632 15.052C63.139 15.0686 63.136 15.0942 63.1451 15.1153C63.1572 15.1364 63.1813 15.1515 63.2084 15.1394C63.7318 14.939 64.2778 14.8411 64.8208 14.8411C65.6865 14.8411 66.5447 15.0897 67.2777 15.5643C67.783 15.8913 68.231 16.3253 68.5854 16.8587C69.2686 17.8894 69.4723 19.0979 69.2475 20.2205C68.8976 21.9895 67.6096 22.9012 67.3577 23.073C67.3154 23.1031 67.3034 23.1619 67.3335 23.2071C67.3335 23.2086 67.335 23.2101 67.3366 23.2101C67.3652 23.2508 67.4225 23.2613 67.4632 23.2357C67.8237 23.1483 68.1902 23.1061 68.5583 23.1061C69.4542 23.1061 70.344 23.3608 71.1027 23.843C71.6155 24.17 72.068 24.6024 72.4179 25.1328C73.7919 27.2063 73.2248 30.0015 71.1464 31.3757C71.0951 31.4104 71.0439 31.445 70.9926 31.4782C70.9639 31.5023 70.9549 31.54 70.97 31.5656C70.973 31.5716 70.9805 31.5791 70.9866 31.5821C71.0092 31.6002 71.0454 31.6017 71.0755 31.5791C72.3666 31.1391 73.7708 31.3395 74.9005 32.0704C75.4209 32.4034 75.8824 32.8539 76.2474 33.4039C77.6244 35.4758 77.0558 38.2711 74.9804 39.6453Z" fill="#FDD7BD"/>
<path d="M42.9978 60.8044L34.6103 66.3542L22.5019 74.3661C11.291 69.725 3.03475 59.4061 1.32739 46.9972L15.3799 37.6999L23.9348 32.0402C24.9197 31.3877 26.2485 31.6589 26.9015 32.6444L43.6041 57.8389C44.2556 58.8244 43.9842 60.1504 42.9978 60.8044Z" fill="#87DBFF"/>
<path d="M42.9975 60.8044L34.61 66.3542L15.3796 37.6999L23.9345 32.0402C24.9194 31.3877 26.2482 31.6589 26.9013 32.6444L43.6038 57.839C44.2554 58.8244 43.9839 60.1505 42.9975 60.8044Z" fill="#6FC7FF"/>
<path d="M67.2808 15.5597L60.6656 19.0963C59.7275 19.5966 58.5631 19.3359 57.9326 18.4815L63.1482 15.1107C63.1603 15.1318 63.1844 15.1468 63.2115 15.1348C63.7349 14.9344 64.2809 14.8364 64.8239 14.8364C65.6896 14.8364 66.5463 15.0866 67.2808 15.5597Z" fill="#FAC5AA"/>
<path d="M71.1027 23.8384L64.6307 27.2951C63.6925 27.7969 62.5282 27.5362 61.8977 26.6833L67.1133 23.311L67.338 23.2055C67.3667 23.2462 67.424 23.2568 67.4647 23.2312C67.8252 23.1438 68.1917 23.1016 68.5597 23.1016C69.4556 23.1016 70.347 23.3562 71.1027 23.8384Z" fill="#FAC5AA"/>
<path d="M74.9034 32.0658L69.2037 35.1126C68.2671 35.6129 67.1027 35.3522 66.4707 34.4978L70.9895 31.5776C71.0136 31.5956 71.0498 31.5971 71.0785 31.5745C72.368 31.1345 73.7722 31.335 74.9034 32.0658Z" fill="#FAC5AA"/>
</g>
</g>
<defs>
<clipPath id="clip0">
<rect width="76" height="77" fill="white"/>
</clipPath>
<clipPath id="clip1">
<rect x="1" width="76" height="77" fill="white"/>
</clipPath>
</defs>
</svg>
