<svg width="85" height="95" viewBox="0 0 85 95" fill="none" xmlns="http://www.w3.org/2000/svg">
<g clip-path="url(#clip0)">
<path d="M29.0072 41.9309C25.9041 48.9405 26.5616 53.7456 25.2438 57.85C23.3009 63.9245 17.7983 63.1295 17.7983 63.1295C17.7983 63.1295 18.6162 57.8015 18.8255 50.8027C18.907 48.097 20.5591 45.6796 23.0509 44.5747L29.0072 41.9309Z" fill="#FC9F86"/>
<path d="M22.809 50.8997C24.6541 46.6417 24.6161 41.4997 28.0562 34.6141C28.3415 34.0266 28.6594 33.4337 29.0045 32.8192L26.9122 33.5172L21.7765 35.2231C21.3743 35.3579 20.9884 35.5223 20.6189 35.7109V54.166C21.4368 53.3764 22.1949 52.3199 22.809 50.8997Z" fill="#FC9F86"/>
<path d="M20.6217 35.7056V54.1606C17.5076 57.1601 13.554 56.1953 13.554 56.1953C13.554 56.1953 13.6654 55.6132 13.842 54.6808C14.1653 52.9856 14.7061 50.1344 15.1871 47.5391C15.6517 45.0139 16.062 42.7313 16.1571 41.9875C16.5049 39.2683 18.206 36.9372 20.6217 35.7056Z" fill="#FFBDA6"/>
<path d="M25.2139 23.7776C27.779 22.6888 30.5099 21.4249 33.2109 19.9993C33.537 19.8295 33.863 19.6516 34.1864 19.4765C33.1022 18.7973 32.0479 18.1128 31.0316 17.431C29.0969 16.1347 27.3116 14.8492 25.7247 13.6661C25.4856 13.491 25.2601 13.3158 25.0318 13.1433C23.828 12.2351 22.0129 10.761 20.6189 9.6156V19.7406C21.4993 20.5841 22.4721 21.4007 23.5074 22.2873C24.0617 22.7589 24.6324 23.2548 25.2139 23.7776Z" fill="#FC9F86"/>
<path d="M18.6244 7.96094C18.6244 7.96094 14.524 12.5505 19.0292 18.0428C19.5156 18.6357 20.051 19.1908 20.6216 19.7379V9.61564C19.4803 8.6778 18.6244 7.96094 18.6244 7.96094Z" fill="#FFBDA6"/>
<path d="M20.4994 25.6723C17.6462 26.7584 11.7361 28.6556 11.7361 28.6556C11.7361 28.6556 13.4779 34.536 20.5619 33.6709C20.5809 33.6682 20.6027 33.6628 20.6217 33.6601V25.6238C20.5809 25.6399 20.5374 25.6561 20.4994 25.6723Z" fill="#FFBDA6"/>
<path d="M29.874 28.731C28.2898 26.699 26.7111 25.1306 25.2138 23.7804C25.1785 23.7966 25.1405 23.8127 25.1051 23.8289C23.5318 24.4973 22.0237 25.0955 20.6216 25.6291V33.6628C23.6541 33.2774 26.6078 31.9812 30.5533 31.0514C30.8359 30.984 31.1267 30.922 31.4174 30.86C30.9066 30.0974 30.393 29.3913 29.8794 28.7337H29.874V28.731Z" fill="#FC9F86"/>
<path d="M70.6962 85.8264C69.7017 93.5313 53.8543 97.8567 47.1127 92.8575C43.0096 89.8122 42.6074 78.1646 37.3331 75.6583C32.0724 73.1601 29.1486 68.6595 27.828 66.0831C27.2275 64.9081 26.9612 64.132 26.9612 64.132C26.9612 64.132 27.396 64.0861 28.1731 64.0107C32.7626 63.5633 49.2838 62.1134 58.6477 63.3908C59.4873 63.5013 60.2672 63.6415 60.9764 63.7978C63.6339 64.3988 65.2942 65.342 65.2453 66.7676C64.9871 73.5428 71.7315 77.7819 70.6962 85.8264Z" fill="#FFBDA6"/>
<path d="M41.0827 9.86348C47.5744 9.86348 53.5063 13.1837 58.0442 18.6652V5.17694C58.0442 3.39019 56.585 1.94299 54.7834 1.94299H27.3821C25.5805 1.94299 24.1213 3.39019 24.1213 5.17694V18.6652C28.6592 13.1837 34.5911 9.86348 41.0827 9.86348Z" fill="#F6FDFF"/>
<path d="M58.0469 18.2152V58.8282C58.0469 58.8633 58.0469 58.8983 58.0442 58.9306C58.0414 58.9819 58.0387 59.0331 58.0333 59.0816C57.9735 59.8011 57.6882 60.4587 57.248 60.9815C56.6176 61.7361 55.6611 62.2158 54.5959 62.2158H27.5723C26.5778 62.2158 25.6838 61.8008 25.0534 61.1324C24.4746 60.5207 24.1213 59.6987 24.1213 58.7932V18.2152C25.7789 16.2128 27.6239 14.4989 29.613 13.1298C31.0885 12.1111 32.6482 11.2838 34.2678 10.672C34.496 10.5831 34.727 10.5022 34.9607 10.4268C36.9226 9.76111 38.9741 9.41077 41.0827 9.41077C44.1044 9.41077 47.0092 10.1303 49.7048 11.4562C50.02 11.6099 50.3352 11.7742 50.6477 11.9494C50.6884 11.971 50.7292 11.9925 50.7672 12.0141C51.0498 12.1731 51.327 12.3348 51.6014 12.51C51.7944 12.6259 51.9846 12.7471 52.1748 12.8765C54.3106 14.2833 56.2833 16.0862 58.0469 18.2152Z" fill="#E2F7FF"/>
<path d="M58.6477 63.3909C58.0417 63.9083 57.2537 64.2236 56.395 64.2236H29.3714C28.9475 64.2236 28.5454 64.1508 28.1731 64.0107C27.3932 64.0835 26.9612 64.132 26.9612 64.132C26.9612 64.132 27.2275 64.9081 27.828 66.0831C28.2193 66.1802 28.6269 66.2314 29.0508 66.2314H56.7184C58.5363 66.2314 60.1232 65.2558 60.9764 63.7978C60.2672 63.6388 59.4873 63.5014 58.6477 63.3909Z" fill="#FC9F86"/>
<path d="M54.9195 0H27.2492C24.5265 0 22.3228 2.18831 22.3228 4.88596V59.3403C22.3228 62.038 24.5292 64.2263 27.2492 64.2263H54.9195C57.6396 64.2263 59.846 62.038 59.846 59.3403V4.88596C59.8433 2.18831 57.6396 0 54.9195 0ZM58.0444 11.6719V32.353V58.7932C58.0444 59.626 57.7455 60.3859 57.2483 60.9788C56.6151 61.7334 55.6614 62.2158 54.5935 62.2158H36.2354H27.5699C25.665 62.2158 24.1189 60.6824 24.1189 58.7932V30.6686V10.8499V5.2417C24.1189 3.45494 25.5781 2.00774 27.3797 2.00774H54.7837C56.5852 2.00774 58.0444 3.45494 58.0444 5.2417V11.6719Z" fill="#42144A"/>
<path d="M33.1323 4.85093H29.8661C29.6079 4.85093 29.3987 4.64342 29.3987 4.3874V4.02628C29.3987 3.77026 29.6079 3.56274 29.8661 3.56274H33.1323C33.3904 3.56274 33.5996 3.77026 33.5996 4.02628V4.3874C33.5996 4.64073 33.3904 4.85093 33.1323 4.85093Z" fill="#BDD8FF"/>
<path d="M28.1485 4.85093H27.2274C26.9692 4.85093 26.76 4.64342 26.76 4.3874V4.02628C26.76 3.77026 26.9692 3.56274 27.2274 3.56274H28.1485C28.4067 3.56274 28.6159 3.77026 28.6159 4.02628V4.3874C28.6186 4.64073 28.4094 4.85093 28.1485 4.85093Z" fill="#BDD8FF"/>
<path d="M54.0663 4.84553C54.4415 4.84553 54.7456 4.54388 54.7456 4.17179C54.7456 3.79969 54.4415 3.49805 54.0663 3.49805C53.6911 3.49805 53.387 3.79969 53.387 4.17179C53.387 4.54388 53.6911 4.84553 54.0663 4.84553Z" fill="#BDD8FF"/>
<path d="M49.2457 4.84553C49.6209 4.84553 49.9251 4.54388 49.9251 4.17179C49.9251 3.79969 49.6209 3.49805 49.2457 3.49805C48.8706 3.49805 48.5664 3.79969 48.5664 4.17179C48.5664 4.54388 48.8706 4.84553 49.2457 4.84553Z" fill="#BDD8FF"/>
<path d="M51.6561 4.84553C52.0313 4.84553 52.3355 4.54388 52.3355 4.17179C52.3355 3.79969 52.0313 3.49805 51.6561 3.49805C51.281 3.49805 50.9768 3.79969 50.9768 4.17179C50.9768 4.54388 51.281 4.84553 51.6561 4.84553Z" fill="#BDD8FF"/>
<path d="M83.2609 6.59998H68.6119C67.6554 6.59998 66.8728 7.37612 66.8728 8.32475V17.4391C66.8728 18.3877 67.6554 19.1639 68.6119 19.1639H70.2205L69.5358 22.6997L73.2557 19.1639H83.2636C84.2201 19.1639 85.0026 18.3877 85.0026 17.4391V8.32475C84.9999 7.37612 84.2173 6.59998 83.2609 6.59998ZM76.2747 16.6468C76.2747 16.6468 70.5113 12.378 72.1906 10.0603C73.8237 7.80732 76.2393 11.0467 76.2393 11.0467C76.2393 11.0467 77.5545 8.72091 78.9023 9.17097C82.4212 10.3487 76.2747 16.6468 76.2747 16.6468Z" fill="#FF656B"/>
<path d="M16.6273 51.4575L16.293 53.98C16.2306 54.4409 15.823 54.7777 15.3556 54.7535L13.842 54.6807C14.1654 52.9856 14.7061 50.1343 15.1871 47.5391C16.2441 48.4985 16.8284 49.9376 16.6273 51.4575Z" fill="#FFD7C9"/>
<path d="M65.2423 66.7649L63.1853 65.5306C59.0686 71.6913 53.0797 74.8902 49.3189 72.7316C45.2837 70.4247 45.7484 63.0648 49.4358 55.7991C50.5227 53.654 51.8406 51.5708 53.2536 49.6978C55.5171 46.7144 57.066 43.2352 57.5306 39.5297C58.3811 32.7249 56.0008 28.3429 56.3866 23.9744C57.0605 16.2668 63.7886 15.7601 63.7886 15.7601C63.7886 15.7601 63.8293 16.3261 63.9244 17.3394C63.9489 17.5361 63.9706 17.7463 63.9897 17.9754C63.9951 18.0104 63.9978 18.0482 64.0005 18.0832C64.1799 19.8241 64.4896 22.4355 64.9869 25.5563C65.0086 25.6964 65.0304 25.8393 65.0548 25.9821C65.0956 26.2489 65.1391 26.5157 65.1853 26.7852C66.0222 31.7871 67.3075 37.8938 69.2476 43.7715C70.6932 48.1724 66.3401 60.2431 65.2423 66.7649Z" fill="#FFBDA6"/>
<path d="M64.987 25.5563C63.4816 25.1116 62.2697 23.8719 61.9545 22.228L61.4382 19.5249C61.3485 19.0668 61.6311 18.6221 62.0822 18.4982L63.9897 17.9753C63.9952 18.0104 63.9979 18.0481 64.0006 18.0831C64.18 19.8241 64.4897 22.4355 64.987 25.5563Z" fill="#FFD7C9"/>
<path d="M29.4776 32.1824C28.7472 32.838 28.2524 33.6634 28.0636 34.4991C27.519 36.2537 28.0636 38.1345 29.4571 39.4116C31.3 41.1505 38.3833 42.7434 39.7849 43.045C40.1538 43.1248 40.5395 43.0211 40.8081 42.7714C41.0657 42.5313 41.188 42.1786 41.1016 41.8177C40.7781 40.5127 39.072 33.9275 37.2086 32.1981C35.8275 30.889 33.8068 30.3896 32.0107 30.8746C31.0373 31.0657 30.1509 31.5268 29.4776 32.1824ZM4.61946 9.04239C3.33278 10.2478 3.33644 12.1982 4.62092 13.3955C11.6025 19.9029 13.9914 23.3064 15.7355 25.7909C16.6855 27.1458 17.4372 28.2154 18.6002 29.2906C19.9812 30.6038 22.0049 31.1052 23.8061 30.6195C24.743 30.4333 25.6234 29.9762 26.3524 29.2981C27.0704 28.6289 27.5732 27.785 27.7503 26.9957C28.2919 25.2356 27.7437 23.3548 26.3553 22.0812C25.1887 20.9883 24.0418 20.2884 22.5897 19.4029C19.9234 17.7758 16.2727 15.5498 9.29115 9.04171C8.00375 7.8431 5.90759 7.8431 4.61946 9.04239Z" fill="#005BA1"/>
</g>
<defs>
<clipPath id="clip0">
<rect width="85" height="95" fill="white"/>
</clipPath>
</defs>
</svg>
