<svg width="289" height="313" viewBox="0 0 289 313" fill="none" xmlns="http://www.w3.org/2000/svg">
<path d="M159.889 248.162H105.955L101.653 281.444H164.279L159.889 248.162Z" fill="#8F8F8F"/>
<path d="M157.632 248.162H103.698L99.396 281.444H162.022L157.632 248.162Z" fill="#D6D6D6"/>
<path d="M157.631 248.162H103.698L101.812 265.347H159.57L157.631 248.162Z" fill="#C7C7C7"/>
<path d="M94.5718 285.211C94.563 282.151 96.8733 279.675 99.7147 279.675H179.354C182.195 279.675 184.505 282.151 184.514 285.211H94.5718Z" fill="#CCCCCC"/>
<path d="M80.002 285.211C80.002 282.151 82.3034 279.675 85.1448 279.675H164.784C167.625 279.675 169.935 282.151 169.944 285.211H80.002Z" fill="#F2F2F2"/>
<path d="M289 171.606C278.785 171.606 270.509 163.797 270.509 154.174L270.527 79.8198V67.8623C270.527 56.6124 264.729 47.485 257.585 47.485H255.806C248.654 47.485 236.934 56.6035 236.934 67.8623H232.013H180.54V139.926H144.646V171.606H289Z" fill="#4D7E80"/>
<path opacity="0.31" d="M273.315 171.606C264.215 171.606 256.833 163.797 256.833 154.174L256.851 79.8198V67.8623C256.851 56.6124 251.69 47.485 245.317 47.485H243.732C237.359 47.485 226.905 56.6035 226.905 67.8623H222.515H176.636V139.926H144.637V171.606H273.315Z" fill="#93C9C1"/>
<path d="M258.949 47.4939H140.318C130.696 47.4939 122.898 56.6124 122.898 67.8712V68.8794H122.853V104.929V227.882C122.853 239.132 118.498 248.26 110.576 248.26H229.702C237.625 248.26 244.042 239.141 244.042 227.882V104.92V68.8706H244.033V67.8623C244.033 56.6124 249.327 47.4939 258.949 47.4939Z" fill="#E9F5F3"/>
<path opacity="0.59" d="M244.857 47.8565H126.226C116.604 47.8565 108.805 56.975 108.805 68.2338V69.242H108.761V105.291V228.245C108.761 239.495 104.406 248.622 96.4839 248.622H215.602C223.524 248.622 229.941 239.504 229.941 228.245V105.283V69.2332H229.933V68.2249C229.941 56.975 235.235 47.8565 244.857 47.8565Z" fill="#DEDEDE"/>
<path d="M222.771 227.865V223.761H222.798V46.0081V34.0594C222.798 22.8095 215.575 13.6821 206.67 13.6821H204.457C195.552 13.6821 180.938 22.8006 180.938 34.0594H174.804H110.682V106.123H65.9719V227.874C65.9719 239.124 76.0717 248.251 88.5261 248.251H239.475C227.02 248.242 222.771 239.124 222.771 227.865Z" fill="#608385"/>
<path opacity="0.31" d="M204.643 227.865V223.761H204.67V46.0081V34.0594C204.67 22.8095 197.473 13.6821 188.604 13.6821H186.4C177.521 13.6821 162.969 22.8006 162.969 34.0594H156.861H110.549V106.123H65.9719V227.874C65.9719 239.124 76.0363 248.251 88.4465 248.251H221.293C208.874 248.242 204.643 239.124 204.643 227.865Z" fill="#93C9C1"/>
<path d="M247.707 61.4326H9.76339C6.44399 61.4326 3.74422 64.0593 3.72651 67.2875L2.81478 244.368C2.79708 247.605 5.4703 250.223 8.7897 250.223H246.733C250.052 250.223 252.752 247.596 252.77 244.368L253.69 67.2875C253.699 64.0505 251.026 61.4326 247.707 61.4326Z" fill="#D6D6D6"/>
<path d="M239.483 60.9373H6.5326C3.28401 60.9373 0.646198 63.564 0.637347 66.8099L2.23624e-05 244.35C-0.00882936 247.596 2.61128 250.223 5.85986 250.223H238.811C242.059 250.223 244.697 247.596 244.706 244.35L245.334 66.8099C245.352 63.564 242.732 60.9373 239.483 60.9373Z" fill="#242424"/>
<path d="M232.606 76.0168H13.3041L12.7375 235.144H232.039L232.606 76.0168Z" fill="#333838"/>
<g opacity="0.06">
<path opacity="0.06" d="M69.9375 292.234L9.17041 239.522L157.083 0L217.85 52.7121L69.9375 292.234Z" fill="white"/>
<path opacity="0.06" d="M93.0582 313L74.5581 296.948L222.47 57.4349L240.971 73.4785L93.0582 313Z" fill="white"/>
</g>
<path opacity="0.46" d="M124.933 68.163C124.924 69.4455 124.048 70.4802 122.968 70.4802C121.888 70.4802 121.021 69.4455 121.021 68.163C121.03 66.8806 121.906 65.8458 122.986 65.8458C124.075 65.8458 124.942 66.8806 124.933 68.163Z" fill="#808080"/>
<path opacity="0.85" d="M79.7098 35.9432C67.2643 35.9432 57.1733 44.5576 57.1733 55.1796V104.416V170.412V203.782V215.27L57.1822 219.781C57.191 225.432 61.7851 230.005 67.4413 230.005H70.2296L70.2473 230.023L70.265 230.005H83.2859L83.3036 230.023L83.3213 230.005H96.3422L96.3599 230.023L96.3776 230.005H109.399L109.416 230.023L109.434 230.005H122.455L122.473 230.023L122.49 230.005H135.511L135.529 230.023L135.547 230.005H148.567L148.585 230.023L148.603 230.005H161.624L161.641 230.023L161.659 230.005H174.68L174.698 230.023L174.715 230.005H187.736L187.754 230.023L187.772 230.005H200.793L200.81 230.023L200.828 230.005H203.59C209.255 230.005 213.849 225.415 213.849 219.754V215.27V203.782V170.412V104.416V55.1796C213.849 44.5576 220.7 35.9432 233.146 35.9432H79.7098Z" fill="#242424"/>
<path d="M55.2526 14.1821H201.765C198.636 15.16 196.035 16.8158 194.008 18.9748C190.64 22.5631 188.892 27.5013 188.892 32.9185V82.1636V148.16V183.979V193.018V208.761C188.892 212.809 185.602 216.097 181.549 216.097L40.5675 216.115C36.5141 216.115 33.2249 212.835 33.2249 208.788L33.2249 208.787L33.2161 193.018V183.979V148.16V82.1636V32.9185C33.2161 22.6439 43.006 14.1821 55.2526 14.1821Z" fill="white" stroke="#5594B9"/>
<path d="M162.066 71.8158H110.31C109.328 71.8158 108.531 71.0198 108.531 70.0381C108.531 69.0564 109.328 68.2604 110.31 68.2604H162.066C163.049 68.2604 163.845 69.0564 163.845 70.0381C163.845 71.0198 163.049 71.8158 162.066 71.8158Z" fill="#7D7D7D"/>
<path d="M162.066 81.5533H110.31C109.328 81.5533 108.531 80.7573 108.531 79.7756C108.531 78.7939 109.328 77.9979 110.31 77.9979H162.066C163.049 77.9979 163.845 78.7939 163.845 79.7756C163.845 80.7662 163.049 81.5533 162.066 81.5533Z" fill="#7D7D7D"/>
<path d="M162.066 98.6406H110.31C109.328 98.6406 108.531 97.8446 108.531 96.8628C108.531 95.8811 109.328 95.0851 110.31 95.0851H162.066C163.049 95.0851 163.845 95.8811 163.845 96.8628C163.845 97.8446 163.049 98.6406 162.066 98.6406Z" fill="#A3BBC4"/>
<path d="M162.066 108.378H110.31C109.328 108.378 108.531 107.582 108.531 106.6C108.531 105.619 109.328 104.823 110.31 104.823H162.066C163.049 104.823 163.845 105.619 163.845 106.6C163.845 107.582 163.049 108.378 162.066 108.378Z" fill="#A3BBC4"/>
<path d="M162.066 121.892H56.9433C55.9607 121.892 55.1641 121.096 55.1641 120.115C55.1641 119.133 55.9607 118.337 56.9433 118.337H162.066C163.049 118.337 163.846 119.133 163.846 120.115C163.846 121.096 163.049 121.892 162.066 121.892Z" fill="#A3BBC4"/>
<path d="M162.066 130.56H56.9433C55.9607 130.56 55.1641 129.764 55.1641 128.782C55.1641 127.8 55.9607 127.004 56.9433 127.004H162.066C163.049 127.004 163.846 127.8 163.846 128.782C163.846 129.764 163.049 130.56 162.066 130.56Z" fill="#A3BBC4"/>
<path d="M113.931 157.544H89.4027C88.4202 157.544 87.6235 156.748 87.6235 155.766C87.6235 154.784 88.4202 153.988 89.4027 153.988H113.931C114.913 153.988 115.71 154.784 115.71 155.766C115.71 156.748 114.913 157.544 113.931 157.544Z" fill="#A3BBC4"/>
<path d="M134.936 147.797H89.4027C88.4202 147.797 87.6235 147.001 87.6235 146.02C87.6235 145.038 88.4202 144.242 89.4027 144.242H134.936C135.919 144.242 136.715 145.038 136.715 146.02C136.715 147.01 135.919 147.797 134.936 147.797Z" fill="#A3BBC4"/>
<path d="M76.8509 164.371H56.0493V143.596H76.842V164.371H76.8509ZM58.5544 161.877H74.3547V146.09H58.5544V161.877Z" fill="#A3BBC4"/>
<path d="M65.9102 158.711L60.7673 154.554L62.6793 152.485L65.6269 154.864L70.7963 149.265L72.9827 151.034L65.9102 158.711Z" fill="#C3D82E"/>
<path d="M150.896 189.242H89.4115C88.429 189.242 87.6323 188.446 87.6323 187.464C87.6323 186.482 88.429 185.686 89.4115 185.686H150.896C151.878 185.686 152.675 186.482 152.675 187.464C152.675 188.446 151.878 189.242 150.896 189.242Z" fill="#A3BBC4"/>
<path d="M162.067 179.504H89.4027C88.4202 179.504 87.6235 178.708 87.6235 177.726C87.6235 176.745 88.4202 175.949 89.4027 175.949H162.067C163.049 175.949 163.846 176.745 163.846 177.726C163.846 178.708 163.049 179.504 162.067 179.504Z" fill="#A3BBC4"/>
<path d="M76.8509 196.078H56.0493V175.294H76.842V196.078H76.8509ZM58.5544 193.575H74.3547V177.788H58.5544V193.575Z" fill="#A3BBC4"/>
<path d="M65.9102 190.409L60.7673 186.252L62.6793 184.183L65.6269 186.562L70.7963 180.963L72.9827 182.732L65.9102 190.409Z" fill="#C3D82E"/>
<path d="M155.543 157.455L154.622 157.411L152.754 149.168L151.214 155.439L150.302 155.501L149.585 153.679L149.231 154.483L148.798 154.767H142.84C142.575 154.767 142.362 154.554 142.362 154.289C142.362 154.024 142.575 153.811 142.84 153.811H148.488L149.178 152.246L150.063 152.264L150.648 153.749L152.312 146.975L153.241 146.984L155.18 155.536L155.64 154.147L156.091 153.82H162.296C162.562 153.82 162.774 154.032 162.774 154.298C162.774 154.563 162.562 154.775 162.296 154.775H156.437L155.543 157.455Z" fill="white"/>
<path d="M96.0501 109.05H58.2267C56.5183 109.05 55.1375 107.671 55.1375 105.964V69.9054C55.1375 68.1984 56.5183 66.8187 58.2267 66.8187H96.0501C97.7585 66.8187 99.1394 68.1984 99.1394 69.9054V105.955C99.1394 107.662 97.7585 109.05 96.0501 109.05Z" fill="#D5EDED"/>
<path d="M76.9108 73.5086C76.9108 73.5086 80.4913 73.3692 78.1715 74.2374C74.8116 75.4986 60.8426 82.5969 62.034 94.4674C63.6793 110.926 77.2827 106.465 77.2827 106.465C77.2827 106.465 90.8042 107.251 91.1698 91.6915C91.3904 82.0898 79.7222 72.3044 76.9108 73.5086Z" fill="#230905"/>
<path d="M78.6075 102.071L78.7764 99.2411C78.8515 97.7483 77.8189 96.4741 76.4858 96.4054C75.1465 96.3367 73.8698 97.7358 73.7947 99.2286L73.4692 102.264C75.5846 102.876 77.7313 102.533 78.6075 102.071Z" fill="#ED8C73"/>
<path d="M79.0247 73.4749C77.8239 73.344 76.6048 73.4001 75.4222 73.6807C72.8082 74.2916 70.6066 75.8626 68.8842 77.9448C68.3929 78.5433 67.9563 79.1854 67.5681 79.8587C67.5499 79.8899 67.5317 79.9211 67.5135 79.9522C64.1778 85.9121 64.7661 95.5814 70.9887 99.378C72.4382 100.263 73.9241 100.712 75.3979 100.806C81.5478 101.205 87.364 95.4068 88.3344 89.0791C89.3412 82.5457 86.1814 74.2604 79.0247 73.4749Z" fill="#F9A184"/>
<path d="M79.0879 93.4831L71.4933 92.8674C71.0465 92.8311 70.7024 93.2658 70.8473 93.6944C71.5174 95.6746 73.0629 97.1235 74.9585 97.2744C76.8542 97.4253 78.617 96.2481 79.595 94.4008C79.8003 94.0023 79.5346 93.5194 79.0879 93.4831Z" fill="white"/>
<path d="M87.5187 92.6775C87.1249 92.5457 86.7742 92.2946 86.485 91.9808C84.7006 95.5709 81.5194 98.8787 77.8029 99.8766C75.6924 100.442 73.6126 100.354 71.699 99.7574C72.9419 100.391 74.2095 100.73 75.4647 100.806C80.0549 101.101 84.4544 98.0188 86.8541 93.8323C86.9403 93.8951 87.0326 93.9579 87.131 94.0018C88.1894 94.4851 89.5923 93.6566 90.2876 92.144C89.5123 92.8218 88.4663 93.0101 87.5187 92.6775Z" fill="#ED8C73"/>
<path opacity="0.1" d="M69.3681 88.8456C72.7985 89.8315 76.3331 90.4702 79.9044 90.1105C83.3287 89.7633 86.5999 88.4984 89.9139 87.6179C90.0426 87.5869 90.1651 87.5559 90.2876 87.5249C89.8098 85.8198 89.0379 84.158 88.0885 82.6079C86.9736 78.0381 83.9229 74.014 78.9733 73.4746C77.7604 73.3443 76.5291 73.4002 75.3346 73.6792C72.6944 74.2868 70.4708 75.8494 68.731 77.9203C68.2349 78.5156 67.7938 79.1542 67.4018 79.8239C67.3834 79.8549 67.365 79.8859 67.3466 79.9169C66.7892 80.9028 66.342 81.9879 66.0051 83.1288C65.1168 84.2511 64.3389 85.4664 63.7324 86.7809C65.4844 87.7357 67.4569 88.2938 69.3681 88.8456Z" fill="black"/>
<path d="M85.0157 83.1805C82.8571 80.8962 79.4383 80.1409 76.4125 79.7295C74.1417 79.4224 71.9332 79.4593 69.8058 79.9751C67.6223 79.0724 66.1562 77.9855 66.4182 76.7022C67.223 72.6801 70.5731 70.2545 74.5472 69.3703C80.1869 68.1115 87.0869 69.9537 89.7571 74.7249C91.3854 77.6294 91.4228 81.1295 90.7989 84.2674C90.7116 84.7095 90.6055 85.1578 90.4808 85.5937C90.4371 85.7534 90.2437 85.8332 90.0815 85.7657C87.8605 84.8753 86.4506 84.2858 85.5647 83.8989C85.4212 83.6533 85.234 83.4138 85.0157 83.1805Z" fill="#FFB112"/>
<path d="M61.9633 83.5386C61.9633 83.5386 62.0679 84.9053 64.7628 84.9053C64.7628 84.9053 67.6915 80.0097 72.5091 80.4909C77.7021 81.0106 80.5508 83.282 80.5508 83.282C80.5508 83.282 71.0325 75.0306 66.8917 77.3597C62.7447 79.6824 61.9264 82.0244 61.9633 83.5386Z" fill="#E59800"/>
<path d="M88.5173 85.4433C88.5173 85.4433 81.676 86.464 79.3336 85.0015C76.9912 83.545 76.1174 78.7994 70.503 78.495C64.8887 78.1906 62.0195 83.4973 62.0195 83.4973C62.0195 83.4973 61.2945 80.9723 65.0002 77.7488C68.7059 74.5254 82.9897 75.3193 88.5173 85.4433Z" fill="#FFC83F"/>
<path opacity="0.13" d="M81.6567 78.7144C83.1677 79.5378 84.5951 80.5625 85.8618 81.819C83.5149 82.8132 81.1809 83.8441 78.8662 84.9054C77.6381 83.9477 76.7572 82.1423 75.2397 80.6845C77.3744 80.0197 79.5156 79.3609 81.6567 78.7144Z" fill="white"/>
<path d="M62.0197 82.783C62.0197 82.783 64.8888 77.5363 70.5032 77.8428C76.1175 78.1435 76.9912 82.8301 79.3336 84.2685C81.329 85.4947 86.6025 84.9465 88.1083 84.7578C88.2509 84.9819 88.3872 85.2118 88.5173 85.4476C88.5173 85.4476 81.676 86.4557 79.3336 85.0113C76.9912 83.5729 76.1175 78.8863 70.5032 78.5856C64.8888 78.285 62.0197 83.5258 62.0197 83.5258C62.0197 83.5258 61.9206 83.1838 61.9825 82.5825C61.9949 82.7122 62.0197 82.783 62.0197 82.783Z" fill="#FFB32A"/>
<path opacity="0.17" d="M264.445 239.132L248.22 221.868L220.939 192.85L217.239 196.379L206.095 184.528C224.161 163.062 224.462 131.798 205.82 111.969C185.745 90.6188 151.32 90.6188 128.934 111.969C106.548 133.319 104.672 167.945 124.747 189.295C143.389 209.124 174.406 210.53 196.659 193.522L207.803 205.374L204.103 208.903L240.634 247.756L247.618 255.185C251.787 259.616 258.931 259.616 263.578 255.185C268.216 250.754 268.606 243.563 264.445 239.132ZM134.015 180.45C118.534 163.982 119.976 137.29 137.246 120.822C154.507 104.354 181.053 104.354 196.535 120.822C212.017 137.29 210.574 163.982 193.304 180.45C176.043 196.91 149.497 196.91 134.015 180.45Z" fill="black"/>
<path d="M124.181 97.5439C101.786 118.885 100.219 153.82 120.693 175.56C141.167 197.299 175.91 197.635 198.305 176.294C220.7 154.952 222.267 120.017 201.793 98.278C181.328 76.521 146.576 76.1937 124.181 97.5439ZM132.502 106.388C149.762 89.9201 176.309 89.9201 191.79 106.388C207.272 122.856 205.829 149.548 188.56 166.017C171.299 182.485 144.752 182.485 129.271 166.017C113.789 149.548 115.232 122.856 132.502 106.388Z" fill="#212121"/>
<path d="M190.79 179.628L205.342 195.68L214.699 186.606L200.146 170.545L190.79 179.628Z" fill="#383838"/>
<path d="M196.915 191.488C196.482 192.691 196.765 194.026 197.641 194.964L239.722 239.725C243.892 244.156 251.035 244.156 255.682 239.725C260.329 235.294 260.719 228.104 256.55 223.673L214.513 178.965C213.61 178.001 212.229 177.638 210.954 178.018C204.466 179.955 199.305 184.819 197.039 191.117L196.915 191.488Z" fill="#7D7970"/>
<path opacity="0.73" d="M190.814 163.627C207.427 145.413 206.902 117.907 189.642 102.189C172.382 86.4717 144.922 88.495 128.308 106.708C111.695 124.922 112.22 152.428 129.48 168.146C146.741 183.863 174.2 181.84 190.814 163.627Z" fill="#5594B9"/>
<path d="M121.039 96.5091C98.6526 117.859 96.776 152.485 116.852 173.835C136.927 195.185 171.352 195.185 193.738 173.835C216.124 152.485 218 117.859 197.925 96.5091C177.849 75.1589 143.425 75.1589 121.039 96.5091ZM129.359 105.353C146.62 88.8853 173.166 88.8853 188.648 105.353C204.13 121.821 202.687 148.514 185.417 164.982C168.156 181.45 141.61 181.45 126.128 164.982C110.647 148.522 112.098 121.821 129.359 105.353Z" fill="#4F4F4F"/>
<path d="M129.828 129.958C130.227 129.702 130.528 129.295 130.652 128.808C132.413 121.689 136.795 115.542 142.991 111.483C149.187 107.432 156.454 105.955 163.456 107.343C164.421 107.529 165.395 106.892 165.634 105.919C165.873 104.947 165.288 104 164.332 103.806C156.401 102.24 148.169 103.903 141.15 108.493C134.13 113.083 129.165 120.053 127.173 128.119C126.934 129.092 127.518 130.038 128.474 130.232C128.952 130.33 129.439 130.215 129.828 129.958Z" fill="white"/>
<g opacity="0.14">
<path opacity="0.14" d="M247.972 224.221L225.56 200.271" stroke="white" stroke-width="3.5238" stroke-miterlimit="10" stroke-linecap="round"/>
<path opacity="0.14" d="M221.399 195.601L211.22 184.722" stroke="white" stroke-width="3.5238" stroke-miterlimit="10" stroke-linecap="round"/>
</g>
<path opacity="0.32" d="M255.302 239.115C258.541 235.878 260.135 232.234 258.869 230.96C257.603 229.695 253.947 231.287 250.708 234.524C247.468 237.762 245.874 241.405 247.14 242.679C248.415 243.944 252.062 242.352 255.302 239.115Z" fill="#212121"/>
</svg>
