<svg width="234" height="295" viewBox="0 0 234 295" fill="none" xmlns="http://www.w3.org/2000/svg">
<g clip-path="url(#clip0)">
<path d="M121.785 84.7525C124.954 75.6026 130.383 67.2759 132.734 57.883C135.527 46.7161 133.196 33.0265 124.411 24.7528C114.653 15.5637 97.7444 15.3265 89.2271 26.3895C82.1506 35.5825 79.892 50.5619 81.9796 61.7523C83.7644 71.3236 89.062 80.2049 96.6437 86.3382C95.7453 97.0151 94.2612 107.137 88.718 116.391C83.104 125.764 78.4119 133.944 81.0066 144.552C84.1458 157.389 96.7144 167.292 109.965 167.366C123.216 167.443 135.897 157.685 139.183 144.883C140.891 138.233 139.975 131.041 137.094 124.847C135.916 122.314 134.395 120.456 132.685 118.31C131.208 116.458 130.292 116.905 127.998 115.807C126.314 115.001 126.135 112.965 124.423 112.222C120.796 110.65 120.016 100.132 119.752 95.2137C119.56 91.6737 120.623 88.1043 121.785 84.7525Z" fill="white"/>
<path d="M110.116 167.858C110.065 167.858 110.014 167.858 109.961 167.858C103.443 167.821 96.848 165.431 91.3873 161.131C85.9286 156.83 82.0719 150.983 80.5269 144.67C77.824 133.62 82.9093 125.129 88.2933 116.142C93.9801 106.649 95.3344 95.9115 96.1286 86.5577C88.6019 80.3872 83.2729 71.3941 81.492 61.8444C80.4266 56.1306 80.4935 49.521 81.6807 43.2349C82.9663 36.4313 85.4391 30.5058 88.8339 26.0955C92.667 21.1168 98.4088 18.0864 105.004 17.563C112.21 16.9887 119.589 19.5467 124.745 24.4019C128.963 28.3751 131.953 33.8125 133.39 40.13C134.707 45.9203 134.642 52.2691 133.207 58.0064C131.845 63.4536 129.423 68.6127 127.082 73.6012C125.362 77.2647 123.585 81.0537 122.247 84.9171L121.783 84.7564L122.247 84.9171C121.173 88.0141 120.045 91.6168 120.238 95.1921C120.607 102.053 121.665 110.499 124.613 111.777C125.616 112.212 126.141 112.996 126.646 113.755C127.084 114.411 127.497 115.031 128.205 115.37C128.962 115.732 129.565 115.919 130.096 116.085C131.159 116.416 132 116.677 133.064 118.01L133.282 118.282C134.947 120.368 136.384 122.167 137.536 124.645C140.589 131.21 141.341 138.442 139.655 145.009C138.039 151.305 134.114 157.107 128.606 161.345C123.147 165.547 116.584 167.858 110.116 167.858ZM107.017 18.4588C106.372 18.4588 105.727 18.4843 105.084 18.5353C98.7705 19.0371 93.2764 21.9322 89.6143 26.6874C86.3119 30.9762 83.902 36.7606 82.6459 43.4113C81.4802 49.5818 81.4154 56.062 82.4591 61.6601C84.2145 71.0707 89.4963 79.9266 96.9502 85.956C97.076 86.0579 97.1448 86.2167 97.1311 86.3774C96.3291 95.9017 94.9845 106.88 89.1386 116.64C83.8607 125.451 78.8757 133.773 81.4822 144.433C82.9742 150.536 86.709 156.191 91.9967 160.357C97.2844 164.522 103.667 166.837 109.967 166.872C110.016 166.872 110.067 166.872 110.116 166.872C116.369 166.872 122.717 164.634 128.01 160.561C133.345 156.456 137.145 150.842 138.707 144.756C140.337 138.407 139.606 131.408 136.647 125.047C135.545 122.675 134.141 120.917 132.515 118.882L132.297 118.61C131.423 117.512 130.815 117.324 129.807 117.01C129.243 116.836 128.604 116.636 127.782 116.244C126.831 115.789 126.298 114.991 125.83 114.29C125.382 113.619 124.959 112.986 124.224 112.667C121.449 111.463 119.825 105.763 119.259 95.2372C119.056 91.4835 120.218 87.773 121.321 84.5898C122.677 80.6773 124.466 76.8649 126.196 73.1798C128.517 68.2324 130.917 63.1185 132.258 57.7634C133.658 52.1711 133.72 45.983 132.437 40.3398C131.043 34.2124 128.152 28.9455 124.075 25.1076C119.575 20.8757 113.317 18.4588 107.017 18.4588Z" fill="#212121"/>
<path d="M6.6832 176.681C9.94429 180.219 14.3809 182.69 17.8562 186.066C21.7109 189.81 21.6716 194.102 21.819 199.502C22.3026 217.163 21.308 234.493 28.5496 250.981C45.9459 290.584 99.0826 302.027 137.406 289.916C157.118 283.686 172.381 269.944 182.839 252.406C186.298 246.604 184.28 249.213 184.885 242.271C185.526 234.914 185.025 227.44 186.678 220.19C187.902 214.819 188.689 209.199 191.529 204.477C194.37 199.755 208.544 185.28 207.16 180.948C196.654 148.078 163.998 123.334 130.547 115.225C128.971 114.842 127.387 114.499 125.794 114.197C125.794 114.197 133.83 146.891 107.899 146.891C79.4689 146.891 86.7498 112.492 86.7498 112.492C78.4467 114.713 69.9549 118.241 61.9231 121.254C39.41 129.694 17.7265 145.136 7.43017 167.419C6.752 168.887 5.95 170.541 5.62762 172.163C5.30525 173.776 5.45858 175.354 6.6832 176.681Z" fill="white"/>
<path d="M106.55 295C95.6133 295 84.9947 293.422 74.9834 290.31C64.3706 287.009 55.0237 282.148 47.2003 275.858C38.7281 269.046 32.3023 260.743 28.0996 251.178C21.9156 237.098 21.7033 222.728 21.4792 207.514C21.4399 204.895 21.4006 202.188 21.3278 199.514L21.3121 198.889C21.1804 193.853 21.0762 189.876 17.5144 186.417C15.9556 184.901 14.159 183.541 12.4232 182.226C10.3121 180.626 8.13017 178.974 6.3237 177.012C5.12856 175.714 4.74329 174.097 5.14822 172.067C5.4588 170.508 6.19004 168.932 6.83478 167.541L6.98614 167.213C11.8846 156.611 19.5567 147.04 29.7882 138.764C38.8127 131.464 49.8658 125.249 61.7523 120.789C63.4782 120.143 65.263 119.457 66.9909 118.792C73.4266 116.318 80.0824 113.762 86.6242 112.012C86.7893 111.969 86.9663 112.012 87.0901 112.13C87.2139 112.247 87.269 112.42 87.2336 112.586C87.1962 112.759 83.6796 129.951 91.6033 139.689C95.2222 144.139 100.706 146.393 107.903 146.393C114.244 146.393 119.038 144.386 122.154 140.424C125.914 135.645 126.577 128.81 126.473 123.916C126.359 118.58 125.331 114.346 125.321 114.305C125.282 114.143 125.327 113.972 125.441 113.851C125.557 113.729 125.724 113.676 125.889 113.706C127.477 114.007 129.085 114.354 130.666 114.739C147.545 118.831 164.275 127.24 177.773 138.415C192.286 150.431 202.61 165.083 207.63 180.789C208.586 183.776 203.66 190.096 197.12 198.046C194.816 200.847 192.827 203.266 191.952 204.72C189.666 208.521 188.714 213.016 187.793 217.363C187.588 218.326 187.378 219.319 187.158 220.29C186.086 224.982 185.925 229.873 185.768 234.605C185.683 237.131 185.597 239.744 185.375 242.306C185.16 244.768 185.282 246.018 185.363 246.846C185.528 248.525 185.491 248.91 183.262 252.65C172.073 271.416 156.267 284.461 137.555 290.376C128.034 293.387 117.356 294.983 106.676 294.994C106.635 295 106.594 295 106.55 295ZM7.04511 176.349C8.79458 178.247 10.9411 179.872 13.0169 181.446C14.7781 182.779 16.5984 184.159 18.2004 185.715C22.0492 189.453 22.1633 193.814 22.295 198.864L22.3107 199.489C22.3834 202.168 22.4247 204.879 22.462 207.5C22.6842 222.611 22.8945 236.884 28.9999 250.784C33.1377 260.202 39.4692 268.382 47.8175 275.093C55.5447 281.305 64.7834 286.109 75.2782 289.373C85.1952 292.456 95.7156 294.02 106.552 294.02C106.594 294.02 106.635 294.02 106.676 294.02C117.256 294.008 127.831 292.427 137.259 289.447C155.736 283.608 171.351 270.712 182.416 252.156C184.545 248.586 184.524 248.367 184.384 246.948C184.3 246.083 184.172 244.78 184.394 242.228C184.614 239.691 184.701 237.092 184.785 234.579C184.942 229.802 185.107 224.865 186.198 220.08C186.419 219.116 186.629 218.126 186.831 217.167C187.769 212.741 188.736 208.164 191.109 204.223C192.021 202.705 194.032 200.261 196.359 197.431C200.819 192.007 207.562 183.81 206.693 181.093C201.729 165.565 191.512 151.07 177.144 139.175C163.76 128.093 147.17 119.754 130.432 115.697C129.109 115.376 127.766 115.082 126.435 114.817C126.738 116.283 127.363 119.774 127.454 123.9C127.562 128.953 126.864 136.028 122.927 141.034C119.614 145.242 114.561 147.377 107.901 147.377C100.394 147.377 94.6521 144.999 90.8367 140.306C86.5299 135.012 85.5215 127.693 85.431 122.487C85.3583 118.251 85.8674 114.682 86.1269 113.166C79.876 114.893 73.5091 117.34 67.3447 119.709C65.6169 120.374 63.83 121.06 62.0983 121.709C50.31 126.131 39.3513 132.292 30.4074 139.526C20.2939 147.706 12.7142 157.16 7.87857 167.625L7.72524 167.954C7.10212 169.295 6.3984 170.816 6.10944 172.259C5.76545 173.984 6.06227 175.285 7.04511 176.349Z" fill="#212121"/>
<path d="M120.145 138.087C116.711 145.967 104.626 145.556 98.4285 140.445C89.7913 133.324 89.4748 120.415 91.4621 110.295C89.2153 111.563 80.582 114.413 80.582 114.413C80.2596 115.16 80.2636 116.001 80.2773 116.812C80.468 127.236 81.8027 138.646 90.1648 145.901C99.262 153.792 112.617 153.506 123.371 149.544C135.299 145.152 140.205 129.804 139.775 117.971C135.11 116.063 130.206 114.74 125.213 114.044C123.749 121.334 122.284 128.622 120.82 135.912C120.664 136.698 120.436 137.421 120.145 138.087Z" fill="#6752A2"/>
<path d="M108.721 152.749C107.842 152.749 106.971 152.718 106.112 152.657C99.6649 152.193 94.1924 150.044 89.8443 146.271C81.321 138.875 79.9785 127.234 79.7878 116.822C79.774 116.052 79.7563 115.091 80.1318 114.221C80.1868 114.092 80.2949 113.994 80.4286 113.948C80.5151 113.921 89.0423 111.098 91.2222 109.867C91.3893 109.773 91.5957 109.785 91.751 109.897C91.9063 110.009 91.9829 110.201 91.9456 110.389C91.1593 114.393 90.434 120.427 91.4483 126.415C92.4449 132.305 94.9 136.9 98.743 140.069C102.385 143.072 108.182 144.395 112.841 143.282C115.135 142.735 118.188 141.355 119.697 137.893C119.978 137.249 120.195 136.551 120.342 135.816L124.735 113.948C124.786 113.694 125.026 113.523 125.286 113.56C130.322 114.262 135.262 115.593 139.965 117.518C140.144 117.59 140.262 117.761 140.27 117.953C140.502 124.335 139.185 131.188 136.657 136.751C133.652 143.368 129.117 147.953 123.544 150.005C118.628 151.814 113.556 152.749 108.721 152.749ZM80.9574 114.805C80.7608 115.383 80.7549 116.032 80.7687 116.804C80.9554 127.001 82.2547 138.389 90.487 145.532C94.672 149.162 99.9519 151.23 106.181 151.681C111.64 152.073 117.525 151.177 123.2 149.088C129.923 146.612 133.74 140.792 135.759 136.349C138.183 131.009 139.466 124.453 139.295 118.308C134.898 116.536 130.296 115.289 125.604 114.599L121.303 136.008C121.142 136.809 120.904 137.576 120.596 138.283C119.273 141.318 116.67 143.376 113.067 144.234C108.127 145.413 101.98 144.011 98.1139 140.824C94.0823 137.499 91.5131 132.707 90.4753 126.578C89.516 120.913 90.0742 115.226 90.7957 111.171C88.028 112.433 82.1918 114.393 80.9574 114.805Z" fill="black"/>
<path d="M207.257 225.507C212.303 212.692 212.796 197.146 207.161 180.944C197.155 185.282 182.794 192.215 172.378 195.51C172.686 196.133 175.342 204.552 175.257 208.576C175.208 210.873 174.809 213.121 173.927 215.176L207.257 225.507Z" fill="white"/>
<path d="M207.257 225.998C207.208 225.998 207.159 225.99 207.111 225.976L173.779 215.642C173.645 215.601 173.537 215.505 173.478 215.379C173.419 215.254 173.417 215.109 173.473 214.982C174.278 213.104 174.713 210.944 174.764 208.564C174.848 204.546 172.177 196.213 171.935 195.725C171.872 195.598 171.868 195.447 171.924 195.316C171.981 195.184 172.091 195.084 172.226 195.041C179.963 192.595 189.868 188.14 198.606 184.211C201.592 182.869 204.413 181.601 206.962 180.495C207.088 180.44 207.229 180.44 207.355 180.495C207.481 180.55 207.577 180.654 207.622 180.783C210.382 188.716 211.754 196.696 211.703 204.499C211.654 211.957 210.312 219.086 207.713 225.686C207.64 225.88 207.455 225.998 207.257 225.998ZM174.583 214.866L206.966 224.904C209.413 218.533 210.677 211.669 210.724 204.493C210.773 196.966 209.478 189.269 206.87 181.604C204.456 182.657 201.808 183.847 199.013 185.103C190.434 188.961 180.736 193.322 173.022 195.815C173.748 197.877 175.825 204.932 175.749 208.584C175.7 210.885 175.308 212.994 174.583 214.866Z" fill="#212121"/>
<path d="M206.117 177.729C206.117 177.729 207.816 183.01 208.557 185.575C198.457 189.08 183.321 193.941 173.221 197.446C172.351 195.108 170.627 192.32 169.758 189.984C171.836 189.329 187.616 184.503 196.914 180.84C198.152 180.352 204.865 178.168 206.117 177.729Z" fill="#6752A2"/>
<path d="M173.223 197.936C173.023 197.936 172.836 197.813 172.763 197.617C172.339 196.474 171.684 195.184 171.053 193.936C170.408 192.663 169.744 191.348 169.3 190.154C169.253 190.029 169.26 189.89 169.319 189.768C169.378 189.649 169.484 189.557 169.612 189.515C169.807 189.455 170.121 189.357 170.54 189.225C182.342 185.556 191.154 182.581 196.737 180.381C197.543 180.064 200.578 179.058 203.017 178.249C204.356 177.806 205.512 177.421 205.956 177.265C206.082 177.222 206.219 177.229 206.337 177.288C206.455 177.347 206.546 177.451 206.587 177.578C206.605 177.631 208.297 182.894 209.03 185.438C209.103 185.689 208.965 185.952 208.72 186.036C203.668 187.791 197.25 189.917 191.046 191.973C184.844 194.03 178.432 196.154 173.384 197.907C173.331 197.926 173.276 197.936 173.223 197.936ZM170.408 190.294C170.825 191.311 171.385 192.418 171.93 193.493C172.494 194.608 173.076 195.757 173.51 196.827C178.491 195.104 184.713 193.042 190.736 191.044C196.758 189.047 202.98 186.985 207.955 185.264C207.32 183.112 206.208 179.619 205.803 178.355C205.223 178.551 204.324 178.848 203.326 179.18C200.898 179.985 197.877 180.987 197.097 181.295C191.492 183.504 182.655 186.487 170.831 190.162C170.676 190.209 170.534 190.254 170.408 190.294Z" fill="black"/>
<path d="M99.8847 69.7081C98.1804 68.926 96.3386 64.1433 96.2698 60.325C96.2698 60.325 102.002 60.8307 102.574 61.3599C104.29 62.9456 102.434 70.8802 99.8847 69.7081Z" fill="#212121"/>
<path d="M100.406 70.3178C100.117 70.3178 99.8653 70.2394 99.6785 70.1532C97.9782 69.3711 95.8592 64.8177 95.7786 60.3329C95.7766 60.1937 95.8337 60.0604 95.9339 59.9664C96.0361 59.8723 96.1737 59.8252 96.3113 59.837C98.5149 60.031 102.301 60.4407 102.906 60.9993C104.428 62.4048 103.622 67.0542 102.275 69.0614C101.615 70.0493 100.942 70.3178 100.406 70.3178ZM100.089 69.2633C100.53 69.4652 100.992 69.2143 101.459 68.5164C102.735 66.6151 103.195 62.6341 102.248 61.7285C101.841 61.4717 99.2087 61.0974 96.7811 60.8641C97.0052 64.5805 98.7606 68.6537 100.089 69.2633Z" fill="#212121"/>
<path d="M120.782 39.3183C122.186 34.2632 123.587 29.2099 124.991 24.1548C124.446 35.5275 124.047 47.0373 125.972 58.312C126.96 64.1081 129.756 65.8683 132.168 59.4822C134.226 54.0331 134.3 48.6819 135.13 43.0465C134.169 49.5757 134.035 56.2264 134.717 62.789C135.085 66.3329 135.458 70.357 136.919 73.6403C141.255 83.3959 144.239 61.3698 144.43 59.1902C145.371 48.4761 144.778 37.4464 140.917 27.3086C135.545 13.2055 122.654 1.1428 107.535 0.515556C97.1959 0.0862865 87.1807 4.95722 79.4733 11.8412C71.8739 18.6311 63.8106 27.6262 60.4512 37.3367C57.6914 45.3124 63.6337 44.9086 68.2079 40.9198C71.9525 37.6542 75.1998 33.2851 77.6176 28.9571C73.9261 35.5667 71.3097 42.7721 69.9023 50.2069C69.4836 52.416 69.3774 55.1523 71.237 56.4225C77.2854 60.5525 83.2592 48.0253 85.1345 44.2481C87.5758 39.3301 89.2467 34.2769 91.1495 29.1649C91.9436 30.4252 91.2576 32.0737 93.0424 32.748C94.959 33.4713 97.1861 31.6797 98.7135 30.6859C99.7002 30.043 100.642 29.3295 101.528 28.5553C101.863 28.2632 103.777 26.8088 103.722 26.3815C104.19 30.0136 104.658 33.6457 105.126 37.2759C107.738 38.2716 110.551 38.0697 113.275 38.4539C115.768 38.8009 118.302 38.8969 120.782 39.3183Z" fill="#212121"/>
<path d="M170.025 191.143C169.838 191.143 169.659 191.035 169.576 190.854C168.407 188.269 166.022 184.743 163.196 181.42C163.021 181.214 163.046 180.905 163.253 180.73C163.459 180.556 163.77 180.581 163.945 180.787C165.329 182.414 168.733 186.613 170.471 190.453C170.583 190.7 170.473 190.99 170.225 191.101C170.162 191.129 170.093 191.143 170.025 191.143Z" fill="#212121"/>
<path d="M38.6024 192.385C38.5395 192.385 38.4766 192.373 38.4156 192.348C38.164 192.246 38.0441 191.96 38.1463 191.709C38.8206 190.064 40.0609 187.457 41.5195 185.072C43.2866 182.181 44.9221 180.315 46.3806 179.527C46.6185 179.397 46.9172 179.486 47.047 179.723C47.1767 179.96 47.0883 180.258 46.8504 180.387C45.5649 181.083 44.01 182.879 42.3588 185.582C40.9317 187.918 39.7169 190.47 39.0564 192.079C38.9798 192.27 38.797 192.385 38.6024 192.385Z" fill="#212121"/>
<path d="M81.0241 228.009C68.4535 230.261 55.4898 229.169 45.8343 221.899C36.6014 214.948 35.1842 203.225 38.6045 191.893C39.0055 190.56 35.0308 188.804 34.3075 187.614C33.7807 186.752 32.8391 186.246 31.9408 185.779C20.3451 179.766 7.96128 166.439 7.43054 167.419C-0.593414 182.212 -1.64309 202.305 4.20877 218.014C9.6793 232.697 22.643 244.938 36.625 251.548C50.2669 257.995 65.7507 259.794 80.6526 257.987C99.1301 255.746 113.147 245.44 128.053 235.257C148.233 221.47 180.242 218.947 201.84 230.737C203.239 231.502 204.727 232.352 206.313 232.192C210.864 231.733 209.533 227.689 205.765 224.457C205.757 224.451 203.721 222.603 203.713 222.595C204.869 223.138 208.289 224.767 209.492 225.208C210.553 225.598 213.716 227.125 214.848 226.248C217.082 224.52 213.187 220.243 211.829 218.998C210.033 217.349 207.906 216.109 205.798 214.878C213.058 218.874 220.427 222.673 227.895 226.266C228.921 226.76 229.98 227.258 231.117 227.319C236.658 227.619 231.042 221.722 229.57 220.223C225.609 216.191 221.011 212.847 216.195 209.903C198.504 199.085 177.133 193.622 156.54 197.354C139.627 200.42 124.083 207.835 109.719 216.91C101.908 221.852 91.6054 226.115 81.0241 228.009Z" fill="white"/>
<path d="M69.7037 259.145C57.7759 259.145 46.4318 256.724 36.4147 251.989C29.2477 248.602 22.4897 243.817 16.8737 238.152C10.9118 232.139 6.37298 225.233 3.74682 218.182C0.829728 210.35 -0.422419 201.413 0.12601 192.342C0.682301 183.151 3.05882 174.452 6.99807 167.186C7.08456 167.029 7.23592 166.919 7.4148 166.888C7.99861 166.784 8.79471 167.427 12.5944 170.763C17.2059 174.813 24.9272 181.591 32.1668 185.346C33.0337 185.797 34.1128 186.356 34.7261 187.361C34.9581 187.742 35.7365 188.29 36.4874 188.82C37.9302 189.837 39.4202 190.89 39.0742 192.034C37.3228 197.842 36.9356 203.515 37.9558 208.439C39.0821 213.874 41.8321 218.271 46.1311 221.507C56.9974 229.686 71.0561 229.294 80.9396 227.524C90.7562 225.766 101.153 221.746 109.462 216.497C126.046 206.016 141.42 199.596 156.458 196.872C166.477 195.057 176.944 195.333 187.569 197.695C197.584 199.922 207.304 203.889 216.458 209.487C221.943 212.841 226.348 216.242 229.925 219.882C233.131 223.145 234.458 225.462 233.865 226.768C233.515 227.538 232.583 227.889 231.095 227.809C229.831 227.74 228.691 227.191 227.684 226.707C222.664 224.29 217.644 221.758 212.686 219.145C213.763 220.237 216.103 222.863 216.016 224.949C215.987 225.645 215.696 226.213 215.151 226.635C214.058 227.481 211.969 226.738 209.922 225.905C209.685 225.809 209.482 225.725 209.325 225.668C208.727 225.449 207.603 224.947 206.477 224.427C208.91 226.64 210.093 229.004 209.569 230.667C209.317 231.462 208.558 232.458 206.365 232.68C204.68 232.85 203.125 231.997 201.753 231.247L201.606 231.166C191.345 225.564 178.149 222.983 164.45 223.894C150.952 224.792 138.126 228.971 128.334 235.661C127.414 236.288 126.5 236.917 125.586 237.545C111.488 247.218 98.1728 256.356 80.7155 258.473C77.0043 258.922 73.3264 259.145 69.7037 259.145ZM7.69786 167.958C3.92373 175.036 1.64549 183.48 1.10689 192.403C0.566325 201.339 1.79881 210.136 4.66873 217.843C7.24771 224.765 11.7098 231.549 17.5735 237.464C23.1109 243.049 29.7706 247.767 36.8353 251.105C49.7263 257.197 64.8582 259.408 80.5936 257.501C97.8111 255.413 111.03 246.342 125.026 236.737C125.94 236.11 126.856 235.481 127.776 234.853C137.711 228.067 150.71 223.828 164.383 222.918C178.267 221.995 191.653 224.619 202.077 230.31L202.225 230.39C203.534 231.106 204.888 231.846 206.266 231.707C207.599 231.572 208.395 231.125 208.633 230.374C209.052 229.051 207.77 226.823 205.449 224.829C205.431 224.814 203.386 222.959 203.365 222.938C203.2 222.767 203.178 222.505 203.318 222.31C203.457 222.116 203.713 222.05 203.927 222.152L204.326 222.34C205.714 222.995 208.601 224.357 209.667 224.749C209.832 224.81 210.046 224.896 210.296 224.998C211.35 225.427 213.814 226.431 214.552 225.86C214.866 225.617 215.019 225.313 215.037 224.908C215.104 223.287 212.904 220.642 211.501 219.357C209.734 217.737 207.609 216.499 205.555 215.299C205.323 215.164 205.242 214.868 205.376 214.635C205.509 214.401 205.806 214.317 206.04 214.448C213.26 218.424 220.687 222.252 228.113 225.825C229.037 226.27 230.083 226.772 231.148 226.831C232.16 226.885 232.807 226.719 232.968 226.364C233.265 225.707 232.437 223.839 229.222 220.568C225.701 216.985 221.357 213.633 215.941 210.322C206.88 204.781 197.261 200.855 187.352 198.652C176.858 196.319 166.522 196.045 156.633 197.836C141.723 200.539 126.465 206.914 109.989 217.324C101.575 222.64 91.0511 226.709 81.1126 228.489L81.0261 228.007L81.1126 228.489C71.0384 230.294 56.6888 230.682 45.5394 222.289C41.0458 218.906 38.17 214.313 36.9945 208.637C35.9409 203.554 36.336 197.715 38.1346 191.752C38.2762 191.282 36.7449 190.2 35.9213 189.619C35.0112 188.978 34.2249 188.424 33.8868 187.869C33.417 187.099 32.5108 186.628 31.7127 186.215C24.3669 182.402 16.5907 175.575 11.9457 171.496C10.1196 169.897 8.38388 168.372 7.69786 167.958Z" fill="#212121"/>
<path d="M37.5688 196.084C38.186 192.675 40.6529 187.587 40.6529 187.587C40.6529 187.587 17.9551 170.8 9.24313 164.193C9.24313 164.193 5.48276 168.619 3.90234 175.499C7.84945 179.239 29.9832 190.662 37.5688 196.084Z" fill="#6752A2"/>
<path d="M37.5687 196.574C37.4684 196.574 37.3662 196.543 37.2817 196.482C33.8103 194 27.1918 190.208 20.7915 186.54C13.0486 182.104 5.73624 177.914 3.56415 175.855C3.43834 175.736 3.38527 175.559 3.42262 175.391C5.0109 168.474 8.71033 164.061 8.86759 163.877C9.03664 163.679 9.33149 163.646 9.53986 163.805C18.1496 170.334 40.7197 187.026 40.9457 187.193C41.1344 187.332 41.1973 187.589 41.0951 187.801C41.0715 187.851 38.6478 192.869 38.0503 196.172C38.0208 196.337 37.9068 196.476 37.7515 196.539C37.6925 196.562 37.6296 196.574 37.5687 196.574ZM4.44675 175.332C6.79182 177.388 14.1533 181.606 21.2809 185.691C27.3451 189.167 33.6039 192.754 37.2384 195.255C37.9068 192.409 39.5009 188.881 40.0356 187.74C37.2699 185.693 17.6189 171.151 9.33149 164.875C8.44693 166.039 5.75393 169.903 4.44675 175.332Z" fill="#212121"/>
<path d="M84.1238 121.818C83.6441 122.191 83.1154 122.483 82.5198 122.579C80.3614 122.926 79.5614 120.989 80.271 119.572C81.1438 117.828 82.6986 116.228 83.5714 114.484C81.2912 117.118 79.1427 119.715 76.5794 122.163C74.6629 123.992 70.1713 124.276 71.1404 120.544C72.1153 116.793 74.6452 112.837 76.6011 109.521C80.9059 102.221 86.6693 95.1175 94.5164 91.4482C95.0451 91.2012 95.5818 90.9699 96.1263 90.7582C105.866 86.9594 118.417 87.6631 124.304 97.4442C128.543 104.485 129.582 113.078 129.885 121.456L130.074 128.303C129.934 137.603 130.127 146.91 130.654 156.197C131.528 171.643 132.592 186.375 138.043 201.041C142.192 212.204 149.931 224.602 163.571 223.345C189.157 220.989 204.241 231.896 204.241 231.896C195.812 247.038 180.344 257.103 161.149 257.72C149.807 258.085 138.9 254.441 130.667 246.54C118.17 234.542 111.844 212.949 108.54 196.494C103.698 172.38 102.271 146.887 103.859 122.334L103.824 122.336C103.828 119.653 104.569 115.166 103.859 112.639C103.338 110.785 101.153 109.519 99.3481 110.624C95.9415 112.714 95.2535 117.294 91.961 119.77C89.0911 121.928 88.5525 118.286 88.8139 117.218C89.2385 115.483 90.7049 114.319 91.4696 112.706C88.7156 116.393 86.231 119.786 84.9867 121.038C84.7174 121.311 84.4304 121.581 84.1238 121.818Z" fill="white"/>
<path d="M159.618 258.236C148.331 258.236 137.98 254.239 130.328 246.893C120.324 237.29 112.833 220.366 108.058 196.59C103.372 173.252 101.748 147.633 103.358 122.487C103.342 122.438 103.335 122.387 103.335 122.334C103.337 121.466 103.411 120.425 103.492 119.325C103.659 117.024 103.85 114.415 103.388 112.77C103.15 111.922 102.489 111.193 101.666 110.871C100.964 110.597 100.233 110.657 99.6077 111.042C97.9368 112.067 96.952 113.743 95.9102 115.519C94.9293 117.189 93.915 118.917 92.2599 120.16C90.8859 121.193 89.9679 120.999 89.4411 120.652C88.5723 120.082 88.2637 118.763 88.2676 117.804C87.039 119.417 86.0189 120.699 85.3387 121.381C84.9908 121.732 84.7077 121.987 84.4266 122.205C83.8094 122.683 83.2118 122.965 82.6005 123.063C81.5095 123.238 80.568 122.908 80.0137 122.156C79.5045 121.466 79.3925 120.519 79.7011 119.664C78.8166 120.631 77.9045 121.579 76.9236 122.516C75.6498 123.733 73.1573 124.463 71.6221 123.565C71.0481 123.23 70.1616 122.375 70.6707 120.421C71.5474 117.047 73.6291 113.558 75.467 110.479C75.7127 110.069 75.9525 109.666 76.1845 109.274C81.5489 100.177 87.4794 94.2021 94.3141 91.0071C94.8586 90.7523 95.409 90.5171 95.9535 90.3054C101.192 88.2629 106.804 87.6317 111.754 88.5295C117.454 89.5644 121.942 92.5595 124.731 97.1952C129.205 104.628 130.098 113.623 130.383 121.442L130.571 128.293C130.571 128.301 130.571 128.306 130.571 128.314C130.432 137.566 130.626 146.94 131.151 156.174C132.095 172.821 133.235 186.685 138.511 200.875C142.493 211.589 150.065 224.1 163.532 222.861C176.836 221.636 187.264 224.043 193.668 226.28C200.625 228.708 204.377 231.392 204.534 231.504C204.735 231.649 204.796 231.921 204.676 232.139C200.418 239.787 194.305 246.199 186.995 250.678C179.33 255.374 170.642 257.91 161.169 258.214C160.648 258.228 160.133 258.236 159.618 258.236ZM104.317 122.156C104.343 122.222 104.355 122.293 104.351 122.365C102.725 147.486 104.341 173.086 109.021 196.396C113.755 219.972 121.154 236.723 131.008 246.185C138.815 253.681 149.513 257.601 161.132 257.23C170.43 256.932 178.957 254.445 186.474 249.839C193.515 245.522 199.426 239.377 203.591 232.048C202.494 231.329 198.934 229.148 193.297 227.185C186.991 224.99 176.724 222.626 163.617 223.834C162.956 223.894 162.307 223.924 161.672 223.924C148.801 223.924 141.491 211.728 137.583 201.21C132.262 186.893 131.112 172.954 130.164 156.225C129.64 146.971 129.445 137.578 129.584 128.306L129.396 121.47C129.117 113.78 128.244 104.938 123.884 97.697C121.244 93.3122 116.988 90.4739 111.573 89.4919C106.798 88.6255 101.377 89.2371 96.3053 91.2149C95.7805 91.4187 95.2497 91.6481 94.7249 91.8931C88.075 95.0018 82.286 100.849 77.0238 109.769C76.7899 110.163 76.5501 110.569 76.3044 110.981C74.4999 114.003 72.4556 117.43 71.6143 120.668C71.3509 121.683 71.5179 122.373 72.1116 122.722C73.1043 123.302 75.1486 122.851 76.2376 121.813C78.388 119.76 80.2142 117.636 82.1464 115.385C82.4944 114.98 82.8443 114.574 83.1961 114.166C83.3573 113.98 83.6345 113.941 83.8409 114.078C84.0473 114.215 84.118 114.484 84.0079 114.705C83.5539 115.613 82.9249 116.481 82.3155 117.318C81.7297 118.124 81.1262 118.957 80.7075 119.794C80.4127 120.386 80.4481 121.103 80.7999 121.577C81.138 122.036 81.7061 122.216 82.4393 122.099C82.8855 122.026 83.3357 121.811 83.8192 121.434C84.0669 121.242 84.3185 121.015 84.637 120.693C85.6984 119.627 87.7074 116.932 90.0328 113.813C90.3748 113.355 90.7227 112.888 91.0766 112.416C91.2279 112.214 91.5071 112.159 91.7233 112.288C91.9395 112.418 92.0221 112.69 91.914 112.917C91.5778 113.627 91.1198 114.244 90.6795 114.842C90.0819 115.65 89.5178 116.414 89.2917 117.336C89.1443 117.939 89.331 119.411 89.9778 119.837C90.4554 120.15 91.1591 119.762 91.6663 119.382C93.1641 118.255 94.1273 116.614 95.061 115.027C96.1186 113.225 97.2115 111.363 99.0927 110.211C99.9871 109.662 101.029 109.573 102.024 109.962C103.128 110.393 104.015 111.369 104.333 112.51C104.84 114.319 104.644 117.018 104.471 119.4C104.398 120.403 104.329 121.358 104.317 122.156Z" fill="#212121"/>
<path d="M195.603 51.7025C187.77 54.9681 183.166 63.8494 182.84 72.4975C184.896 73.1111 189.352 74.491 193.154 75.1339C193.154 75.1339 194.36 64.6747 202.088 63.281C207.346 62.3343 212.569 60.576 217.047 57.6691C224.858 52.5963 226.924 41.0276 222.413 32.8911C217.902 24.7566 208.061 20.3541 198.762 21.0049C195.166 21.2558 191.337 22.3574 189.189 25.2427C187.038 28.128 187.65 33.095 191.019 34.369C194.984 35.8685 198.705 31.7327 202.801 30.637C205.819 29.8274 209.255 30.8565 211.328 33.189C213.4 35.5216 214.012 39.0459 212.842 41.9371C211.564 45.0969 208.492 47.1962 205.323 48.4722C202.154 49.7463 198.756 50.3873 195.603 51.7025Z" fill="#212121"/>
<path d="M185.939 80.7223C188.856 81.5279 191.317 84.0741 190.592 87.667C189.969 90.7562 186.696 93.0613 183.567 92.6144C180.439 92.1655 177.949 89.0352 178.222 85.8951C178.637 81.1692 182.588 79.7971 185.939 80.7223Z" fill="#212121"/>
<path d="M36.9533 120.836C36.7135 120.836 36.5032 120.66 36.4678 120.417C35.31 112.482 34.8913 104.397 35.2274 96.3837C35.2392 96.1132 35.4672 95.9074 35.7385 95.9153C36.0098 95.927 36.2201 96.1544 36.2083 96.4249C35.8761 104.375 36.2909 112.4 37.4388 120.276C37.4782 120.544 37.2914 120.793 37.0241 120.83C37.0005 120.834 36.9749 120.836 36.9533 120.836Z" fill="#212121"/>
<path d="M27.5534 126.235C27.3843 126.235 27.2212 126.148 27.1288 125.994C24.2058 121.036 22.1752 115.66 21.0902 110.011C21.0391 109.744 21.214 109.487 21.4813 109.436C21.7467 109.385 22.0062 109.56 22.0573 109.824C23.1207 115.362 25.1139 120.635 27.978 125.496C28.1156 125.729 28.0369 126.029 27.803 126.166C27.7244 126.213 27.6379 126.235 27.5534 126.235Z" fill="#212121"/>
<path d="M18.4855 135.367C18.3715 135.367 18.2575 135.328 18.1651 135.249C14.0844 131.752 10.3967 127.787 7.2064 123.467C7.04521 123.249 7.09239 122.942 7.31058 122.781C7.52877 122.62 7.83738 122.667 7.99857 122.885C11.1456 127.146 14.7822 131.055 18.8059 134.504C19.0123 134.681 19.0359 134.99 18.859 135.196C18.7627 135.308 18.6251 135.367 18.4855 135.367Z" fill="#212121"/>
</g>
<defs>
<clipPath id="clip0">
<rect width="234" height="295" fill="white"/>
</clipPath>
</defs>
</svg>
