<svg xmlns="http://www.w3.org/2000/svg" xmlns:xlink="http://www.w3.org/1999/xlink" width="231" height="248" fill="none" xmlns:v="https://vecta.io/nano"><style><![CDATA[.B{fill:#fcd7b8}.C{fill:#ffe1ca}.D{fill:#ef9f7f}.E{fill:#fcb98b}.F{fill:#fcd3a2}]]></style><path d="M86.272 174.354l-18.456 6.687-3.608.242c-6.125-1.423-8.948-5.365-10.233-8.877v7.372c.177.224.342.454.513.684-8.553-3.653-8.783-13.285-8.783-13.285l-5-74.78-.094-2.195-.973.065v-.024l-1.397-.36c.566-.862 1.132-1.458 1.72-1.34 4.02-30.81-8.665-41.503-15.302-44.45-7.74-2.85-7.57 1.316-8.488 1.794 2.334 5.3 5.08 11.28 5.6 16.844.342 7.218-1.992 7.04-1.88 7.047-.678.307.04.685.053.974.006.207-.03.39-.077.53-.065.2.3.36.3.366.088.183-.295.348-.23.56 1.008 3.583-1.167 11.497-1.167 11.497-1.12.962-.413 2.697-.413 2.697-1.19 1.363-.024 4.102-.024 4.102a18.49 18.49 0 0 1 .218 1.169c1.374 8.44-1.75 15.51-1.75 15.51-3.625 8.97-5.33 14.3-7.01 21.696-.436 1.918-.513 5.743-.295 7.425 2.847 21.767 12.715 38.476 12.715 38.476-.98 6.958-.908 14.85-.436 22.026h54.81c.006-.183.018-.277.018-.277 9.614-3.807 12.066-14.832 12.066-14.832 2.446-1.25-2.4-7.348-2.4-7.348z" class="E"/><path d="M15.786 160.442l.478 1.246.165.42.625 1.57.472 1.14.14.33.472 1.098.118.272.472 1.056.088.195.39.844 3.06 6.02c.06.1.082.218.065.337-.95 6.917-.878 14.73-.413 21.843h6.82c-.43-6.953-.477-14.525.442-21.247.018-.136-.012-.272-.094-.384-1.64-2.302-19.046-27.94-8.57-62.863.006-.018.012-.036.012-.06.077-.466 1.114-6.68 1.303-16.68h-.088c-.018-1.847-.147-3.2-.27-4.055-.112-.78-.218-1.17-.218-1.17-.418-1.04-.548-1.84-.542-2.45-.018-.153-.024-.29-.03-.425-.024-.643.04-1.287.142-1.918a25.11 25.11 0 0 1 .136-.714c.03-.13.053-.26.1-.4.047-.124.106-.242.16-.366a9.73 9.73 0 0 0 .377-1.003c.136-.42.254-.844.366-1.27a23.02 23.02 0 0 0 .253-1.104c.012-.047.012-.094.012-.142a51.27 51.27 0 0 0-1.149-9.225c-.03-.148 0-.295.082-.42l.566-.832c.29-.43-.112-.98-.607-.832l-.242.07c-.082.024-.165.07-.236.13-.365.325-.648.3-.607.307-.678.307.04.685.053.974.012.283-.06.513-.13.667-.06.136-.053.283 0 .42.29.76.365 1.6.383 2.408.024.992-.047 1.983-.165 2.97-.112.986-.27 1.97-.46 2.945-.147.785-.318 1.564-.5 2.343l-.13.53c-.065.26-.083.578-.283.78-.077.077-.136.16-.195.236 0 0-.012.018-.03.047-.006.012-.012.024-.018.03-.218.372-1.08 2.072-.542 4.663a7.74 7.74 0 0 0 .442 1.676c.012.03.018.06.03.088.082.366.147.744.212 1.12 1.374 8.44-1.75 15.51-1.75 15.51-3.63 8.97-5.33 14.3-7.01 21.696-.436 1.918-.513 5.743-.295 7.425 1.202 9.2 3.66 17.482 6.095 23.992.012.053.03.1.047.147z" class="F"/><path d="M16.4 45.842c2.94 4.314 6.602 9.48 8.23 14.478.183-.118 3.012 8.446-3.2 9.1-.407.142-1.16.307-1.574.45 1.415-.336-5.594-22.02-3.454-24.027z" class="B"/><path opacity=".533" d="M25.117 61.77c.118 2.396-.542 5.176-3.985 5.542-.318.112-.85.236-1.26.354.218 1.3.248 2.137-.018 2.2.407-.142 1.167-.3 1.574-.448 4.557-.478 4.244-5.2 3.7-7.65z" class="C"/><path d="M121.82 183.018H48.997c-6.166 0-11.164-5.005-11.164-11.18V11.18A11.17 11.17 0 0 1 48.997 0h72.823c6.166 0 11.165 5.005 11.165 11.18v160.655c0 6.18-5 11.184-11.165 11.184z" fill="#282828"/><path d="M85.408 2.467c.45 0 .813-.365.813-.814s-.364-.814-.813-.814-.813.365-.813.814.364.814.813.814z" fill="#f44545"/><path d="M48.996 179.707c-4.333 0-7.858-3.53-7.858-7.868V11.18c0-4.338 3.525-7.867 7.858-7.867h72.823c4.333 0 7.858 3.53 7.858 7.867v160.654c0 4.34-3.525 7.868-7.858 7.868l-72.823.006z" fill="#fff"/><path d="M121.094 73.876H49.722c-.872 0-1.574-.708-1.574-1.576V47.394c0-.873.707-1.576 1.574-1.576h71.373c.872 0 1.574.708 1.574 1.576V72.3c0 .873-.707 1.576-1.574 1.576z" fill="#26bcd9"/><g fill="#e2e2e2"><path d="M53.954 100.88c-.472 0-.855-.384-.855-.856V83c0-.472.383-.856.855-.856h17c.472 0 .855.384.855.856v17.022c0 .472-.383.856-.855.856h-17zm1.326-17.03c-.26 0-.472.212-.472.472V98.7c0 .26.212.472.472.472h14.348c.26 0 .472-.213.472-.472V84.323c0-.26-.212-.472-.472-.472H55.28zm-1.332 48.687c-.472 0-.855-.383-.855-.855V114.66c0-.472.383-.856.855-.856h17c.472 0 .855.384.855.856v17.022c0 .472-.383.855-.855.855h-17zm1.332-17.02c-.26 0-.472.212-.472.472v14.366c0 .26.212.472.472.472h14.348c.26 0 .472-.213.472-.472V115.99c0-.26-.212-.472-.472-.472H55.28zm26.078.27a.992.992 0 0 1 0-1.983h24.28a.992.992 0 0 1 0 1.983h-24.28zm0 16.75a.992.992 0 1 1 0-1.984h32.562a.992.992 0 1 1 0 1.984H81.358z"/><use xlink:href="#B"/><use xlink:href="#C"/><path d="M53.948 164.202c-.472 0-.855-.384-.855-.856v-17.02c0-.473.383-.856.855-.856h17c.472 0 .855.383.855.856v17.02c0 .472-.383.856-.855.856h-17zm1.332-17.028c-.26 0-.472.213-.472.473v14.365c0 .26.212.472.472.472h14.348c.26 0 .472-.212.472-.472v-14.365c0-.26-.212-.473-.472-.473H55.28zm26.084.272a.992.992 0 0 1 0-1.983h32.562a.992.992 0 0 1 0 1.983H81.364zm0 16.756a.992.992 0 0 1 0-1.983h28.5a.992.992 0 0 1 0 1.983h-28.5zm0-5.582a.992.992 0 1 1 0-1.984h32.562a.992.992 0 1 1 0 1.984H81.364z"/><path d="M81.364 153.03a.992.992 0 1 1 0-1.984h28.5a.992.992 0 1 1 0 1.984h-28.5zM53.948 37.55c-.472 0-.855-.384-.855-.856V19.672c0-.472.383-.856.855-.856h17c.472 0 .855.384.855.856v17.022c0 .472-.383.856-.855.856h-17zm1.332-17.022c-.26 0-.472.212-.472.472v14.366c0 .26.212.472.472.472h14.348c.26 0 .472-.212.472-.472V21c0-.26-.212-.472-.472-.472H55.28zm26.084.272a.992.992 0 1 1 0-1.983h32.562a.992.992 0 1 1 0 1.983H81.364z"/><use xlink:href="#B" x="0.006" y="-89.404"/><path d="M81.364 31.966a.99.99 0 1 1 0-1.983h32.562a.99.99 0 1 1 0 1.983H81.364z"/><use xlink:href="#B" x="0.006" y="-100.571"/></g><g fill="#fff"><path d="M53.948 69.214c-.472 0-.855-.384-.855-.856v-17.02c0-.472.383-.856.855-.856h17c.472 0 .855.384.855.856V68.36c0 .472-.383.856-.855.856h-17zm1.332-17.022c-.26 0-.472.212-.472.472V67.03c0 .26.212.472.472.472h14.348c.26 0 .472-.212.472-.472V52.665c0-.26-.212-.472-.472-.472H55.28zm26.078.266a.991.991 0 1 1 0-1.983h24.28a.991.991 0 1 1 0 1.983h-24.28z"/><use xlink:href="#C" y="-52.156"/><use xlink:href="#B" y="-63.324"/><use xlink:href="#C" y="-63.323"/></g><g fill="#e2e2e2"><use xlink:href="#C" y="-37.247"/><path d="M81.358 100.88a.992.992 0 1 1 0-1.984h32.698a.992.992 0 1 1 0 1.984H81.358zm0-5.6a.992.992 0 0 1 0-1.983h24.28a.992.992 0 0 1 0 1.983h-24.28z"/><use xlink:href="#B" y="-37.248"/></g><path d="M68.184 57.492l-1.22-1.222c-.07-.07-.19-.07-.26 0l-4.78 4.787c-.07.07-.19.07-.26 0l-2.87-2.874c-.07-.07-.19-.07-.26 0l-1.22 1.222c-.07.07-.07.19 0 .26l4.35 4.356c.07.07.19.07.26 0l6.26-6.268c.07-.07.07-.19 0-.26z" fill="#fff"/><path d="M129.653 109.79s-4.503 6.008.094 11.74c0 0 5.724 6.575 10.693 1.033 0 0 5.818-6.008 3.095-13.805l-2.063-4.32-11.82 5.353z" class="E"/><path d="M141.006 106.55s-2.393 5.353-5.7 6.1c0 0-2.216.425-3.83-.212 0 0-4.47 1.653.247 10.742 0 0-7.445-4.232-2.316-13.038l11.6-3.582z" class="D"/><g class="E"><path d="M132.984 85.952s-8.123 7.7-8.27 15.83c0 0-.6 8.28 9.16 10.205 0 0 4.285.442 7.828-5.767 0 0 6.844-8.776 5.564-13.905 0 0-1.38-4.143-3.843-6.805l-10.44.443zm0-46.426s16.25-.956 15.756 10.582c0 0 .8 11.733-15.756 11.143V39.526z"/><path d="M132.984 61.252v4.51s-7.487 14.124-.395 20.93c0 0 7.09 6.4 11.23-.1l3.248-6.5s3.277-6.705-2.464-14.3c0 0-3.496-3.5-8.37-4.757l-3.248.23z"/></g><path d="M137.912 76.237s1.573-5.03 4.627-4.633c0 0 6.107.885 5.022 5.914 0 0-1.87 9.266-6.107 8.28 0 .006-7.828-.39-3.542-9.56z" class="B"/><path opacity=".73" d="M142.54 71.604c-1.87-.242-3.183 1.552-3.926 2.98.766-1.05 1.827-1.948 3.183-1.77 0 0 6.107.885 5.022 5.914 0 0-.577 2.857-1.815 5.23 1.745-2.467 2.558-6.44 2.558-6.44 1.085-5.03-5.022-5.914-5.022-5.914z" class="C"/><path d="M133.956 115.858l2.918-3.075s1.804-1.487 4.038.608c0 0 2.352 2.32 1.338 4.002l-3.2 3.936s-1.633 1.28-4.014-.938c0 0-2.67-2.762-1.08-4.533z" class="B"/><path opacity=".74" d="M140.906 113.39c-2.24-2.095-4.038-.608-4.038-.608l-.53.56c.524-.32 2.122-1.027 4.026.76 0 0 1.98 1.96 1.603 3.63l.277-.336c1.014-1.688-1.338-4.008-1.338-4.008z" class="C"/><g class="D"><path d="M132.984 39.526v21.726s15.562 1.28 15.756-11.143c0 0-1.48 6.705-7.68 6.215 0 0-7.557.342-5.293-16.727 0-.006-2.046-.165-2.782-.07z"/><path d="M132.984 61.252v4.51s-7.734 14.124-.395 20.93c0 0 6.843 6.752 11.23-.1 0 0-5.712 5.324-11.03-3.158 0 0-3.643-5.72 2.17-15.48 1.014-1.706 3.054-4.438 9.65-2.172 0 0-3.248-3.4-8.076-4.686l-3.543-.543v.702h-.005z"/></g><path d="M129.146 102.443l4.21-6.876s2.216-3.18 7.533 0c0 0 4.286 2.74 1.18 7.023l-4.208 5.47s-1.993 1.777-4.8-.147c0 .006-5.317-2.508-3.914-5.47z" class="B"/><path opacity=".73" d="M140.888 95.567c-5.317-3.18-7.533 0-7.533 0l-.584.95c.43-.508 2.7-2.74 7.45.1 0 0 3.673 2.355 1.74 6.115l.106-.142c3.107-4.285-1.18-7.023-1.18-7.023z" class="C"/><path d="M134.61 88.024s-14.772 13.534-5.53 22.11c0 0-7.32-3.618-3.478-13.31 0 0 1.48-4.586 7.015-10.872l1.993 2.072z" class="D"/><path d="M140.43 80.275c-.584 1.564-1.456 2.68-1.952 2.497-.5-.183-.412-1.6.17-3.164s1.456-2.68 1.952-2.496.418 1.6-.17 3.163zm-8.024 23.42c-.643.838-1.5 1.257-1.934.927-.424-.325-.253-1.275.4-2.113s1.5-1.257 1.933-.927c.43.325.253 1.275-.4 2.113zm4.55 13.74c0 .696-.543 1.257-1.215 1.257s-1.214-.56-1.214-1.257.542-1.257 1.214-1.257 1.215.56 1.215 1.257z" fill="#fff7ee"/><path d="M25.406 44.378l-.035-.018-.16-.077-.077-.035-.53-.224-.018-.006-.4-.16v.024l-.483-.16c-1.16-.336-2.116-.52-2.894-.596-1.603-.106-2.523.325-3.112.88 2.352.91 4.58 2.107 6.632 3.547l1.197.88.277.218.996.82.27.23 1.06.986.348.342.884.915.37.407.72.838.39.472a30.3 30.3 0 0 1 2.823 4.191c5.783 10.37 3.666 21.62 3.466 24.3-.177 2.325-.578 4.586-1.15 6.846 0 0 1.863-8.735 0 .012-1.87 8.747 1.816 23.12 1.863 23.62l.342-13.327c.03-.472 3.614-10.34 3.614-25.77-.012-18.102-10.675-26.494-16.393-29.156z" class="D"/><path opacity=".01" d="M79.39 176.62s-17.407-4.604-23.125 7.72c0 0-1.29 4.255 5.33 6.156l7.545 2.685.53-.047s2.44 1.7 3.26 1.853c.955.177 2.405.573 4.18 1.43v-3.146h-2.452c3.88-3.477 5.73-8.04 6.45-10.252h13.823c-4.427-2.343-10.062-4.946-15.538-6.398z" fill="#000"/><path d="M188.494 196.575l-3.997-30.113s-1.975-10.098-5.134-14.07l-11.843-17.996s-3.253-4.963-9.172-3.27c0 0-3.755.206-5.264 4.13 0 0-3.896-3.93-11.088-.76 0 0-3.837 1.452-5.293 5.105 0 0-13.062-2.715-15.326 7.32 0 0-1.462-2.196-3.19-5.684L96.024 90.78s-2.505-6.646-9.956-4.35c0 0-7.533 1.806-5.635 9.933l22.21 59.77s1.656 9.744 6.095 18.072c0 0 9.02 18.745-2.016 16.083 0 0-12.308-8.24-23.91-11.308 0 0-17.407-4.604-23.125 7.72 0 0-1.29 4.255 5.33 6.156l7.545 2.685.53-.047s2.44 1.7 3.26 1.853c1.527.283 4.297 1.116 7.657 3.5 0 0 2.765 2.178 5.17 2.272 0 0 15.185 12.14 21.174 20.705 0 0 9.48 13.22 21.368 17.64l6.744 1.877s4.18.42 8.7 4.65h35.692l23.773-8.653-13.015-18.308c-.006.006-3.56-9.337-5.122-24.458z" class="E"/><path d="M152.73 243.095s-6.178-5.93-15.645-6.91c0 0-12.656-1.47-24.056-16.862l-20.454-17.736s-5.234-.4-3.507-3.93c0 0-4.54 2.196-4.568-.26 0 0-8.394-.112-12.208-4.267.17.177.754.874.666 1.812l-.03.732s.908 1.098 2.676 1.57c1.203.325 4.515.79 8.406 3.606 0 0 2.847 2.25 5.17 2.272 0 0 13.316 10.7 21.174 20.705 0 0 9.35 13.197 21.368 17.64l6.744 1.877s4.38.372 8.924 4.65h11.913l-6.572-4.9z" class="F"/><path d="M153.1 135.264l4.64 10.205s4.203 2.95-.182 2.5l-.042.006s-5.983-14.312-12.1-14.5c.006 0 4.492-1.346 7.675 1.8zm-16.4 4.338l4.64 10.205s4.203 2.95-.183 2.5l-.04.006s-6.502-12.412-12.6-12.6c0 0 3.967-.997 8.194-.1zM96.03 90.786l22.164 50.457 3.2 5.684 4.4 9.425s2.576 1.977 1.103 3.435c0 0-1.922 1.877-3.354-1.5l-8-15.7s-3.98-13.298-9.785-11.964c0 0 1.55-4.06-3.637-2.142 0 0 7.32-7.632-1.132-4.64 0 0 5.676-1.86.92-14.632l-5.85-18.413zm15.915 97.484c-.56 1.794-2.07 2.78-5.216 2.018 0 0-12.308-8.24-23.9-11.308 0 0-16.593-4.38-22.694 6.888 9.797-16.337 48.095 7.926 48.095 7.926 10.78 7.307 4.315-8.582 4.315-8.582.06 1.405-.177 2.38-.6 3.058z" class="D"/><path d="M59.672 186.264l11.73 4.102s6.838 2.148 6.525 5.766l-1.98 1.192c-.006.006-18.61-3.14-16.275-11.06z" class="B"/><path opacity=".533" d="M76.07 196.132l-.13 1.192 2.028.52-.047-1.712c.206-2.325-2.54-4.037-4.533-4.97 1.503 1.534 2.824 3.358 2.682 4.97z" fill="#ffe5d4"/><path d="M72.3 193.127l-.046-.046c.017.017.035.03.046.046zm58.9-38.367c1.804 4.255 2.546 8.015 1.662 8.392s-3.065-2.774-4.87-7.03-2.546-8.015-1.662-8.393 3.065 2.768 4.87 7.03zm15.344-7.013c1.803 4.255 2.546 8.015 1.662 8.393s-3.065-2.774-4.87-7.03-2.547-8.015-1.662-8.392 3.065 2.768 4.87 7.03zm16.15-5.223c1.55 3.653 2.087 6.917 1.197 7.295s-2.86-2.28-4.404-5.932-2.086-6.917-1.196-7.295c.884-.378 2.86 2.278 4.403 5.932z" class="F"/><path d="M92.63 100.914l-3.348 1.233a3.32 3.32 0 0 1-4.25-1.965l-2.146-5.83c-.63-1.712.254-3.624 1.963-4.255l3.348-1.234a3.32 3.32 0 0 1 4.25 1.965l2.146 5.83c.625 1.706-.253 3.624-1.963 4.256z" class="B"/><path opacity=".74" d="M94.527 96.487c-.1 1.358-.96 2.603-2.317 3.1l-3.608 1.328c-1.25.46-2.594.16-3.543-.655a3.31 3.31 0 0 0 4.215 1.883l3.348-1.234c1.71-.632 2.594-2.544 1.963-4.255l-.06-.165z" class="C"/><path d="M86.64 96.045c.436 1.34.536 2.508.218 2.615s-.93-.897-1.368-2.237-.536-2.508-.218-2.615.93.897 1.368 2.237z" fill="#fff7ee"/><defs ><path id="B" d="M81.358 126.954a.99.99 0 1 1 0-1.983h28.49a.99.99 0 1 1 0 1.983h-28.49z"/><path id="C" d="M81.358 121.37a.99.99 0 1 1 0-1.983h32.562a.99.99 0 1 1 0 1.983H81.358z"/></defs></svg>