<svg xmlns="http://www.w3.org/2000/svg" width="366" height="222" fill="none" xmlns:v="https://vecta.io/nano"><style><![CDATA[.B{fill:#000}.C{stroke:#57646d}.D{fill:#677c8e}.E{fill:#f8a386}.F{fill:#fcb98b}.G{fill:#778a9c}.H{fill:#3b363e}.I{fill:#655b8f}.J{stroke-width:.386}.K{fill:#ffdaca}.L{fill:#fff0eb}.M{stroke-width:.377}]]></style><path d="M161.957 124.512h-23.28c-.827 0-1.494-.67-1.494-1.494s.67-1.494 1.494-1.494h23.28c.823 0 1.493.67 1.493 1.494s-.67 1.494-1.493 1.494zm0-81.92h-11.742c-.827 0-1.493-.67-1.493-1.494s.67-1.494 1.493-1.494h11.742c.823 0 1.493.67 1.493 1.494s-.67 1.494-1.493 1.494z" fill="#374249"/><path d="M286.41 47.406v69.305c0 2.798-1.747 5.186-4.212 6.128-.73.284-1.523.436-2.354.436h-157.18c-3.627 0-6.562-2.94-6.562-6.564V47.406c0-1.542.53-2.954 1.423-4.076a6.54 6.54 0 0 1 5.143-2.489H279.85c3.62 0 6.558 2.936 6.558 6.564z" fill="#232c33"/><path d="M119.018 92.02c.985 0 1.784-.8 1.784-1.784s-.8-1.785-1.784-1.785-1.784.8-1.784 1.785.8 1.784 1.784 1.784zm.104-6.457c-.588 0-1.065-.477-1.065-1.065V71.8c0-.6.477-1.065 1.065-1.065s1.066.477 1.066 1.065v12.708c0 .6-.477 1.066-1.066 1.066z" fill="#0b0f11"/><path d="M279.624 88.125c3.178-3.18 3.178-8.333 0-11.512a8.14 8.14 0 0 0-11.508 0c-3.177 3.18-3.177 8.333 0 11.512a8.14 8.14 0 0 0 11.508 0z" fill="#374249"/><path d="M263.73 48.86v66.056c0 1.543-1.25 2.795-2.797 2.795h-136c-1.545 0-2.797-1.252-2.797-2.795V48.86c0-1.546 1.252-2.798 2.797-2.798h136c1.546-.004 2.797 1.252 2.797 2.798z" fill="#deffff"/><g clip-path="url(#C)"><g fill="#babbbc"><path d="M226.9 98.73c0 1.1-4.173 1.994-9.32 1.994s-9.32-.893-9.32-1.994 4.172-1.994 9.32-1.994 9.32.894 9.32 1.994zm-18.97 1.13c0 .908-12.554 1.645-28.04 1.645s-28.04-.737-28.04-1.645 12.554-1.645 28.04-1.645 28.04.736 28.04 1.645z"/></g><g class="B"><path d="M158.015 100.548a.21.21 0 0 1-.213.21h-2.448c-.117 0-.212-.094-.212-.2v-3.256a.21.21 0 0 1 .212-.21h2.448c.118 0 .213.094.213.2v3.256zm47.863 0c0 .117-.096.2-.213.2h-2.447c-.118 0-.213-.094-.213-.2v-3.256a.21.21 0 0 1 .213-.21h2.447c.117 0 .213.094.213.2v3.256z"/></g><path d="M207.122 89.85c-.71 3.276-.224 2.26-.202.21l-50.86 1.796c-.11 0-.32-1.89-.32-2.008V77.78c0-.117.1-.21.202-.21h50.98c.112 0 .202.094.202.21V89.85z" class="C D M"/><g class="G"><path d="M206.17 78.244c0 .327-.253.592-.566.592l-21.678.316-27.505-.316c-.313 0-.566-.265-.566-.592s.253-.592.566-.592h49.183c.313-.001.566.265.566.592z"/><path d="M158.594 89.392l19.595.068 18.914.293c2.963-.067 6.352-.12 7.748.22s1.305 3.908 1.305 3.908l.85 4.08s-2.426.68-5.46.747-43.195-1.02-44.165-1.156-3.337-8.297.97-8.093l.244-.067z" stroke-width=".39" class="C"/></g><path d="M157.485 95.294l22.835.917c1.786.054 15.91 0 17.37 0s5.303.108 5.303.108l-10.607.108-12.23.054c-.27 0-10.282-.54-10.444-.486s-12.228-.7-12.228-.7z" fill="#414c52"/><path d="M187.9 85.41l-.324-.97.216-.972.108-1.835.216 2.698-.216 1.08z" class="D"/><path d="M188.954 60.052l6.562-6.953 6.93 4.172-.035.058-6.882-4.143-6.525 6.912-.05-.047z" class="H"/><path d="M203.65 56.866l-15.538.027.017 9.86 15.538-.027-.017-9.86z" fill="#dad54f"/><path d="M188.112 57.118l.18 5.803 4.63-.966 4.632-1.19 6.106 2.412-.01-6.3-15.538.252z" fill="#a53b2a"/><path d="M188.576 63.99l-.964-2.083s2.616-1.553 3.5-1.302c2.77.784 3.672-.344 4.745-.178s1.865-.398 2.712-.23 1.527.673 2.26.672 2.486-.23 2.486-.23l.23 2.535-14.97.815z" fill="#9dc04c"/><path d="M188.574 62.695s3.276-.85 4.744-1.586 3.726-1.753 4.632-.853 2.6 1.122 2.6 1.122l1.978-.116 1.017.393-.05 3.043c.058 1.07-.453-.28-2.544-.728s-7.856-.888-8.873-.773l-4.35.346.847-.847z" fill="#bca73f"/><path d="M192.246 62.633l-1.582.003.002 1.183 1.582-.003-.002-1.183z" class="I"/><path d="M191.966 63.816s4.464.05 4.52.556-1.638.622-1.41.792 4.014 1.12 4.014 1.12l-1.412.172-1.98-.56c-.34-.056-3.447-.5-2.77-.727s3.334-.482 2.768-.737c-.624-.28-3.732-.614-3.732-.614z" fill="#c0373b"/><path d="M187.348 56.275l.02 10.873 17.007-.03-.02-10.874-17.007.03zm15.954 9.944l-14.866.026-.016-9.07 14.865-.026.017 9.07z" class="B"/><path d="M191.058 61.62l-1.13.002.004 2.028h1.13l-.004-2.03z" class="I"/><path d="M195.83 53.193c0 .14-.115.255-.256.255s-.255-.114-.255-.255.114-.255.255-.255.256.114.256.255z" class="H"/><g class="B"><path d="M225.4 85.975l-.635.145 1.862 11.888c.125.808.272 1.456.326 1.447s.018-.672-.083-1.483l-1.47-11.997zm-12.713.365l.633.153-1.974 11.863c-.133.805-.286 1.452-.34 1.442s-.01-.672.1-1.482L212.7 86.34zm6.873-1.663l.642.033-.323 10.72c-.02.728-.082 1.32-.137 1.32s-.102-.588-.105-1.316l-.077-10.758z"/></g><path d="M210.968 85.118s-.375-.053-.537.15-.11.663.633 1c1.96.888 14.065 1.52 15.537 1.377s1.293-.93.953-1.266c-.515-.5-2.585-2.64-4.204-2.642s-9.914.733-12.382 1.38z" fill="url(#A)"/><path d="M210.963 84.895s-1.393.476.096 1.15c1.96.888 14.065 1.52 15.537 1.377s1.352-.698.837-1.207-2.47-2.698-4.088-2.7-9.914.733-12.382 1.38z" fill="#fff"/><path d="M224.385 82.298l-.566.02.058 2.234a.27.27 0 0 0 .273.269.27.27 0 0 0 .261-.28l-.026-2.244z" class="B"/><path d="M221.156 82.137s-.122-.02-.17.076-.02.31.227.46c.653.393 4.576.553 5.048.47s.397-.45.28-.603c-.178-.233-.894-1.206-1.416-1.188s-3.186.454-3.968.784z" fill="url(#B)"/><path d="M221.147 81.995s-.44.22.054.49c.65.354 4.57.477 5.044.4s.422-.314.246-.524-.85-1.12-1.373-1.1-3.187.43-3.97.737z" fill="#fff"/><g fill="#5d7d41"><path d="M217.034 81.496s-.566-2.948-.887-3.2-2.654-3.82-2.654-3.82.702 4.487 1.466 4.54.86 1.65 2.075 2.47zm.086-.12l-.317-4.283s.563-2.028 1.36-3l.992-1.26-1.044 1.73c-.275.496-.628 2.8-.628 2.8s.048 3.57-.364 4.032z"/><path d="M217.12 81.376s.83-2.74 1.224-3.103 3.86-1.332 3.86-1.332l-2.91 1.614c-.35.284-2.06 2.875-2.06 2.875l-.114-.054z"/><path d="M217.43 81.268s.986-2.12 1.887-1.992 2.813.964 2.813.964l-2.818-.437c-.252-.168-1.766 1.558-1.766 1.558l-.116-.094z"/><path d="M217.055 81.456s-.714-3.412-.62-4.605l.11-1.447.508 6.053z"/></g><g fill="#9cb753"><path d="M213.813 75.164s.495 2.967 1.32 3.007c.573.04.943.124 1 .18s.78 2.544.78 2.544-.815-2.335-1.042-2.387-2.05-3.344-2.05-3.344zm5.05-1.904l-.917 1.32c-.116.228-.732 2.365-.733 2.657l.003 3.97c.313-1.525.193-3.182.242-3.988.042-.665.465-2.395.614-2.654l.8-1.305zm-1.36 7.128l.888-2.047c.154-.103 3.092-1.142 3.092-1.142s-2.527.94-2.796 1.28-1.184 1.9-1.184 1.9zm1.187-.788s.36-.23.598-.243c.618-.034 2.732.85 2.732.85l-2.638-.717-.692.1z"/></g><path d="M218.574 85.304c-.02.154-.282.288-.585.297l-1.675.053c-.302.01-.57-.107-.6-.26l-.75-4.068 4.154-.132-.546 4.108z" fill="#34667a"/><path d="M218.83 81.375l-.546 3.877s-.148.16-.24.1.208-3.975.208-3.975l.58-.002z" fill="#7ebbcf"/><path d="M165.892 89.27s-1.32.73-2.126.878-3.005.73-3.005.73l-1.026-1.096 6.157-.512z" class="C D M"/><path d="M184.3 76.742s-1.1.073-.806.804 1.173.73 1.246 1.316.44 9.723.44 9.723l10.263-.22-.952-9.576c-.147-.73-.807-1.39-1.686-1.61s-7.625-.584-8.505-.438z" fill="#f28236"/><path d="M185.557 80.47c.073-.585-.367-1.9-1.246-2.412-.453-.263-.672-.662-.78-.986-.083.115-.11.27-.028.474.294.73 1.173.73 1.247 1.316s.44 9.723.44 9.723l.396-.008-.177-1.235c-.293-2.193.073-6.286.147-6.87zm5.79 3.217v4.766l.77-.016-.77-4.75z" fill="#dd7026"/><path d="M158.1 82.224s1.173-.146 1.54 0l.367.146s.952-.658 3.812-.95l2.86-.293 1.173-.438.22 1.388s.806.95.953 2.998l.146 2.486.22 1.243-1.613.146c-.293 0-3.372.877-5.132 1.096s-2.272.073-2.272.073l-1.09.3-.082-1.982s-.514-2.047-.587-3.216l-.073-1.61s-.367-.804-.44-1.39z" fill="#88a349"/><path d="M169.098 88.29s0-.44-.147-2.486-.953-2.998-.953-2.998l-.22-1.39-1.173.44-2.858.293c-2.86.293-3.813.95-3.813.95l-.293.365s2.346-.366 4.178-.44h2.785s1.247.804 1.54 2.632l.514 2.997s.205-.052.464-.23l-.024-.135zm-9.677-1.9s.586 2.705 1.98 2.998 2.126-.146 2.126-.146-2.932-.146-4.105-2.85z" fill="#9cb753"/><path d="M192.065 89.636s-.953 1.316-.074 1.535 4.472.366 4.472.366l4.252.366c1.246 0 2.136-.114 2.136-.114v-.863c0-.001-9.174-1.655-10.786-1.3z" class="C D M"/><path d="M203.422 83.13s-1.198-.036-1.555.144l-.356.18s-1.024-.567-3.94-.59l-2.915-.024-1.226-.328-.093 1.406s-.727 1.023-.685 3.078l.083 2.492-.107 1.26 1.643-.005c.296-.027 3.488.56 5.286.614s2.302-.14 2.302-.14l1.13.198-.1-1.985s.33-2.09.293-3.262l-.075-1.61s.294-.836.315-1.426z" fill="#5594b9"/><path d="M193.088 90.238c.278.153.49.186.49.186s-.322-1.105-.196-2.955 2.236-3.627 2.236-3.627.708-.4 2.566-.497 4.022 1.06 4.022 1.06l-.317-.344c-.013.007-1.137-.776-4.04-1.046-1.983-.184-2.79.058-2.79.058l-1.266.05-.093 1.406s-.726 1.023-.684 3.078l.082 2.492-.01.138zm5.98.41s.53.25 1.9-.173 1.496-2.356 1.496-2.356c-.934 2.807-3.406 2.53-3.406 2.53z" fill="#7ebbcf"/><path d="M159.285 97.464a.21.21 0 0 1-.211.211h-5.8c-.117 0-.212-.094-.212-.21V87.93c0-.117.095-.21.212-.21h5.8a.21.21 0 0 1 .211.211v9.534z" class="C G J"/><path d="M158.368 96.508h.033c.082 0 .15-.067.15-.15h.027c0 .097-.08.176-.176.176h-.033v-.027zm-.578.027v-.027h.29v.027h-.29zm-.577 0v-.027h.29v.027h-.29zm-.577 0v-.027h.29v.027h-.29zm-.577 0v-.027h.29v.027h-.29zm-.577 0v-.027h.29v.027h-.29zm-.578 0v-.027h.3v.027h-.3zm-.577 0v-.027h.29v.027h-.29zm-.4 0c-.072 0-.133-.042-.16-.103l.025-.01c.023.052.075.087.136.087h.102v.027h-.102zm4.613-.292v-.288h.027v.288h-.027zm-4.8-.102v-.288h.027v.288h-.027zm4.8-.473v-.288h.027v.288h-.027zm-4.8-.103v-.288h.027v.288h-.027zm4.8-.473v-.288h.027v.288h-.027zm-4.8-.103v-.288h.027V95h-.027zm4.8-.473v-.288h.027v.288h-.027zm-4.8-.103v-.288h.027v.288h-.027zm4.8-.473v-.288h.027v.288h-.027zm-4.8-.104v-.288h.027v.288h-.027zm4.8-.473v-.288h.027v.288h-.027zm-4.8-.103v-.288h.027v.288h-.027zm4.8-.473v-.288h.027v.288h-.027zm-4.8-.103V92.4h.027v.288h-.027zm4.8-.473v-.288h.027v.288h-.027zm-4.8-.102v-.288h.027v.288h-.027zm4.8-.473v-.288h.027v.288h-.027zm-4.8-.103v-.288h.027v.288h-.027zm4.8-.473v-.288h.027v.288h-.027zm-4.8-.103v-.288h.027v.288h-.027zm4.8-.473V90.2h.027v.288h-.027zm-4.8-.103v-.288h.027v.288h-.027zm4.8-.473v-.288h.027v.288h-.027zm-4.8-.103v-.288h.027v.288h-.027zm4.8-.474v-.288h.027v.288h-.027zm-4.8-.102v-.202a.17.17 0 0 1 .024-.09l.023.014c-.013.022-.02.048-.02.076v.202h-.027zm4.336-.35v-.027h.288v.027h-.288zm-.577 0v-.027h.288v.027h-.288zm-.578 0v-.027h.29v.027h-.29zm-.577 0v-.027h.29v.027h-.29zm-.577 0v-.027h.29v.027h-.29zm-.577 0v-.027h.29v.027h-.29zm-.578 0v-.027h.29v.027h-.29zm-.577 0v-.027h.29v.027h-.29z" class="B"/><path d="M159.317 87.876c0 1.734-1.4 3.14-3.15 3.14s-3.15-1.406-3.15-3.14 1.4-3.14 3.15-3.14 3.15 1.405 3.15 3.14z" class="C G J"/><path d="M155.85 90.416l.003-.027a2.52 2.52 0 0 0 .286.019v.027a2.58 2.58 0 0 1-.289-.019zm.576-.02c.096-.01.19-.025.283-.044l.006.026a2.51 2.51 0 0 1-.286.045l-.003-.027zm-1.14-.115l.01-.025a2.61 2.61 0 0 0 .275.083l-.007.026c-.094-.022-.187-.05-.277-.084zm1.698-.007a2.35 2.35 0 0 0 .266-.108l.01.025a2.61 2.61 0 0 1-.268.109l-.01-.025zm-2.216-.252l.015-.022a2.56 2.56 0 0 0 .249.142l-.013.024a2.52 2.52 0 0 1-.251-.144zm2.734.008a2.41 2.41 0 0 0 .235-.164l.016.02a2.49 2.49 0 0 1-.237.166l-.014-.023zm-3.18-.376l.02-.02a2.68 2.68 0 0 0 .211.195l-.017.02c-.075-.062-.147-.127-.214-.197zm3.63.022c.07-.067.132-.138.193-.212l.022.017c-.06.075-.126.146-.195.215l-.02-.02zm-3.984-.48l.024-.014a2.44 2.44 0 0 0 .161.236l-.02.016-.164-.238zm4.345.035c.05-.08.098-.164.14-.25l.024.01c-.042.087-.09.172-.14.252l-.023-.014zm-4.585-.56l.026-.008c.03.09.065.18.105.266l-.025.01a2.15 2.15 0 0 1-.106-.269zm4.835.044l.08-.275.026.006a2.38 2.38 0 0 1-.08.278l-.026-.01zm-4.952-.6l.027-.002a2.6 2.6 0 0 0 .042.283l-.026.005c-.02-.093-.034-.188-.043-.285zm5.08.053c.01-.094.016-.19.016-.285h.027c0 .098-.006.194-.017.288l-.026-.003zm-5.1-.342a2.73 2.73 0 0 1 .022-.288l.027.003c-.013.094-.02.19-.022.285h-.027zm5.064-.4l.028-.005c.017.094.028.19.035.287l-.027.002c-.006-.096-.018-.19-.036-.284zm-4.987-.17a2.54 2.54 0 0 1 .087-.276l.025.01a2.53 2.53 0 0 0-.085.273l-.027-.007zm4.822-.376l.024-.01c.038.088.072.178.1.27l-.026.008c-.027-.092-.06-.182-.098-.27zm-4.616-.164a2.43 2.43 0 0 1 .146-.25l.023.015a2.69 2.69 0 0 0-.146.247l-.023-.01zm4.33-.33l.022-.016a2.32 2.32 0 0 1 .158.242l-.023.013a2.45 2.45 0 0 0-.157-.239zm-3.99-.133l-.02-.017c.063-.074.13-.144.2-.2l.02.02c-.07.066-.136.135-.198.208zm3.6-.286l.018-.02a2.57 2.57 0 0 1 .208.201l-.02.018a2.15 2.15 0 0 0-.206-.199zm-3.2-.128c.077-.058.158-.112.24-.16l.014.023c-.082.048-.162.1-.238.16l-.017-.02zm2.727-.194l.013-.024a2.57 2.57 0 0 1 .248.15l-.015.022c-.078-.054-.16-.104-.246-.148zm-2.23-.1c.088-.04.178-.073.27-.103l.01.026c-.093.03-.182.063-.27.1l-.01-.024zm1.696-.11l.006-.026a2.54 2.54 0 0 1 .276.09l-.01.025a2.49 2.49 0 0 0-.272-.089zm-1.143-.064c.094-.018.2-.03.286-.04l.003.027a2.46 2.46 0 0 0-.284.038l-.005-.026zm.576-.02l.001-.027c.097.003.193.01.288.026l-.004.026-.285-.025z" class="B"/><path d="M208.35 98.58c0 .117-.095.21-.212.21h-5.8a.21.21 0 0 1-.211-.211v-9.534a.21.21 0 0 1 .211-.211h5.8c.117 0 .212.095.212.21v9.534z" class="C G J"/><path d="M207.43 97.624h.033a.15.15 0 0 0 .15-.149h.027c0 .097-.08.175-.177.175h-.032v-.026h-.001zm-.577.026v-.027h.29v.027h-.29zm-.577 0v-.027h.29v.027h-.29zm-.577 0v-.027h.29v.027h-.29zm-.577 0v-.027h.288v.027h-.288zm-.577 0v-.027h.288v.027h-.288zm-.577 0v-.027h.288v.027h-.288zm-.577 0v-.027h.288v.027h-.288zm-.392 0c-.07 0-.133-.042-.16-.103l.025-.012c.023.052.076.087.136.087h.102v.027H203zm4.614-.29v-.288h.027v.288h-.027zm-4.8-.103v-.288h.027v.288h-.027zm4.8-.473v-.288h.027v.288h-.027zm-4.8-.103v-.288h.027v.288h-.027zm4.8-.473v-.288h.027v.288h-.027zm-4.8-.103v-.288h.027v.288h-.027zm4.8-.473v-.288h.027v.288h-.027zm-4.8-.103v-.288h.027v.288h-.027zm4.8-.473v-.288h.027v.288h-.027zm-4.8-.103v-.288h.027v.288h-.027zm4.8-.473v-.288h.027v.288h-.027zm-4.8-.103v-.288h.027v.288h-.027zm4.8-.473v-.288h.027v.288h-.027zm-4.8-.103v-.288h.027v.288h-.027zm4.8-.474v-.288h.027v.288h-.027zm-4.8-.102v-.288h.027v.288h-.027zm4.8-.473v-.288h.027v.288h-.027zm-4.8-.103v-.288h.027v.288h-.027zm4.8-.473v-.288h.027v.288h-.027zm-4.8-.103v-.288h.027v.288h-.027zm4.8-.473v-.288h.027v.288h-.027zm-4.8-.103v-.288h.027v.288h-.027zm4.8-.474v-.288h.027v.288h-.027zm-4.8-.103v-.288h.027v.288h-.027zm4.8-.473v-.288h.027v.288h-.027zm-4.8-.103v-.202c0-.033.01-.062.024-.09l.023.014c-.012.022-.02.048-.02.076v.202h-.028 0zm4.335-.35v-.027h.29V90h-.29zm-.577 0v-.027h.29V90h-.29zm-.577 0v-.027h.29V90h-.29zm-.577 0v-.027h.288V90h-.288zm-.577 0v-.027h.288V90h-.288zm-.577 0v-.027h.288V90h-.288zm-.577 0v-.027h.288V90h-.288zm-.578 0v-.027h.288V90h-.288z" class="B"/><path d="M208.38 88.99c0 1.734-1.41 3.14-3.148 3.14s-3.15-1.406-3.15-3.14 1.4-3.14 3.15-3.14 3.148 1.406 3.148 3.14z" class="C G J"/><path d="M204.914 91.53l.003-.026c.094.01.2.018.286.02v.027c-.097-.002-.193-.008-.29-.02zm.576-.02a2.65 2.65 0 0 0 .284-.044l.006.026c-.094.02-.19.035-.286.045l-.004-.027zm-1.138-.115l.01-.026c.09.033.18.06.274.082l-.006.026c-.095-.022-.187-.05-.277-.083zm1.698-.007a2.39 2.39 0 0 0 .265-.108l.012.024a2.56 2.56 0 0 1-.269.108l-.008-.025zm-2.217-.25l.015-.022a2.52 2.52 0 0 0 .249.142l-.012.024c-.087-.043-.17-.09-.252-.144zm2.735.007c.08-.05.16-.105.234-.164l.017.02c-.076.06-.155.115-.237.166l-.014-.023zm-3.18-.375l.02-.02.2.194-.017.02c-.075-.06-.146-.127-.213-.196zm3.63.02a2.85 2.85 0 0 0 .193-.212l.02.017a2.37 2.37 0 0 1-.195.215l-.02-.02zm-3.984-.478l.023-.014c.05.082.104.16.16.236l-.02.016c-.06-.076-.113-.156-.163-.238zm4.343.034c.05-.08.098-.164.14-.25l.025.012a2.61 2.61 0 0 1-.141.252l-.024-.014zm-4.585-.558l.026-.008c.03.09.065.18.105.266l-.025.012c-.04-.088-.075-.178-.106-.27zm4.836.044c.032-.1.058-.18.08-.275l.026.006a2.6 2.6 0 0 1-.081.278l-.025-.01zm-4.952-.6l.027-.002a2.6 2.6 0 0 0 .042.283l-.026.005c-.02-.093-.035-.188-.043-.285zm5.08.053c.01-.094.016-.19.016-.285h.027a2.74 2.74 0 0 1-.016.288l-.027-.003zm-5.1-.343l.022-.288.028.003c-.014.094-.02.19-.023.285h-.027zm5.065-.4l.026-.005a2.48 2.48 0 0 1 .035.287l-.027.002a2.21 2.21 0 0 0-.034-.284zm-4.987-.17c.024-.095.052-.187.087-.276l.026.01c-.034.09-.063.18-.086.273l-.027-.007zm4.82-.376l.025-.01a2.52 2.52 0 0 1 .1.271l-.027.007c-.027-.09-.06-.18-.098-.268zm-4.616-.165a2.51 2.51 0 0 1 .147-.249l.022.015c-.053.08-.1.162-.146.247l-.023-.012zm4.332-.33l.02-.016c.057.077.11.16.158.243l-.023.013c-.047-.083-.1-.163-.156-.24zm-4-.132l-.02-.017c.06-.074.128-.144.198-.2l.02.02c-.07.066-.135.135-.197.208zm3.6-.287l.018-.02c.073.063.142.13.208.2l-.02.018-.207-.198zm-3.2-.127a2.32 2.32 0 0 1 .241-.16l.014.023c-.083.05-.163.1-.24.16l-.016-.02zm2.727-.194l.013-.024c.086.045.17.095.248.15l-.016.023a2.26 2.26 0 0 0-.245-.148zm-2.228-.1a2.56 2.56 0 0 1 .271-.103l.008.026a2.54 2.54 0 0 0-.268.101l-.01-.024zm1.694-.1l.007-.025a2.46 2.46 0 0 1 .276.09l-.01.025a2.44 2.44 0 0 0-.273-.09zm-1.142-.064a2.54 2.54 0 0 1 .287-.039l.002.027c-.096.007-.19.02-.284.04l-.005-.027zm.576-.018l.001-.027c.098.003.194.01.288.025l-.004.027a2.5 2.5 0 0 0-.285-.026z" class="B"/><g fill="#869eb2"><path d="M163.4 90.514s6.158-.366 11.803-.44 15.98.073 15.98.073l.88.366H163.4zm8-12.428s10.85-.366 11.5-.146-11.5.146-11.5.146zm23.744-.072s9.383-.44 10.117-.22c.516.154.514.585.514.585l-10.63-.366z"/></g><path d="M187.666 56.45l.147.366 16.495-.293-16.642-.073z" class="D"/><path d="M206.252 105.273c-1.007 1.92-9.52 3.31-19.012 3.105s-16.37-1.924-15.363-3.842 9.52-3.308 19.012-3.104 16.37 1.923 15.363 3.84z" fill="#e5eef9" stroke="#fff"/><g class="D"><path d="M193.044 102.122c-.146.278-1.38.48-2.756.45s-2.372-.28-2.226-.557 1.38-.48 2.756-.45 2.372.28 2.226.557zm-1.34.955c-.097.186-.92.32-1.837.3s-1.58-.186-1.484-.37.92-.32 1.836-.3 1.582.186 1.485.37zm-6.076-.985c.56.256-.008.555-1.273.67s-2.745-.002-3.306-.258.008-.554 1.273-.668 2.745.002 3.306.257zm1.203.964c.374.17-.006.37-.848.445s-1.83-.001-2.204-.17.006-.37.848-.446 1.83.002 2.204.172zm-7.7-.24c1.118.164 1.365.48.55.706s-2.38.277-3.5.1-1.365-.48-.55-.706 2.38-.276 3.5-.1zm3.424.713c.746.1.9.32.367.472s-1.588.184-2.333.074-.9-.32-.367-.47 1.588-.185 2.333-.075zm-7.258.57c1.376.03 2.372.28 2.226.557s-1.38.48-2.755.45-2.373-.278-2.227-.557 1.38-.478 2.756-.45zm4.727.27c.917.02 1.582.186 1.485.37s-.92.32-1.837.3-1.58-.185-1.484-.37.92-.32 1.836-.3z"/><path d="M175.15 105.6c1.265-.114 2.745.002 3.306.257s-.008.555-1.272.668-2.745-.001-3.307-.257.01-.555 1.273-.668zm4.765-.244c.843-.075 1.83.001 2.204.17s-.006.37-.85.446-1.83-.001-2.204-.172.006-.37.85-.445zm-1.183 1.554c.815-.226 2.382-.276 3.5-.1s1.366.48.55.707-2.38.276-3.5.1-1.365-.48-.55-.707zm3.526-.7c.542-.15 1.588-.184 2.333-.074s.9.322.367.472-1.588.184-2.333.074-.9-.32-.367-.472zm2.825 1.467c.146-.278 1.38-.48 2.756-.45s2.372.28 2.227.556-1.38.48-2.756.45-2.372-.28-2.227-.557zm1.342-.957c.097-.185.92-.32 1.837-.3s1.58.186 1.484.372-.92.32-1.836.3-1.582-.187-1.485-.372zm6.075.986c-.562-.256.01-.555 1.273-.668s2.745.001 3.306.257-.008.555-1.273.668-2.745-.001-3.306-.257zm-1.2-.962c-.374-.17.006-.37.848-.446s1.83.002 2.204.17-.005.37-.848.446-1.83-.001-2.204-.17zm7.697.238c-1.118-.164-1.364-.48-.55-.707s2.382-.276 3.5-.112 1.365.482.55.708-2.38.276-3.5.1zm-3.423-.712c-.745-.1-.9-.32-.367-.47s1.588-.185 2.333-.074.9.32.367.47-1.588.184-2.333.074z"/><path d="M202.832 105.7c-1.375-.03-2.373-.28-2.227-.557s1.38-.48 2.755-.45 2.373.28 2.227.557-1.38.48-2.755.45zm-4.728-.272c-.917-.02-1.58-.186-1.484-.372s.92-.32 1.836-.3 1.582.186 1.485.37-.92.32-1.837.3zm4.874-1.238c-1.265.113-2.744-.002-3.307-.257s.01-.555 1.273-.67 2.745.002 3.306.258-.008.554-1.272.668zm-4.765.253c-.844.076-1.83-.001-2.205-.17s.006-.37.85-.445 1.83 0 2.205.17-.007.37-.85.445zm1.18-1.556c-.814.226-2.38.276-3.5.1s-1.365-.48-.55-.707 2.38-.276 3.5-.1 1.364.48.55.707z"/><path d="M195.87 103.59c-.542.15-1.588.184-2.333.074s-.91-.32-.367-.472 1.588-.184 2.333-.074.9.32.367.472z"/></g><g fill="#fff"><path d="M221.973 76.564c-1.277 0-1.277 0-1.277 2.45 0-2.45 0-2.45-1.277-2.45 1.277 0 1.277 0 1.277-2.448-.001 2.448-.001 2.448 1.277 2.448zm2.184 1c-1.625 0-1.625 0-1.625 3.114 0-3.114 0-3.114-1.624-3.114 1.624 0 1.624 0 1.624-3.114 0 3.114 0 3.114 1.625 3.114z"/></g><path d="M211.543 85.464l1.793-1.9 1.893 1.14-.01.016-1.88-1.133-1.783 1.89-.013-.012z" class="H"/><path d="M215.56 84.594l-4.246.007.005 2.694 4.246-.007-.005-2.694z" fill="#dad54f"/><path d="M211.313 84.662l.05 1.585 1.265-.264 1.265-.325 1.67.66-.003-1.724-4.246.07z" fill="#a53b2a"/><path d="M211.44 86.54l-.264-.57s.715-.424.957-.356c.756.215 1.003-.094 1.296-.048s.5-.11.74-.062.417.184.618.183.68-.062.68-.062l.062.693-4.1.222z" fill="#9dc04c"/><path d="M211.44 86.186s.895-.233 1.296-.433 1.018-.48 1.265-.233.71.307.71.307l.54-.032.277.108-.014.83c.016.293-.123-.076-.694-.2a15.38 15.38 0 0 0-2.425-.211l-1.188.094.23-.23z" fill="#bca73f"/><path d="M212.442 86.17H212l.001.323h.432l-.001-.323z" class="I"/><path d="M212.367 86.493s1.22.013 1.235.152-.447.17-.386.216 1.097.306 1.097.306l-.386.047-.54-.153c-.092-.016-.942-.137-.756-.2s.9-.13.755-.2c-.17-.077-1.018-.168-1.018-.168z" fill="#c0373b"/><path d="M211.105 84.432l.005 2.97 4.647-.008-.005-2.97-4.647.008zm4.36 2.717l-4.063.007-.004-2.478 4.062-.007.005 2.478z" class="B"/><path d="M212.12 85.893h-.31l.001.554h.31v-.554z" class="I"/><path d="M213.422 83.6c0 .04-.032.07-.07.07s-.07-.03-.07-.07a.07.07 0 0 1 .07-.07c.038 0 .07.032.07.07z" class="H"/><path d="M211.19 84.48l.04.1 4.507-.08-4.548-.02z" class="D"/></g><path d="M247.96 46.062h13.046c1.55 0 2.8 1.248 2.8 2.794v66.06c0 1.543-1.25 2.795-2.8 2.795H247.96V46.062z" fill="#6a8689"/><path d="M261.388 85.59a6.43 6.43 0 0 0-2.041-8.856c-3.008-1.882-6.972-.968-8.853 2.042a6.43 6.43 0 0 0 2.041 8.856c3.008 1.882 6.972.968 8.853-2.042z" fill="#fff"/><path d="M255.938 86.598a4.411 4.411 0 1 0 0-8.822 4.411 4.411 0 1 0 0 8.822zm-123.286-40.54v71.648h-7.716c-1.546 0-2.797-1.252-2.797-2.794V48.86c0-1.546 1.25-2.798 2.797-2.798l7.716-.004z" fill="#6a8689"/><g fill="#a3acb2"><path d="M149.75 41.252L116.1 65.86V47.406a6.5 6.5 0 0 1 1.422-4.076l9.377-2.49h19.97l2.882.4z" fill-opacity=".1"/><path d="M261.595 85.402l-2.134-11.14c-2.49 2.828-8.83 6.352.034 31.38l6.17 17.632h11.1l-15.16-37.873z" fill-opacity=".37"/></g><path d="M116.1 60.05c-1.755-2.32-4.07-4.374-4.07-4.374l-8.26 8.52s2.58 4.65 4.905 5.163c1.638.365 5.195-.555 7.426-2.217V60.05z" fill="#e88f77"/><path d="M84.462 44.177s-8.31 29.543-9.593 29.688-24.143.168-24.143.168c.17-.8 5.988-24.86 9.888-27.12.473-.276 1.18-.525 2.063-.75 1.374-.354 3.165-.645 5.128-.883 7.165-.88 16.658-1.103 16.658-1.103z" class="F"/><path d="M68.69 45.983l-9.575 21.89c-.607 1.5-5 .574-5 .574s4.435-6.616 6.372-12.428c1.33-3.994 1.937-7.838 2.186-9.858 1.374-.354 3.166-.645 5.128-.883l.9.704z" class="E"/><path d="M96.39 36.685S87.19 65.96 85.904 66.067s-25.618.335-25.618.335c.2-.794 11.32-28.68 15.287-30.824.618-.335 1.546-.533 2.678-.64 2.32-.22 5.493-.02 8.532.313a135.76 135.76 0 0 1 9.608 1.434z" class="F"/><path d="M86.786 35.25l-3.728 7.734c-.75 1.878-8.457 16.52-9.016 17.6s-6.472 1.58-6.472 1.58 6.7-8.203 9.992-18.33c1.23-3.755.715-7.384.693-8.896 2.32-.22 5.493-.02 8.532.313z" class="E"/><path d="M134.213 44.307c-.067.697-5.17.898-12.417 2.116-5.478.913-12.185 2.407-18.862 5.126-.004.004-3.244 8.356-3.25 8.36l-2.47 1.002c-9.496 3.837-17.198 6.8-17.578 6.773-1.028-.097-7.95-6.46-7.95-6.46s11.67-21.98 15.097-25.285c3.422-3.312 18.368-7.864 23.07-8.196 1.743-.123 5.575 1.84 9.694 4.47 1.788 1.144 3.63 2.407 5.378 3.68l.257.186c2.245 1.64 4.316 3.282 5.913 4.68 1.933 1.695 3.162 3.025 3.118 3.547z" class="F"/><path d="M131.088 40.753c-1.147.674-4.804 2.917-9.292 5.666L99.694 59.894c-.924.54-1.467.85-1.52.85-.07-.007-.428.056-.965.164-2.406.466-8.42 1.8-8.42 1.8l-11.645-4.344c7.255-4.113 11.958-7.887 14.54-11.206 4.13-5.312 3.437-10.312 3.437-10.312s5.228 1.092 9.943-.797 6.197-4.262 6.197-4.262 2.145 1.29 8.286.417c1.788 1.144 3.63 2.407 5.378 3.68.07.16.152.23.257.186 2.238 1.643 4.308 3.286 5.906 4.683z" class="E"/><path d="M157.432 128.077c.034.328.052.656.037.98-.014.608-.104 1.2-.268 1.766l-.022.075c-.667 2.086-3.914 2.403-7.835 2.417h-.708l-5.177-.018-.636.015-1.88.093c-.626.045-1.296.16-2.007.32-6.91 1.602-17.567 8.234-27.164 11.043-10.587 3.1-22.575.838-30.977 5.938l-42.723 25.95 2.39-2.656-13.615 2.273-.082-.127-11.053-17.336c-7.562-11.857-.818-27.563 12.705-31.418 7.502-2.14 14.137-4.474 16.365-6.513 2.484-2.273 2.968-45.32 7.876-52.55s29.688-11.746 33.3-14.07c1.728-1.1 12.647-8.908 17.424-12.268 3.222-2.26 21.25-8.017 23.1-8.4 3.035-.603 9.82-1.412 17.682-1.617 5.523-.138 11.742.503 12.487 1.356.883 1.006 1.277 1.86.678 3.97-.276.97-.585 1.572-1.624 2.802l-.506.59c-.77.875-2.034 1.5-3.42 2.064-3.78 1.54-20.393 1.293-28.653 6.717-3.866 2.533-11.102 5.678-17.038 18.333-2.897 6.17-5.448 16.515-3.873 28.664.98 7.555 3.478 13.527 6.588 17.566 2.625 3.416 5.686 5.46 8.643 5.934 6.454 1.032 24.978-1.162 31.428.902 4.92 1.576 8.23 4.15 8.554 7.197z" class="F"/><path d="M155.708 40.112l-.506.6c-.77.876-2.034 1.5-3.42 2.064-3.78 1.54-20.393 1.293-28.653 6.717-3.866 2.533-11.102 5.678-17.038 18.333-2.897 6.17-5.448 16.515-3.873 28.664.98 7.555 3.478 13.527 6.588 17.566-4.25-3.968-9.34-10.2-10.204-26.734-.782-15 6.197-23.627 8.264-26.983s3.485-7.745 3.485-7.745 8.905-3.1 12.517-5.424 6.584-6.07 6.584-6.07 8.4 1.55 16.133.775c3.8-.38 8.145-1.23 10.122-1.75zm-14.624 93.325c.017.008.035.01.052.005.068-.02.066-.12-.002-.137-.938-.234-1.868-.448-2.63-.37-3.55.373-19.507 5.183-29.573 8.472s-26.717-1.162-38.14 3.293c-7 2.735-26.817 10.14-42.916 18.386l-1.3.64c-3.62 1.735-4.47 5.13-2.312 8.515l2.2 3.466c.176.276.467.457.792.492l10.573 1.14c2.85.307 5.68-.614 7.87-2.462 7.053-5.95 23.7-19.07 36.5-21.844 12.643-2.745 18.975-5.163 29.558-8.263 9.594-2.8 20.256-9.44 27.164-11.042.708-.164 1.378-.276 2.007-.32.05-.01.1.005.146.028z" class="E"/><path d="M158.3 37.05c-.2.082-.447.153-.75.205-2.04.37-6.245.1-7.705-.462-1.68-.648-3.035-3.68-3.742-4.52 0 0 2.13-.455 6.066-.32 2.275.075 4.12.43 5.422.9.95.335 1.613.723 1.937 1.106.77.91.253 2.46-1.23 3.1z" class="K"/><path d="M158.3 37.05c-.2.082-.447.153-.75.205.35-.484.943-1.405.812-2.53-.1-.86-.454-1.48-.774-1.88.95.335 1.612.723 1.936 1.106.775.91.257 2.46-1.225 3.1z" class="L"/><path d="M156.412 132.91c-1.657.4-3.683.59-4.957.686-2.517.194-6.662-.276-6.662-.276.517-1.773 3.63-3.275 7.437-3.662 2.085-.212 3.888-.417 5.14-.23 1.035.153 1.683.57 1.8 1.475.13.99-1.136 1.6-2.756 2.008z" class="K"/><path d="M156.412 132.91c.298-.286.666-.76.87-1.475.2-.663.134-1.546.086-2.008 1.035.153 1.683.57 1.8 1.475.13.99-1.136 1.6-2.756 2.008z" class="L"/><path d="M97.508 94.54s1.84 10.65 5.325 17.044 6.197 8.23 6.197 8.23-4.3-2.3-7.742-8.327c-4.264-7.458-3.78-16.947-3.78-16.947z" class="E"/><path d="M366 205.046L322.77 222s-10.457-25.374-21.332-32.635a33.91 33.91 0 0 1-3.21-2.418c-3.046-2.585-5.504-5.547-7.54-8.758-1.475-2.325-2.73-4.784-3.82-7.317-1.72-3.986-3.75-12.38-5.534-20.136l-.097-.417-3.475-14.455-.122-.417c-1.606-5.324-2.563-10.428-2.872-14.764-.44-6.08.395-10.666 2.5-12.276 5.802-4.422 8.275-3.755 11.005-2.462 1.143.544 2.33 1.192 3.825 1.62.558.16 1.162.29 1.82.373 3.992.5 4.502-1.72 7.858-1.993.234-.02.487-.026.76-.026 4.316.03 7.292 1.96 10.078 3.498h.003c1.1.61 2.2 1.158 3.31 1.5 2.7.823 4.108.678 5.437.484h.004c1.594-.234 3.072-.536 6.543.7 1.445.506 3.188 1.6 4.972 2.715h.004c2.443 1.54 4.968 3.156 6.96 3.502.8.142 1.75.257 2.812.462 3.508.686 8.13 2.366 11.8 9.13.428.787 1.09 3.88 1.706 8.1v.018c1.515 10.454 2.93 27.706 1.463 33.015-2.063 7.462-2.942 9.47-1.82 13.505 1.12 4.046 10.193 22.506 10.193 22.506z" class="F"/><path d="M285.288 100.528s4.57 7.108 8.643 7.413 6.227-2.082 7.296-1.52 2.167 3.35 1.832 4.518c-.335 1.174-6.93 6.33-6.93 6.33s-8.838-.175-10.1-1.4c-1.255-1.2-.74-15.352-.74-15.352z" fill="#ffa373"/><path d="M301.223 188.9l-2.986-1.952-6.823-4.38-8.852-5.4c-1.937-1.118-4.25-3.364-6.6-6.076-5.594-6.486-11.374-15.65-12.774-18.494-.596-1.218-1.758-3.32-3.05-5.714-3.005-5.548-8.3-14.615-7.66-16.02 2.2-4.854 12.684-4.564 18.28 3.804 2.6 3.9 7.43 12.27 10.58 16.083l3.102 3.72 17.936 25.14-1.155 9.298zm-2.506-70.058l-19.745 20.092-1.326-3.5c-3.005-8.062-7.1-19.902-9.962-26.015-3.318-7.07-8.44-19.983-9.947-23.362s-7.828-20.6-4.424-25.165a11.54 11.54 0 0 1 .443-.559c3.296-3.904 6.986-2.708 8.148-1.524 1.218 1.233 9.065 19.067 13 25.836 3.84 6.605 10.007 13.807 13.388 21.287l.253.566c3.307 7.7 10.17 12.335 10.17 12.335z" class="F"/><path d="M325.865 220.8l-3.087 1.2s-10.46-25.374-21.33-32.635a34.62 34.62 0 0 1-3.211-2.418c-4.03-2.615-11.146-7.186-15.674-9.787-1.94-1.117-4.253-3.364-6.6-6.076 4.167 2.083 9.943 4.493 14.732 7.108 1.698.928 3.274 1.882 4.6 2.854l6.32 4.653c4.622 3.562 8.808 7.432 13.087 13.87 4.443 6.68 8.98 16.366 11.153 21.22zM366 205.045l-3.8 1.487c-3.08-6.64-10.543-17.338-11.314-21.5-1.1-5.983 1.363-12.052 3.642-20.214 2.674-9.574 1.96-23.757 1.628-28.787 1.515 10.458 2.93 27.707 1.463 33.02-2.063 7.462-2.942 9.47-1.82 13.5S366 205.045 366 205.045z" class="E"/><path d="M264.05 67.38c-.015.063-.037.12-.067.183-.5 1.106-2.718 2.15-4.588 2.153-.424.004-.83-.052-1.19-.168-1.498-.48-3.185-3.327-3.702-5.558-.2-.857-.227-1.62-.008-2.124 1.32-2.973 5.99-3.59 7.15-2.675.15.116.305.313.458.57 1.087 1.755 2.297 6.378 1.947 7.618z" class="K"/><path d="M262.102 59.76c-1.017-.142-2.28.052-3.7.708-2.796 1.278-3.217 2.59-3.895 3.524-.2-.857-.227-1.62-.007-2.123 1.318-2.973 5.988-3.59 7.15-2.675.153.112.305.31.462.566z" class="L"/><path d="M281.858 151.362c-.004.018-.004.03-.004.03l-.063-.115-.544-.958-3.474-14.454-.123-.418c-3.006-8.06-7.1-19.9-9.962-26.014-3.318-7.07-8.44-19.984-9.947-23.363s-7.828-20.6-4.425-25.165a12.2 12.2 0 0 1 .444-.559c-.447 2.35-.786 7.32.815 12.566 2.2 7.24 6.462 11.158 6.462 11.158s1.214 8.42 4.174 14.034 6.648 9.42 6.648 9.42.9 7.675 2.92 13.158c.492 1.338.984 2.564 1.445 3.532a71.01 71.01 0 0 1 4.574 12.872 53.35 53.35 0 0 1 .908 4.385c.913 5.618.22 9.522.153 9.9zm18.877 29.56l-9.325 1.647-8.852-5.4c-1.936-1.117-4.25-3.364-6.6-6.076-5.594-6.486-11.373-15.65-12.774-18.493-.595-1.218-1.854-3.427-3.146-5.823 2.826 2.913 6.156 7.943 9.34 11.68 8.666 10.163 14.888 12.6 17.808 14.85s13.548 7.626 13.548 7.626zm19.827-63.865s-2.98-3.685-7.932-7.634c1.1.6 2.2 1.16 3.3 1.502 2.7.823 4.108.678 5.437.484-.268.264-.518.574-.704.924-.838 1.572-.112 4.724-.112 4.724zm22.108 1.722c-.533.253-1.084.56-1.453.9-.96.872-.6 2.973-.6 2.973s-3.307-4.33-7.72-7.83c2.443 1.54 4.968 3.156 6.96 3.502l2.812.466zm-40.88-12.832c-.98.43-2.223 1.07-2.76 1.744-.954 1.18-1.144 4.97-1.144 4.97s-2.588-2.545-5.776-5.093a11.98 11.98 0 0 0 1.82.372c3.993.496 4.503-1.724 7.858-1.993zm-20.952 24.927s2.6 8.696 2.77 14.366c.105 3.308-.298 6.784-.298 6.784s2.026-2.634 2-6.944c-.052-6.386-4.46-14.206-4.46-14.206z" class="E"/><path d="M262.37 139.515c-.428 1.404-2.56 2.228-4.42 1.386-1.87-.84-5.817-6.725-6.338-8.766a3.12 3.12 0 0 1-.086-.671c-.033-.9.205-2.21 1.5-2.712 2.737-1.07 5.273.335 6.517 2.1.02.022.034.048.052.07 1.218 1.792 3.2 7.205 2.786 8.602z" class="K"/><path d="M259.525 130.85c-1.274-.44-4.12-1.26-6.01-.614-1.158.395-1.724.857-1.993 1.233-.033-.89.205-2.21 1.5-2.712 2.734-1.066 5.273.34 6.514 2.093z" class="L"/><defs><linearGradient id="A" x1="210.366" y1="86.008" x2="227.763" y2="85.633" gradientUnits="userSpaceOnUse"><stop stop-color="#6b6a6a"/><stop offset=".56" stop-color="#cecece"/><stop offset=".574" stop-color="#cacaca"/><stop offset=".771" stop-color="#979696"/><stop offset=".918" stop-color="#777676"/><stop offset="1" stop-color="#6b6a6a"/></linearGradient><linearGradient id="B" x1="220.982" y1="82.553" x2="226.59" y2="82.19" gradientUnits="userSpaceOnUse"><stop stop-color="#6b6a6a"/><stop offset=".56" stop-color="#cecece"/><stop offset=".574" stop-color="#cacaca"/><stop offset=".771" stop-color="#979696"/><stop offset=".918" stop-color="#777676"/><stop offset="1" stop-color="#6b6a6a"/></linearGradient><clipPath id="C"><path fill="#fff" d="M151.86 52.938h75.93v55.5h-75.93z"/></clipPath></defs></svg>