<svg xmlns="http://www.w3.org/2000/svg" xmlns:xlink="http://www.w3.org/1999/xlink" width="277" height="299" fill="none" xmlns:v="https://vecta.io/nano"><g clip-path="url(#A)"><g fill="#2a58a1"><path d="M277 163.93c-9.79 0-17.723-7.46-17.723-16.652l.017-82.45c0-10.747-5.558-19.466-12.404-19.466h-1.706c-6.855 0-18.088 8.71-18.088 19.466h-54.053v68.84H138.64v30.263H277z"/><path opacity=".3" d="M261.966 163.93c-8.722 0-15.797-7.46-15.797-16.652l.017-82.45c0-10.747-4.947-19.466-11.055-19.466h-1.52c-6.11 0-16.128 8.71-16.128 19.466h-48.182v68.84h-30.67v30.263h123.334z"/></g><path d="M248.196 45.37H134.49c-9.222 0-16.697 8.71-16.697 19.466v.963h-.042V217.7c0 10.746-4.174 19.465-11.768 19.465h114.18c7.593 0 13.744-8.7 13.744-19.465l-.01-152.863c0-10.747 5.074-19.457 14.296-19.457z" fill="#e9f5f3"/><path opacity=".6" d="M234.69 45.716H120.984c-9.222 0-16.696 8.71-16.696 19.466v.963h-.043v151.89c0 10.747-4.174 19.466-11.767 19.466h114.17c7.594 0 13.745-8.71 13.745-19.466l-.01-152.862c.01-10.747 5.082-19.457 14.304-19.457z" fill="#dedede"/><path d="M213.52 217.673v-3.92h.026V32.536c0-10.747-6.923-19.466-15.458-19.466h-2.12c-8.535 0-22.543 8.71-22.543 19.466h-67.34v68.84H63.233V217.68c0 10.747 9.68 19.466 21.618 19.466h144.68c-11.937-.008-16-8.72-16-19.474z" fill="#2a58a1"/><g opacity=".06"><path opacity=".06" d="M67.034 279.162L8.8 228.808 150.56 0l58.244 50.354-141.77 228.808z" fill="#fff"/></g><path opacity=".46" d="M119.746 65.114c-.01 1.225-.85 2.214-1.884 2.214s-1.866-.99-1.866-2.214c.008-1.225.848-2.214 1.883-2.214 1.044 0 1.875.99 1.867 2.214z" fill="gray"/><path d="M52.958 13.57h140.285c-2.94.94-5.39 2.507-7.305 4.54-3.233 3.433-4.9 8.156-4.9 13.336v167.977c0 3.854-3.143 6.986-7.017 6.986l-135.128.017c-3.875 0-7.017-3.125-7.017-6.977h0l-.008-168.003c0-9.798 9.37-17.876 21.1-17.876z" fill="#fff" stroke="#2a58a1"/><g fill="#7d7d7d"><use xlink:href="#B"/><path d="M155.337 77.906H105.73a1.7 1.7 0 0 1-1.705-1.698 1.7 1.7 0 0 1 1.705-1.698h49.607a1.7 1.7 0 0 1 1.705 1.698c0 .946-.763 1.698-1.705 1.698z"/></g><g fill="#a3bbc4"><path d="M155.337 94.228H105.73a1.7 1.7 0 0 1-1.705-1.698 1.7 1.7 0 0 1 1.705-1.698h49.607a1.7 1.7 0 0 1 1.705 1.698 1.7 1.7 0 0 1-1.705 1.698zm0 9.302H105.73a1.7 1.7 0 0 1-1.705-1.698 1.7 1.7 0 0 1 1.705-1.698h49.607a1.7 1.7 0 0 1 1.705 1.698 1.7 1.7 0 0 1-1.705 1.698zm0 12.9H54.58a1.7 1.7 0 0 1-1.705-1.698c0-.938.764-1.698 1.705-1.698h100.758a1.7 1.7 0 0 1 1.705 1.698 1.7 1.7 0 0 1-1.705 1.698zm0 8.28H54.58a1.7 1.7 0 0 1-1.705-1.698c0-.938.764-1.7 1.705-1.7h100.758a1.7 1.7 0 0 1 1.705 1.7 1.7 1.7 0 0 1-1.705 1.698zM109.2 150.497H85.7a1.7 1.7 0 0 1-1.705-1.698c0-.938.764-1.698 1.705-1.698h23.5a1.7 1.7 0 0 1 1.705 1.698 1.7 1.7 0 0 1-1.705 1.698zm20.133-9.31H85.7a1.7 1.7 0 0 1-1.705-1.698c0-.938.764-1.698 1.705-1.698h43.643a1.7 1.7 0 0 1 1.705 1.698c0 .946-.763 1.698-1.705 1.698zM73.66 157.02H53.722v-19.846h19.93v19.846h.008zm-17.537-2.382h15.144v-15.08H56.123v15.08z"/></g><path d="M63.173 151.612l-4.93-3.97 1.833-1.977 2.825 2.273 4.955-5.348 2.096 1.7-6.78 7.333z" fill="#c3d82e"/><g fill="#a3bbc4"><path d="M144.63 180.777H85.7a1.7 1.7 0 0 1-1.705-1.698c0-.938.764-1.698 1.705-1.698h58.93a1.7 1.7 0 0 1 1.705 1.698 1.7 1.7 0 0 1-1.705 1.698zm10.707-9.302H85.7a1.7 1.7 0 0 1-1.705-1.698c0-.938.764-1.698 1.705-1.698h69.647a1.7 1.7 0 0 1 1.705 1.698 1.7 1.7 0 0 1-1.705 1.698zM73.66 187.308H53.722v-19.855h19.93v19.855h.008zm-17.537-2.4h15.144v-15.08H56.123v15.08z"/></g><path d="M63.173 181.892l-4.93-3.97 1.833-1.977 2.825 2.273 4.955-5.348 2.096 1.7-6.78 7.333z" fill="#c3d82e"/><path d="M149.084 150.412l-.882-.042-1.79-7.874-1.476 6-.874.06-.687-1.74-.34.77-.416.27h-5.7c-.254 0-.458-.203-.458-.456s.204-.456.458-.456h5.413l.662-1.496.848.017.56 1.42 1.595-6.47.89.008 1.858 8.17.44-1.326.433-.313h5.947c.255 0 .46.203.46.456s-.204.456-.46.456h-5.616l-.857 2.56z" fill="#fff"/><path d="M92.062 104.173H55.81c-1.637 0-2.96-1.318-2.96-2.95V66.78c0-1.63 1.324-2.95 2.96-2.95h36.253c1.637 0 2.96 1.318 2.96 2.95v34.437a2.96 2.96 0 0 1-2.961 2.957z" fill="#d5eded"/><path d="M73.717 70.22s3.432-.133 1.208.696c-3.22 1.205-16.61 7.986-15.467 19.325 1.577 15.723 14.616 11.46 14.616 11.46s12.96.75 13.3-14.113c.212-9.172-10.972-18.52-13.667-17.37z" fill="#230905"/><path d="M75.344 97.505l.162-2.703c.072-1.426-.918-2.643-2.195-2.71-1.284-.066-2.507 1.27-2.58 2.697l-.312 2.9c2.028.585 4.085.257 4.925-.185z" fill="#ed8c73"/><path d="M75.744 70.19c-1.15-.125-2.32-.072-3.453.197-2.505.584-4.616 2.084-6.266 4.073-.47.572-.89 1.185-1.26 1.828l-.052.09c-3.197 5.693-2.633 14.93 3.33 18.557 1.39.846 2.813 1.275 4.226 1.364 5.894.38 11.47-5.157 12.4-11.202.965-6.24-2.064-14.156-8.923-14.906z" fill="#f9a184"/><path d="M75.804 89.302l-7.28-.588c-.428-.035-.758.38-.62.8.642 1.892 2.124 3.276 3.94 3.42s3.507-.98 4.444-2.745c.197-.38-.058-.842-.486-.877z" fill="#fff"/><path d="M83.885 88.532c-.377-.126-.714-.366-.99-.665-1.7 3.43-4.76 6.59-8.322 7.543a10.46 10.46 0 0 1-5.85-.114c1.19.606 2.406.93 3.61 1 4.4.282 8.617-2.662 10.917-6.66a1.5 1.5 0 0 0 .265.162c1.014.462 2.36-.33 3.026-1.775a2.67 2.67 0 0 1-2.654.51z" fill="#ed8c73"/><path opacity=".1" d="M66.488 84.872c3.288.942 6.676 1.552 10.1 1.208 3.282-.332 6.417-1.54 9.594-2.38l.358-.09c-.458-1.63-1.198-3.216-2.108-4.697-1.07-4.365-3.993-8.2-8.737-8.725-1.163-.124-2.343-.07-3.488.195-2.53.58-4.662 2.073-6.33 4.05a13.44 13.44 0 0 0-1.274 1.819l-.053.09c-.534.942-.963 1.978-1.286 3.068-.85 1.072-1.597 2.233-2.178 3.49 1.68.912 3.57 1.445 5.402 1.972z" fill="#000"/><path d="M81.486 79.46c-2.07-2.182-5.346-2.904-8.246-3.297-2.177-.293-4.293-.258-6.332.235-2.093-.862-3.498-1.9-3.247-3.127.77-3.842 3.982-6.16 7.792-7.004 5.406-1.203 12.02.557 14.578 5.115 1.56 2.775 1.597 6.118 1 9.116a15.62 15.62 0 0 1-.305 1.267c-.042.153-.227.23-.383.164l-4.33-1.783c-.137-.235-.317-.463-.526-.686z" fill="#ffb112"/><path d="M59.4 79.802s.1 1.306 2.683 1.306c0 0 2.807-4.677 7.425-4.217 4.977.496 7.708 2.666 7.708 2.666s-9.123-7.882-13.092-5.657c-3.975 2.22-4.76 4.456-4.724 5.903z" fill="#e59800"/><path d="M84.842 81.622s-6.557.975-8.802-.422c-2.245-1.39-3.083-5.925-8.464-6.216s-8.13 4.78-8.13 4.78-.695-2.412 2.857-5.49 17.243-2.32 22.54 7.35z" fill="#ffc83f"/><path opacity=".13" d="M78.266 75.194c1.448.787 2.816 1.766 4.03 2.966l-6.705 2.948c-1.177-.915-2.02-2.64-3.476-4.032l6.15-1.882z" fill="#fff"/><path d="M59.444 79.08s2.75-5.012 8.13-4.72c5.38.287 6.22 4.764 8.464 6.138 1.912 1.17 6.967.648 8.4.467.137.214.267.434.392.66 0 0-6.557.963-8.802-.417-2.245-1.374-3.083-5.85-8.464-6.138s-8.13 4.72-8.13 4.72-.095-.327-.036-.9c.012.124.036.192.036.192z" fill="#ffb32a"/><path opacity=".17" d="M253.465 228.436l-41.7-44.212-3.546 3.37-10.682-11.32c17.316-20.505 17.605-50.37-.263-69.313-19.242-20.395-52.237-20.395-73.693 0s-23.256 53.472-4.013 73.867c17.867 18.942 47.596 20.285 68.925 4.038l10.682 11.322-3.547 3.37 41.708 44.212c3.996 4.233 10.843 4.233 15.297 0 4.446-4.233 4.82-11.102.832-15.335zM128.45 172.38c-14.838-15.73-13.455-41.23 3.097-56.96 16.544-15.732 41.988-15.732 56.827 0s13.456 41.23-3.096 56.96c-16.545 15.723-41.99 15.723-56.828 0z" fill="#000"/><path d="M119.025 93.18c-21.466 20.387-22.967 53.76-3.343 74.526s52.924 21.088 74.39.7 22.967-53.76 3.343-74.526c-19.616-20.784-52.924-21.096-74.39-.7zm7.975 8.45c16.544-15.732 41.988-15.732 56.827 0s13.456 41.23-3.097 56.96c-16.544 15.73-41.988 15.73-56.827 0s-13.456-41.23 3.097-56.96z" fill="#212121"/><path d="M182.868 171.593l13.948 15.335 8.968-8.67-13.948-15.342-8.968 8.676z" fill="#383838"/><path d="M188.74 182.923c-.416 1.15-.144 2.425.696 3.32l40.334 42.758c3.996 4.233 10.842 4.233 15.297 0s4.827-11.1.83-15.334l-40.29-42.708c-.866-.92-2.19-1.268-3.41-.904-6.22 1.85-11.165 6.497-13.337 12.512l-.12.355z" fill="#7d7970"/><path opacity=".73" d="M182.89 156.308c15.923-17.4 15.42-43.675-1.123-58.7s-42.864-13.082-58.787 4.317-15.42 43.675 1.123 58.7 42.863 13.082 58.787-4.317z" fill="#5594b9"/><path d="M116.013 92.192C94.556 112.588 92.758 145.664 112 166.06s52.237 20.396 73.693 0 23.255-53.47 4.013-73.867-52.237-20.395-73.693 0zm7.975 8.45c16.544-15.73 41.988-15.73 56.827 0s13.456 41.23-3.097 56.96c-16.544 15.732-41.988 15.732-56.827 0-14.84-15.723-13.447-41.23 3.097-56.96z" fill="#4f4f4f"/><path d="M124.437 124.145c.382-.245.67-.633.8-1.098 1.688-6.8 5.888-12.673 11.826-16.55 5.94-3.87 12.905-5.28 19.616-3.954a1.83 1.83 0 0 0 2.087-1.36c.23-.93-.33-1.834-1.247-2.02-7.602-1.495-15.492.093-22.22 4.477s-11.488 11.043-13.397 18.748c-.23.93.33 1.833 1.247 2.02.46.093.925-.017 1.298-.262z" fill="#fff"/><g opacity=".14" stroke="#fff" stroke-width="3.524" stroke-miterlimit="10" stroke-linecap="round"><path opacity=".14" d="M237.676 214.192l-21.482-22.88m-3.988-4.46l-9.757-10.392"/></g><path opacity=".32" d="M244.7 228.42c3.105-3.092 4.632-6.573 3.42-7.79-1.213-1.208-4.717.312-7.823 3.405s-4.632 6.573-3.42 7.79c1.222 1.21 4.717-.312 7.823-3.405z" fill="#212121"/></g><defs><clipPath id="A"><path fill="#fff" d="M0 0h277v299H0z"/></clipPath><path id="B" d="M155.337 68.604H105.73a1.7 1.7 0 0 1-1.705-1.698 1.7 1.7 0 0 1 1.705-1.698h49.607a1.7 1.7 0 0 1 1.705 1.698 1.7 1.7 0 0 1-1.705 1.698z"/></defs></svg>